<svg data-name="그룹 918" xmlns="http://www.w3.org/2000/svg" width="40" height="40" viewBox="0 0 40 40">
    <defs>
        <clipPath id="m6220m4eza">
            <path data-name="사각형 1961" style="fill:none" d="M0 0h40v40H0z"/>
        </clipPath>
        <clipPath id="jf9y5xyznb">
            <path data-name="패스 2778" d="M2.059 20.062a18 18 0 1 0 18-18 18 18 0 0 0-18 18" style="fill:none"/>
        </clipPath>
    </defs>
    <g data-name="그룹 914">
        <g data-name="그룹 913" style="clip-path:url(#m6220m4eza)">
            <path data-name="패스 2776" d="M20 0A20 20 0 1 1 0 20 20 20 0 0 1 20 0" style="fill:#fff"/>
            <circle data-name="타원 294" cx="19" cy="19" r="19" transform="translate(1 1)" style="stroke:#910004;stroke-width:2px;fill:none"/>
        </g>
    </g>
    <g data-name="그룹 916">
        <g data-name="그룹 915" style="clip-path:url(#jf9y5xyznb)">
            <path data-name="패스 2777" d="M4.163 38.993A5.075 5.075 0 0 0 7.5 37.451a2.888 2.888 0 0 0 .433-2.52C6.407 31.924 1.879 24.433 9.947 15c4.455-5.1 11.915-5.785 15.442-5.414s4.287 2.374 4.291 3.72a2.438 2.438 0 0 1-3.645 2.124 3.183 3.183 0 0 0-.6-3.745.658.658 0 0 0-.919.941A1.871 1.871 0 0 1 22 15.394a2.7 2.7 0 0 0-.785-1.438.658.658 0 0 0-.909.949 1.4 1.4 0 1 1-1.982.045.657.657 0 1 0-.907-.95.459.459 0 0 0-.037.039 2.713 2.713 0 0 0-.139 3.592 15.021 15.021 0 0 0-1.269 5.669c-.286 4.474 1.925 9.424 9.1 12.146 2.584.98 10.364 3.043 12.991 3.017" style="fill:#ff2300"/>
        </g>
    </g>
</svg>
