<svg xmlns="http://www.w3.org/2000/svg" width="44" height="44" viewBox="0 0 44 44">
  <g id="그룹_611" data-name="그룹 611" transform="translate(-212 -301)">
    <rect id="사각형_1859" data-name="사각형 1859" width="44" height="44" transform="translate(212 301)" fill="none"/>
    <g id="lacation" transform="translate(217 302)">
      <path id="패스_997" data-name="패스 997" d="M17.315,25.063A7.35,7.35,0,0,0,24.678,17.7a7.577,7.577,0,0,0-7.363-7.626,7.35,7.35,0,0,0-7.363,7.363A7.761,7.761,0,0,0,17.315,25.063ZM4.956,5.078A17.479,17.479,0,1,1,29.675,29.8L17.315,42.156,4.956,29.8A17.956,17.956,0,0,1,4.956,5.078Z" transform="translate(-0.025 0.05)" fill="#910004" fill-rule="evenodd"/>
      <circle id="타원_272" data-name="타원 272" cx="11" cy="11" r="11" transform="translate(6 6.103)" fill="#910004"/>
      <circle id="타원_273" data-name="타원 273" cx="7" cy="7" r="7" transform="translate(10 10.103)" fill="#fff"/>
    </g>
  </g>
</svg>
