<svg xmlns="http://www.w3.org/2000/svg" width="20" height="20" viewBox="0 0 20 20">
  <g id="그룹_598" data-name="그룹 598" transform="translate(-14.111 -6.495)">
    <path id="패스_1007" data-name="패스 1007" d="M6.985,10.06A2.959,2.959,0,0,0,9.949,7.1a3.05,3.05,0,0,0-2.964-3.07A2.959,2.959,0,0,0,4.021,6.99,3.124,3.124,0,0,0,6.985,10.06ZM2.01,2.014a7.036,7.036,0,0,1,9.951,9.951L6.985,16.941,2.01,11.965A7.228,7.228,0,0,1,2.01,2.014Z" transform="translate(17.086 9.05)" fill="#ff2300" fill-rule="evenodd"/>
    <rect id="사각형_1855" data-name="사각형 1855" width="20" height="20" transform="translate(14.111 6.495)" fill="none"/>
  </g>
</svg>
