<svg xmlns="http://www.w3.org/2000/svg" width="88" height="88" viewBox="0 0 88 88">
    <defs>
        <clipPath id="clip-path">
            <path id="패스_2794" data-name="패스 2794" d="M0 33.17h72v-88H0z" transform="translate(0 54.83)" style="fill:none"/>
        </clipPath>
        <clipPath id="clip-path-2">
            <path id="사각형_2119" data-name="사각형 2119" style="fill:#fff" d="M0 0h47.999v39.748H0z"/>
        </clipPath>
        <style>
            
        </style>
    </defs>
    <g id="그룹_1295" data-name="그룹 1295" transform="translate(-129 -220)">
        <g id="그룹_1013" data-name="그룹 1013">
            <path id="합치기_6" data-name="합치기 6" d="M-2862.556 3185.7h.333a36.8 36.8 0 0 1-11.777-27.084c0-20.223 16.117-36.615 36-36.615s36 16.393 36 36.615a36.8 36.8 0 0 1-11.777 27.087h.33l-25.271 24.3z" transform="translate(3011.001 -2902)" style="fill:#e2898c"/>
        </g>
        <path id="사각형_1988" data-name="사각형 1988" transform="translate(129 220)" style="fill:none" d="M0 0h88v88H0z"/>
        <g id="그룹_1295-2" data-name="그룹 1295" transform="translate(149.001 237.402)">
            <g id="그룹_1295-3" data-name="그룹 1295" style="clip-path:url(#clip-path-2)">
                <path id="패스_3997" data-name="패스 3997" d="M26.338.865A2.934 2.934 0 0 0 24.25 0a2.987 2.987 0 0 0-1.117.219 2.934 2.934 0 0 0-1.472.8l-20.8 20.8A2.956 2.956 0 1 0 5.045 26l1.3-1.3v13.822a1.237 1.237 0 0 0 1.225 1.226h32.96a1.237 1.237 0 0 0 1.226-1.225V24.645l1.2 1.2a2.956 2.956 0 0 0 4.18-4.181zm-5.715 32.364a1.317 1.317 0 1 1 1.317-1.317 1.317 1.317 0 0 1-1.317 1.317M39.3 22.469V37.3h-9.419v-8.391a5.882 5.882 0 0 0-11.764 0V37.3H8.8V22.469a1.433 1.433 0 0 0-.017-.207l15.3-15.3 15.245 15.255a1.371 1.371 0 0 0-.024.251" style="fill:#fff"/>
                <path id="패스_3998" data-name="패스 3998" d="M56.815 12.448h2.207V5.365A2.273 2.273 0 0 0 57.8 1.174h-5.313a2.273 2.273 0 0 0-1.22 4.191V6.9z" transform="translate(-18.253 -.427)" style="fill:#fff"/>
            </g>
        </g>
    </g>
</svg>
