<svg xmlns="http://www.w3.org/2000/svg" width="88" height="88" viewBox="0 0 88 88">
    <defs>
        <clipPath id="clip-path">
            <path id="패스_2794" data-name="패스 2794" d="M0 33.17h72v-88H0z" transform="translate(0 54.83)" style="fill:none"/>
        </clipPath>
        <clipPath id="clip-path-2">
            <path id="사각형_2118" data-name="사각형 2118" style="fill:#fff" d="M0 0h54.548v54.548H0z"/>
        </clipPath>
        <style>
            
        </style>
    </defs>
    <g id="그룹_1294" data-name="그룹 1294" transform="translate(-129 -220)">
        <g id="그룹_1013" data-name="그룹 1013">
            <path id="합치기_6" data-name="합치기 6" d="M-2862.556 3185.7h.333a36.8 36.8 0 0 1-11.777-27.084c0-20.223 16.117-36.615 36-36.615s36 16.393 36 36.615a36.8 36.8 0 0 1-11.777 27.087h.33l-25.271 24.3z" transform="translate(3011.001 -2902)" style="fill:#e2898c"/>
        </g>
        <path id="사각형_1988" data-name="사각형 1988" transform="translate(129 220)" style="fill:none" d="M0 0h88v88H0z"/>
        <g id="그룹_1294-2" data-name="그룹 1294" transform="translate(145.726 230.726)">
            <g id="그룹_1294-3" data-name="그룹 1294" style="clip-path:url(#clip-path-2)">
                <path id="패스_3992" data-name="패스 3992" d="m19.34 46.179.628.045s1.668.119 3.882.262l.719.046V42.68l-.633-.041c-2.208-.142-3.871-.261-3.872-.261l-.725-.052zm1.353-2.4c.58.04 1.469.1 2.524.17v1.141a587.89 587.89 0 0 1-2.524-.17z" transform="translate(-6.994 -15.307)" style="fill:#fff"/>
                <path id="패스_3993" data-name="패스 3993" d="M37.421 49.068c1.825 0 5.571-.207 8.392-.382l.635-.039v-3.853l-.718.045c-4.022.248-6.895.38-8.309.38-1.387 0-4.182-.126-8.085-.366l-.718-.044v3.851l.635.039c3.985.244 6.733.368 8.168.368" transform="translate(-10.35 -16.2)" style="fill:#fff"/>
                <path id="패스_3994" data-name="패스 3994" d="m62.012 46.225.628-.045v-3.853l-.725.052s-1.554.111-3.649.246l-.633.041v3.852l.721-.047c2.1-.136 3.658-.247 3.658-.247m-3.025-2.291a803.11 803.11 0 0 0 2.3-.155v1.142c-.52.036-1.328.092-2.3.156z" transform="translate(-20.844 -15.307)" style="fill:#fff"/>
                <path id="패스_3995" data-name="패스 3995" d="M17.035 33.652a2.347 2.347 0 0 0-.726 1.653l-.536 4.361.258 2.364a2.355 2.355 0 0 0 1.4 2.108h-.456v1.438a1.619 1.619 0 0 0 1.617 1.618h4.156a1.619 1.619 0 0 0 1.617-1.618v-1.231h16.56v1.232a1.62 1.62 0 0 0 1.618 1.618H46.7a1.62 1.62 0 0 0 1.618-1.618v-1.438h-.338a2.353 2.353 0 0 0 1.4-2.108l.257-2.377-.537-4.349a2.341 2.341 0 0 0-.663-1.589c1.056-.135 1.807-.747 1.807-1.527 0-.887-.969-1.556-2.254-1.556a2.213 2.213 0 0 0-2.178 1.144c-3.027-5.2-3.686-5.2-4.051-5.2H23.648c-.357 0-.993 0-3.844 4.846a2.5 2.5 0 0 0-1.98-.79c-1.285 0-2.254.669-2.254 1.556 0 .693.593 1.251 1.465 1.462m30.951-1.665a1.558 1.558 0 0 1 .838.2 1.832 1.832 0 0 1-1.676 0 1.559 1.559 0 0 1 .838-.2M32.7 35.525c3.439 0 13.241-1.083 14.073-1.176a1 1 0 0 1 .969 1l.525 4.313-.243 2.255v.072a1 1 0 0 1-1 1h-28.64a1 1 0 0 1-1-1l-.249-2.315.522-4.244.005-.082a1 1 0 0 1 .969-1c.832.093 10.634 1.176 14.072 1.176m-14.879-3.538a1.558 1.558 0 0 1 .838.2 1.832 1.832 0 0 1-1.676 0 1.558 1.558 0 0 1 .838-.2" transform="translate(-5.631 -9.611)" style="fill:#fff"/>
                <path id="패스_3996" data-name="패스 3996" d="M27.274 0a27.274 27.274 0 1 0 27.274 27.274A27.274 27.274 0 0 0 27.274 0m0 50.973a23.7 23.7 0 1 1 23.7-23.7 23.7 23.7 0 0 1-23.7 23.7" style="fill:#fff"/>
                <path id="사각형_2117" data-name="사각형 2117" transform="rotate(-45 55.362 11.601)" style="fill:#fff" d="M0 0h48.909v4.996H0z"/>
            </g>
        </g>
    </g>
</svg>
