<svg xmlns="http://www.w3.org/2000/svg" xmlns:xlink="http://www.w3.org/1999/xlink" width="345" height="642" viewBox="0 0 345 642">
  <defs>
    <clipPath id="clip-path">
      <rect id="사각형_1949" data-name="사각형 1949" width="345" height="642" transform="translate(0 140)" fill="#800"/>
    </clipPath>
    <clipPath id="clip-path-2">
      <path id="패스_2620" data-name="패스 2620" d="M1178.5,2666.5c3.667,0,15.667-17.833,27-6.5s15.5,10,39.5,0,32.5-10.5,53.5-5.5,27.667-15.5,39-21.5,26.833-9,47.5-7c10.912,1.056,27.4-8.017,45.338-17.67,5.113-2.752,25.611,2.511,41.828-9.663,7.295-5.475,10.017-25.694,16.667-32.667,22-23.07-1.4-36.954-19.333-34-18.573,3.059-53,9-53,9s-31.9,15.291-47.667,15.667c-28,.667-65.167,21.333-89.833,32s-21.667,16.667-57,10-43.5-10-43.5-10Z" transform="translate(-1216.669 -2020)" fill="#11547d" opacity="0.58"/>
    </clipPath>
    <clipPath id="clip-path-3">
      <circle id="타원_267" data-name="타원 267" cx="20" cy="20" r="20" transform="translate(0 0)" fill="#fff" stroke="#910004" stroke-width="6"/>
    </clipPath>
    <clipPath id="clip-path-4">
      <rect id="사각형_1939" data-name="사각형 1939" width="36" height="34.183" transform="translate(0 0)" fill="#ff2300"/>
    </clipPath>
    <clipPath id="clip-path-5">
      <rect id="사각형_1938" data-name="사각형 1938" width="36" height="18.179" fill="#ff2300"/>
    </clipPath>
  </defs>
  <g id="마스크_그룹_45" data-name="마스크 그룹 45" transform="translate(0 -140)" clip-path="url(#clip-path)">
    <path id="패스_1152" data-name="패스 1152" d="M1178.5,2666.5c3.667,0,15.667-17.833,27-6.5s15.5,10,39.5,0,32.5-10.5,53.5-5.5,27.667-15.5,39-21.5,26.833-9,47.5-7c10.912,1.056,27.4-8.017,45.338-17.67,5.113-2.752,25.611,2.511,41.828-9.663,7.295-5.475,10.017-25.694,16.667-32.667,22-23.07-1.4-36.954-19.333-34-18.573,3.059-53,9-53,9s-31.9,15.291-47.667,15.667c-28,.667-65.167,21.333-89.833,32s-21.667,16.667-57,10-43.5-10-43.5-10Z" transform="translate(-1216.669 -2020)" fill="#11547d" opacity="0.58"/>
    <g id="lacation" transform="translate(243.091 360.625)">
      <path id="패스_997" data-name="패스 997" d="M17.315,25.063A7.35,7.35,0,0,0,24.678,17.7a7.577,7.577,0,0,0-7.363-7.626,7.35,7.35,0,0,0-7.363,7.363A7.761,7.761,0,0,0,17.315,25.063ZM4.956,5.078A17.479,17.479,0,1,1,29.675,29.8L17.315,42.156,4.956,29.8A17.956,17.956,0,0,1,4.956,5.078Z" transform="translate(-0.025 0.05)" fill="#910004" fill-rule="evenodd"/>
      <circle id="타원_272" data-name="타원 272" cx="11" cy="11" r="11" transform="translate(6 6.103)" fill="#910004"/>
      <circle id="타원_273" data-name="타원 273" cx="7" cy="7" r="7" transform="translate(10 10.103)" fill="#fff"/>
    </g>
    <g id="그룹_771" data-name="그룹 771">
      <g id="그룹_524" data-name="그룹 524" transform="translate(92.13 59.719)">
        <rect id="사각형_1838" data-name="사각형 1838" width="63" height="21" rx="10.5" transform="translate(136 388)"/>
        <text id="_13_km" data-name="13 km" transform="translate(168 403)" fill="#fff" font-size="12" font-family="SpoqaHanSansNeo-Medium, Spoqa Han Sans Neo" font-weight="500"><tspan x="-17.598" y="0">13 km</tspan></text>
      </g>
      <g id="그룹_525" data-name="그룹 525" transform="matrix(0.866, -0.5, 0.5, 0.866, -0.063, 247.347)">
        <line id="선_3" data-name="선 3" x1="40.789" y2="70.653" transform="translate(98.212 278.366)" fill="none" stroke="#000" stroke-linecap="round" stroke-width="2.5" stroke-dasharray="0.2 5"/>
        <path id="다각형_1" data-name="다각형 1" d="M5,0l5,10H0Z" transform="translate(139.27 268.254) rotate(29)"/>
        <path id="다각형_2" data-name="다각형 2" d="M5,0l5,10H0Z" transform="translate(97.66 360.146) rotate(-151)"/>
      </g>
    </g>
    <g id="마스크_그룹_43" data-name="마스크 그룹 43" opacity="0.5" clip-path="url(#clip-path-2)">
      <g id="그룹_857" data-name="그룹 857">
        <g id="그룹_854" data-name="그룹 854">
          <g id="그룹_852" data-name="그룹 852">
            <g id="그룹_848" data-name="그룹 848" transform="translate(14.135 9)">
              <line id="선_50" data-name="선 50" x1="13.04" y2="21.982" transform="translate(255.648 505.785)" fill="none" stroke="#fff" stroke-linecap="round" stroke-width="2"/>
              <line id="선_51" data-name="선 51" x1="13.04" y2="21.982" transform="translate(240 532.518)" fill="none" stroke="#fff" stroke-linecap="round" stroke-width="2"/>
              <line id="선_52" data-name="선 52" x1="13.04" y2="21.982" transform="translate(224 559.518)" fill="none" stroke="#fff" stroke-linecap="round" stroke-width="2"/>
              <line id="선_53" data-name="선 53" x1="13.04" y2="21.982" transform="translate(208 586.518)" fill="none" stroke="#fff" stroke-linecap="round" stroke-width="2"/>
              <line id="선_54" data-name="선 54" x1="13.04" y2="21.982" transform="translate(192 613.518)" fill="none" stroke="#fff" stroke-linecap="round" stroke-width="2"/>
            </g>
            <g id="그룹_851" data-name="그룹 851" transform="translate(-11.865 9)">
              <line id="선_50-2" data-name="선 50" x1="13.04" y2="21.982" transform="translate(255.648 505.785)" fill="none" stroke="#fff" stroke-linecap="round" stroke-width="2"/>
              <line id="선_51-2" data-name="선 51" x1="13.04" y2="21.982" transform="translate(240 532.518)" fill="none" stroke="#fff" stroke-linecap="round" stroke-width="2"/>
              <line id="선_52-2" data-name="선 52" x1="13.04" y2="21.982" transform="translate(224 559.518)" fill="none" stroke="#fff" stroke-linecap="round" stroke-width="2"/>
              <line id="선_53-2" data-name="선 53" x1="13.04" y2="21.982" transform="translate(208 586.518)" fill="none" stroke="#fff" stroke-linecap="round" stroke-width="2"/>
              <line id="선_54-2" data-name="선 54" x1="13.04" y2="21.982" transform="translate(192 613.518)" fill="none" stroke="#fff" stroke-linecap="round" stroke-width="2"/>
            </g>
            <g id="그룹_849" data-name="그룹 849" transform="translate(12.747 -9)">
              <line id="선_50-3" data-name="선 50" x1="13.04" y2="21.982" transform="translate(255.648 505.785)" fill="none" stroke="#fff" stroke-linecap="round" stroke-width="2"/>
              <line id="선_51-3" data-name="선 51" x1="13.04" y2="21.982" transform="translate(240 532.518)" fill="none" stroke="#fff" stroke-linecap="round" stroke-width="2"/>
              <line id="선_52-3" data-name="선 52" x1="13.04" y2="21.982" transform="translate(224 559.518)" fill="none" stroke="#fff" stroke-linecap="round" stroke-width="2"/>
              <line id="선_53-3" data-name="선 53" x1="13.04" y2="21.982" transform="translate(208 586.518)" fill="none" stroke="#fff" stroke-linecap="round" stroke-width="2"/>
              <line id="선_54-3" data-name="선 54" x1="13.04" y2="21.982" transform="translate(192 613.518)" fill="none" stroke="#fff" stroke-linecap="round" stroke-width="2"/>
            </g>
            <g id="그룹_850" data-name="그룹 850" transform="translate(-13.253 -9)">
              <line id="선_50-4" data-name="선 50" x1="13.04" y2="21.982" transform="translate(255.648 505.785)" fill="none" stroke="#fff" stroke-linecap="round" stroke-width="2"/>
              <line id="선_51-4" data-name="선 51" x1="13.04" y2="21.982" transform="translate(240 532.518)" fill="none" stroke="#fff" stroke-linecap="round" stroke-width="2"/>
              <line id="선_52-4" data-name="선 52" x1="13.04" y2="21.982" transform="translate(224 559.518)" fill="none" stroke="#fff" stroke-linecap="round" stroke-width="2"/>
              <line id="선_53-4" data-name="선 53" x1="13.04" y2="21.982" transform="translate(208 586.518)" fill="none" stroke="#fff" stroke-linecap="round" stroke-width="2"/>
              <line id="선_54-4" data-name="선 54" x1="13.04" y2="21.982" transform="translate(192 613.518)" fill="none" stroke="#fff" stroke-linecap="round" stroke-width="2"/>
            </g>
          </g>
          <g id="그룹_853" data-name="그룹 853" transform="translate(-51)">
            <g id="그룹_848-2" data-name="그룹 848" transform="translate(14.135 9)">
              <line id="선_50-5" data-name="선 50" x1="13.04" y2="21.982" transform="translate(255.648 505.785)" fill="none" stroke="#fff" stroke-linecap="round" stroke-width="2"/>
              <line id="선_51-5" data-name="선 51" x1="13.04" y2="21.982" transform="translate(240 532.518)" fill="none" stroke="#fff" stroke-linecap="round" stroke-width="2"/>
              <line id="선_52-5" data-name="선 52" x1="13.04" y2="21.982" transform="translate(224 559.518)" fill="none" stroke="#fff" stroke-linecap="round" stroke-width="2"/>
              <line id="선_53-5" data-name="선 53" x1="13.04" y2="21.982" transform="translate(208 586.518)" fill="none" stroke="#fff" stroke-linecap="round" stroke-width="2"/>
              <line id="선_54-5" data-name="선 54" x1="13.04" y2="21.982" transform="translate(192 613.518)" fill="none" stroke="#fff" stroke-linecap="round" stroke-width="2"/>
            </g>
            <g id="그룹_851-2" data-name="그룹 851" transform="translate(-11.865 9)">
              <line id="선_50-6" data-name="선 50" x1="13.04" y2="21.982" transform="translate(255.648 505.785)" fill="none" stroke="#fff" stroke-linecap="round" stroke-width="2"/>
              <line id="선_51-6" data-name="선 51" x1="13.04" y2="21.982" transform="translate(240 532.518)" fill="none" stroke="#fff" stroke-linecap="round" stroke-width="2"/>
              <line id="선_52-6" data-name="선 52" x1="13.04" y2="21.982" transform="translate(224 559.518)" fill="none" stroke="#fff" stroke-linecap="round" stroke-width="2"/>
              <line id="선_53-6" data-name="선 53" x1="13.04" y2="21.982" transform="translate(208 586.518)" fill="none" stroke="#fff" stroke-linecap="round" stroke-width="2"/>
              <line id="선_54-6" data-name="선 54" x1="13.04" y2="21.982" transform="translate(192 613.518)" fill="none" stroke="#fff" stroke-linecap="round" stroke-width="2"/>
            </g>
            <g id="그룹_849-2" data-name="그룹 849" transform="translate(12.747 -9)">
              <line id="선_50-7" data-name="선 50" x1="13.04" y2="21.982" transform="translate(255.648 505.785)" fill="none" stroke="#fff" stroke-linecap="round" stroke-width="2"/>
              <line id="선_51-7" data-name="선 51" x1="13.04" y2="21.982" transform="translate(240 532.518)" fill="none" stroke="#fff" stroke-linecap="round" stroke-width="2"/>
              <line id="선_52-7" data-name="선 52" x1="13.04" y2="21.982" transform="translate(224 559.518)" fill="none" stroke="#fff" stroke-linecap="round" stroke-width="2"/>
              <line id="선_53-7" data-name="선 53" x1="13.04" y2="21.982" transform="translate(208 586.518)" fill="none" stroke="#fff" stroke-linecap="round" stroke-width="2"/>
              <line id="선_54-7" data-name="선 54" x1="13.04" y2="21.982" transform="translate(192 613.518)" fill="none" stroke="#fff" stroke-linecap="round" stroke-width="2"/>
            </g>
            <g id="그룹_850-2" data-name="그룹 850" transform="translate(-13.253 -9)">
              <line id="선_50-8" data-name="선 50" x1="13.04" y2="21.982" transform="translate(255.648 505.785)" fill="none" stroke="#fff" stroke-linecap="round" stroke-width="2"/>
              <line id="선_51-8" data-name="선 51" x1="13.04" y2="21.982" transform="translate(240 532.518)" fill="none" stroke="#fff" stroke-linecap="round" stroke-width="2"/>
              <line id="선_52-8" data-name="선 52" x1="13.04" y2="21.982" transform="translate(224 559.518)" fill="none" stroke="#fff" stroke-linecap="round" stroke-width="2"/>
              <line id="선_53-8" data-name="선 53" x1="13.04" y2="21.982" transform="translate(208 586.518)" fill="none" stroke="#fff" stroke-linecap="round" stroke-width="2"/>
              <line id="선_54-8" data-name="선 54" x1="13.04" y2="21.982" transform="translate(192 613.518)" fill="none" stroke="#fff" stroke-linecap="round" stroke-width="2"/>
            </g>
          </g>
        </g>
        <g id="그룹_855" data-name="그룹 855" transform="translate(-102)">
          <g id="그룹_852-2" data-name="그룹 852">
            <g id="그룹_848-3" data-name="그룹 848" transform="translate(14.135 9)">
              <line id="선_50-9" data-name="선 50" x1="13.04" y2="21.982" transform="translate(255.648 505.785)" fill="none" stroke="#fff" stroke-linecap="round" stroke-width="2"/>
              <line id="선_51-9" data-name="선 51" x1="13.04" y2="21.982" transform="translate(240 532.518)" fill="none" stroke="#fff" stroke-linecap="round" stroke-width="2"/>
              <line id="선_52-9" data-name="선 52" x1="13.04" y2="21.982" transform="translate(224 559.518)" fill="none" stroke="#fff" stroke-linecap="round" stroke-width="2"/>
              <line id="선_53-9" data-name="선 53" x1="13.04" y2="21.982" transform="translate(208 586.518)" fill="none" stroke="#fff" stroke-linecap="round" stroke-width="2"/>
              <line id="선_54-9" data-name="선 54" x1="13.04" y2="21.982" transform="translate(192 613.518)" fill="none" stroke="#fff" stroke-linecap="round" stroke-width="2"/>
            </g>
            <g id="그룹_851-3" data-name="그룹 851" transform="translate(-11.865 9)">
              <line id="선_50-10" data-name="선 50" x1="13.04" y2="21.982" transform="translate(255.648 505.785)" fill="none" stroke="#fff" stroke-linecap="round" stroke-width="2"/>
              <line id="선_51-10" data-name="선 51" x1="13.04" y2="21.982" transform="translate(240 532.518)" fill="none" stroke="#fff" stroke-linecap="round" stroke-width="2"/>
              <line id="선_52-10" data-name="선 52" x1="13.04" y2="21.982" transform="translate(224 559.518)" fill="none" stroke="#fff" stroke-linecap="round" stroke-width="2"/>
              <line id="선_53-10" data-name="선 53" x1="13.04" y2="21.982" transform="translate(208 586.518)" fill="none" stroke="#fff" stroke-linecap="round" stroke-width="2"/>
              <line id="선_54-10" data-name="선 54" x1="13.04" y2="21.982" transform="translate(192 613.518)" fill="none" stroke="#fff" stroke-linecap="round" stroke-width="2"/>
            </g>
            <g id="그룹_849-3" data-name="그룹 849" transform="translate(12.747 -9)">
              <line id="선_50-11" data-name="선 50" x1="13.04" y2="21.982" transform="translate(255.648 505.785)" fill="none" stroke="#fff" stroke-linecap="round" stroke-width="2"/>
              <line id="선_51-11" data-name="선 51" x1="13.04" y2="21.982" transform="translate(240 532.518)" fill="none" stroke="#fff" stroke-linecap="round" stroke-width="2"/>
              <line id="선_52-11" data-name="선 52" x1="13.04" y2="21.982" transform="translate(224 559.518)" fill="none" stroke="#fff" stroke-linecap="round" stroke-width="2"/>
              <line id="선_53-11" data-name="선 53" x1="13.04" y2="21.982" transform="translate(208 586.518)" fill="none" stroke="#fff" stroke-linecap="round" stroke-width="2"/>
              <line id="선_54-11" data-name="선 54" x1="13.04" y2="21.982" transform="translate(192 613.518)" fill="none" stroke="#fff" stroke-linecap="round" stroke-width="2"/>
            </g>
            <g id="그룹_850-3" data-name="그룹 850" transform="translate(-13.253 -9)">
              <line id="선_50-12" data-name="선 50" x1="13.04" y2="21.982" transform="translate(255.648 505.785)" fill="none" stroke="#fff" stroke-linecap="round" stroke-width="2"/>
              <line id="선_51-12" data-name="선 51" x1="13.04" y2="21.982" transform="translate(240 532.518)" fill="none" stroke="#fff" stroke-linecap="round" stroke-width="2"/>
              <line id="선_52-12" data-name="선 52" x1="13.04" y2="21.982" transform="translate(224 559.518)" fill="none" stroke="#fff" stroke-linecap="round" stroke-width="2"/>
              <line id="선_53-12" data-name="선 53" x1="13.04" y2="21.982" transform="translate(208 586.518)" fill="none" stroke="#fff" stroke-linecap="round" stroke-width="2"/>
              <line id="선_54-12" data-name="선 54" x1="13.04" y2="21.982" transform="translate(192 613.518)" fill="none" stroke="#fff" stroke-linecap="round" stroke-width="2"/>
            </g>
          </g>
          <g id="그룹_853-2" data-name="그룹 853" transform="translate(-51)">
            <g id="그룹_848-4" data-name="그룹 848" transform="translate(14.135 9)">
              <line id="선_50-13" data-name="선 50" x1="13.04" y2="21.982" transform="translate(255.648 505.785)" fill="none" stroke="#fff" stroke-linecap="round" stroke-width="2"/>
              <line id="선_51-13" data-name="선 51" x1="13.04" y2="21.982" transform="translate(240 532.518)" fill="none" stroke="#fff" stroke-linecap="round" stroke-width="2"/>
              <line id="선_52-13" data-name="선 52" x1="13.04" y2="21.982" transform="translate(224 559.518)" fill="none" stroke="#fff" stroke-linecap="round" stroke-width="2"/>
              <line id="선_53-13" data-name="선 53" x1="13.04" y2="21.982" transform="translate(208 586.518)" fill="none" stroke="#fff" stroke-linecap="round" stroke-width="2"/>
              <line id="선_54-13" data-name="선 54" x1="13.04" y2="21.982" transform="translate(192 613.518)" fill="none" stroke="#fff" stroke-linecap="round" stroke-width="2"/>
            </g>
            <g id="그룹_851-4" data-name="그룹 851" transform="translate(-11.865 9)">
              <line id="선_50-14" data-name="선 50" x1="13.04" y2="21.982" transform="translate(255.648 505.785)" fill="none" stroke="#fff" stroke-linecap="round" stroke-width="2"/>
              <line id="선_51-14" data-name="선 51" x1="13.04" y2="21.982" transform="translate(240 532.518)" fill="none" stroke="#fff" stroke-linecap="round" stroke-width="2"/>
              <line id="선_52-14" data-name="선 52" x1="13.04" y2="21.982" transform="translate(224 559.518)" fill="none" stroke="#fff" stroke-linecap="round" stroke-width="2"/>
              <line id="선_53-14" data-name="선 53" x1="13.04" y2="21.982" transform="translate(208 586.518)" fill="none" stroke="#fff" stroke-linecap="round" stroke-width="2"/>
              <line id="선_54-14" data-name="선 54" x1="13.04" y2="21.982" transform="translate(192 613.518)" fill="none" stroke="#fff" stroke-linecap="round" stroke-width="2"/>
            </g>
            <g id="그룹_849-4" data-name="그룹 849" transform="translate(12.747 -9)">
              <line id="선_50-15" data-name="선 50" x1="13.04" y2="21.982" transform="translate(255.648 505.785)" fill="none" stroke="#fff" stroke-linecap="round" stroke-width="2"/>
              <line id="선_51-15" data-name="선 51" x1="13.04" y2="21.982" transform="translate(240 532.518)" fill="none" stroke="#fff" stroke-linecap="round" stroke-width="2"/>
              <line id="선_52-15" data-name="선 52" x1="13.04" y2="21.982" transform="translate(224 559.518)" fill="none" stroke="#fff" stroke-linecap="round" stroke-width="2"/>
              <line id="선_53-15" data-name="선 53" x1="13.04" y2="21.982" transform="translate(208 586.518)" fill="none" stroke="#fff" stroke-linecap="round" stroke-width="2"/>
              <line id="선_54-15" data-name="선 54" x1="13.04" y2="21.982" transform="translate(192 613.518)" fill="none" stroke="#fff" stroke-linecap="round" stroke-width="2"/>
            </g>
            <g id="그룹_850-4" data-name="그룹 850" transform="translate(-13.253 -9)">
              <line id="선_50-16" data-name="선 50" x1="13.04" y2="21.982" transform="translate(255.648 505.785)" fill="none" stroke="#fff" stroke-linecap="round" stroke-width="2"/>
              <line id="선_51-16" data-name="선 51" x1="13.04" y2="21.982" transform="translate(240 532.518)" fill="none" stroke="#fff" stroke-linecap="round" stroke-width="2"/>
              <line id="선_52-16" data-name="선 52" x1="13.04" y2="21.982" transform="translate(224 559.518)" fill="none" stroke="#fff" stroke-linecap="round" stroke-width="2"/>
              <line id="선_53-16" data-name="선 53" x1="13.04" y2="21.982" transform="translate(208 586.518)" fill="none" stroke="#fff" stroke-linecap="round" stroke-width="2"/>
              <line id="선_54-16" data-name="선 54" x1="13.04" y2="21.982" transform="translate(192 613.518)" fill="none" stroke="#fff" stroke-linecap="round" stroke-width="2"/>
            </g>
          </g>
          <g id="그룹_856" data-name="그룹 856" transform="translate(-103)">
            <g id="그룹_848-5" data-name="그룹 848" transform="translate(14.135 9)">
              <line id="선_50-17" data-name="선 50" x1="13.04" y2="21.982" transform="translate(255.648 505.785)" fill="none" stroke="#fff" stroke-linecap="round" stroke-width="2"/>
              <line id="선_51-17" data-name="선 51" x1="13.04" y2="21.982" transform="translate(240 532.518)" fill="none" stroke="#fff" stroke-linecap="round" stroke-width="2"/>
              <line id="선_52-17" data-name="선 52" x1="13.04" y2="21.982" transform="translate(224 559.518)" fill="none" stroke="#fff" stroke-linecap="round" stroke-width="2"/>
              <line id="선_53-17" data-name="선 53" x1="13.04" y2="21.982" transform="translate(208 586.518)" fill="none" stroke="#fff" stroke-linecap="round" stroke-width="2"/>
              <line id="선_54-17" data-name="선 54" x1="13.04" y2="21.982" transform="translate(192 613.518)" fill="none" stroke="#fff" stroke-linecap="round" stroke-width="2"/>
            </g>
            <g id="그룹_851-5" data-name="그룹 851" transform="translate(-11.865 9)">
              <line id="선_50-18" data-name="선 50" x1="13.04" y2="21.982" transform="translate(255.648 505.785)" fill="none" stroke="#fff" stroke-linecap="round" stroke-width="2"/>
              <line id="선_51-18" data-name="선 51" x1="13.04" y2="21.982" transform="translate(240 532.518)" fill="none" stroke="#fff" stroke-linecap="round" stroke-width="2"/>
              <line id="선_52-18" data-name="선 52" x1="13.04" y2="21.982" transform="translate(224 559.518)" fill="none" stroke="#fff" stroke-linecap="round" stroke-width="2"/>
              <line id="선_53-18" data-name="선 53" x1="13.04" y2="21.982" transform="translate(208 586.518)" fill="none" stroke="#fff" stroke-linecap="round" stroke-width="2"/>
              <line id="선_54-18" data-name="선 54" x1="13.04" y2="21.982" transform="translate(192 613.518)" fill="none" stroke="#fff" stroke-linecap="round" stroke-width="2"/>
            </g>
            <g id="그룹_849-5" data-name="그룹 849" transform="translate(12.747 -9)">
              <line id="선_50-19" data-name="선 50" x1="13.04" y2="21.982" transform="translate(255.648 505.785)" fill="none" stroke="#fff" stroke-linecap="round" stroke-width="2"/>
              <line id="선_51-19" data-name="선 51" x1="13.04" y2="21.982" transform="translate(240 532.518)" fill="none" stroke="#fff" stroke-linecap="round" stroke-width="2"/>
              <line id="선_52-19" data-name="선 52" x1="13.04" y2="21.982" transform="translate(224 559.518)" fill="none" stroke="#fff" stroke-linecap="round" stroke-width="2"/>
              <line id="선_53-19" data-name="선 53" x1="13.04" y2="21.982" transform="translate(208 586.518)" fill="none" stroke="#fff" stroke-linecap="round" stroke-width="2"/>
              <line id="선_54-19" data-name="선 54" x1="13.04" y2="21.982" transform="translate(192 613.518)" fill="none" stroke="#fff" stroke-linecap="round" stroke-width="2"/>
            </g>
            <g id="그룹_850-5" data-name="그룹 850" transform="translate(-13.253 -9)">
              <line id="선_50-20" data-name="선 50" x1="13.04" y2="21.982" transform="translate(255.648 505.785)" fill="none" stroke="#fff" stroke-linecap="round" stroke-width="2"/>
              <line id="선_51-20" data-name="선 51" x1="13.04" y2="21.982" transform="translate(240 532.518)" fill="none" stroke="#fff" stroke-linecap="round" stroke-width="2"/>
              <line id="선_52-20" data-name="선 52" x1="13.04" y2="21.982" transform="translate(224 559.518)" fill="none" stroke="#fff" stroke-linecap="round" stroke-width="2"/>
              <line id="선_53-20" data-name="선 53" x1="13.04" y2="21.982" transform="translate(208 586.518)" fill="none" stroke="#fff" stroke-linecap="round" stroke-width="2"/>
              <line id="선_54-20" data-name="선 54" x1="13.04" y2="21.982" transform="translate(192 613.518)" fill="none" stroke="#fff" stroke-linecap="round" stroke-width="2"/>
            </g>
          </g>
        </g>
      </g>
    </g>
    <g id="그룹_865" data-name="그룹 865">
      <path id="패스_1139" data-name="패스 1139" d="M0,72.167V0" transform="translate(88.978 571.163) rotate(180)" fill="none" stroke="#910004" stroke-width="1"/>
      <g id="그룹_633" data-name="그룹 633" transform="translate(-5.283 33.663)">
        <g id="그룹_502" data-name="그룹 502" transform="translate(-80 188.396)">
          <path id="패스_980" data-name="패스 980" d="M464.522,271.515l-53.875,12.992L351,271.515V218.508H464.522Z" transform="translate(-234 30.702)" fill="#910004"/>
        </g>
        <text id="제주_서귀포시" data-name="제주 서귀포시" transform="translate(59.761 460.418)" fill="#fff" font-size="12" font-family="SpoqaHanSansNeo-Medium, Spoqa Han Sans Neo" font-weight="500" letter-spacing="-0.015em"><tspan x="0" y="0">제주 서귀포시</tspan></text>
        <text id="_170_180mm" data-name="170~180mm" transform="translate(45.761 480.418)" fill="#fff" font-size="16" font-family="SpoqaHanSansNeo-Bold, Spoqa Han Sans Neo" font-weight="700" letter-spacing="-0.015em"><tspan x="0" y="0">170~180mm</tspan></text>
      </g>
      <g id="그룹_864" data-name="그룹 864">
        <g id="그룹_632" data-name="그룹 632" transform="translate(32 124.663)">
          <g id="그룹_501" data-name="그룹 501" transform="translate(-99 -66)">
            <g id="패스_1150" data-name="패스 1150" transform="translate(136 496)" fill="#fff">
              <path d="M 20 39 C 17.43457984924316 39 14.94641971588135 38.49777984619141 12.60464954376221 37.50730133056641 C 10.34226036071777 36.55038833618164 8.310219764709473 35.18027877807617 6.564970016479492 33.43503189086914 C 4.819719791412354 31.68977928161621 3.449609994888306 29.65773963928223 2.492700099945068 27.39534950256348 C 1.502220034599304 25.05357933044434 1 22.5654296875 1 20 C 1 17.43457984924316 1.502220034599304 14.94641971588135 2.492700099945068 12.60464954376221 C 3.449609994888306 10.34226036071777 4.819719791412354 8.310219764709473 6.564970016479492 6.564970016479492 C 8.310219764709473 4.819719791412354 10.34226036071777 3.449609994888306 12.60464954376221 2.492700099945068 C 14.94641971588135 1.502220034599304 17.43457984924316 1 20 1 C 22.5654296875 1 25.05357933044434 1.502220034599304 27.39534950256348 2.492700099945068 C 29.65773963928223 3.449609994888306 31.68977928161621 4.819719791412354 33.43503189086914 6.564970016479492 C 35.18027877807617 8.310219764709473 36.55038833618164 10.34226036071777 37.50730133056641 12.60464954376221 C 38.49777984619141 14.94641971588135 39 17.43457984924316 39 20 C 39 22.5654296875 38.49777984619141 25.05357933044434 37.50730133056641 27.39534950256348 C 36.55038833618164 29.65773963928223 35.18027877807617 31.68977928161621 33.43503189086914 33.43503189086914 C 31.68977928161621 35.18027877807617 29.65773963928223 36.55038833618164 27.39534950256348 37.50730133056641 C 25.05357933044434 38.49777984619141 22.5654296875 39 20 39 Z" stroke="none"/>
              <path d="M 20 2 C 15.19202041625977 2 10.67182922363281 3.872329711914062 7.272079467773438 7.272079467773438 C 3.872329711914062 10.67182922363281 2 15.19202041625977 2 20 C 2 24.80797958374023 3.872329711914062 29.32817077636719 7.272079467773438 32.72792053222656 C 10.67182922363281 36.12767028808594 15.19202041625977 38 20 38 C 24.80797958374023 38 29.32817077636719 36.12767028808594 32.72792053222656 32.72792053222656 C 36.12767028808594 29.32817077636719 38 24.80797958374023 38 20 C 38 15.19202041625977 36.12767028808594 10.67182922363281 32.72792053222656 7.272079467773438 C 29.32817077636719 3.872329711914062 24.80797958374023 2 20 2 M 20 0 C 31.04570007324219 0 40 8.954299926757812 40 20 C 40 31.04570007324219 31.04570007324219 40 20 40 C 8.954299926757812 40 0 31.04570007324219 0 20 C 0 8.954299926757812 8.954299926757812 0 20 0 Z" stroke="none" fill="#910004"/>
            </g>
          </g>
        </g>
        <g id="그룹_859" data-name="그룹 859">
          <g id="그룹_795" data-name="그룹 795" transform="translate(71 558.74)">
            <g id="그룹_794" data-name="그룹 794" transform="translate(0 0)" clip-path="url(#clip-path-4)">
              <g id="그룹_793" data-name="그룹 793" transform="translate(0 16.004)" style="isolation: isolate">
                <g id="그룹_792" data-name="그룹 792">
                  <g id="그룹_791" data-name="그룹 791" clip-path="url(#clip-path-5)">
                    <path id="패스_2549" data-name="패스 2549" d="M18,60.308a18.18,18.18,0,0,0,18-15.65c-.217-.19-.425-.4-.642-.617a4.892,4.892,0,0,0-7.758,0,3.482,3.482,0,0,1-5.721,0,4.892,4.892,0,0,0-7.758,0,3.711,3.711,0,0,1-2.86,1.5,3.711,3.711,0,0,1-2.86-1.5,5.027,5.027,0,0,0-3.879-1.911A5.027,5.027,0,0,0,.642,44.04c-.216.219-.425.427-.642.618a18.18,18.18,0,0,0,18,15.65" transform="translate(0 -42.129)" fill="#ff2300"/>
                  </g>
                </g>
              </g>
              <path id="패스_2550" data-name="패스 2550" d="M37.977,5.492,39.875,0,41.63,5.427C42.1,7.18,42.523,8,41.524,9.167a2.369,2.369,0,0,1-3.488-.153c-.65-.987-.767-1.507-.059-3.522M31.995,9.88l1.9-5.492,1.755,5.427c.469,1.754.893,2.572-.106,3.741a2.368,2.368,0,0,1-3.487-.154c-.65-.986-.767-1.507-.059-3.522M26.013,5.492,27.91,0l1.755,5.427c.468,1.754.893,2.572-.107,3.741a2.368,2.368,0,0,1-3.487-.153c-.65-.987-.767-1.507-.059-3.522" transform="translate(-15.832 0)" fill="#ff2300" fill-rule="evenodd"/>
            </g>
          </g>
        </g>
      </g>
    </g>
  </g>
</svg>
