<svg xmlns="http://www.w3.org/2000/svg" width="88" height="88" viewBox="0 0 88 88">
    <defs>
        <clipPath id="clip-path">
            <path id="패스_2794" data-name="패스 2794" d="M0 33.17h72v-88H0z" transform="translate(0 54.83)" style="fill:none"/>
        </clipPath>
        <clipPath id="clip-path-2">
            <path id="사각형_2114" data-name="사각형 2114" style="fill:#fff" d="M0 0h55.673v33.203H0z"/>
        </clipPath>
        <style>
            
        </style>
    </defs>
    <g id="그룹_1288" data-name="그룹 1288" transform="translate(-129 -220)">
        <g id="그룹_1013" data-name="그룹 1013">
            <path id="합치기_6" data-name="합치기 6" d="M-2862.556 3185.7h.333a36.8 36.8 0 0 1-11.777-27.084c0-20.223 16.117-36.615 36-36.615s36 16.393 36 36.615a36.8 36.8 0 0 1-11.777 27.087h.33l-25.271 24.3z" transform="translate(3011.001 -2902)" style="fill:#e2898c"/>
        </g>
        <path id="사각형_1988" data-name="사각형 1988" transform="translate(129 220)" style="fill:none" d="M0 0h88v88H0z"/>
        <g id="그룹_1290" data-name="그룹 1290" transform="translate(145.164 241.547)">
            <g id="그룹_1290-2" data-name="그룹 1290" style="clip-path:url(#clip-path-2)">
                <path id="패스_3979" data-name="패스 3979" d="M.9 265.35a6.957 6.957 0 0 0 3.587-1 6.7 6.7 0 0 0 1.8-1.547 6.7 6.7 0 0 0 1.8 1.547 6.86 6.86 0 0 0 3.587 1 7.04 7.04 0 0 0 5.389-2.549 6.693 6.693 0 0 0 1.8 1.547 6.892 6.892 0 0 0 7.155 0 7.059 7.059 0 0 0 1.82-1.547 6.693 6.693 0 0 0 1.8 1.547 6.892 6.892 0 0 0 7.155 0 6.693 6.693 0 0 0 1.8-1.547 7.06 7.06 0 0 0 1.82 1.547 6.892 6.892 0 0 0 7.155 0 6.693 6.693 0 0 0 1.8-1.547 6.7 6.7 0 0 0 1.8 1.547 6.956 6.956 0 0 0 3.587 1 .91.91 0 0 0 0-1.82 5.188 5.188 0 0 1-4.6-2.749.887.887 0 0 0-1.208-.364.872.872 0 0 0-.36.364 5.436 5.436 0 0 1-1.928 2.02 5.345 5.345 0 0 1-2.685.728 5.189 5.189 0 0 1-4.6-2.749.887.887 0 0 0-1.208-.364.872.872 0 0 0-.36.364 5.223 5.223 0 0 1-9.21 0 .887.887 0 0 0-1.208-.364.872.872 0 0 0-.36.364 5.223 5.223 0 0 1-9.21 0 .887.887 0 0 0-1.208-.364.993.993 0 0 0-.36.364 5.227 5.227 0 0 1-7.263 2.02 5.345 5.345 0 0 1-1.946-2.02.887.887 0 0 0-1.208-.364.992.992 0 0 0-.36.364 5.3 5.3 0 0 1-1.928 2.02 5.278 5.278 0 0 1-2.645.732.91.91 0 0 0 0 1.82" transform="translate(0 -237.587)" style="fill-rule:evenodd;fill:#fff"/>
                <path id="패스_3980" data-name="패스 3980" d="M54.771 354.611a5.1 5.1 0 0 1-2.667-.728 5.3 5.3 0 0 1-1.928-2.021.887.887 0 0 0-1.208-.364.872.872 0 0 0-.36.364 5.436 5.436 0 0 1-1.928 2.021 5.166 5.166 0 0 1-2.685.728 5.1 5.1 0 0 1-2.667-.728 5.3 5.3 0 0 1-1.929-2.021.887.887 0 0 0-1.207-.364.872.872 0 0 0-.36.364 5.3 5.3 0 0 1-1.928 2.021 5.283 5.283 0 0 1-5.353 0 5.3 5.3 0 0 1-1.928-2.021.887.887 0 0 0-1.208-.364.871.871 0 0 0-.36.364 5.3 5.3 0 0 1-1.928 2.021 5.1 5.1 0 0 1-2.667.728 5.166 5.166 0 0 1-2.685-.728 5.3 5.3 0 0 1-1.928-2.021.887.887 0 0 0-1.208-.364.993.993 0 0 0-.36.364 5.3 5.3 0 0 1-1.928 2.021 5.25 5.25 0 0 1-5.335 0 5.345 5.345 0 0 1-1.947-2.021.887.887 0 0 0-1.208-.364.993.993 0 0 0-.36.364 5.3 5.3 0 0 1-1.928 2.021 5.1 5.1 0 0 1-2.667.728.91.91 0 0 0 0 1.82 6.948 6.948 0 0 0 3.442-.91 1.006 1.006 0 0 1 .144-.091 6.7 6.7 0 0 0 1.8-1.547 6.7 6.7 0 0 0 1.8 1.547c.054.036.09.055.144.091a6.9 6.9 0 0 0 6.885-.018.538.538 0 0 0 .144-.073 6.986 6.986 0 0 0 1.8-1.547 6.7 6.7 0 0 0 1.8 1.547.289.289 0 0 0 .135.07 6.913 6.913 0 0 0 6.921 0c.036-.018.072-.055.108-.073a7.059 7.059 0 0 0 1.82-1.547 6.7 6.7 0 0 0 1.8 1.547c.036.018.072.055.108.073a6.981 6.981 0 0 0 3.46.928 6.892 6.892 0 0 0 3.5-.947c.036-.018.054-.036.09-.055a6.694 6.694 0 0 0 1.8-1.547 7.062 7.062 0 0 0 1.82 1.547.394.394 0 0 0 .09.055 6.876 6.876 0 0 0 3.478.947 7.008 7.008 0 0 0 3.514-.947c.018-.018.054-.036.072-.055a6.7 6.7 0 0 0 1.8-1.547 6.7 6.7 0 0 0 1.8 1.547c.036.018.054.036.09.055a6.893 6.893 0 0 0 3.5.947.91.91 0 0 0 0-1.82" transform="translate(0 -323.229)" style="fill-rule:evenodd;fill:#fff"/>
                <path id="패스_3981" data-name="패스 3981" d="M39.781 21.081a1.284 1.284 0 0 1 .577-.583 1.426 1.426 0 0 1 1.946.583 4.724 4.724 0 0 0 1.73 1.8 4.612 4.612 0 0 0 2.4.655 4.659 4.659 0 0 0 2.4-.655 4.86 4.86 0 0 0 1.73-1.8 1.283 1.283 0 0 1 .577-.583 1.426 1.426 0 0 1 1.947.583 4.785 4.785 0 0 0 1.55 1.693v-.218a1.009 1.009 0 0 1 .991-1.019h5.425c.09-.146.2-.309.288-.455a1.338 1.338 0 0 1 .558-.582 1.422 1.422 0 0 1 1.947.583c.09.146.2.309.288.455h2.343a1.013 1.013 0 0 1 1.009 1.019v.965a4.351 4.351 0 0 0 .487.018 4.68 4.68 0 0 0 4.126-2.459 1.487 1.487 0 0 1 .577-.583 1.421 1.421 0 0 1 1.946.583 4.861 4.861 0 0 0 1.73 1.8 4.659 4.659 0 0 0 2.4.655 4.613 4.613 0 0 0 2.4-.655 4.724 4.724 0 0 0 1.73-1.8 1.487 1.487 0 0 1 .577-.583 1.382 1.382 0 0 1 .883-.164v-3.6a5.809 5.809 0 0 0-5.767-5.807h-.631c-.216-1.274-.433-2.512-.631-3.714-.216-1.183-.415-2.33-.613-3.44a4.611 4.611 0 0 0-1.541-2.698A4.092 4.092 0 0 0 72.457 0H49.64a4.092 4.092 0 0 0-2.7 1.074 4.611 4.611 0 0 0-1.54 2.695q-.3 1.666-.595 3.44-.324 1.8-.649 3.714h-.613a5.809 5.809 0 0 0-5.767 5.807v6.3a1.963 1.963 0 0 0 .27-.146 4.724 4.724 0 0 0 1.73-1.8m41.092-3.55v1.547a1.071 1.071 0 0 1-1.063 1.074h-8.447a1.071 1.071 0 0 1-1.063-1.074v-1.55a1.071 1.071 0 0 1 1.063-1.074h8.452a1.071 1.071 0 0 1 1.063 1.074M46.81 7.555c.2-1.147.415-2.294.613-3.441a2.605 2.605 0 0 1 .847-1.493 2.15 2.15 0 0 1 1.37-.564h22.817a2.151 2.151 0 0 1 1.37.564 2.738 2.738 0 0 1 .865 1.493l.595 3.441c.072.437.162.874.234 1.311H46.594l.216-1.311m-3.21 5.662h34.895a.391.391 0 1 1 0 .783H43.6a.392.392 0 0 1 0-.783m-3.8 4.314a1.083 1.083 0 0 1 1.063-1.074h8.453a1.086 1.086 0 0 1 1.084 1.074v1.547a1.086 1.086 0 0 1-1.081 1.074h-8.456a1.083 1.083 0 0 1-1.063-1.074z" transform="translate(-34.753 -.001)" style="fill-rule:evenodd;fill:#fff"/>
            </g>
        </g>
    </g>
</svg>
