<svg xmlns="http://www.w3.org/2000/svg" width="88" height="88" viewBox="0 0 88 88">
    <defs>
        <clipPath id="clip-path">
            <path id="패스_2794" data-name="패스 2794" d="M0 33.17h72v-88H0z" transform="translate(0 54.83)" style="fill:none"/>
        </clipPath>
        <clipPath id="clip-path-2">
            <path id="사각형_2115" data-name="사각형 2115" style="fill:#fff" d="M0 0h47.206v48.239H0z"/>
        </clipPath>
        <style>
            
        </style>
    </defs>
    <g id="그룹_1289" data-name="그룹 1289" transform="translate(-129 -220)">
        <g id="그룹_1013" data-name="그룹 1013">
            <path id="합치기_6" data-name="합치기 6" d="M-2862.556 3185.7h.333a36.8 36.8 0 0 1-11.777-27.084c0-20.223 16.117-36.615 36-36.615s36 16.393 36 36.615a36.8 36.8 0 0 1-11.777 27.087h.33l-25.271 24.3z" transform="translate(3011.001 -2902)" style="fill:#e2898c"/>
        </g>
        <path id="사각형_1988" data-name="사각형 1988" transform="translate(129 220)" style="fill:none" d="M0 0h88v88H0z"/>
        <g id="그룹_1291" data-name="그룹 1291" transform="translate(149.397 233)">
            <g id="그룹_1291-2" data-name="그룹 1291" style="clip-path:url(#clip-path-2)">
                <path id="패스_3982" data-name="패스 3982" d="M338.72 275.958a1.062 1.062 0 0 0 .139 1.488l1.994 1.751a.837.837 0 0 0 .347.263 1.017 1.017 0 0 0 1.248-.28l.035-.018 1.976-1.681v12.975c.017 0 .035-.017.069-.035a1.259 1.259 0 0 1 1.716.525 4.12 4.12 0 0 0 .8 1.016v-6.654h1.179v7.407a3.711 3.711 0 0 0 2.583.123v-14.166l2.548 4.08a1.047 1.047 0 1 0 1.768-1.121l-4.351-6.969a1.025 1.025 0 0 0-.815-.49.644.644 0 0 0-.191-.017H345.5a1.031 1.031 0 0 0-.815.4l-3.034 2.556-1.474-1.3a1.034 1.034 0 0 0-1.456.14" transform="translate(-312.387 -253.021)" style="fill:#fff"/>
                <path id="패스_3983" data-name="패스 3983" d="M421.7 200.435a3 3 0 1 0-2.965-2.994 2.978 2.978 0 0 0 2.965 2.994" transform="translate(-386.453 -179.441)" style="fill:#fff"/>
                <path id="패스_3984" data-name="패스 3984" d="M152.792 9.263a4.631 4.631 0 1 0-4.594-4.64 4.611 4.611 0 0 0 4.594 4.64" transform="translate(-136.774)" style="fill:#fff"/>
                <path id="패스_3985" data-name="패스 3985" d="M56.807 136.715a1.614 1.614 0 0 0 2.219-.508l3.814-6.111v23.113a3.637 3.637 0 0 0 .8-.368 3.978 3.978 0 0 0 1.439-1.506 1.259 1.259 0 0 1 .52-.525 1.279 1.279 0 0 1 1.231.018v-10.717h1.82v12.659c.035.018.087.052.121.07a3.824 3.824 0 0 0 3.866.07v-23.27l4.091 6.531a1.511 1.511 0 0 0 .589.56 1.687 1.687 0 0 1 .329-.718 1.565 1.565 0 0 1 1.994-.35 1.558 1.558 0 0 0-.208-1.226l-6.711-10.767a1.573 1.573 0 0 0-1.4-.753 1.513 1.513 0 0 0-.295-.035h-6.57a1.559 1.559 0 0 0-1.075.42 1.62 1.62 0 0 0-.364.4L56.3 134.473a1.615 1.615 0 0 0 .5 2.241" transform="translate(-51.727 -113.409)" style="fill:#fff"/>
                <path id="패스_3986" data-name="패스 3986" d="M46.443 573.043a4.327 4.327 0 0 1-2.254-.63 4.407 4.407 0 0 1-1.647-1.7.746.746 0 0 0-1.023-.315.776.776 0 0 0-.312.315 4.4 4.4 0 0 1-6.154 1.7 4.408 4.408 0 0 1-1.647-1.7.746.746 0 0 0-1.023-.315.776.776 0 0 0-.312.315 4.453 4.453 0 0 1-3.9 2.329 4.281 4.281 0 0 1-2.254-.63 4.407 4.407 0 0 1-1.647-1.7.746.746 0 0 0-1.023-.315.776.776 0 0 0-.312.315 4.453 4.453 0 0 1-3.9 2.329 4.281 4.281 0 0 1-2.254-.63 4.407 4.407 0 0 1-1.647-1.7.746.746 0 0 0-1.023-.315.776.776 0 0 0-.312.315 4.453 4.453 0 0 1-3.9 2.329 4.281 4.281 0 0 1-2.254-.63A4.407 4.407 0 0 1 6 570.714a.746.746 0 0 0-1.023-.315.776.776 0 0 0-.312.315 4.363 4.363 0 0 1-1.63 1.7 4.342 4.342 0 0 1-2.271.63.77.77 0 0 0 0 1.541 5.836 5.836 0 0 0 2.912-.77 1 1 0 0 1 .121-.07 6.23 6.23 0 0 0 1.543-1.313 6.471 6.471 0 0 0 1.526 1.313.433.433 0 0 1 .121.07 5.886 5.886 0 0 0 2.912.77 5.737 5.737 0 0 0 2.93-.788l.1-.052a6.23 6.23 0 0 0 1.543-1.313A6.471 6.471 0 0 0 16 573.743l.1.052a5.872 5.872 0 0 0 5.877 0 .375.375 0 0 0 .087-.052 6.23 6.23 0 0 0 1.543-1.313 6.474 6.474 0 0 0 1.526 1.313.377.377 0 0 1 .087.052 6.029 6.029 0 0 0 2.947.788 5.926 5.926 0 0 0 2.964-.805.131.131 0 0 0 .069-.035 6.227 6.227 0 0 0 1.543-1.313 6.473 6.473 0 0 0 1.526 1.313c.035.018.052.018.087.035a5.813 5.813 0 0 0 2.947.805 5.942 5.942 0 0 0 2.982-.805c.017-.018.035-.035.052-.035a6.227 6.227 0 0 0 1.543-1.313 6.471 6.471 0 0 0 1.526 1.313.131.131 0 0 1 .069.035 5.877 5.877 0 0 0 2.964.805.77.77 0 0 0 0-1.541" transform="translate(0 -526.345)" style="fill:#fff"/>
                <path id="패스_3987" data-name="패스 3987" d="M.763 524.288a5.771 5.771 0 0 0 3.034-.84 5.881 5.881 0 0 0 1.543-1.313 6.094 6.094 0 0 0 1.526 1.313 5.9 5.9 0 0 0 6.067 0 5.881 5.881 0 0 0 1.543-1.313A6.094 6.094 0 0 0 16 523.448a5.9 5.9 0 0 0 6.068 0 5.881 5.881 0 0 0 1.543-1.313 6.1 6.1 0 0 0 1.526 1.313 5.9 5.9 0 0 0 6.068 0 5.881 5.881 0 0 0 1.543-1.313 6.1 6.1 0 0 0 1.526 1.313 5.9 5.9 0 0 0 6.068 0 5.881 5.881 0 0 0 1.543-1.313 6.094 6.094 0 0 0 1.526 1.313 5.816 5.816 0 0 0 3.034.84.762.762 0 1 0 0-1.523 4.5 4.5 0 0 1-2.254-.63 4.578 4.578 0 0 1-1.647-1.716.772.772 0 0 0-1.335 0 4.41 4.41 0 0 1-1.63 1.716 4.376 4.376 0 0 1-4.525 0 4.579 4.579 0 0 1-1.647-1.716.772.772 0 0 0-1.335 0 4.41 4.41 0 0 1-1.63 1.716 4.511 4.511 0 0 1-2.271.63 4.447 4.447 0 0 1-2.254-.63 4.579 4.579 0 0 1-1.647-1.716.772.772 0 0 0-1.335 0 4.41 4.41 0 0 1-1.63 1.716 4.511 4.511 0 0 1-2.271.63 4.447 4.447 0 0 1-2.254-.63 4.579 4.579 0 0 1-1.647-1.716.772.772 0 0 0-1.335 0 4.41 4.41 0 0 1-1.629 1.716 4.512 4.512 0 0 1-2.271.63 4.447 4.447 0 0 1-2.254-.63A4.578 4.578 0 0 1 6 520.418a.772.772 0 0 0-1.335 0 4.411 4.411 0 0 1-1.63 1.716 4.511 4.511 0 0 1-2.271.63.762.762 0 1 0 0 1.523" transform="translate(0 -479.935)" style="fill:#fff"/>
            </g>
        </g>
    </g>
</svg>
