<svg xmlns="http://www.w3.org/2000/svg" width="345" height="642" viewBox="0 0 345 642">
  <g id="통제구간_표시" data-name="통제구간 표시" transform="translate(0 -48)">
    <path id="패스_2967" data-name="패스 2967" d="M4922-1761.333c0,.12,0,.249-.039.7-.258,4.126-5.021,17.273-6.961,21.638-2,4.5-17,35.5-18,39.5s-2.5,19-5.5,23a161.253,161.253,0,0,0-11,18.5c-1,2.5-15.5,8-17.5,11s-19.5,37-22,41.5-2,10.5-5,16-23.5,26.5-27,29.5-11.5,15-13,17" transform="translate(-4680 2106)" fill="none" stroke="#ff2300" stroke-width="10"/>
    <rect id="사각형_2028" data-name="사각형 2028" width="345" height="642" transform="translate(0 48)" fill="none"/>
  </g>
</svg>
