<svg xmlns="http://www.w3.org/2000/svg" xmlns:xlink="http://www.w3.org/1999/xlink" width="345" height="642" viewBox="0 0 345 642">
  <defs>
    <clipPath id="clip-path">
      <circle id="타원_267" data-name="타원 267" cx="20" cy="20" r="20" transform="translate(0 0)" fill="#fff" stroke="#ff2300" stroke-width="6"/>
    </clipPath>
    <clipPath id="clip-path-2">
      <rect id="사각형_1939" data-name="사각형 1939" width="36" height="34.183" transform="translate(0 0)" fill="#ff2300"/>
    </clipPath>
    <clipPath id="clip-path-3">
      <rect id="사각형_1938" data-name="사각형 1938" width="36" height="18.179" fill="#ff2300"/>
    </clipPath>
  </defs>
  <g id="우회도로_표시" data-name="우회도로 표시" transform="translate(0 -48)">
    <g id="그룹_1108" data-name="그룹 1108">
      <path id="패스_2968" data-name="패스 2968" d="M4869.333-1769.333c-7,5.667-19,8-24.333,11.333s-21.333,19.333-30.667,22.667S4800-1721.333,4796-1718s-14.667,11.333-32.333,20-33.333,19.333-37.333,24-1.333,13-5.333,15a27.491,27.491,0,0,0-8.333,6.333c-2.667,2.667-4,10.333,0,13s12.667,6.333,16,10.333a180.5,180.5,0,0,0,16,16" transform="translate(-4680 2106)" fill="none" stroke="#135f9b" stroke-width="5"/>
      <path id="패스_2969" data-name="패스 2969" d="M4903-1838.667s6,9,8,11.667,8.667,11.333,8.667,14.667,3,16.667,3.333,20.333.667,11-8.333,13.333-25,2.333-31,4.333" transform="translate(-4680 2106)" fill="none" stroke="#135f9b" stroke-linejoin="round" stroke-width="5"/>
      <g id="그룹_967" data-name="그룹 967" transform="translate(-11 -73)">
        <rect id="사각형_1859" data-name="사각형 1859" width="44" height="44" transform="translate(212 301)" fill="none"/>
        <g id="lacation" transform="translate(217 302)">
          <path id="패스_997" data-name="패스 997" d="M17.315,25.063A7.35,7.35,0,0,0,24.678,17.7a7.577,7.577,0,0,0-7.363-7.626,7.35,7.35,0,0,0-7.363,7.363A7.761,7.761,0,0,0,17.315,25.063ZM4.956,5.078A17.479,17.479,0,1,1,29.675,29.8L17.315,42.156,4.956,29.8A17.956,17.956,0,0,1,4.956,5.078Z" transform="translate(-0.025 0.05)" fill="#910004" fill-rule="evenodd"/>
          <circle id="타원_272" data-name="타원 272" cx="11" cy="11" r="11" transform="translate(6 6.103)" fill="#910004"/>
          <circle id="타원_273" data-name="타원 273" cx="7" cy="7" r="7" transform="translate(10 10.103)" fill="#fff"/>
        </g>
      </g>
      <path id="다각형_6" data-name="다각형 6" d="M7,0l7,14H0Z" transform="translate(199.471 339.646) rotate(-100)" fill="#135f9b"/>
      <path id="다각형_7" data-name="다각형 7" d="M7,0l7,14H0Z" transform="translate(78.047 496.71) rotate(136)" fill="#135f9b"/>
      <path id="다각형_8" data-name="다각형 8" d="M7,0l7,14H0Z" transform="matrix(-0.985, -0.174, 0.174, -0.985, 83.725, 598.646)" fill="#135f9b"/>
      <path id="패스_2970" data-name="패스 2970" d="M4756-1599.565s6.5,7.065,6.5,10.565,1.5,8,3,14,7,27,7,32a11.493,11.493,0,0,1-7,11c-4.5,2-6,6.5-6.5,11" transform="translate(-4680 2106)" fill="none" stroke="#135f9b" stroke-width="5"/>
      <g id="타원_296" data-name="타원 296" transform="translate(187 330)" fill="#fff" stroke="#135f9b" stroke-width="1">
        <circle cx="5" cy="5" r="5" stroke="none"/>
        <circle cx="5" cy="5" r="4.5" fill="none"/>
      </g>
      <g id="타원_300" data-name="타원 300" transform="translate(237 317)" fill="#fff" stroke="#135f9b" stroke-width="1">
        <circle cx="5" cy="5" r="5" stroke="none"/>
        <circle cx="5" cy="5" r="4.5" fill="none"/>
      </g>
      <g id="타원_297" data-name="타원 297" transform="translate(26 460)" fill="#fff" stroke="#135f9b" stroke-width="1">
        <circle cx="5" cy="5" r="5" stroke="none"/>
        <circle cx="5" cy="5" r="4.5" fill="none"/>
      </g>
      <g id="타원_299" data-name="타원 299" transform="translate(38 439)" fill="#fff" stroke="#135f9b" stroke-width="1">
        <circle cx="5" cy="5" r="5" stroke="none"/>
        <circle cx="5" cy="5" r="4.5" fill="none"/>
      </g>
      <g id="타원_298" data-name="타원 298" transform="translate(87 560)" fill="#fff" stroke="#135f9b" stroke-width="1">
        <circle cx="5" cy="5" r="5" stroke="none"/>
        <circle cx="5" cy="5" r="4.5" fill="none"/>
      </g>
      <g id="타원_301" data-name="타원 301" transform="translate(73 503)" fill="#fff" stroke="#135f9b" stroke-width="1">
        <circle cx="5" cy="5" r="5" stroke="none"/>
        <circle cx="5" cy="5" r="4.5" fill="none"/>
      </g>
    </g>
    <rect id="사각형_2027" data-name="사각형 2027" width="345" height="642" transform="translate(0 48)" fill="none"/>
    <g id="text" transform="translate(-25 31)">
      <g id="사각형_2026" data-name="사각형 2026" transform="translate(145 433)" fill="#fff" stroke="#ff2300" stroke-width="1">
        <rect width="105" height="42" rx="8" stroke="none"/>
        <rect x="0.5" y="0.5" width="104" height="41" rx="7.5" fill="none"/>
      </g>
      <text id="_1132번_국도_통제구간" data-name="1132번 국도 
통제구간" transform="translate(198 451)" fill="#ff2300" font-size="12" font-family="SpoqaHanSansNeo-Bold, Spoqa Han Sans Neo" font-weight="700"><tspan x="-33.588" y="0">1132번 국도 </tspan><tspan x="-22.08" y="16">통제구간</tspan></text>
    </g>
    <g id="icon" transform="translate(186 -248)">
      <g id="그룹_632" data-name="그룹 632" transform="translate(-32 216.663)">
        <g id="그룹_501" data-name="그룹 501" transform="translate(-99 -66)">
          <g id="패스_1150" data-name="패스 1150" transform="translate(136 496)" fill="#fff">
            <path d="M 20 39 C 17.43457984924316 39 14.94641971588135 38.49777984619141 12.60464954376221 37.50730133056641 C 10.34226036071777 36.55038833618164 8.310219764709473 35.18027877807617 6.564970016479492 33.43503189086914 C 4.819719791412354 31.68977928161621 3.449609994888306 29.65773963928223 2.492700099945068 27.39534950256348 C 1.502220034599304 25.05357933044434 1 22.5654296875 1 20 C 1 17.43457984924316 1.502220034599304 14.94641971588135 2.492700099945068 12.60464954376221 C 3.449609994888306 10.34226036071777 4.819719791412354 8.310219764709473 6.564970016479492 6.564970016479492 C 8.310219764709473 4.819719791412354 10.34226036071777 3.449609994888306 12.60464954376221 2.492700099945068 C 14.94641971588135 1.502220034599304 17.43457984924316 1 20 1 C 22.5654296875 1 25.05357933044434 1.502220034599304 27.39534950256348 2.492700099945068 C 29.65773963928223 3.449609994888306 31.68977928161621 4.819719791412354 33.43503189086914 6.564970016479492 C 35.18027877807617 8.310219764709473 36.55038833618164 10.34226036071777 37.50730133056641 12.60464954376221 C 38.49777984619141 14.94641971588135 39 17.43457984924316 39 20 C 39 22.5654296875 38.49777984619141 25.05357933044434 37.50730133056641 27.39534950256348 C 36.55038833618164 29.65773963928223 35.18027877807617 31.68977928161621 33.43503189086914 33.43503189086914 C 31.68977928161621 35.18027877807617 29.65773963928223 36.55038833618164 27.39534950256348 37.50730133056641 C 25.05357933044434 38.49777984619141 22.5654296875 39 20 39 Z" stroke="none"/>
            <path d="M 20 2 C 15.19202041625977 2 10.67182922363281 3.872329711914062 7.272079467773438 7.272079467773438 C 3.872329711914062 10.67182922363281 2 15.19202041625977 2 20 C 2 24.80797958374023 3.872329711914062 29.32817077636719 7.272079467773438 32.72792053222656 C 10.67182922363281 36.12767028808594 15.19202041625977 38 20 38 C 24.80797958374023 38 29.32817077636719 36.12767028808594 32.72792053222656 32.72792053222656 C 36.12767028808594 29.32817077636719 38 24.80797958374023 38 20 C 38 15.19202041625977 36.12767028808594 10.67182922363281 32.72792053222656 7.272079467773438 C 29.32817077636719 3.872329711914062 24.80797958374023 2 20 2 M 20 0 C 31.04570007324219 0 40 8.954299926757812 40 20 C 40 31.04570007324219 31.04570007324219 40 20 40 C 8.954299926757812 40 0 31.04570007324219 0 20 C 0 8.954299926757812 8.954299926757812 0 20 0 Z" stroke="none" fill="#ff2300"/>
          </g>
        </g>
      </g>
      <g id="그룹_859" data-name="그룹 859" transform="translate(-64 92)">
        <g id="그룹_795" data-name="그룹 795" transform="translate(71 558.74)">
          <g id="그룹_794" data-name="그룹 794" transform="translate(0 0)" clip-path="url(#clip-path-2)">
            <g id="그룹_793" data-name="그룹 793" transform="translate(0 16.004)" style="isolation: isolate">
              <g id="그룹_792" data-name="그룹 792">
                <g id="그룹_791" data-name="그룹 791" clip-path="url(#clip-path-3)">
                  <path id="패스_2549" data-name="패스 2549" d="M18,60.308a18.18,18.18,0,0,0,18-15.65c-.217-.19-.425-.4-.642-.617a4.892,4.892,0,0,0-7.758,0,3.482,3.482,0,0,1-5.721,0,4.892,4.892,0,0,0-7.758,0,3.711,3.711,0,0,1-2.86,1.5,3.711,3.711,0,0,1-2.86-1.5,5.027,5.027,0,0,0-3.879-1.911A5.027,5.027,0,0,0,.642,44.04c-.216.219-.425.427-.642.618a18.18,18.18,0,0,0,18,15.65" transform="translate(0 -42.129)" fill="#ff2300"/>
                </g>
              </g>
            </g>
            <path id="패스_2550" data-name="패스 2550" d="M37.977,5.492,39.875,0,41.63,5.427C42.1,7.18,42.523,8,41.524,9.167a2.369,2.369,0,0,1-3.488-.153c-.65-.987-.767-1.507-.059-3.522M31.995,9.88l1.9-5.492,1.755,5.427c.469,1.754.893,2.572-.106,3.741a2.368,2.368,0,0,1-3.487-.154c-.65-.986-.767-1.507-.059-3.522M26.013,5.492,27.91,0l1.755,5.427c.468,1.754.893,2.572-.107,3.741a2.368,2.368,0,0,1-3.487-.153c-.65-.987-.767-1.507-.059-3.522" transform="translate(-15.832 0)" fill="#ff2300" fill-rule="evenodd"/>
          </g>
        </g>
      </g>
    </g>
    <g id="그룹_1106" data-name="그룹 1106" transform="translate(-3 7)">
      <g id="타원_295" data-name="타원 295" transform="translate(231 329)" fill="#fff" stroke="#ff2300" stroke-width="1">
        <circle cx="12" cy="12" r="12" stroke="none"/>
        <circle cx="12" cy="12" r="11.5" fill="none"/>
      </g>
      <line id="선_61" data-name="선 61" x2="11" transform="translate(237.5 341.5)" fill="none" stroke="#ff2300" stroke-width="4"/>
    </g>
    <g id="그룹_1107" data-name="그룹 1107" transform="translate(-130 220)">
      <g id="타원_295-2" data-name="타원 295" transform="translate(231 329)" fill="#fff" stroke="#ff2300" stroke-width="1">
        <circle cx="12" cy="12" r="12" stroke="none"/>
        <circle cx="12" cy="12" r="11.5" fill="none"/>
      </g>
      <line id="선_61-2" data-name="선 61" x2="11" transform="translate(237.5 341.5)" fill="none" stroke="#ff2300" stroke-width="4"/>
    </g>
  </g>
</svg>
