<svg xmlns="http://www.w3.org/2000/svg" xmlns:xlink="http://www.w3.org/1999/xlink" width="345" height="642" viewBox="0 0 345 642">
  <defs>
    <clipPath id="clip-path">
      <rect id="사각형_1997" data-name="사각형 1997" width="345" height="642" transform="translate(0 48)" fill="#fff" stroke="#707070" stroke-width="1"/>
    </clipPath>
    <clipPath id="clip-path-2">
      <path id="패스_2887" data-name="패스 2887" d="M1205.5,2660c11.333,11.333,15.5,10,39.5,0s32.5-10.5,53.5-5.5,27.667-15.5,39-21.5,26.833-9,47.5-7c10.912,1.056,27.4-8.017,45.338-17.67,5.113-2.752,25.611,2.511,41.828-9.663,7.295-5.475,10.017-25.694,16.667-32.667,22-23.07-1.4-36.954-19.333-34-18.573,3.059-53,9-53,9s-31.9,15.291-47.667,15.667c-28,.667-65.167,21.333-89.833,32s-21.667,16.667-57,10S1194.167,2648.667,1205.5,2660Z" transform="translate(-1877.084 2441.97) rotate(-107)" fill="#11547d" opacity="0.58"/>
    </clipPath>
  </defs>
  <g id="마스크_그룹_51" data-name="마스크 그룹 51" transform="translate(0 -48)" clip-path="url(#clip-path)">
    <g id="해일_영역" data-name="해일 영역" transform="translate(0 -92)">
      <g id="그룹_1068" data-name="그룹 1068">
        <g id="그룹_1040" data-name="그룹 1040">
          <path id="패스_1152" data-name="패스 1152" d="M1205.5,2660c11.333,11.333,15.5,10,39.5,0s32.5-10.5,53.5-5.5,27.667-15.5,39-21.5,26.833-9,47.5-7c10.912,1.056,27.4-8.017,45.338-17.67,5.113-2.752,25.611,2.511,41.828-9.663,7.295-5.475,10.017-25.694,16.667-32.667,22-23.07-1.4-36.954-19.333-34-18.573,3.059-53,9-53,9s-31.9,15.291-47.667,15.667c-28,.667-65.167,21.333-89.833,32s-21.667,16.667-57,10S1194.167,2648.667,1205.5,2660Z" transform="translate(-1877.084 2441.97) rotate(-107)" fill="#11547d" opacity="0.58"/>
        </g>
        <g id="마스크_그룹_50" data-name="마스크 그룹 50" opacity="0.6" clip-path="url(#clip-path-2)">
          <g id="그룹_1067" data-name="그룹 1067" transform="translate(-3.5)">
            <g id="그룹_1053" data-name="그룹 1053" transform="translate(-63 -53.795)" opacity="0.6">
              <g id="그룹_1052" data-name="그룹 1052" transform="translate(172.5 297.811)">
                <g id="그룹_1051" data-name="그룹 1051" transform="translate(0 0)">
                  <g id="그룹_1042" data-name="그룹 1042" transform="translate(0 39)">
                    <g id="그룹_1041" data-name="그룹 1041">
                      <path id="패스_2837" data-name="패스 2837" d="M0,3c17.682,0,17.682,8.453,35.364,8.453S53.047,3,70.73,3s17.682,8.453,35.365,8.453S123.779,3,141.464,3s17.684,8.453,35.369,8.453" transform="translate(0 -3)" fill="none" stroke="#fff" stroke-miterlimit="10" stroke-width="3"/>
                      <path id="패스_2838" data-name="패스 2838" d="M0,16.265c17.682,0,17.682,8.453,35.364,8.453s17.683-8.453,35.366-8.453,17.682,8.453,35.365,8.453,17.685-8.453,35.37-8.453,17.684,8.453,35.369,8.453" transform="translate(0 -8.257)" fill="none" stroke="#fff" stroke-miterlimit="10" stroke-width="3"/>
                      <path id="패스_2839" data-name="패스 2839" d="M0,29.531c17.682,0,17.682,8.453,35.364,8.453s17.683-8.453,35.366-8.453,17.682,8.453,35.365,8.453,17.685-8.453,35.37-8.453,17.684,8.453,35.369,8.453" transform="translate(0 -13.515)" fill="none" stroke="#fff" stroke-miterlimit="10" stroke-width="3"/>
                      <path id="패스_2840" data-name="패스 2840" d="M0,42.8c17.682,0,17.682,8.453,35.364,8.453S53.047,42.8,70.73,42.8s17.682,8.453,35.365,8.453,17.685-8.453,35.37-8.453,17.684,8.453,35.369,8.453" transform="translate(0 -18.773)" fill="none" stroke="#fff" stroke-miterlimit="10" stroke-width="3"/>
                      <path id="패스_2841" data-name="패스 2841" d="M0,56.061c17.682,0,17.682,8.453,35.364,8.453s17.683-8.453,35.366-8.453,17.682,8.453,35.365,8.453,17.685-8.453,35.37-8.453,17.684,8.453,35.369,8.453" transform="translate(0 -24.03)" fill="none" stroke="#fff" stroke-miterlimit="10" stroke-width="3"/>
                    </g>
                  </g>
                  <g id="그룹_1044" data-name="그룹 1044" transform="translate(0 117)">
                    <g id="그룹_1043" data-name="그룹 1043">
                      <path id="패스_2842" data-name="패스 2842" d="M0,3c17.682,0,17.682,8.453,35.364,8.453S53.047,3,70.73,3s17.682,8.453,35.365,8.453S123.779,3,141.464,3s17.684,8.453,35.369,8.453" transform="translate(0 -3)" fill="none" stroke="#fff" stroke-miterlimit="10" stroke-width="3"/>
                      <path id="패스_2843" data-name="패스 2843" d="M0,16.265c17.682,0,17.682,8.453,35.364,8.453s17.683-8.453,35.366-8.453,17.682,8.453,35.365,8.453,17.685-8.453,35.37-8.453,17.684,8.453,35.369,8.453" transform="translate(0 -8.257)" fill="none" stroke="#fff" stroke-miterlimit="10" stroke-width="3"/>
                      <path id="패스_2844" data-name="패스 2844" d="M0,29.531c17.682,0,17.682,8.453,35.364,8.453s17.683-8.453,35.366-8.453,17.682,8.453,35.365,8.453,17.685-8.453,35.37-8.453,17.684,8.453,35.369,8.453" transform="translate(0 -13.515)" fill="none" stroke="#fff" stroke-miterlimit="10" stroke-width="3"/>
                      <path id="패스_2845" data-name="패스 2845" d="M0,42.8c17.682,0,17.682,8.453,35.364,8.453S53.047,42.8,70.73,42.8s17.682,8.453,35.365,8.453,17.685-8.453,35.37-8.453,17.684,8.453,35.369,8.453" transform="translate(0 -18.773)" fill="none" stroke="#fff" stroke-miterlimit="10" stroke-width="3"/>
                      <path id="패스_2846" data-name="패스 2846" d="M0,56.061c17.682,0,17.682,8.453,35.364,8.453s17.683-8.453,35.366-8.453,17.682,8.453,35.365,8.453,17.685-8.453,35.37-8.453,17.684,8.453,35.369,8.453" transform="translate(0 -24.03)" fill="none" stroke="#fff" stroke-miterlimit="10" stroke-width="3"/>
                    </g>
                  </g>
                  <g id="그룹_1046" data-name="그룹 1046" transform="translate(0 157)">
                    <g id="그룹_1045" data-name="그룹 1045">
                      <path id="패스_2847" data-name="패스 2847" d="M0,3c17.682,0,17.682,8.453,35.364,8.453S53.047,3,70.73,3s17.682,8.453,35.365,8.453S123.779,3,141.464,3s17.684,8.453,35.369,8.453" transform="translate(0 -3)" fill="none" stroke="#fff" stroke-miterlimit="10" stroke-width="3"/>
                      <path id="패스_2848" data-name="패스 2848" d="M0,16.265c17.682,0,17.682,8.453,35.364,8.453s17.683-8.453,35.366-8.453,17.682,8.453,35.365,8.453,17.685-8.453,35.37-8.453,17.684,8.453,35.369,8.453" transform="translate(0 -8.257)" fill="none" stroke="#fff" stroke-miterlimit="10" stroke-width="3"/>
                      <path id="패스_2849" data-name="패스 2849" d="M0,29.531c17.682,0,17.682,8.453,35.364,8.453s17.683-8.453,35.366-8.453,17.682,8.453,35.365,8.453,17.685-8.453,35.37-8.453,17.684,8.453,35.369,8.453" transform="translate(0 -13.515)" fill="none" stroke="#fff" stroke-miterlimit="10" stroke-width="3"/>
                      <path id="패스_2850" data-name="패스 2850" d="M0,42.8c17.682,0,17.682,8.453,35.364,8.453S53.047,42.8,70.73,42.8s17.682,8.453,35.365,8.453,17.685-8.453,35.37-8.453,17.684,8.453,35.369,8.453" transform="translate(0 -18.773)" fill="none" stroke="#fff" stroke-miterlimit="10" stroke-width="3"/>
                      <path id="패스_2851" data-name="패스 2851" d="M0,56.061c17.682,0,17.682,8.453,35.364,8.453s17.683-8.453,35.366-8.453,17.682,8.453,35.365,8.453,17.685-8.453,35.37-8.453,17.684,8.453,35.369,8.453" transform="translate(0 -24.03)" fill="none" stroke="#fff" stroke-miterlimit="10" stroke-width="3"/>
                    </g>
                  </g>
                  <g id="그룹_1048" data-name="그룹 1048">
                    <g id="그룹_1047" data-name="그룹 1047">
                      <path id="패스_2852" data-name="패스 2852" d="M0,3c17.682,0,17.682,8.453,35.364,8.453S53.047,3,70.73,3s17.682,8.453,35.365,8.453S123.779,3,141.464,3s17.684,8.453,35.369,8.453" transform="translate(0 -3)" fill="none" stroke="#fff" stroke-miterlimit="10" stroke-width="3"/>
                      <path id="패스_2853" data-name="패스 2853" d="M0,16.265c17.682,0,17.682,8.453,35.364,8.453s17.683-8.453,35.366-8.453,17.682,8.453,35.365,8.453,17.685-8.453,35.37-8.453,17.684,8.453,35.369,8.453" transform="translate(0 -8.257)" fill="none" stroke="#fff" stroke-miterlimit="10" stroke-width="3"/>
                      <path id="패스_2854" data-name="패스 2854" d="M0,29.531c17.682,0,17.682,8.453,35.364,8.453s17.683-8.453,35.366-8.453,17.682,8.453,35.365,8.453,17.685-8.453,35.37-8.453,17.684,8.453,35.369,8.453" transform="translate(0 -13.515)" fill="none" stroke="#fff" stroke-miterlimit="10" stroke-width="3"/>
                      <path id="패스_2855" data-name="패스 2855" d="M0,42.8c17.682,0,17.682,8.453,35.364,8.453S53.047,42.8,70.73,42.8s17.682,8.453,35.365,8.453,17.685-8.453,35.37-8.453,17.684,8.453,35.369,8.453" transform="translate(0 -18.773)" fill="none" stroke="#fff" stroke-miterlimit="10" stroke-width="3"/>
                      <path id="패스_2856" data-name="패스 2856" d="M0,56.061c17.682,0,17.682,8.453,35.364,8.453s17.683-8.453,35.366-8.453,17.682,8.453,35.365,8.453,17.685-8.453,35.37-8.453,17.684,8.453,35.369,8.453" transform="translate(0 -24.03)" fill="none" stroke="#fff" stroke-miterlimit="10" stroke-width="3"/>
                    </g>
                  </g>
                  <g id="그룹_1050" data-name="그룹 1050" transform="translate(0 78)">
                    <g id="그룹_1049" data-name="그룹 1049">
                      <path id="패스_2857" data-name="패스 2857" d="M0,3c17.682,0,17.682,8.453,35.364,8.453S53.047,3,70.73,3s17.682,8.453,35.365,8.453S123.779,3,141.464,3s17.684,8.453,35.369,8.453" transform="translate(0 -3)" fill="none" stroke="#fff" stroke-miterlimit="10" stroke-width="3"/>
                      <path id="패스_2858" data-name="패스 2858" d="M0,16.265c17.682,0,17.682,8.453,35.364,8.453s17.683-8.453,35.366-8.453,17.682,8.453,35.365,8.453,17.685-8.453,35.37-8.453,17.684,8.453,35.369,8.453" transform="translate(0 -8.257)" fill="none" stroke="#fff" stroke-miterlimit="10" stroke-width="3"/>
                      <path id="패스_2859" data-name="패스 2859" d="M0,29.531c17.682,0,17.682,8.453,35.364,8.453s17.683-8.453,35.366-8.453,17.682,8.453,35.365,8.453,17.685-8.453,35.37-8.453,17.684,8.453,35.369,8.453" transform="translate(0 -13.515)" fill="none" stroke="#fff" stroke-miterlimit="10" stroke-width="3"/>
                      <path id="패스_2860" data-name="패스 2860" d="M0,42.8c17.682,0,17.682,8.453,35.364,8.453S53.047,42.8,70.73,42.8s17.682,8.453,35.365,8.453,17.685-8.453,35.37-8.453,17.684,8.453,35.369,8.453" transform="translate(0 -18.773)" fill="none" stroke="#fff" stroke-miterlimit="10" stroke-width="3"/>
                      <path id="패스_2861" data-name="패스 2861" d="M0,56.061c17.682,0,17.682,8.453,35.364,8.453s17.683-8.453,35.366-8.453,17.682,8.453,35.365,8.453,17.685-8.453,35.37-8.453,17.684,8.453,35.369,8.453" transform="translate(0 -24.03)" fill="none" stroke="#fff" stroke-miterlimit="10" stroke-width="3"/>
                    </g>
                  </g>
                </g>
              </g>
            </g>
            <g id="그룹_1066" data-name="그룹 1066" transform="translate(8 143.205)" opacity="0.6">
              <g id="그룹_1065" data-name="그룹 1065" transform="translate(172.5 297.811)">
                <g id="그룹_1064" data-name="그룹 1064" transform="translate(0 0)">
                  <g id="그룹_1055" data-name="그룹 1055" transform="translate(0 39)">
                    <g id="그룹_1054" data-name="그룹 1054">
                      <path id="패스_2862" data-name="패스 2862" d="M0,3c17.682,0,17.682,8.453,35.364,8.453S53.047,3,70.73,3s17.682,8.453,35.365,8.453S123.779,3,141.464,3s17.684,8.453,35.369,8.453" transform="translate(0 -3)" fill="none" stroke="#fff" stroke-miterlimit="10" stroke-width="3"/>
                      <path id="패스_2863" data-name="패스 2863" d="M0,16.265c17.682,0,17.682,8.453,35.364,8.453s17.683-8.453,35.366-8.453,17.682,8.453,35.365,8.453,17.685-8.453,35.37-8.453,17.684,8.453,35.369,8.453" transform="translate(0 -8.257)" fill="none" stroke="#fff" stroke-miterlimit="10" stroke-width="3"/>
                      <path id="패스_2864" data-name="패스 2864" d="M0,29.531c17.682,0,17.682,8.453,35.364,8.453s17.683-8.453,35.366-8.453,17.682,8.453,35.365,8.453,17.685-8.453,35.37-8.453,17.684,8.453,35.369,8.453" transform="translate(0 -13.515)" fill="none" stroke="#fff" stroke-miterlimit="10" stroke-width="3"/>
                      <path id="패스_2865" data-name="패스 2865" d="M0,42.8c17.682,0,17.682,8.453,35.364,8.453S53.047,42.8,70.73,42.8s17.682,8.453,35.365,8.453,17.685-8.453,35.37-8.453,17.684,8.453,35.369,8.453" transform="translate(0 -18.773)" fill="none" stroke="#fff" stroke-miterlimit="10" stroke-width="3"/>
                      <path id="패스_2866" data-name="패스 2866" d="M0,56.061c17.682,0,17.682,8.453,35.364,8.453s17.683-8.453,35.366-8.453,17.682,8.453,35.365,8.453,17.685-8.453,35.37-8.453,17.684,8.453,35.369,8.453" transform="translate(0 -24.03)" fill="none" stroke="#fff" stroke-miterlimit="10" stroke-width="3"/>
                    </g>
                  </g>
                  <g id="그룹_1057" data-name="그룹 1057" transform="translate(0 117)">
                    <g id="그룹_1056" data-name="그룹 1056">
                      <path id="패스_2867" data-name="패스 2867" d="M0,3c17.682,0,17.682,8.453,35.364,8.453S53.047,3,70.73,3s17.682,8.453,35.365,8.453S123.779,3,141.464,3s17.684,8.453,35.369,8.453" transform="translate(0 -3)" fill="none" stroke="#fff" stroke-miterlimit="10" stroke-width="3"/>
                      <path id="패스_2868" data-name="패스 2868" d="M0,16.265c17.682,0,17.682,8.453,35.364,8.453s17.683-8.453,35.366-8.453,17.682,8.453,35.365,8.453,17.685-8.453,35.37-8.453,17.684,8.453,35.369,8.453" transform="translate(0 -8.257)" fill="none" stroke="#fff" stroke-miterlimit="10" stroke-width="3"/>
                      <path id="패스_2869" data-name="패스 2869" d="M0,29.531c17.682,0,17.682,8.453,35.364,8.453s17.683-8.453,35.366-8.453,17.682,8.453,35.365,8.453,17.685-8.453,35.37-8.453,17.684,8.453,35.369,8.453" transform="translate(0 -13.515)" fill="none" stroke="#fff" stroke-miterlimit="10" stroke-width="3"/>
                      <path id="패스_2870" data-name="패스 2870" d="M0,42.8c17.682,0,17.682,8.453,35.364,8.453S53.047,42.8,70.73,42.8s17.682,8.453,35.365,8.453,17.685-8.453,35.37-8.453,17.684,8.453,35.369,8.453" transform="translate(0 -18.773)" fill="none" stroke="#fff" stroke-miterlimit="10" stroke-width="3"/>
                      <path id="패스_2871" data-name="패스 2871" d="M0,56.061c17.682,0,17.682,8.453,35.364,8.453s17.683-8.453,35.366-8.453,17.682,8.453,35.365,8.453,17.685-8.453,35.37-8.453,17.684,8.453,35.369,8.453" transform="translate(0 -24.03)" fill="none" stroke="#fff" stroke-miterlimit="10" stroke-width="3"/>
                    </g>
                  </g>
                  <g id="그룹_1059" data-name="그룹 1059" transform="translate(0 157)">
                    <g id="그룹_1058" data-name="그룹 1058">
                      <path id="패스_2872" data-name="패스 2872" d="M0,3c17.682,0,17.682,8.453,35.364,8.453S53.047,3,70.73,3s17.682,8.453,35.365,8.453S123.779,3,141.464,3s17.684,8.453,35.369,8.453" transform="translate(0 -3)" fill="none" stroke="#fff" stroke-miterlimit="10" stroke-width="3"/>
                      <path id="패스_2873" data-name="패스 2873" d="M0,16.265c17.682,0,17.682,8.453,35.364,8.453s17.683-8.453,35.366-8.453,17.682,8.453,35.365,8.453,17.685-8.453,35.37-8.453,17.684,8.453,35.369,8.453" transform="translate(0 -8.257)" fill="none" stroke="#fff" stroke-miterlimit="10" stroke-width="3"/>
                      <path id="패스_2874" data-name="패스 2874" d="M0,29.531c17.682,0,17.682,8.453,35.364,8.453s17.683-8.453,35.366-8.453,17.682,8.453,35.365,8.453,17.685-8.453,35.37-8.453,17.684,8.453,35.369,8.453" transform="translate(0 -13.515)" fill="none" stroke="#fff" stroke-miterlimit="10" stroke-width="3"/>
                      <path id="패스_2875" data-name="패스 2875" d="M0,42.8c17.682,0,17.682,8.453,35.364,8.453S53.047,42.8,70.73,42.8s17.682,8.453,35.365,8.453,17.685-8.453,35.37-8.453,17.684,8.453,35.369,8.453" transform="translate(0 -18.773)" fill="none" stroke="#fff" stroke-miterlimit="10" stroke-width="3"/>
                      <path id="패스_2876" data-name="패스 2876" d="M0,56.061c17.682,0,17.682,8.453,35.364,8.453s17.683-8.453,35.366-8.453,17.682,8.453,35.365,8.453,17.685-8.453,35.37-8.453,17.684,8.453,35.369,8.453" transform="translate(0 -24.03)" fill="none" stroke="#fff" stroke-miterlimit="10" stroke-width="3"/>
                    </g>
                  </g>
                  <g id="그룹_1061" data-name="그룹 1061">
                    <g id="그룹_1060" data-name="그룹 1060">
                      <path id="패스_2877" data-name="패스 2877" d="M0,3c17.682,0,17.682,8.453,35.364,8.453S53.047,3,70.73,3s17.682,8.453,35.365,8.453S123.779,3,141.464,3s17.684,8.453,35.369,8.453" transform="translate(0 -3)" fill="none" stroke="#fff" stroke-miterlimit="10" stroke-width="3"/>
                      <path id="패스_2878" data-name="패스 2878" d="M0,16.265c17.682,0,17.682,8.453,35.364,8.453s17.683-8.453,35.366-8.453,17.682,8.453,35.365,8.453,17.685-8.453,35.37-8.453,17.684,8.453,35.369,8.453" transform="translate(0 -8.257)" fill="none" stroke="#fff" stroke-miterlimit="10" stroke-width="3"/>
                      <path id="패스_2879" data-name="패스 2879" d="M0,29.531c17.682,0,17.682,8.453,35.364,8.453s17.683-8.453,35.366-8.453,17.682,8.453,35.365,8.453,17.685-8.453,35.37-8.453,17.684,8.453,35.369,8.453" transform="translate(0 -13.515)" fill="none" stroke="#fff" stroke-miterlimit="10" stroke-width="3"/>
                      <path id="패스_2880" data-name="패스 2880" d="M0,42.8c17.682,0,17.682,8.453,35.364,8.453S53.047,42.8,70.73,42.8s17.682,8.453,35.365,8.453,17.685-8.453,35.37-8.453,17.684,8.453,35.369,8.453" transform="translate(0 -18.773)" fill="none" stroke="#fff" stroke-miterlimit="10" stroke-width="3"/>
                      <path id="패스_2881" data-name="패스 2881" d="M0,56.061c17.682,0,17.682,8.453,35.364,8.453s17.683-8.453,35.366-8.453,17.682,8.453,35.365,8.453,17.685-8.453,35.37-8.453,17.684,8.453,35.369,8.453" transform="translate(0 -24.03)" fill="none" stroke="#fff" stroke-miterlimit="10" stroke-width="3"/>
                    </g>
                  </g>
                  <g id="그룹_1063" data-name="그룹 1063" transform="translate(0 78)">
                    <g id="그룹_1062" data-name="그룹 1062">
                      <path id="패스_2882" data-name="패스 2882" d="M0,3c17.682,0,17.682,8.453,35.364,8.453S53.047,3,70.73,3s17.682,8.453,35.365,8.453S123.779,3,141.464,3s17.684,8.453,35.369,8.453" transform="translate(0 -3)" fill="none" stroke="#fff" stroke-miterlimit="10" stroke-width="3"/>
                      <path id="패스_2883" data-name="패스 2883" d="M0,16.265c17.682,0,17.682,8.453,35.364,8.453s17.683-8.453,35.366-8.453,17.682,8.453,35.365,8.453,17.685-8.453,35.37-8.453,17.684,8.453,35.369,8.453" transform="translate(0 -8.257)" fill="none" stroke="#fff" stroke-miterlimit="10" stroke-width="3"/>
                      <path id="패스_2884" data-name="패스 2884" d="M0,29.531c17.682,0,17.682,8.453,35.364,8.453s17.683-8.453,35.366-8.453,17.682,8.453,35.365,8.453,17.685-8.453,35.37-8.453,17.684,8.453,35.369,8.453" transform="translate(0 -13.515)" fill="none" stroke="#fff" stroke-miterlimit="10" stroke-width="3"/>
                      <path id="패스_2885" data-name="패스 2885" d="M0,42.8c17.682,0,17.682,8.453,35.364,8.453S53.047,42.8,70.73,42.8s17.682,8.453,35.365,8.453,17.685-8.453,35.37-8.453,17.684,8.453,35.369,8.453" transform="translate(0 -18.773)" fill="none" stroke="#fff" stroke-miterlimit="10" stroke-width="3"/>
                      <path id="패스_2886" data-name="패스 2886" d="M0,56.061c17.682,0,17.682,8.453,35.364,8.453s17.683-8.453,35.366-8.453,17.682,8.453,35.365,8.453,17.685-8.453,35.37-8.453,17.684,8.453,35.369,8.453" transform="translate(0 -24.03)" fill="none" stroke="#fff" stroke-miterlimit="10" stroke-width="3"/>
                    </g>
                  </g>
                </g>
              </g>
            </g>
          </g>
        </g>
      </g>
      <rect id="사각형_1998" data-name="사각형 1998" width="345" height="642" transform="translate(0 140)" fill="none"/>
    </g>
  </g>
</svg>
