<svg xmlns="http://www.w3.org/2000/svg" width="88" height="88" viewBox="0 0 88 88">
    <defs>
        <clipPath id="clip-path">
            <path id="패스_2794" data-name="패스 2794" d="M0 33.17h72v-88H0z" transform="translate(0 54.83)" style="fill:none"/>
        </clipPath>
        <clipPath id="clip-path-2">
            <path id="사각형_2124" data-name="사각형 2124" style="fill:none" d="M0 0h36.27v50H0z"/>
        </clipPath>
        <style>
            
        </style>
    </defs>
    <g id="그룹_1044" data-name="그룹 1044" transform="translate(-129 -220)">
        <g id="그룹_1013" data-name="그룹 1013">
            <path id="합치기_6" data-name="합치기 6" d="M-2862.556 3185.7h.333a36.8 36.8 0 0 1-11.777-27.084c0-20.223 16.117-36.615 36-36.615s36 16.393 36 36.615a36.8 36.8 0 0 1-11.777 27.087h.33l-25.271 24.3z" transform="translate(3011.001 -2902)" style="fill:#e2898c"/>
            <g id="그룹_1301" data-name="그룹 1301" transform="translate(149.666 233.666)">
                <g id="그룹_1300" data-name="그룹 1300" style="clip-path:url(#clip-path-2)">
                    <path id="패스_4007" data-name="패스 4007" d="M52.7 111.669h-6.634a3.484 3.484 0 0 1-3.484-3.484V102h13.6v6.183a3.483 3.483 0 0 1-3.484 3.484" transform="translate(-25.744 -61.669)" style="fill:#fff"/>
                    <path id="사각형_2122" data-name="사각형 2122" transform="translate(16.838 24.422)" style="fill:#fff" d="M0 0h13.602v14.671H0z"/>
                    <path id="패스_4008" data-name="패스 4008" d="M58.184 30.7v-1.928h-4.676V30.7h.085z" transform="translate(-32.35 -17.395)" style="fill:#fff"/>
                    <path id="패스_4009" data-name="패스 4009" d="M51.779 33.64h-4.875a4.4 4.4 0 0 0-4.32 4.4v5.261h13.6v-5.256a4.405 4.405 0 0 0-4.405-4.405" transform="translate(-25.745 -20.338)" style="fill:#fff"/>
                    <path id="패스_4010" data-name="패스 4010" d="M64.771 20.119H53.508v2.595H57.7v-.72a.577.577 0 0 1 .577-.577h6.494l3.849 2.3v-1z" transform="translate(-32.35 -12.164)" style="fill:#fff"/>
                    <path id="패스_4011" data-name="패스 4011" d="m53.671 7.567.278-1.667L64.955 0l2.766.285v1.084L65.1 1.4l-6.817 3.818-.418 2.357z" transform="translate(-32.449)" style="fill:#fff"/>
                    <path id="사각형_2123" data-name="사각형 2123" transform="translate(18.848 7.955)" style="fill:#fff" d="M0 0h1.604v3.422H0z"/>
                    <path id="패스_4012" data-name="패스 4012" d="M34.76 21.922h-1.215a2.19 2.19 0 0 0-1.919 1.134l-.112.328a26.9 26.9 0 0 0-1.319 6.1l-1.474 15.193a.811.811 0 0 1-.807.741H27.4v2.053l1.47-.352a1.681 1.681 0 0 0 1.28-1.455L32.194 28.2a22.117 22.117 0 0 1 .794-3.826 1.451 1.451 0 0 1 1.271-.743h.5z" transform="translate(-16.567 -13.254)" style="fill:#fff"/>
                    <path id="패스_4013" data-name="패스 4013" d="m22.894 83.514 1.1-.278v-2.264l-1.1-.106z" transform="translate(-13.842 -48.891)" style="fill:#fff"/>
                    <path id="패스_4014" data-name="패스 4014" d="m0 78.386 8.07.927v2.851L.114 83.946z" transform="translate(0 -47.391)" style="fill:#fff"/>
                </g>
            </g>
        </g>
        <path id="사각형_1988" data-name="사각형 1988" transform="translate(129 220)" style="fill:none" d="M0 0h88v88H0z"/>
    </g>
</svg>
