<svg xmlns="http://www.w3.org/2000/svg" xmlns:xlink="http://www.w3.org/1999/xlink" width="40" height="40" viewBox="0 0 40 40">
  <defs>
    <clipPath id="clip-path">
      <circle id="타원_267" data-name="타원 267" cx="20" cy="20" r="20" transform="translate(0 0)" fill="#fff" stroke="#910004" stroke-width="6"/>
    </clipPath>
    <clipPath id="clip-path-2">
      <rect id="사각형_1850" data-name="사각형 1850" width="23.786" height="23.786" transform="translate(0 0)" fill="#ff2300"/>
    </clipPath>
  </defs>
  <g id="그룹_501" data-name="그룹 501" transform="translate(-136 -496)">
    <g id="패스_1150" data-name="패스 1150" transform="translate(136 496)" fill="#fff">
      <path d="M 20 39 C 17.43457984924316 39 14.94641971588135 38.49777984619141 12.60464954376221 37.50730133056641 C 10.34226036071777 36.55038833618164 8.310219764709473 35.18027877807617 6.564970016479492 33.43503189086914 C 4.819719791412354 31.68977928161621 3.449609994888306 29.65773963928223 2.492700099945068 27.39534950256348 C 1.502220034599304 25.05357933044434 1 22.5654296875 1 20 C 1 17.43457984924316 1.502220034599304 14.94641971588135 2.492700099945068 12.60464954376221 C 3.449609994888306 10.34226036071777 4.819719791412354 8.310219764709473 6.564970016479492 6.564970016479492 C 8.310219764709473 4.819719791412354 10.34226036071777 3.449609994888306 12.60464954376221 2.492700099945068 C 14.94641971588135 1.502220034599304 17.43457984924316 1 20 1 C 22.5654296875 1 25.05357933044434 1.502220034599304 27.39534950256348 2.492700099945068 C 29.65773963928223 3.449609994888306 31.68977928161621 4.819719791412354 33.43503189086914 6.564970016479492 C 35.18027877807617 8.310219764709473 36.55038833618164 10.34226036071777 37.50730133056641 12.60464954376221 C 38.49777984619141 14.94641971588135 39 17.43457984924316 39 20 C 39 22.5654296875 38.49777984619141 25.05357933044434 37.50730133056641 27.39534950256348 C 36.55038833618164 29.65773963928223 35.18027877807617 31.68977928161621 33.43503189086914 33.43503189086914 C 31.68977928161621 35.18027877807617 29.65773963928223 36.55038833618164 27.39534950256348 37.50730133056641 C 25.05357933044434 38.49777984619141 22.5654296875 39 20 39 Z" stroke="none"/>
      <path d="M 20 2 C 15.19202041625977 2 10.67182922363281 3.872329711914062 7.272079467773438 7.272079467773438 C 3.872329711914062 10.67182922363281 2 15.19202041625977 2 20 C 2 24.80797958374023 3.872329711914062 29.32817077636719 7.272079467773438 32.72792053222656 C 10.67182922363281 36.12767028808594 15.19202041625977 38 20 38 C 24.80797958374023 38 29.32817077636719 36.12767028808594 32.72792053222656 32.72792053222656 C 36.12767028808594 29.32817077636719 38 24.80797958374023 38 20 C 38 15.19202041625977 36.12767028808594 10.67182922363281 32.72792053222656 7.272079467773438 C 29.32817077636719 3.872329711914062 24.80797958374023 2 20 2 M 20 0 C 31.04570007324219 0 40 8.954299926757812 40 20 C 40 31.04570007324219 31.04570007324219 40 20 40 C 8.954299926757812 40 0 31.04570007324219 0 20 C 0 8.954299926757812 8.954299926757812 0 20 0 Z" stroke="none" fill="#910004"/>
    </g>
    <g id="그룹_565" data-name="그룹 565" transform="translate(144 504)">
      <g id="그룹_555" data-name="그룹 555" transform="translate(0 0)" clip-path="url(#clip-path-2)">
        <path id="패스_1149" data-name="패스 1149" d="M23.786,15.9a12.379,12.379,0,0,0-5.674-9.623,10.36,10.36,0,0,1,5.02.042A12.378,12.378,0,0,0,12.315,3.521,10.355,10.355,0,0,1,15.894,0,12.378,12.378,0,0,0,6.271,5.675,10.357,10.357,0,0,1,6.313.655,12.378,12.378,0,0,0,3.52,11.472,10.359,10.359,0,0,1,0,7.892a12.378,12.378,0,0,0,5.674,9.623,10.357,10.357,0,0,1-5.02-.042,12.378,12.378,0,0,0,10.817,2.792,10.357,10.357,0,0,1-3.579,3.52,12.378,12.378,0,0,0,9.623-5.674,10.356,10.356,0,0,1-.042,5.02,12.378,12.378,0,0,0,2.792-10.817,10.358,10.358,0,0,1,3.52,3.579m-11.893,0a4,4,0,1,1,4-4,4,4,0,0,1-4,4" transform="translate(0 -0.001)" fill="#ff2300"/>
      </g>
    </g>
  </g>
</svg>
