<svg xmlns="http://www.w3.org/2000/svg" width="24" height="24" viewBox="0 0 24 24">
  <g id="그룹_621" data-name="그룹 621" transform="translate(-302 -720)">
    <rect id="사각형_1862" data-name="사각형 1862" width="24" height="24" transform="translate(302 720)" fill="none"/>
    <path id="패스_1059" data-name="패스 1059" d="M520.619,699.686a4.692,4.692,0,0,0,0-1.372l1.518-1.155a.347.347,0,0,0,.086-.448l-1.439-2.422a.367.367,0,0,0-.439-.154l-1.792.7a5.3,5.3,0,0,0-1.216-.686l-.273-1.855a.348.348,0,0,0-.353-.294h-2.879a.348.348,0,0,0-.353.294l-.273,1.855a5.575,5.575,0,0,0-1.216.686l-1.792-.7a.356.356,0,0,0-.439.154l-1.439,2.422a.339.339,0,0,0,.086.448l1.518,1.155a4.695,4.695,0,0,0,0,1.372l-1.518,1.155a.347.347,0,0,0-.086.448l1.439,2.422a.367.367,0,0,0,.439.154l1.792-.7a5.3,5.3,0,0,0,1.216.686l.273,1.855a.348.348,0,0,0,.353.294h2.879a.348.348,0,0,0,.353-.294l.273-1.855a5.574,5.574,0,0,0,1.216-.686l1.792.7a.356.356,0,0,0,.439-.154l1.439-2.422a.347.347,0,0,0-.086-.448Zm-5.347,1.764a2.451,2.451,0,1,1,2.519-2.45A2.488,2.488,0,0,1,515.272,701.45Z" transform="translate(-201.271 33)" fill="#747474"/>
  </g>
</svg>
