<svg xmlns="http://www.w3.org/2000/svg" xmlns:xlink="http://www.w3.org/1999/xlink" width="24" height="24" viewBox="0 0 24 24">
  <defs>
    <clipPath id="clip-path">
      <rect id="사각형_1835" data-name="사각형 1835" width="12.75" height="16.491" fill="#fff"/>
    </clipPath>
  </defs>
  <g id="그룹_602" data-name="그룹 602" transform="translate(-123 -104)">
    <circle id="타원_265" data-name="타원 265" cx="12" cy="12" r="12" transform="translate(123 104)" fill="#ff2300"/>
    <g id="그룹_513" data-name="그룹 513" transform="translate(129 108.004)" clip-path="url(#clip-path)">
      <path id="패스_1141" data-name="패스 1141" d="M11.485,6.362,10.8,5.476,10.751,6.6c-.012.306-.133,1.509-.966,1.438-.449-.038-.9-.464-.4-1.716.858-2.154.052-2.694-1.191-3.724A2.368,2.368,0,0,1,7.563,0s-3.1.293-2.972,3.265c.086,2.032-2.637.293-1.965,5.058.051.363.15.643,0,.865a.517.517,0,0,1-.393.249l-.033,0c-.213-.033-.6-.465-.818-.846l-.407-.7L.656,8.63a5.32,5.32,0,0,0-.1,4.92c1.4,2.446,4.952,2.893,5.1,2.911a6.6,6.6,0,0,0,.676.03h0c1.151,0,3.976-.246,5.367-2.529a6.912,6.912,0,0,0-.215-7.6m-5.415,9.4c-2.16-.188-2.343-1.348-2.552-2.135a4.418,4.418,0,0,1,1.13-3.521,2.643,2.643,0,0,0,1.1-2.26c0-1.291,1.535-2.1,1.535-2.1S6.553,7.035,7.2,7.83a2.132,2.132,0,0,1,.46,2.352c-.955,1.948.234,2.1.879,3.446.377.786-.161,2.336-2.471,2.135" transform="translate(0)" fill="#fff"/>
    </g>
  </g>
</svg>
