<svg xmlns="http://www.w3.org/2000/svg" width="16" height="16" viewBox="0 0 16 16">
    <g data-name="그룹 1095">
        <path data-name="사각형 2018" style="fill:none" d="M0 0h16v16H0z"/>
        <g data-name="그룹 1093">
            <g data-name="그룹 1094">
                <path data-name="패스 2965" d="M9.7 9.682a2.273 2.273 0 0 0-1.592.65L4.411 7.923a2.189 2.189 0 0 0 0-1.609L8.1 3.908a2.28 2.28 0 1 0-.684-1.626 2.275 2.275 0 0 0 .153.8L3.88 5.492a2.282 2.282 0 1 0 0 3.253l3.69 2.407a2.278 2.278 0 1 0 2.13-1.47" style="fill:#7f7f7f" transform="translate(1.12 1.36)"/>
            </g>
        </g>
    </g>
</svg>
