<svg xmlns="http://www.w3.org/2000/svg" xmlns:xlink="http://www.w3.org/1999/xlink" width="28" height="28" viewBox="0 0 28 28">
  <defs>
    <clipPath id="clip-path">
      <rect id="사각형_1651" data-name="사각형 1651" width="15" height="23.064" transform="translate(0 0)" fill="#ff2300"/>
    </clipPath>
  </defs>
  <g id="그룹_616" data-name="그룹 616" transform="translate(-158 -656)">
    <rect id="사각형_1816" data-name="사각형 1816" width="28" height="28" transform="translate(158 656)" fill="none"/>
    <g id="그룹_400" data-name="그룹 400" transform="translate(164.5 658.468)">
      <g id="그룹_399" data-name="그룹 399" clip-path="url(#clip-path)">
        <path id="패스_1121" data-name="패스 1121" d="M27.377,4.609a2.3,2.3,0,1,0-2.3-2.3,2.3,2.3,0,0,0,2.3,2.3" transform="translate(-19.074 0)" fill="#ff2300"/>
        <path id="패스_1122" data-name="패스 1122" d="M14.014,24.224l-2.377-.6L9.858,20.976a1.08,1.08,0,0,0-.688-.459,1.282,1.282,0,0,0-.261-.063l-2.525-.33a1.266,1.266,0,0,0-.744.129L2.118,21.994a1.074,1.074,0,0,0-.512.429,1.076,1.076,0,0,0-.172.244L.229,25.113a1.111,1.111,0,1,0,1.971.906l1.058-2.145,1.472-.922L4,27.78H4l-1,3.809L.482,35.137a1.388,1.388,0,0,0,2.182,1.716L5.287,33.18a1.371,1.371,0,0,0,.195-.351,1.41,1.41,0,0,0,.132-.283l1.01-2.862,2.3,3.421L7.417,36.612a1.388,1.388,0,0,0,2.678.73l1.637-3.988a1.384,1.384,0,0,0-.145-1.261L9.065,28.335l.592-3.768.38.565a1.073,1.073,0,0,0,.528.411,1.065,1.065,0,0,0,.274.116l2.507.632a1.1,1.1,0,0,0,.541.146,1.11,1.11,0,0,0,.127-2.214" transform="translate(0 -15.301)" fill="#ff2300"/>
      </g>
    </g>
  </g>
</svg>
