<svg xmlns="http://www.w3.org/2000/svg" width="24" height="24" viewBox="0 0 24 24">
    <defs>
        <clipPath id="zzng8o2d9a">
            <path data-name="사각형 1835" style="fill:#ff2300" d="M0 0h14.583v18.863H0z"/>
        </clipPath>
    </defs>
    <g data-name="그룹 602" transform="translate(-123 -104)">
        <circle data-name="타원 265" cx="12" cy="12" r="12" transform="translate(123 104)" style="fill:none"/>
        <g data-name="그룹 513" transform="translate(129.083 106.819)" style="clip-path:url(#zzng8o2d9a)">
            <path data-name="패스 1141" d="m13.136 7.277-.787-1.014-.049 1.283c-.014.35-.152 1.726-1.1 1.645-.513-.044-1.032-.531-.462-1.963.981-2.463.059-3.081-1.362-4.259A2.708 2.708 0 0 1 8.65 0s-3.543.335-3.4 3.735C5.349 6.059 2.235 4.07 3 9.519c.059.416.171.736.005.99a.592.592 0 0 1-.449.284.236.236 0 0 1-.038 0c-.244-.038-.681-.532-.936-.968l-.465-.8-.37.849c-.958 2.2-1 4.093-.118 5.627 1.605 2.8 5.664 3.309 5.838 3.33a7.544 7.544 0 0 0 .773.034c1.316 0 4.548-.282 6.138-2.892a7.906 7.906 0 0 0-.246-8.693M6.943 18.03c-2.47-.215-2.68-1.542-2.919-2.442a5.054 5.054 0 0 1 1.292-4.028A3.023 3.023 0 0 0 6.58 8.976c0-1.477 1.756-2.4 1.756-2.4s-.84 1.47-.1 2.38a2.439 2.439 0 0 1 .527 2.69c-1.093 2.228.268 2.4 1.006 3.942.431.9-.185 2.672-2.827 2.442" style="fill:#ff2300"/>
        </g>
    </g>
</svg>
