<svg data-name="그룹 557" xmlns="http://www.w3.org/2000/svg" width="24" height="24" viewBox="0 0 24 24">
    <defs>
        <clipPath id="z9y98s6sla">
            <path data-name="사각형 1850" style="fill:#ff2300" d="M0 0h20.704v20.704H0z"/>
        </clipPath>
    </defs>
    <path data-name="패스 4015" d="M12 0A12 12 0 1 1 0 12 12 12 0 0 1 12 0z" style="fill:none"/>
    <g data-name="그룹 556">
        <g data-name="그룹 555" transform="translate(2.041 2.041)" style="clip-path:url(#z9y98s6sla)">
            <path data-name="패스 1149" d="M20.7 13.836a10.775 10.775 0 0 0-4.939-8.376 9.018 9.018 0 0 1 4.37.036 10.774 10.774 0 0 0-9.415-2.431A9.013 9.013 0 0 1 13.835 0a10.774 10.774 0 0 0-8.376 4.94A9.015 9.015 0 0 1 5.495.57a10.774 10.774 0 0 0-2.431 9.415A9.017 9.017 0 0 1 0 6.87a10.774 10.774 0 0 0 4.939 8.376 9.015 9.015 0 0 1-4.37-.036 10.774 10.774 0 0 0 9.415 2.431A9.015 9.015 0 0 1 6.869 20.7a10.774 10.774 0 0 0 8.376-4.939 9.014 9.014 0 0 1-.036 4.37 10.774 10.774 0 0 0 2.431-9.411 9.016 9.016 0 0 1 3.06 3.116m-10.352 0a3.483 3.483 0 1 1 3.483-3.483 3.483 3.483 0 0 1-3.483 3.483" transform="translate(0 -.001)" style="fill:#ff2300"/>
        </g>
    </g>
</svg>
