<svg xmlns="http://www.w3.org/2000/svg" width="24" height="24" viewBox="0 0 24 24">
    <defs>
        <clipPath id="gkebfgyxda">
            <path data-name="사각형 1850" style="fill:#fff" d="M0 0h16.786v16.786H0z"/>
        </clipPath>
    </defs>
    <g data-name="그룹 557" transform="translate(-123 -104)">
        <circle data-name="타원 265" cx="12" cy="12" r="12" transform="translate(123 104)" style="fill:#ff2300"/>
        <g data-name="그룹 556">
            <g data-name="그룹 555" transform="translate(127 108)" style="clip-path:url(#gkebfgyxda)">
                <path data-name="패스 1149" d="M16.786 11.218a8.736 8.736 0 0 0-4-6.791 7.311 7.311 0 0 1 3.543.03 8.735 8.735 0 0 0-7.638-1.972A7.308 7.308 0 0 1 11.217 0a8.735 8.735 0 0 0-6.791 4A7.309 7.309 0 0 1 4.455.462 8.735 8.735 0 0 0 2.484 8.1 7.311 7.311 0 0 1 0 5.57a8.735 8.735 0 0 0 4 6.791 7.309 7.309 0 0 1-3.543-.029A8.735 8.735 0 0 0 8.095 14.3a7.309 7.309 0 0 1-2.526 2.484 8.735 8.735 0 0 0 6.791-4 7.308 7.308 0 0 1-.029 3.543A8.735 8.735 0 0 0 14.3 8.692a7.31 7.31 0 0 1 2.484 2.526m-8.393 0a2.824 2.824 0 1 1 2.824-2.824 2.824 2.824 0 0 1-2.824 2.824" transform="translate(0 -.001)" style="fill:#fff"/>
            </g>
        </g>
    </g>
</svg>
