<svg xmlns="http://www.w3.org/2000/svg" xmlns:xlink="http://www.w3.org/1999/xlink" width="345" height="642" viewBox="0 0 345 642">
  <defs>
    <clipPath id="clip-path">
      <rect id="사각형_1994" data-name="사각형 1994" width="345" height="642" transform="translate(0 140)" fill="#9f1b1b"/>
    </clipPath>
    <clipPath id="clip-path-2">
      <circle id="타원_267" data-name="타원 267" cx="20" cy="20" r="20" transform="translate(0 0)" fill="#fff" stroke="#910004" stroke-width="6"/>
    </clipPath>
    <clipPath id="clip-path-3">
      <rect id="사각형_1850" data-name="사각형 1850" width="23.786" height="23.786" transform="translate(0 0)" fill="#ff2300"/>
    </clipPath>
  </defs>
  <g id="m05-distance" transform="translate(0 -140)" clip-path="url(#clip-path)">
    <g id="그룹_503" data-name="그룹 503" transform="translate(-2 20)">
      <path id="패스_1138" data-name="패스 1138" d="M1281.667,1778.667s-66-134-70-138-21-84.667-21-84.667L1217,1442" transform="translate(-1162 -1016)" fill="none" stroke="#5c6bb7" stroke-width="2"/>
      <circle id="타원_269" data-name="타원 269" cx="6" cy="6" r="6" transform="translate(23 534)" fill="#5c6bb7"/>
      <circle id="타원_270" data-name="타원 270" cx="6" cy="6" r="6" transform="translate(43 619)" fill="#5c6bb7"/>
    </g>
    <g id="그룹_505" data-name="그룹 505" transform="translate(0 20)">
      <path id="패스_1139" data-name="패스 1139" d="M0,104V0" transform="translate(155.25 429.5) rotate(90)" fill="none" stroke="#910004" stroke-width="1"/>
      <g id="그룹_504" data-name="그룹 504" transform="translate(17 7.313)">
        <g id="그룹_502" data-name="그룹 502" transform="translate(439.959 278.688) rotate(90)">
          <path id="패스_980" data-name="패스 980" d="M402.625,302.436l-24.5,20.571L351,302.436V218.508h51.625Z" transform="translate(-234 30.702)" fill="#910004"/>
        </g>
        <text id="제주_초속_45m" data-name="제주 초속 45m" transform="translate(107.5 415.5)" fill="#fff" font-size="12" font-family="SpoqaHanSansNeo-Medium, Spoqa Han Sans Neo" font-weight="500" letter-spacing="-0.015em"><tspan x="0" y="0">제주 초속 45m</tspan></text>
        <text id="태풍_OOO" data-name="태풍 OOO" transform="translate(107.5 435.5)" fill="#fff" font-size="16" font-family="SpoqaHanSansNeo-Bold, Spoqa Han Sans Neo" font-weight="700" letter-spacing="-0.015em"><tspan x="0" y="0">태풍 OOO</tspan></text>
      </g>
      <g id="그룹_501" data-name="그룹 501" transform="translate(-99 -86)">
        <g id="패스_1150" data-name="패스 1150" transform="translate(136 496)" fill="#fff">
          <path d="M 20 39 C 17.43457984924316 39 14.94641971588135 38.49777984619141 12.60464954376221 37.50730133056641 C 10.34226036071777 36.55038833618164 8.310219764709473 35.18027877807617 6.564970016479492 33.43503189086914 C 4.819719791412354 31.68977928161621 3.449609994888306 29.65773963928223 2.492700099945068 27.39534950256348 C 1.502220034599304 25.05357933044434 1 22.5654296875 1 20 C 1 17.43457984924316 1.502220034599304 14.94641971588135 2.492700099945068 12.60464954376221 C 3.449609994888306 10.34226036071777 4.819719791412354 8.310219764709473 6.564970016479492 6.564970016479492 C 8.310219764709473 4.819719791412354 10.34226036071777 3.449609994888306 12.60464954376221 2.492700099945068 C 14.94641971588135 1.502220034599304 17.43457984924316 1 20 1 C 22.5654296875 1 25.05357933044434 1.502220034599304 27.39534950256348 2.492700099945068 C 29.65773963928223 3.449609994888306 31.68977928161621 4.819719791412354 33.43503189086914 6.564970016479492 C 35.18027877807617 8.310219764709473 36.55038833618164 10.34226036071777 37.50730133056641 12.60464954376221 C 38.49777984619141 14.94641971588135 39 17.43457984924316 39 20 C 39 22.5654296875 38.49777984619141 25.05357933044434 37.50730133056641 27.39534950256348 C 36.55038833618164 29.65773963928223 35.18027877807617 31.68977928161621 33.43503189086914 33.43503189086914 C 31.68977928161621 35.18027877807617 29.65773963928223 36.55038833618164 27.39534950256348 37.50730133056641 C 25.05357933044434 38.49777984619141 22.5654296875 39 20 39 Z" stroke="none"/>
          <path d="M 20 2 C 15.19202041625977 2 10.67182922363281 3.872329711914062 7.272079467773438 7.272079467773438 C 3.872329711914062 10.67182922363281 2 15.19202041625977 2 20 C 2 24.80797958374023 3.872329711914062 29.32817077636719 7.272079467773438 32.72792053222656 C 10.67182922363281 36.12767028808594 15.19202041625977 38 20 38 C 24.80797958374023 38 29.32817077636719 36.12767028808594 32.72792053222656 32.72792053222656 C 36.12767028808594 29.32817077636719 38 24.80797958374023 38 20 C 38 15.19202041625977 36.12767028808594 10.67182922363281 32.72792053222656 7.272079467773438 C 29.32817077636719 3.872329711914062 24.80797958374023 2 20 2 M 20 0 C 31.04570007324219 0 40 8.954299926757812 40 20 C 40 31.04570007324219 31.04570007324219 40 20 40 C 8.954299926757812 40 0 31.04570007324219 0 20 C 0 8.954299926757812 8.954299926757812 0 20 0 Z" stroke="none" fill="#910004"/>
        </g>
        <g id="그룹_565" data-name="그룹 565" transform="translate(144 504)">
          <g id="그룹_555" data-name="그룹 555" transform="translate(0 0)" clip-path="url(#clip-path-3)">
            <path id="패스_1149" data-name="패스 1149" d="M23.786,15.9a12.379,12.379,0,0,0-5.674-9.623,10.36,10.36,0,0,1,5.02.042A12.378,12.378,0,0,0,12.315,3.521,10.355,10.355,0,0,1,15.894,0,12.378,12.378,0,0,0,6.271,5.675,10.357,10.357,0,0,1,6.313.655,12.378,12.378,0,0,0,3.52,11.472,10.359,10.359,0,0,1,0,7.892a12.378,12.378,0,0,0,5.674,9.623,10.357,10.357,0,0,1-5.02-.042,12.378,12.378,0,0,0,10.817,2.792,10.357,10.357,0,0,1-3.579,3.52,12.378,12.378,0,0,0,9.623-5.674,10.356,10.356,0,0,1-.042,5.02,12.378,12.378,0,0,0,2.792-10.817,10.358,10.358,0,0,1,3.52,3.579m-11.893,0a4,4,0,1,1,4-4,4,4,0,0,1-4,4" transform="translate(0 -0.001)" fill="#ff2300"/>
          </g>
        </g>
      </g>
    </g>
    <g id="그룹_568" data-name="그룹 568" transform="translate(-2)">
      <g id="그룹_525" data-name="그룹 525" transform="translate(246.181 -78.123) rotate(16)">
        <line id="선_3" data-name="선 3" x1="159.946" y2="252.281" transform="translate(-20.446 277.5)" fill="none" stroke="#000" stroke-linecap="round" stroke-width="2.5" stroke-dasharray="0.2 5"/>
        <path id="다각형_1" data-name="다각형 1" d="M5,0l5,10H0Z" transform="matrix(0.883, 0.469, -0.469, 0.883, 139.152, 268.289)"/>
        <path id="다각형_2" data-name="다각형 2" d="M5,0l5,10H0Z" transform="matrix(-0.883, -0.469, 0.469, -0.883, -21.406, 540.984)"/>
      </g>
      <g id="그룹_524" data-name="그룹 524" transform="translate(34 -82)">
        <rect id="사각형_1838" data-name="사각형 1838" width="63" height="21" rx="10.5" transform="translate(136 388)"/>
        <text id="_289_km" data-name="289 km" transform="translate(168 403)" fill="#fff" font-size="12" font-family="SpoqaHanSansNeo-Medium, Spoqa Han Sans Neo" font-weight="500"><tspan x="-21.174" y="0">289 km</tspan></text>
      </g>
    </g>
    <g id="lacation" transform="translate(292 174)">
      <path id="패스_997" data-name="패스 997" d="M17.315,25.063A7.35,7.35,0,0,0,24.678,17.7a7.577,7.577,0,0,0-7.363-7.626,7.35,7.35,0,0,0-7.363,7.363A7.761,7.761,0,0,0,17.315,25.063ZM4.956,5.078A17.479,17.479,0,1,1,29.675,29.8L17.315,42.156,4.956,29.8A17.956,17.956,0,0,1,4.956,5.078Z" transform="translate(-0.025 0.05)" fill="#910004" fill-rule="evenodd"/>
      <circle id="타원_272" data-name="타원 272" cx="11" cy="11" r="11" transform="translate(6 6.103)" fill="#910004"/>
      <circle id="타원_273" data-name="타원 273" cx="7" cy="7" r="7" transform="translate(10 10.103)" fill="#fff"/>
    </g>
  </g>
</svg>
