<svg xmlns="http://www.w3.org/2000/svg" xmlns:xlink="http://www.w3.org/1999/xlink" width="924" height="1180" viewBox="0 0 924 1180">
  <defs>
    <clipPath id="clip-path">
      <rect id="사각형_1872" data-name="사각형 1872" width="924" height="1180" transform="translate(0 60)" fill="none" stroke="#707070" stroke-width="1"/>
    </clipPath>
    <clipPath id="clip-path-2">
      <circle id="타원_267" data-name="타원 267" cx="33.67" cy="33.67" r="33.67" fill="#fff" stroke="#910004" stroke-width="6"/>
    </clipPath>
    <clipPath id="clip-path-3">
      <rect id="사각형_1850" data-name="사각형 1850" width="43.151" height="43.151" fill="#ff2300"/>
    </clipPath>
  </defs>
  <g id="m05-distance-lg" transform="translate(0 -60)" clip-path="url(#clip-path)">
    <g id="그룹_656" data-name="그룹 656">
      <g id="그룹_602" data-name="그룹 602" transform="translate(174.177 108.673)">
        <g id="그룹_568" data-name="그룹 568" transform="translate(0 0)">
          <g id="그룹_525" data-name="그룹 525" transform="translate(191.679 0) rotate(16)">
            <g id="그룹_601" data-name="그룹 601" transform="translate(20.326 26.66)">
              <path id="패스_1151" data-name="패스 1151" d="M403.268,0,0,643.94" transform="translate(0)" fill="none" stroke="#000" stroke-linecap="round" stroke-width="3" stroke-dasharray="0.3 8"/>
            </g>
            <path id="다각형_1" data-name="다각형 1" d="M10.112,0,20.224,20.224H0Z" transform="matrix(0.883, 0.469, -0.469, 0.883, 427.342, 0)"/>
            <path id="다각형_2" data-name="다각형 2" d="M10.112,0,20.224,20.224H0Z" transform="matrix(-0.883, -0.469, 0.469, -0.883, 17.856, 695.401)"/>
          </g>
        </g>
        <g id="그룹_600" data-name="그룹 600" transform="translate(250.521 341.813)">
          <rect id="사각형_1838" data-name="사각형 1838" width="160" height="56" rx="28" transform="translate(0.303 -0.487)"/>
          <text id="_289_km" data-name="289 km" transform="translate(79.812 37.561)" fill="#fff" font-size="30" font-family="SpoqaHanSansNeo-Medium, Spoqa Han Sans Neo" font-weight="500"><tspan x="-52.935" y="0">289 km</tspan></text>
        </g>
      </g>
      <g id="그룹_503" data-name="그룹 503" transform="translate(112.161 810.274)">
        <path id="패스_1138" data-name="패스 1138" d="M1246.154,1886.42s-18.09-58.712-25.642-66.264-24.251-163.712-24.251-163.712l33.132-204.25" transform="translate(-1182.418 -1452.194)" fill="none" stroke="#5c6bb7" stroke-width="2"/>
        <circle id="타원_269" data-name="타원 269" cx="10" cy="10" r="10" transform="translate(3.844 194.167)" fill="#5c6bb7"/>
        <circle id="타원_270" data-name="타원 270" cx="10" cy="10" r="10" transform="translate(24.844 349.37)" fill="#5c6bb7"/>
      </g>
      <g id="그룹_505" data-name="그룹 505" transform="translate(119.736 761.213)">
        <path id="패스_1139" data-name="패스 1139" d="M0,188.67V0" transform="translate(214.521 45.797) rotate(90)" fill="none" stroke="#910004" stroke-width="1"/>
        <g id="그룹_504" data-name="그룹 504" transform="translate(118.762 -3.077)">
          <g id="그룹_502" data-name="그룹 502" transform="translate(191.001 0) rotate(90)">
            <path id="패스_980" data-name="패스 980" d="M92,154.2,48.339,192,0,154.2V0H92Z" transform="translate(0)" fill="#910004"/>
          </g>
          <text id="제주_초속_45m" data-name="제주 초속 45m" transform="translate(39.975 35.797)" fill="#fff" font-size="20" font-family="SpoqaHanSansNeo-Medium, Spoqa Han Sans Neo" font-weight="500" letter-spacing="-0.015em"><tspan x="0" y="0">제주 초속 45m</tspan></text>
          <text id="태풍_OOO" data-name="태풍 OOO" transform="translate(39.975 71.823)" fill="#fff" font-size="27" font-family="SpoqaHanSansNeo-Bold, Spoqa Han Sans Neo" font-weight="700" letter-spacing="-0.015em"><tspan x="0" y="0">태풍 OOO</tspan></text>
        </g>
        <g id="그룹_501" data-name="그룹 501" transform="translate(5 10.112)">
          <g id="패스_1150" data-name="패스 1150" fill="#fff">
            <path d="M 34 67 C 29.54458999633789 67 25.22298049926758 66.12761688232422 21.15522003173828 64.40711212158203 C 17.2257194519043 62.74507141113281 13.69645977020264 60.36550903320312 10.66547966003418 57.33451843261719 C 7.634490013122559 54.30353927612305 5.254930019378662 50.7742805480957 3.592890024185181 46.84477996826172 C 1.872380018234253 42.77701950073242 1 38.45541000366211 1 34 C 1 29.54458999633789 1.872380018234253 25.22298049926758 3.592890024185181 21.15522003173828 C 5.254930019378662 17.2257194519043 7.634490013122559 13.69645977020264 10.66547966003418 10.66547966003418 C 13.69645977020264 7.634490013122559 17.2257194519043 5.254930019378662 21.15522003173828 3.592890024185181 C 25.22298049926758 1.872380018234253 29.54458999633789 1 34 1 C 38.45541000366211 1 42.77701950073242 1.872380018234253 46.84477996826172 3.592890024185181 C 50.7742805480957 5.254930019378662 54.30353927612305 7.634490013122559 57.33451843261719 10.66547966003418 C 60.36550903320312 13.69645977020264 62.74507141113281 17.2257194519043 64.40711212158203 21.15522003173828 C 66.12761688232422 25.22298049926758 67 29.54458999633789 67 34 C 67 38.45541000366211 66.12761688232422 42.77701950073242 64.40711212158203 46.84477996826172 C 62.74507141113281 50.7742805480957 60.36550903320312 54.30353927612305 57.33451843261719 57.33451843261719 C 54.30353927612305 60.36550903320312 50.7742805480957 62.74507141113281 46.84477996826172 64.40711212158203 C 42.77701950073242 66.12761688232422 38.45541000366211 67 34 67 Z" stroke="none"/>
            <path d="M 34 2 C 29.67914581298828 2 25.48860168457031 2.845802307128906 21.54476547241211 4.513900756835938 C 17.73446655273438 6.125511169433594 14.31204605102539 8.433109283447266 11.37257766723633 11.37257766723633 C 8.433109283447266 14.31204605102539 6.125511169433594 17.73446655273438 4.513900756835938 21.54476547241211 C 2.845802307128906 25.48860168457031 2 29.67914581298828 2 34 C 2 38.32085418701172 2.845802307128906 42.51139831542969 4.513900756835938 46.45523071289062 C 6.125511169433594 50.26553344726562 8.433109283447266 53.68794250488281 11.37257766723633 56.62741088867188 C 14.31204605102539 59.56688690185547 17.73446655273438 61.87447738647461 21.54476547241211 63.48609924316406 C 25.48860168457031 65.15419769287109 29.67914581298828 66 34 66 C 38.32085418701172 66 42.51139831542969 65.15419769287109 46.45523071289062 63.48609924316406 C 50.26552200317383 61.87447738647461 53.68794250488281 59.56688690185547 56.62741088867188 56.62741088867188 C 59.56688690185547 53.68794250488281 61.87447738647461 50.26552200317383 63.48609924316406 46.45523071289062 C 65.15419769287109 42.51139831542969 66 38.32085418701172 66 34 C 66 29.67914581298828 65.15419769287109 25.48860168457031 63.48609924316406 21.54476547241211 C 61.87447738647461 17.73446655273438 59.56688690185547 14.31204605102539 56.62741088867188 11.37257766723633 C 53.68794250488281 8.433109283447266 50.26553344726562 6.125511169433594 46.45523071289062 4.513900756835938 C 42.51139831542969 2.845802307128906 38.32085418701172 2 34 2 M 34 0 C 52.77767944335938 0 68 15.22231292724609 68 34 C 68 52.77767944335938 52.77767944335938 68 34 68 C 15.22231292724609 68 0 52.77767944335938 0 34 C 0 15.22231292724609 15.22231292724609 0 34 0 Z" stroke="none" fill="#910004"/>
          </g>
          <g id="그룹_565" data-name="그룹 565" transform="translate(12.261 12.26)">
            <g id="그룹_555" data-name="그룹 555" transform="translate(0 0)" clip-path="url(#clip-path-3)">
              <path id="패스_1149" data-name="패스 1149" d="M43.15,28.835A22.456,22.456,0,0,0,32.857,11.377a18.8,18.8,0,0,1,9.108.076A22.456,22.456,0,0,0,22.341,6.387,18.785,18.785,0,0,1,28.834,0,22.455,22.455,0,0,0,11.377,10.294a18.789,18.789,0,0,1,.076-9.108A22.456,22.456,0,0,0,6.386,20.81,18.793,18.793,0,0,1,0,14.317,22.455,22.455,0,0,0,10.293,31.775,18.789,18.789,0,0,1,1.186,31.7a22.456,22.456,0,0,0,19.623,5.066,18.789,18.789,0,0,1-6.493,6.386A22.455,22.455,0,0,0,31.774,32.858a18.787,18.787,0,0,1-.076,9.107,22.456,22.456,0,0,0,5.066-19.623,18.791,18.791,0,0,1,6.386,6.494m-21.575,0a7.259,7.259,0,1,1,7.259-7.259,7.259,7.259,0,0,1-7.259,7.259" transform="translate(0 0)" fill="#ff2300"/>
            </g>
          </g>
        </g>
      </g>
      <g id="t_location" transform="translate(749 157)">
        <g id="lacation" transform="translate(7 4)">
          <path id="패스_997" data-name="패스 997" d="M27.882,40.411A11.842,11.842,0,0,0,39.745,28.548c0-6.355-5.084-12.287-11.863-12.287A11.842,11.842,0,0,0,16.019,28.124C16.019,34.48,21.527,40.411,27.882,40.411ZM7.969,8.212A28.161,28.161,0,1,1,47.794,48.037L27.882,67.95,7.969,48.037A28.929,28.929,0,0,1,7.969,8.212Z" transform="translate(-0.025 0.05)" fill="#910004" fill-rule="evenodd"/>
          <circle id="타원_272" data-name="타원 272" cx="17.761" cy="17.761" r="17.761" transform="translate(10.627 9.855)" fill="#910004"/>
          <circle id="타원_273" data-name="타원 273" cx="11.303" cy="11.303" r="11.303" transform="translate(17.109 16.26)" fill="#fff"/>
        </g>
        <rect id="사각형_1863" data-name="사각형 1863" width="72" height="71.851" fill="none"/>
      </g>
    </g>
  </g>
</svg>
