<svg xmlns="http://www.w3.org/2000/svg" xmlns:xlink="http://www.w3.org/1999/xlink" width="924" height="1180" viewBox="0 0 924 1180">
  <defs>
    <clipPath id="clip-path">
      <rect id="사각형_1871" data-name="사각형 1871" width="924" height="1180" transform="translate(0 60)" fill="#fff"/>
    </clipPath>
    <clipPath id="clip-path-2">
      <circle id="타원_267" data-name="타원 267" cx="36.747" cy="36.747" r="36.747" fill="#fff" stroke="#910004" stroke-width="6"/>
    </clipPath>
    <clipPath id="clip-path-3">
      <rect id="사각형_1850" data-name="사각형 1850" width="43.151" height="43.151" fill="#ff2300"/>
    </clipPath>
  </defs>
  <g id="마스크_그룹_45" data-name="마스크 그룹 45" transform="translate(0 -60)" clip-path="url(#clip-path)">
    <g id="그룹_602" data-name="그룹 602" transform="translate(174.177 108.673)">
      <g id="그룹_568" data-name="그룹 568" transform="translate(0 0)">
        <g id="그룹_525" data-name="그룹 525" transform="translate(191.679 0) rotate(16)">
          <g id="그룹_601" data-name="그룹 601" transform="translate(20.326 26.66)">
            <path id="패스_1151" data-name="패스 1151" d="M403.268,0,0,643.94" transform="translate(0)" fill="none" stroke="#000" stroke-linecap="round" stroke-width="3" stroke-dasharray="0.3 8"/>
          </g>
          <path id="다각형_1" data-name="다각형 1" d="M10.112,0,20.224,20.224H0Z" transform="matrix(0.883, 0.469, -0.469, 0.883, 427.342, 0)"/>
          <path id="다각형_2" data-name="다각형 2" d="M10.112,0,20.224,20.224H0Z" transform="matrix(-0.883, -0.469, 0.469, -0.883, 17.856, 695.401)"/>
        </g>
      </g>
      <g id="그룹_600" data-name="그룹 600" transform="translate(250.521 341.813)">
        <rect id="사각형_1838" data-name="사각형 1838" width="161" height="57" rx="25" transform="translate(0.303 -0.487)"/>
        <text id="_289_km" data-name="289 km" transform="translate(80.303 38.513)" fill="#fff" font-size="29" font-family="SpoqaHanSansNeo-Medium, Spoqa Han Sans Neo" font-weight="500"><tspan x="-51.171" y="0">289 km</tspan></text>
      </g>
    </g>
    <g id="t_location" transform="translate(748 147)">
      <g id="lacation" transform="translate(8.141 4.626)">
        <path id="패스_997" data-name="패스 997" d="M31.392,45.509A13.334,13.334,0,0,0,44.749,32.152c0-7.156-5.725-13.835-13.358-13.835A13.334,13.334,0,0,0,18.034,31.674C18.034,38.83,24.236,45.509,31.392,45.509ZM8.97,9.253A31.709,31.709,0,1,1,53.813,54.1L31.392,76.518,8.97,54.1A32.574,32.574,0,0,1,8.97,9.253Z" transform="translate(-0.025 0.05)" fill="#910004" fill-rule="evenodd"/>
        <circle id="타원_272" data-name="타원 272" cx="19.956" cy="19.956" r="19.956" transform="translate(11.94 11.072)" fill="#910004"/>
        <circle id="타원_273" data-name="타원 273" cx="12.699" cy="12.699" r="12.699" transform="translate(19.223 18.329)" fill="#fff"/>
      </g>
      <rect id="사각형_1863" data-name="사각형 1863" width="81" height="81" fill="none"/>
    </g>
    <g id="그룹_503" data-name="그룹 503" transform="translate(112.161 806.274)">
      <path id="패스_1138" data-name="패스 1138" d="M1244.2,1887.256s-17.381-58.825-24.637-66.392-23.3-164.027-23.3-164.027l31.833-204.643" transform="translate(-1182.96 -1452.194)" fill="none" stroke="#5c6bb7" stroke-width="2"/>
      <circle id="타원_269" data-name="타원 269" cx="10.674" cy="10.674" r="10.674" transform="translate(5.249 184.635)" fill="#5c6bb7"/>
      <circle id="타원_270" data-name="타원 270" cx="10.674" cy="10.674" r="10.674" transform="translate(26.596 356.559)" fill="#5c6bb7"/>
    </g>
    <g id="그룹_505" data-name="그룹 505" transform="translate(119.736 757.213)">
      <path id="패스_1139" data-name="패스 1139" d="M0,188.67V0" transform="translate(214.521 48.874) rotate(90)" fill="none" stroke="#910004" stroke-width="1"/>
      <g id="그룹_504" data-name="그룹 504" transform="translate(118.762 0)">
        <g id="그룹_502" data-name="그룹 502" transform="translate(191.001 0) rotate(90)">
          <path id="패스_980" data-name="패스 980" d="M94.377,153.4,49.588,191,0,153.4V0H94.377Z" transform="translate(0)" fill="#910004"/>
        </g>
        <text id="제주_초속_45m" data-name="제주 초속 45m" transform="translate(39.975 35.797)" fill="#fff" font-size="20" font-family="SpoqaHanSansNeo-Medium, Spoqa Han Sans Neo" font-weight="500" letter-spacing="-0.015em"><tspan x="0" y="0">제주 초속 45m</tspan></text>
        <text id="태풍_OOO" data-name="태풍 OOO" transform="translate(39.975 71.823)" fill="#fff" font-size="27" font-family="SpoqaHanSansNeo-Bold, Spoqa Han Sans Neo" font-weight="700" letter-spacing="-0.015em"><tspan x="0" y="0">태풍 OOO</tspan></text>
      </g>
      <g id="그룹_501" data-name="그룹 501" transform="translate(0 10.112)">
        <g id="패스_1150" data-name="패스 1150" fill="#fff">
          <path d="M 37.07674789428711 73.15349578857422 C 32.20597839355469 73.15349578857422 27.48143768310547 72.19977569580078 23.03435707092285 70.31881713867188 C 18.73847770690918 68.50181579589844 14.88018798828125 65.90040588378906 11.56663799285889 62.58686828613281 C 8.253087997436523 59.27331924438477 5.651678085327148 55.41501617431641 3.834677934646606 51.11913681030273 C 1.953717947006226 46.67206954956055 0.9999979138374329 41.94751739501953 0.9999979138374329 37.07674789428711 C 0.9999979138374329 32.20597839355469 1.953717947006226 27.48143768310547 3.834677934646606 23.03435707092285 C 5.651678085327148 18.73847770690918 8.253087997436523 14.88018798828125 11.56663799285889 11.56663799285889 C 14.88018798828125 8.253087997436523 18.73847770690918 5.651678085327148 23.03435707092285 3.834677934646606 C 27.48143768310547 1.953717947006226 32.20597839355469 0.9999979138374329 37.07674789428711 0.9999979138374329 C 41.94751739501953 0.9999979138374329 46.67206954956055 1.953717947006226 51.11913681030273 3.834677934646606 C 55.41501617431641 5.651678085327148 59.27331924438477 8.253087997436523 62.58686828613281 11.56663799285889 C 65.90040588378906 14.88018798828125 68.50181579589844 18.73847770690918 70.31881713867188 23.03435707092285 C 72.19977569580078 27.48143768310547 73.15349578857422 32.20597839355469 73.15349578857422 37.07674789428711 C 73.15349578857422 41.94751739501953 72.19977569580078 46.67206954956055 70.31881713867188 51.11914825439453 C 68.50181579589844 55.41501617431641 65.90042114257812 59.27331924438477 62.58686828613281 62.58686828613281 C 59.27331924438477 65.90042114257812 55.41501617431641 68.50181579589844 51.11914825439453 70.31881713867188 C 46.67206954956055 72.19977569580078 41.94751739501953 73.15349578857422 37.07674789428711 73.15349578857422 Z" stroke="none"/>
          <path d="M 37.07674789428711 2 C 32.34053802490234 2 27.7470588684082 2.927146911621094 23.42391586303711 4.755683898925781 C 19.24723815917969 6.522270202636719 15.49578094482422 9.051712036132812 12.27374649047852 12.27374649047852 C 9.051712036132812 15.49578094482422 6.522270202636719 19.24723815917969 4.755683898925781 23.42391586303711 C 2.927146911621094 27.7470588684082 2 32.34053802490234 2 37.07674789428711 C 2 41.81295776367188 2.927146911621094 46.40643692016602 4.755683898925781 50.72958374023438 C 6.522270202636719 54.90625762939453 9.051712036132812 58.65771484375 12.27374649047852 61.8797492980957 C 15.49578094482422 65.10178375244141 19.24723815917969 67.6312255859375 23.42391586303711 69.39781188964844 C 27.7470588684082 71.22634887695312 32.34053802490234 72.15349578857422 37.07674789428711 72.15349578857422 C 41.81295776367188 72.15349578857422 46.40643692016602 71.22634887695312 50.72958374023438 69.39781188964844 C 54.90625762939453 67.6312255859375 58.65771484375 65.10178375244141 61.8797492980957 61.8797492980957 C 65.10178375244141 58.65771484375 67.6312255859375 54.90625762939453 69.39781188964844 50.72958374023438 C 71.22634887695312 46.40643692016602 72.15349578857422 41.81295776367188 72.15349578857422 37.07674789428711 C 72.15349578857422 32.34053802490234 71.22634887695312 27.7470588684082 69.39781188964844 23.42391586303711 C 67.6312255859375 19.24723815917969 65.10178375244141 15.49578094482422 61.8797492980957 12.27374649047852 C 58.65771484375 9.051712036132812 54.90625762939453 6.522270202636719 50.72958374023438 4.755683898925781 C 46.40643692016602 2.927146911621094 41.81295776367188 2 37.07674789428711 2 M 37.07674789428711 0 C 57.55367279052734 0 74.15349578857422 16.59982681274414 74.15349578857422 37.07674789428711 C 74.15349578857422 57.55367279052734 57.55367279052734 74.15349578857422 37.07674789428711 74.15349578857422 C 16.59982681274414 74.15349578857422 0 57.55367279052734 0 37.07674789428711 C 0 16.59982681274414 16.59982681274414 0 37.07674789428711 0 Z" stroke="none" fill="#910004"/>
        </g>
        <g id="그룹_565" data-name="그룹 565" transform="translate(15.297 15.297)">
          <g id="그룹_555" data-name="그룹 555" transform="translate(0 0)" clip-path="url(#clip-path-3)">
            <path id="패스_1149" data-name="패스 1149" d="M43.15,28.835A22.456,22.456,0,0,0,32.857,11.377a18.8,18.8,0,0,1,9.108.076A22.456,22.456,0,0,0,22.341,6.387,18.785,18.785,0,0,1,28.834,0,22.455,22.455,0,0,0,11.377,10.294a18.789,18.789,0,0,1,.076-9.108A22.456,22.456,0,0,0,6.386,20.81,18.793,18.793,0,0,1,0,14.317,22.455,22.455,0,0,0,10.293,31.775,18.789,18.789,0,0,1,1.186,31.7a22.456,22.456,0,0,0,19.623,5.066,18.789,18.789,0,0,1-6.493,6.386A22.455,22.455,0,0,0,31.774,32.858a18.787,18.787,0,0,1-.076,9.107,22.456,22.456,0,0,0,5.066-19.623,18.791,18.791,0,0,1,6.386,6.494m-21.575,0a7.259,7.259,0,1,1,7.259-7.259,7.259,7.259,0,0,1-7.259,7.259" transform="translate(0 0)" fill="#ff2300"/>
          </g>
        </g>
      </g>
    </g>
  </g>
</svg>
