<svg xmlns="http://www.w3.org/2000/svg" xmlns:xlink="http://www.w3.org/1999/xlink" width="584" height="640" viewBox="0 0 584 640">
  <defs>
    <clipPath id="clip-path">
      <rect id="사각형_1925" data-name="사각형 1925" width="584" height="640" transform="translate(0 0.222)" fill="#fff" stroke="#707070" stroke-width="1"/>
    </clipPath>
    <clipPath id="clip-path-2">
      <rect id="사각형_1924" data-name="사각형 1924" width="768.018" height="907.803" fill="none"/>
    </clipPath>
    <clipPath id="clip-path-4">
      <rect id="사각형_1909" data-name="사각형 1909" width="253.931" height="312.016" fill="none"/>
    </clipPath>
    <clipPath id="clip-path-5">
      <rect id="사각형_1910" data-name="사각형 1910" width="335.711" height="402.981" fill="none"/>
    </clipPath>
    <clipPath id="clip-path-7">
      <rect id="사각형_1912" data-name="사각형 1912" width="147.522" height="25.635" fill="none"/>
    </clipPath>
    <clipPath id="clip-path-9">
      <rect id="사각형_1914" data-name="사각형 1914" width="147.52" height="25.636" fill="none"/>
    </clipPath>
    <clipPath id="clip-path-11">
      <rect id="사각형_1916" data-name="사각형 1916" width="147.52" height="25.635" fill="none"/>
    </clipPath>
    <clipPath id="clip-path-13">
      <rect id="사각형_1918" data-name="사각형 1918" width="168.301" height="25.635" fill="none"/>
    </clipPath>
    <clipPath id="clip-path-16">
      <rect id="사각형_1921" data-name="사각형 1921" width="169.679" height="25.636" fill="none"/>
    </clipPath>
  </defs>
  <g id="m06-map-lg" transform="translate(0 -246)">
    <g id="마스크_그룹_36" data-name="마스크 그룹 36" transform="translate(0 245.778)" clip-path="url(#clip-path)">
      <g id="그룹_755" data-name="그룹 755" transform="translate(-82.897 -218.218)">
        <g id="그룹_754" data-name="그룹 754" clip-path="url(#clip-path-2)">
          <rect id="사각형_1908" data-name="사각형 1908" width="765.246" height="838.184" transform="translate(0 32.117)" fill="#98cdd5"/>
          <path id="패스_1662" data-name="패스 1662" d="M145.743,483.062,140.51,486.8v3.732l-10.083,9.341h3.738L142,494.64l-.381-3.178,5.987-5.036Z" transform="translate(82.574 305.828)" fill="#f4f3ec"/>
          <g id="그룹_724" data-name="그룹 724">
            <g id="그룹_723" data-name="그룹 723" clip-path="url(#clip-path-2)">
              <path id="패스_1663" data-name="패스 1663" d="M146.813,484.132l1.868,3.364-5.987,5.038.38,3.176-7.839,5.231H131.5l10.083-9.341v-3.73Zm0-2.763a2.762,2.762,0,0,0-1.605.514l-5.232,3.737a2.765,2.765,0,0,0-1.159,2.25v2.523l-9.2,8.522a2.764,2.764,0,0,0,1.878,4.792h3.738a2.771,2.771,0,0,0,1.533-.465l7.839-5.232a2.761,2.761,0,0,0,1.212-2.628l-.2-1.694,4.841-4.076a2.762,2.762,0,0,0,.637-3.456l-1.867-3.364a2.775,2.775,0,0,0-2.417-1.422" transform="translate(81.503 304.756)" fill="#b7b6af"/>
              <path id="패스_1664" data-name="패스 1664" d="M195.273,356.956l-3.363.193-.562-12.325-6.158-19.607L175.107,310.1l-6.728-11.2-2.371-7.124-11.884,8.953a1.15,1.15,0,0,1-.679.219H136.666l-11.2,9.031-6.946,7.841c1.063.051,2.249.126,2.249.126a30.74,30.74,0,0,1,1.676,4.1,8.057,8.057,0,0,1-.748,2.055l4.858,4.672-3.176,3.918,2.242,5.979-5.228-2.054-6.911.559-4.667,1.5,1.31,3.17,1.12,6.534,2.984.753,1.868-3.743,3.73,4.484,1.5,5.231-3.185,2.242-.554,5.228,4.1-.376,2.242,2.8,1.306,2.241a15.817,15.817,0,0,1-3.356,1.3c-.748,0-2.8,1.867-2.8,1.867l.74,2.616-3.168,2.43-2.43,2.428.188,2.236.56,4.3-3.356,5.226.366,2.987,5.606,1.87-6.72,6.534V405.5l4.476.936,2.616-1.115,6.162.928,5.043-3.73,1.676-2.99,3.176.374,1.868,4.106,2.242-.369,1.488-3,4.486-1.3,2.8-4.667,3.919-2.242,2.99,2.056,4.481,1.114.376-2.236,3.916-.748,2.618,4.486h3.542l1.122-3.369-.934-2.237.934-2.428,6.915.934,7.654-2.8,3.915-1.674-.745-7.1,5.231-8.215Z" transform="translate(68.893 184.719)" fill="#e8e9ea"/>
              <path id="패스_1665" data-name="패스 1665" d="M167.078,292.839l2.371,7.124,6.728,11.2,10.083,15.121,6.158,19.607.562,12.325,3.363-.193-2.428,13.259-5.231,8.215.745,7.1-3.915,1.674-7.654,2.8-6.915-.934-.934,2.428.934,2.237-1.12,3.369h-3.544l-2.618-4.486-3.916.748-.374,2.236-4.483-1.114-2.99-2.056-3.919,2.242-2.8,4.667-4.484,1.3-1.488,3-2.244.369-1.867-4.106-3.178-.374-1.676,2.99-5.043,3.73-6.162-.928-2.616,1.115-4.476-.936V402.1l6.72-6.534-5.6-1.87-.367-2.987,3.358-5.226-.562-4.3-.186-2.236,2.428-2.428,3.168-2.43-.738-2.616s2.053-1.867,2.8-1.867a15.781,15.781,0,0,0,3.356-1.3l-1.3-2.241-2.242-2.8-4.106.376.554-5.228,3.185-2.242-1.5-5.231-3.728-4.484-1.868,3.743-2.985-.753L111.2,342.9l-1.31-3.17,4.667-1.5,6.911-.559,5.229,2.054-2.244-5.979,3.176-3.918-4.857-4.672a8.068,8.068,0,0,0,.746-2.055,30.74,30.74,0,0,0-1.676-4.1s-1.184-.075-2.249-.126l6.946-7.841,11.2-9.031h16.778a1.15,1.15,0,0,0,.679-.219Zm29.265,65.189h.015m-29.28-67.953a2.76,2.76,0,0,0-1.663.557l-11.435,8.616H137.736a2.758,2.758,0,0,0-1.734.612l-11.2,9.031a3.058,3.058,0,0,0-.335.317l-6.944,7.842a2.765,2.765,0,0,0,1.94,4.594c.185.008.374.016.555.028.26.581.485,1.111.629,1.481-.1.253-.238.559-.349.777a2.765,2.765,0,0,0,.555,3.229l3.028,2.912-1.574,1.943a2.763,2.763,0,0,0-.443,2.713l.088.234a2.722,2.722,0,0,0-.487-.044c-.075,0-.149,0-.224.01l-6.911.56a2.692,2.692,0,0,0-.621.122l-4.664,1.5a2.76,2.76,0,0,0-1.71,3.686l1.191,2.886,1.068,6.23a2.762,2.762,0,0,0,2.048,2.213l2.985.753a2.806,2.806,0,0,0,.674.083,2.764,2.764,0,0,0,2.45-1.484l.65.784.8,2.783-1.578,1.109a2.757,2.757,0,0,0-1.156,1.97l-.554,5.226a2.764,2.764,0,0,0,2.747,3.056c.085,0,.168,0,.25-.011l2.626-.24.627.785a9.716,9.716,0,0,0-3.867,2.5,2.762,2.762,0,0,0-.8,2.8l.229.812-1.68,1.289a2.513,2.513,0,0,0-.274.238l-2.427,2.43a2.753,2.753,0,0,0-.8,2.182l.185,2.237.444,3.423-2.809,4.375a2.755,2.755,0,0,0-.418,1.832l.367,2.989a2.76,2.76,0,0,0,1.867,2.285l1.3.431-3.465,3.369a2.765,2.765,0,0,0-.836,1.981v4.476a2.764,2.764,0,0,0,2.2,2.706l4.478.936a2.824,2.824,0,0,0,.562.057,2.743,2.743,0,0,0,1.083-.22l1.9-.808,5.386.81a2.662,2.662,0,0,0,.412.033,2.771,2.771,0,0,0,1.643-.542l5.045-3.732a2.77,2.77,0,0,0,.766-.869l.671-1.194,1.124,2.476a2.767,2.767,0,0,0,2.515,1.618,3,3,0,0,0,.449-.036l2.242-.369a2.765,2.765,0,0,0,2.027-1.5l.947-1.909,3.32-.962a2.78,2.78,0,0,0,1.6-1.233l2.428-4.047,1.787-1.022,1.561,1.073a2.734,2.734,0,0,0,.9.4l4.483,1.115a2.708,2.708,0,0,0,.666.083,2.766,2.766,0,0,0,2.724-2.306l.057-.34.108-.021,1.635,2.8a2.755,2.755,0,0,0,2.384,1.37h3.544a2.763,2.763,0,0,0,2.623-1.891l1.12-3.371a2.771,2.771,0,0,0-.072-1.935l-.207-.495,4.2.567a2.77,2.77,0,0,0,1.318-.144l7.654-2.8q.069-.024.137-.054l3.916-1.676a2.758,2.758,0,0,0,1.661-2.828l-.642-6.141,4.712-7.4a2.724,2.724,0,0,0,.385-.986l2.394-13.066a2.828,2.828,0,0,0,.087-.691,2.755,2.755,0,0,0-2.755-2.763h-.064c-.046,0-.088,0-.132.007l-.547.031-.434-9.532a2.71,2.71,0,0,0-.124-.7L188.9,325.458a2.732,2.732,0,0,0-.338-.7l-10.083-15.123-6.5-10.832-2.275-6.836a2.766,2.766,0,0,0-1.8-1.765,2.65,2.65,0,0,0-.82-.126" transform="translate(67.822 183.647)" fill="#b7b6af"/>
              <path id="패스_1666" data-name="패스 1666" d="M99.01,363.85h6.72l2.241,5.6,2.242-.74,2.424-3.55,2.99-3.924,4.858,2.428,3.728,3.738,5.793-1.682s1.88,1.189,3.2,1.837l7.916-8.931a1.337,1.337,0,0,1,.131-.124l11.579-9.336a1.114,1.114,0,0,1,.7-.25h16.806l12.188-9.18-.237-.715-2.054.558-5.786-6.539-12.7-4.29-3.173-13.073-3.552-2.424,4.671-4.483s2.244,2.989,2.8,2.054,6.722-2.8,6.722-2.8l5.231-.374,4.664-3.358L188.071,297l6.908-.374.56-4.29,2.99-3.176,6.719-.186,8.962-9.149-.932-5.974,5.045-.934-.188-7.656-5.972-.372-.374-6.536,6.9-5.417,9.15-11.2,10.834.374,3.167-4.292-2.615-7.1-.425-3.836-.31-.09-10.32-.371a1.108,1.108,0,0,1-1.047-.861l-1.414-6.015L218,212.455l-1.762,6.782a.328.328,0,0,1-.024.065L212.107,232a1.121,1.121,0,0,1-1.066.777h-6.09l-8.265,13.651a1.116,1.116,0,0,1-.954.541H170.944l3.137,2.915a1.058,1.058,0,0,1,.343.635l2.249,13.821a1.13,1.13,0,0,1-1.344,1.275l-17.553-3.737a1.047,1.047,0,0,1-.534-.281l-13.431-12.717-4.844,4.545V261.9a1.112,1.112,0,0,1-.211.647L126.8,279.358a1.121,1.121,0,0,1-.91.469h-7.767l-4.769,6.632a1.111,1.111,0,0,1-.668.436l-9.823,2.185-13.24,10.669a1.487,1.487,0,0,1-.31.175l-5.463,2.043-2.306,7.28,8.121,5.874,4.666-.376,5.412.929,6.353,3.55,3.549,5.038-4.857,5.231,2.428,7.282,2.428,2.982L105.54,343.5l-9.149,2.984-3.168,3.55,1.488,5.226.748,2.242h5.224s1.122,2.8.746,3.363-2.42,2.984-2.42,2.984" transform="translate(51.63 134.506)" fill="#e8e9ea"/>
              <path id="패스_1667" data-name="패스 1667" d="M219.07,213.526l7.715,7.094,1.416,6.015a1.108,1.108,0,0,0,1.047.861l10.32.369.31.091.425,3.836,2.615,7.094-3.168,4.293-10.834-.374-9.149,11.2-6.906,5.417.376,6.536,5.972.372.186,7.654-5.043.934.932,5.974-8.962,9.15-6.72.185-2.99,3.178-.559,4.29-6.908.374-8.964,7.287-4.664,3.358-5.229.374s-6.162,1.867-6.723,2.8a.34.34,0,0,1-.309.181c-.813,0-2.492-2.237-2.492-2.237l-4.672,4.485,3.554,2.422,3.171,13.073,12.7,4.292,5.786,6.539,2.056-.56.237.717-12.188,9.18H154.6a1.114,1.114,0,0,0-.7.25l-11.579,9.335a1.618,1.618,0,0,0-.132.126l-7.916,8.93c-1.315-.647-3.2-1.836-3.2-1.836l-5.791,1.681-3.728-3.737-4.858-2.43-2.992,3.926-2.424,3.549-2.242.741-2.239-5.6h-6.72s2.053-2.422,2.42-2.985-.746-3.361-.746-3.361H96.53l-.748-2.244-1.488-5.224,3.17-3.55,9.149-2.984,4.111-3.743-2.428-2.984-2.43-7.28,4.858-5.231-3.55-5.04-6.351-3.55-5.412-.928-4.666.376-8.121-5.874,2.3-7.28L90.389,301a1.5,1.5,0,0,0,.312-.175l13.24-10.669,9.823-2.187a1.109,1.109,0,0,0,.668-.436L119.2,280.9h7.767a1.114,1.114,0,0,0,.908-.469l11.953-16.806a1.1,1.1,0,0,0,.211-.647V254.5l4.845-4.545,13.431,12.717a1.048,1.048,0,0,0,.532.281l17.554,3.737a1.089,1.089,0,0,0,.23.023,1.133,1.133,0,0,0,1.114-1.3L175.5,251.587a1.085,1.085,0,0,0-.343-.635l-3.139-2.913H196.8a1.111,1.111,0,0,0,.952-.542l8.265-13.649h6.091a1.117,1.117,0,0,0,1.065-.777l4.106-12.694a.473.473,0,0,0,.024-.065Zm0-2.763a2.759,2.759,0,0,0-2.675,2.069l-1.729,6.657-.011.036-3.737,11.557h-4.9a2.765,2.765,0,0,0-2.365,1.333l-7.787,12.859H172.015a2.766,2.766,0,0,0-1.881,4.79l2.727,2.53,1.77,10.89-14.755-3.142-13.093-12.4a2.76,2.76,0,0,0-3.79-.008l-4.845,4.547a2.754,2.754,0,0,0-.87,2.014v7.95l-11.161,15.689H119.2a2.759,2.759,0,0,0-2.244,1.15l-4.4,6.119-9.214,2.051A2.773,2.773,0,0,0,102.2,288L89.174,298.5l-5.216,1.95a2.755,2.755,0,0,0-1.664,1.754l-2.306,7.28A2.761,2.761,0,0,0,81,312.559l8.12,5.873a2.757,2.757,0,0,0,1.62.526c.072,0,.149,0,.22-.01l4.321-.346,4.6.789,5.389,3.011,1.9,2.695-3.332,3.59a2.763,2.763,0,0,0-.6,2.757l2.43,7.28a2.732,2.732,0,0,0,.479.87l.776.955-1.738,1.583-8.582,2.8a2.785,2.785,0,0,0-1.207.787l-3.168,3.55a2.772,2.772,0,0,0-.6,2.6l1.486,5.226.786,2.36a2.76,2.76,0,0,0,2.621,1.888h2.938c-.439.539-1,1.21-1.494,1.8a2.765,2.765,0,0,0,2.108,4.551h4.85l1.543,3.861a2.764,2.764,0,0,0,3.431,1.6l2.244-.741a2.758,2.758,0,0,0,1.418-1.066l2.383-3.49,1.558-2.048,2.409,1.205,3.412,3.42a2.769,2.769,0,0,0,1.956.812,2.8,2.8,0,0,0,.772-.109l4.618-1.341c.692.415,1.607.942,2.375,1.32a2.759,2.759,0,0,0,3.289-.645l7.824-8.825,11.019-8.886h16.223a2.773,2.773,0,0,0,1.663-.555l12.188-9.18a2.764,2.764,0,0,0,.96-3.077l-.237-.717a2.767,2.767,0,0,0-2.623-1.894,2.679,2.679,0,0,0-.728.1l-.4.108-4.646-5.252a2.776,2.776,0,0,0-1.186-.787l-11.26-3.8-2.815-11.6a2.768,2.768,0,0,0-1.127-1.631l-.74-.5.2-.188a3.775,3.775,0,0,0,2.6,1.068,3.086,3.086,0,0,0,2.347-1.066,36.984,36.984,0,0,1,5.195-1.947l4.919-.351a2.756,2.756,0,0,0,1.416-.514l4.663-3.358c.044-.031.087-.064.131-.1l8.267-6.72,6.01-.325a2.762,2.762,0,0,0,2.592-2.4l.444-3.4,1.589-1.687,5.571-.155a2.778,2.778,0,0,0,1.9-.828l8.959-9.15a2.746,2.746,0,0,0,.758-2.36l-.519-3.32,2.4-.443a2.765,2.765,0,0,0,2.262-2.786l-.185-7.654a2.767,2.767,0,0,0-2.592-2.691l-3.528-.22-.152-2.647,5.77-4.524a2.834,2.834,0,0,0,.434-.428l8.285-10.143,9.464.327c.031,0,.062,0,.095,0a2.768,2.768,0,0,0,2.224-1.122l3.168-4.293a2.764,2.764,0,0,0,.369-2.6l-2.5-6.779-.384-3.5a2.769,2.769,0,0,0-1.976-2.35l-.31-.09a2.693,2.693,0,0,0-.673-.109l-9.065-.323-1.125-4.792a2.781,2.781,0,0,0-.82-1.4l-7.716-7.094a2.761,2.761,0,0,0-1.87-.728" transform="translate(50.559 133.435)" fill="#b7b6af"/>
              <path id="패스_1668" data-name="패스 1668" d="M5.559,136.691l12.32-3.361V122.687l-4.485-5.038,24.65-35.293L53.729,70.594V55.472L42.523,49.305H35.8l-1.672-2.8,19.6-17.928H73.9l17.922-7.841h23.526M2.435,235.81a1.743,1.743,0,0,0,.32.031,1.508,1.508,0,0,0,.256-.021l9.581-1.471H29.272a1.688,1.688,0,0,0,1.457-.844l4.478-7.847a1.678,1.678,0,0,0-.363-2.112M1.264,479.509l-.189-3.924L6.3,481.191l4.671,4.485s-1.308,5.784-1.87,6.346a26.738,26.738,0,0,0-2.053,3.73L10.413,506.4h9.844a29.316,29.316,0,0,0,3.189.25c.671,0,1.215-.062,1.339-.25.372-.555,11.765-11.767,11.765-11.767l7.656-7.093,7.659.374,10.264,5.6,4.111,3.546h5.786c1.124,0,10.834-1.684,10.834-1.684l5.035.748-1.488,3.55,6.534,3.737s3.549,2.61,1.12,3.918a7.6,7.6,0,0,0-3.176,2.8l.186,4.486-6.315-.755-6.75-2.428-5.791,2.99-6.163,4.11-8.773.934-3.738,3.544-4.3,5.232-1.115,6.906-8.028.56-7.468-.374,2.234,4.484-7.093,6.906L14.9,558.869l-3.363,5.224.366,6.16,5.42,2.43,16.243,7.653,7.289,8.59,1.114,4.669.934,8.964,5.043,1.494v4.478l2.99,5.045.562,4.29v8.309l7.28,4.017,4.478,2.242,2.8,5.41.934,4.48,8.964,4.484,4.29,4.3-6.158,2.049L68.3,649.613l-6.167-1.68-11.945-.56,15.3,11.017,7.287,11.758,3.737.56-.748,3.549-10.275.376-11.2,8.588L51.115,686.4H46.447s-2.987.374-2.428,1.114,7.285,7.475,7.285,7.475l4.852-5.419,3.926-1.676,7.842,5.786,5.226,4.858h5.972l-.929-4.486,1.488-4.3,5.076,5.232-3.02,2.428-1.5.374-1.68,3.358-3.171,3.549a38.625,38.625,0,0,0-2.053,3.358c-.186.562,5.036.941,5.036.941l-1.114,2.61-8.4,1.306-5.793,5.974,5.977,2.99,2.236,4.85-2.048,2.056-8.221-2.43,9.521,7.282-1.488,3.737L63.81,741.1l-5.41-2.242-6.727,5.414-1.86,5.6-4.485-3.55,3.918,8.035L46.075,756.6l-.186,5.231-10.645,9.335-5.412,9.523-1.308,4.292-5.414,2.056-5.791-5.04,5.043,10.831-4.3,1.494.188,3.544,3.923,2.242-.933,4.292-4.667,2.616v4.857L21.99,810l2.425,2.239-5.788,6.349-.934-4.292-4.48-1.68-1.12,3.358v3.361l-4.111,2.051-4.857-3.17-.367,6.158-.189,3.552M115.344,20.739l29.509,12.884,12.506-3.364L182,48.185l5.6,16.244,2.8,9.524,10.084,5.6V95.8l11.2,16.806v8.964l3.916,6.158V140.05L243.626,150.7l6.16,6.72,16.808-4.483,11.2,12.884,7.282,1.122,4.483,12.882V192.71l3.918,11.76h35.856l17.925-11.76,6.158.559,23.523-9.521,6.167,5.038v8.964l4.478,9.523-15.333,9.523v10.641l-9.314,19.607-6.719,13.442-3.923,8.4-6.16,3.361,1.122,10.645-26.334-7.28-20.5,8.961-5.824,7.841,8.4,16.8-2.572,8.4v11.762l3.131,7.284-8.394,7.282-3.955,3.949-.6-.17a1.089,1.089,0,0,0-.263-.042l-9.611-.343-1.3-5.518a1.1,1.1,0,0,0-.33-.563l-9.336-8.592a1.136,1.136,0,0,0-.761-.3,1.1,1.1,0,0,0-.31.044,1.132,1.132,0,0,0-.772.794l-2.234,8.556-3.843,11.894h-5.912a1.117,1.117,0,0,0-.952.541l-8.267,13.656h-27a1.116,1.116,0,0,0-.763,1.934l4.948,4.594,1.919,11.82-15.64-3.325-13.963-13.228a1.117,1.117,0,0,0-1.538,0l-5.979,5.6a1.108,1.108,0,0,0-.351.815v8.6l-11.41,16.047h-7.764a1.129,1.129,0,0,0-.91.461l-4.852,6.751-9.66,2.149a1.009,1.009,0,0,0-.461.225L140,421.014l-5.811,2.174a1.153,1.153,0,0,0-.674.715l-2.827,8.958-2.456,1.275-12.325-.56-13.625,5.045-9.9,3.918-7.625,8.4-6.75,4.1-6.353,1.875-1.124,3.73-10.829-.56,10.275-9.9,7.468-6.534L66.8,442.538l-4.857-1.868,5.98-5.412.934-3.732,5.41-3.923,6.348-2.616,4.14-8.215,1.091-6.353-9.521-5.786-9.71-1.308-7.468.188-7.654,8.967L41.964,422l-8.776,6.539-8.588.181L19.375,433.2l-7.656,9.149s-.746,5.412-1.306,5.979-8.59,4.29-8.59,4.29m30.542-227.56-3.722,6.524H12.593a2.813,2.813,0,0,0-.421.031l-9.4,1.445M1.893,455.384a2.753,2.753,0,0,0,1.093-.256c8.471-3.936,9.02-4.48,9.379-4.841.526-.531,1.163-1.176,1.981-6.768l7-8.368,4.3-3.691,7.6-.16a2.76,2.76,0,0,0,1.592-.547l8.776-6.541a2.535,2.535,0,0,0,.3-.26l9.531-9.518c.051-.051.1-.1.147-.16l6.854-8.032,6.013-.15,8.92,1.2,7.422,4.511-.7,4.091-3.492,6.926-5.394,2.224a2.74,2.74,0,0,0-.57.318l-5.41,3.923a2.749,2.749,0,0,0-1.058,1.568l-.732,2.915-5.357,4.849a2.761,2.761,0,0,0,.859,4.628l4.858,1.87a2.869,2.869,0,0,0,.705.17l4.351.457-2.7,2.368L57.784,458.1a2.762,2.762,0,0,0,1.774,4.749l10.831.56c.049,0,.1,0,.142,0a2.76,2.76,0,0,0,2.646-1.966l.692-2.3,4.921-1.452a2.783,2.783,0,0,0,.653-.289l6.75-4.1a2.75,2.75,0,0,0,.611-.5l7.191-7.925,9.3-3.683,13.044-4.826,11.765.534c.042,0,.083,0,.126,0a2.772,2.772,0,0,0,1.275-.312l2.455-1.277a2.775,2.775,0,0,0,1.364-1.62l2.585-8.2,5.058-1.893a2.729,2.729,0,0,0,.764-.434l13.008-10.476,9.281-2.064a2.759,2.759,0,0,0,1.646-1.084l4.357-6.06h6.924a2.757,2.757,0,0,0,2.25-1.163l11.414-16.047a2.773,2.773,0,0,0,.511-1.6v-7.894l4.328-4.052,12.839,12.162a2.757,2.757,0,0,0,1.324.7l15.64,3.325a2.765,2.765,0,0,0,3.3-3.145l-1.917-11.82a2.783,2.783,0,0,0-.849-1.584l-1.873-1.738h22.811a2.769,2.769,0,0,0,2.365-1.333l7.788-12.864h4.978a2.763,2.763,0,0,0,2.628-1.914l3.843-11.892c.016-.051.033-.1.046-.152l1.543-5.912,6.954,6.4,1.177,5.023a2.767,2.767,0,0,0,2.592,2.131l9.408.336.4.114a2.768,2.768,0,0,0,2.714-.7l3.885-3.879,8.321-7.22a2.765,2.765,0,0,0,.728-3.18l-2.907-6.761V318.036l2.451-8.007a2.763,2.763,0,0,0-.172-2.043L297.834,292.7l4.373-5.887,18.923-8.273,25.39,7.019a2.714,2.714,0,0,0,.737.1A2.761,2.761,0,0,0,350,282.605l-.928-8.812,4.542-2.477a2.772,2.772,0,0,0,1.182-1.257l3.923-8.4,6.686-13.375,9.338-19.658a2.759,2.759,0,0,0,.268-1.186v-9.1l14.027-8.713a2.762,2.762,0,0,0,1.044-3.523l-4.215-8.964v-8.347a2.764,2.764,0,0,0-1.016-2.139l-6.167-5.038a2.755,2.755,0,0,0-1.749-.624,2.719,2.719,0,0,0-1.035.2L353,190.456l-5.5-.5c-.082-.007-.163-.011-.248-.011a2.773,2.773,0,0,0-1.516.452l-17.236,11.308H295.466l-3.144-9.444V179.823a2.733,2.733,0,0,0-.154-.908l-4.484-12.884a2.767,2.767,0,0,0-2.19-1.823l-6.279-.967-10.534-12.118a2.768,2.768,0,0,0-2.087-.952,2.8,2.8,0,0,0-.712.093l-15.188,4.052-5.032-5.487a2.792,2.792,0,0,0-1.055-.715l-26.228-9.968V127.728a2.754,2.754,0,0,0-.431-1.483l-3.485-5.479v-8.161a2.764,2.764,0,0,0-.464-1.532L203.258,94.963V79.557a2.761,2.761,0,0,0-1.421-2.415l-9.093-5.054-2.486-8.437-5.642-16.367a2.74,2.74,0,0,0-.99-1.333L158.984,28.024a2.76,2.76,0,0,0-2.342-.434L145.073,30.7l-28.622-12.5a2.781,2.781,0,0,0-1.107-.232H91.818a2.734,2.734,0,0,0-1.1.234L73.32,25.815H53.729a2.766,2.766,0,0,0-1.865.725l-19.6,17.928a2.764,2.764,0,0,0-.506,3.457l1.672,2.8A2.767,2.767,0,0,0,35.8,52.07h6.011l9.15,5.035V69.213L36.389,80.145a2.733,2.733,0,0,0-.608.627L11.13,116.066a2.765,2.765,0,0,0,.2,3.421l3.786,4.251v7.481l-10.282,2.8a2.887,2.887,0,0,0-.534.206M.173,837.217l3.171-2.987a2.765,2.765,0,0,0,.622-3.15l-.279-.624a3.09,3.09,0,0,0,.369-.2,2.768,2.768,0,0,0,1.274-2.183l.189-3.552.08-1.387.872.57a2.784,2.784,0,0,0,1.511.448,2.744,2.744,0,0,0,1.235-.292l4.111-2.051a2.757,2.757,0,0,0,1.529-2.473v-2.913l.072-.211.385.145.612,2.82a2.761,2.761,0,0,0,1.984,2.081,2.7,2.7,0,0,0,.717.095,2.763,2.763,0,0,0,2.043-.9l5.786-6.35a2.765,2.765,0,0,0-.167-3.892l-2.424-2.237a2.77,2.77,0,0,0-1.876-.735c-.059,0-.114,0-.175,0l.779-.436a2.774,2.774,0,0,0,1.351-1.823l.933-4.29a2.767,2.767,0,0,0-1.329-2.989l-2.575-1.47,2.3-.8a2.762,2.762,0,0,0,1.6-3.776l-.926-1.991c.052-.016.1-.033.149-.051l5.414-2.056a2.771,2.771,0,0,0,1.666-1.78l1.213-4,5.035-8.851,10.292-9.026a2.761,2.761,0,0,0,.939-1.979l.139-3.861,2.051-1.444a2.762,2.762,0,0,0,.89-3.472l-.451-.928a2.773,2.773,0,0,0,1.158-1.471l1.605-4.834,4.814-3.875,3.9,1.614a2.751,2.751,0,0,0,2.664-.3l5.232-3.737a2.728,2.728,0,0,0,.96-1.227l1.488-3.738a2.761,2.761,0,0,0-.888-3.216l-.98-.75,2.005-2.012a2.766,2.766,0,0,0,.554-3.108l-2.234-4.85a2.749,2.749,0,0,0-1.275-1.316l-2.6-1.3,2.52-2.6,7.488-1.164a2.768,2.768,0,0,0,2.118-1.645l1.115-2.61a2.767,2.767,0,0,0-2.344-3.843c-.261-.02-.532-.041-.8-.065l2.846-3.185a2.749,2.749,0,0,0,.41-.6l1.112-2.221.261-.067a2.752,2.752,0,0,0,1.065-.528l3.02-2.428a2.763,2.763,0,0,0,.25-4.078l-5.076-5.232a2.763,2.763,0,0,0-4.6,1.021l-1.486,4.3a2.77,2.77,0,0,0-.1,1.463l.242,1.163H74.234l-4.429-4.119a2.32,2.32,0,0,0-.24-.2l-7.842-5.786A2.763,2.763,0,0,0,59,685.35l-3.923,1.674a2.754,2.754,0,0,0-.975.7l-2.9,3.24c-.617-.622-1.22-1.233-1.78-1.8h1.7a2.756,2.756,0,0,0,1.953-.81l3.047-3.047,10.354-7.94,9.4-.343a2.769,2.769,0,0,0,2.6-2.193l.746-3.549a2.76,2.76,0,0,0-2.293-3.3L74.45,667.6l-6.614-10.671a2.767,2.767,0,0,0-.735-.787l-7.746-5.577,2.34.109,5.5,1.5,5.448,3.338a2.759,2.759,0,0,0,2.316.265l6.158-2.048a2.766,2.766,0,0,0,1.086-4.574l-4.292-4.3a2.764,2.764,0,0,0-.72-.519l-7.769-3.885-.658-3.17a2.9,2.9,0,0,0-.253-.707l-2.8-5.41a2.766,2.766,0,0,0-1.215-1.2l-4.483-2.242-5.75-3.178v-6.678a2.617,2.617,0,0,0-.026-.358l-.56-4.29a2.79,2.79,0,0,0-.361-1.052L50.7,607.774v-3.72a2.759,2.759,0,0,0-1.976-2.649l-3.276-.97-.738-7.125a3.15,3.15,0,0,0-.062-.354l-1.115-4.671a2.738,2.738,0,0,0-.58-1.146l-7.287-8.59a2.784,2.784,0,0,0-.931-.712l-16.244-7.653-3.937-1.765-.212-3.588,2.69-4.181,12.637-11.909L36.8,541.8a2.761,2.761,0,0,0,.545-3.212l-.127-.255,2.75.137c.046,0,.091,0,.139,0,.065,0,.129,0,.191-.007l8.03-.56a2.764,2.764,0,0,0,2.536-2.316l.995-6.172,3.714-4.522,2.935-2.781,7.842-.835a2.779,2.779,0,0,0,1.241-.449l6.033-4.026,4.586-2.366,5.616,2.022a2.88,2.88,0,0,0,.609.145l6.315.753a3.132,3.132,0,0,0,.327.018,2.762,2.762,0,0,0,2.762-2.879l-.147-3.513a7.034,7.034,0,0,1,1.687-1.226,4.051,4.051,0,0,0,2.291-3.343c.18-2.543-2.1-4.507-3.083-5.232a2.771,2.771,0,0,0-.268-.173L89.9,498.49l.542-1.3a2.761,2.761,0,0,0-2.144-3.8l-5.035-.748a2.811,2.811,0,0,0-.4-.029,2.7,2.7,0,0,0-.474.041c-4.481.777-9.6,1.6-10.409,1.643l-4.71,0-3.333-2.874a2.9,2.9,0,0,0-.478-.332l-10.264-5.6A2.734,2.734,0,0,0,52,485.151l-7.659-.374c-.046,0-.091,0-.136,0a2.76,2.76,0,0,0-1.878.737L34.672,492.6c-7.285,7.168-10.148,10.053-11.319,11.278a26.492,26.492,0,0,1-2.726-.225,2.8,2.8,0,0,0-.371-.023H12.436l-2.42-7.666a23.613,23.613,0,0,1,1.128-2.077c.475-.5,1.135-1.46,2.525-7.605a2.766,2.766,0,0,0-.782-2.6l-4.615-4.429L3.1,473.7a2.766,2.766,0,0,0-3.1-.661" transform="translate(0 11.379)" fill="#b7b6af"/>
              <path id="패스_1669" data-name="패스 1669" d="M152.513,382.36l-2.52,3.867,2.7,1.627,1.646-1.122,2.041.008-.093-1.863-2.3-2.347Z" transform="translate(94.961 242.073)" fill="#f4f3ec"/>
              <path id="패스_1670" data-name="패스 1670" d="M153.585,383.431l1.476.17,2.3,2.347.093,1.863-2.041-.008-1.646,1.122-2.7-1.627Zm0-2.763a2.765,2.765,0,0,0-2.316,1.256l-2.521,3.867a2.765,2.765,0,0,0,.892,3.877l2.7,1.625a2.765,2.765,0,0,0,2.979-.083l.939-.64,1.186,0h.008a2.764,2.764,0,0,0,2.76-2.9l-.091-1.862a2.779,2.779,0,0,0-.784-1.8l-2.3-2.348a2.777,2.777,0,0,0-1.663-.812l-1.475-.168a2.56,2.56,0,0,0-.314-.018" transform="translate(93.889 241.002)" fill="#b7b6af"/>
              <path id="패스_1671" data-name="패스 1671" d="M158.981,377.791l-2.747,2.835,2.317,3.741,1.749-3.256Z" transform="translate(98.912 239.181)" fill="#f4f3ec"/>
              <path id="패스_1672" data-name="패스 1672" d="M160.053,378.862l1.32,3.32-1.749,3.256-2.317-3.741Zm0-2.763a2.777,2.777,0,0,0-1.984.839l-2.747,2.833a2.765,2.765,0,0,0-.367,3.379l2.319,3.743a2.767,2.767,0,0,0,2.35,1.31c.029,0,.057,0,.087,0a2.765,2.765,0,0,0,2.348-1.455l1.749-3.256a2.763,2.763,0,0,0,.132-2.329l-1.318-3.32a2.766,2.766,0,0,0-2.032-1.689,2.724,2.724,0,0,0-.537-.054" transform="translate(97.84 238.11)" fill="#b7b6af"/>
              <path id="패스_1673" data-name="패스 1673" d="M156.443,382.732l-.361-2.061-2.25,2.11,1.065.991Z" transform="translate(97.391 241.004)" fill="#f4f3ec"/>
              <path id="패스_1674" data-name="패스 1674" d="M157.152,381.742l.361,2.061-1.545,1.04-1.065-.99Zm0-2.763a2.78,2.78,0,0,0-1.893.748l-2.247,2.112a2.763,2.763,0,0,0,.008,4.037l1.063.991a2.767,2.767,0,0,0,3.426.269l1.548-1.04a2.772,2.772,0,0,0,1.179-2.77l-.361-2.061a2.768,2.768,0,0,0-2.724-2.286" transform="translate(96.32 239.933)" fill="#b7b6af"/>
              <path id="패스_1675" data-name="패스 1675" d="M161.821,462.785V457l-7.839,4.476v7.094h5.972Z" transform="translate(97.487 289.327)" fill="#f4f3ec"/>
              <path id="패스_1676" data-name="패스 1676" d="M162.892,458.071v5.786l-1.867,5.784h-5.972v-7.094Zm0-2.765a2.777,2.777,0,0,0-1.37.364l-7.841,4.478a2.763,2.763,0,0,0-1.391,2.4v7.094a2.762,2.762,0,0,0,2.763,2.763h5.972a2.759,2.759,0,0,0,2.628-1.916l1.868-5.784a2.707,2.707,0,0,0,.136-.848v-5.786a2.768,2.768,0,0,0-2.765-2.765" transform="translate(96.415 288.256)" fill="#b7b6af"/>
              <path id="패스_1677" data-name="패스 1677" d="M449.745,175.575v7.409s8.259-2.28,8.83-3.42,6.547-9.118,6.547-9.118l9.978-7.124s3.42-5.7,3.7-6.552,1.707-5.985,1.707-5.985L473.1,159.9l-12.25,7.694Z" transform="translate(284.735 95.463)" fill="#f4f3ec"/>
              <path id="패스_1678" data-name="패스 1678" d="M481.582,151.857h.015m-.015,0s-1.418,5.131-1.705,5.985-3.706,6.552-3.706,6.552l-9.977,7.124s-5.98,7.979-6.547,9.118-8.832,3.42-8.832,3.42v-7.409l11.112-7.979,12.25-7.694,7.4-9.116m0-2.763c-.059,0-.118,0-.173,0a2.747,2.747,0,0,0-1.9.926c-.033.036-.062.072-.091.108l-7.1,8.744-11.863,7.45c-.047.031-.1.062-.142.095l-11.11,7.981a2.754,2.754,0,0,0-1.151,2.244v7.409a2.758,2.758,0,0,0,2.762,2.763,2.7,2.7,0,0,0,.737-.1c9.441-2.606,10.115-3.952,10.565-4.842.392-.707,3.33-4.746,6.031-8.358l9.63-6.874a2.756,2.756,0,0,0,.763-.828,65.839,65.839,0,0,0,3.957-7.1c.278-.83,1.37-4.765,1.7-5.943a2.713,2.713,0,0,0,.158-.919,2.759,2.759,0,0,0-2.727-2.763Z" transform="translate(283.665 94.392)" fill="#b7b6af"/>
              <path id="패스_1679" data-name="패스 1679" d="M439.024,173.637l-3.42,3.132-9.691,6.658-7.406,6.766-3.139,9.088,6.844-3.137s7.406-8.781,8.259-9.949,15.67-6.575,15.67-6.575l10.258-3.7-1.419-3.421-3.991-1.992-9.686,6.266v-3.132Z" transform="translate(262.971 107.946)" fill="#f4f3ec"/>
              <path id="패스_1680" data-name="패스 1680" d="M452.059,171.573l3.99,1.994,1.421,3.42-10.258,3.706s-14.817,5.41-15.67,6.577-8.259,9.949-8.259,9.949l-6.844,3.134,3.139-9.088,7.406-6.766,9.691-6.658,3.42-3.131h2.278v3.131Zm0-2.763a2.76,2.76,0,0,0-1.5.443l-5.94,3.844a2.766,2.766,0,0,0-2.246-1.151H440.1a2.76,2.76,0,0,0-1.867.727l-3.278,3-9.532,6.549a2.929,2.929,0,0,0-.3.237l-7.4,6.766a2.727,2.727,0,0,0-.746,1.138l-3.141,9.087a2.763,2.763,0,0,0,3.763,3.416l6.844-3.136a2.784,2.784,0,0,0,.964-.73c.715-.849,6.661-7.9,8.139-9.79,1.53-.919,8.631-3.733,14.623-5.922l10.249-3.7a2.764,2.764,0,0,0,1.615-3.66l-1.421-3.42a2.772,2.772,0,0,0-1.318-1.413l-3.993-1.992a2.742,2.742,0,0,0-1.233-.292" transform="translate(261.899 106.874)" fill="#b7b6af"/>
              <path id="패스_1681" data-name="패스 1681" d="M433.988.059l.573,26.785,9.686-19.089,8.838,1.424L450.233,16.3l3.706,3.134-8.265,9.688,13.963-.854,13.393-10.254L474.8,20.29l-5.762,11.829,7.692-3.849,1.994-17.381,2.851-3.134L492.4,12.6l2.853-4.842h12.537l10.826,15.955L542.58,41.376l-2.306,5.415-6.552,5.7,5.13,3.42.281,5.128-4.558,5.131,8.005,4.555V84.4L532.294,96.371,527.736,112.9l-4.56,3.134V122.3l-3.134,4.556,5.42,4.849v12.248l-6.844,2.85,5.13,3.706L520.9,166.465l-9.41,25.075L484.425,224.6,465.9,254.228l-1.419,9.972-17.669,19.375-18.8,13.338-15.957,22.282-12.823,15.957-12.657,3.99L364.751,355.1l-15.668,7.266-7.413-8.691-17.1.856L325,343.7l-3.849-2.708-9.119,11.113L294.8,369.486l-1.571-8.833,14.531-12.4-4.845-8.688v-9.689l2.42-9.4-6.982-14.959,3.995-7.264,18.665-7.267,29.2,8.12-1.992-13.819,6.265-4.129,19.374-41.747-.136-9.544,16.38-10.685-5.7-10.829v-8.976l-8.553-7.124-22.795,10.4-6.982-1.854-19.235,12.537-32.2-.428L290.1,203.65l.71-13.249-5.273-13.393-8.259-1.422-11.254-13.821-15.821,4.7-7.834-7.408-25.785-9.405V137.829l-4.272-5.13v-9.975l-9.915-15.81-1.2-17.383-10.256-5.7-7.981-26.36-25.641-18.66L144.349,42.23,113.431,29.553H90.357L73.541,37.388H51.457l-22.79,20.8,3.132,4.7,8.69-.712,9.835,5.407-.861,13.681L34.931,92.1,8.718,129.708l5.267,4.7.719,8.549L1.593,146.091m.955,2.613,12.8-3.057a2.764,2.764,0,0,0,2.11-2.92l-.719-8.549a2.766,2.766,0,0,0-.913-1.831l-3.441-3.069L36.942,94.047,51.114,83.483a2.763,2.763,0,0,0,1.106-2.041l.862-13.681a2.764,2.764,0,0,0-1.429-2.6l-9.835-5.407a2.749,2.749,0,0,0-1.329-.341c-.075,0-.152,0-.227.008L33.2,60l-.915-1.375L52.528,40.151H73.541a2.754,2.754,0,0,0,1.168-.258l16.261-7.578h21.918L143.3,44.788a2.754,2.754,0,0,0,1.752.116l11.7-3.083,23.83,17.344,7.71,25.47a2.754,2.754,0,0,0,1.3,1.615l8.946,4.97,1.1,15.885a2.763,2.763,0,0,0,.416,1.279l9.493,15.137v9.18a2.772,2.772,0,0,0,.639,1.769l3.634,4.36v10.824a2.767,2.767,0,0,0,1.818,2.6l25.246,9.209,7.419,7.016a2.757,2.757,0,0,0,2.688.64l14.053-4.177,10.091,12.394a2.763,2.763,0,0,0,1.672.978l6.725,1.16,4.486,11.386-.679,12.647a2.771,2.771,0,0,0,.281,1.369l4.551,9.26a2.765,2.765,0,0,0,2.441,1.545l32.2.428h.038a2.758,2.758,0,0,0,1.509-.447l18.206-11.866,5.791,1.538a2.855,2.855,0,0,0,.71.091,2.73,2.73,0,0,0,1.146-.25l21.214-9.679,6.224,5.182v7.68a2.743,2.743,0,0,0,.317,1.287l4.527,8.6-14.275,9.312a2.753,2.753,0,0,0-1.251,2.352l.126,8.915L352.318,279.28l-5.611,3.7a2.771,2.771,0,0,0-1.215,2.7l1.391,9.629-25.127-6.985a2.787,2.787,0,0,0-.74-.1,2.75,2.75,0,0,0-1,.189l-18.665,7.266a2.759,2.759,0,0,0-1.419,1.243l-4,7.264a2.761,2.761,0,0,0-.082,2.5l6.562,14.063-2.175,8.443a2.884,2.884,0,0,0-.085.689v9.689a2.768,2.768,0,0,0,.351,1.347l3.74,6.709-12.808,10.927a2.76,2.76,0,0,0-.926,2.585l1.571,8.835a2.765,2.765,0,0,0,1.9,2.154,2.759,2.759,0,0,0,2.784-.692L314,354.052c.062-.064.118-.126.175-.194l7.489-9.129.521.366-.369,9.323a2.761,2.761,0,0,0,2.76,2.873c.047,0,.093,0,.139,0l15.738-.785,6.529,7.658a2.763,2.763,0,0,0,3.265.714l15.67-7.267a2.681,2.681,0,0,0,.467-.276l21.456-15.688,12.225-3.854a2.749,2.749,0,0,0,1.323-.9l12.823-15.957c.031-.041.06-.082.093-.122l15.686-21.9,18.425-13.071a2.739,2.739,0,0,0,.446-.392l17.665-19.374a2.778,2.778,0,0,0,.7-1.473l1.336-9.394,18.119-28.988,26.956-32.918a2.812,2.812,0,0,0,.451-.779l9.41-25.075a2.821,2.821,0,0,0,.134-.485L526.469,151a2.763,2.763,0,0,0-1.1-2.726l-1.127-.815,2.285-.949a2.767,2.767,0,0,0,1.7-2.553V131.707a2.761,2.761,0,0,0-.921-2.059L523.7,126.42l1.756-2.554a2.757,2.757,0,0,0,.487-1.565v-4.818l3.361-2.311a2.751,2.751,0,0,0,1.1-1.542L534.793,97.7l9.882-11.5a2.778,2.778,0,0,0,.668-1.8V70.723a2.769,2.769,0,0,0-1.4-2.4l-5.038-2.868,2.293-2.58a2.758,2.758,0,0,0,.691-1.986l-.281-5.13a2.759,2.759,0,0,0-1.225-2.148L538.268,52.2l3.82-3.322a2.762,2.762,0,0,0,.728-1l2.3-5.415a2.76,2.76,0,0,0-.9-3.305L520.641,21.766,510.079,6.2a2.757,2.757,0,0,0-2.286-1.212H495.256a2.762,2.762,0,0,0-2.381,1.36l-1.6,2.713-8.569-3.833a2.768,2.768,0,0,0-3.173.663l-2.851,3.136a2.752,2.752,0,0,0-.7,1.545l-.676,5.871-.1-.131a2.762,2.762,0,0,0-3.856-.495l-12.722,9.741L452,25.966l4.042-4.738a2.755,2.755,0,0,0-.317-3.9l-2.183-1.849,2.113-5.273a2.765,2.765,0,0,0-2.126-3.756l-8.838-1.424a2.7,2.7,0,0,0-.441-.034A2.762,2.762,0,0,0,441.785,6.5l-4.694,9.252L436.753,0" transform="translate(1.009)" fill="#b7b6af"/>
              <path id="패스_1682" data-name="패스 1682" d="M262.166,374.9l.977-4.135-1.315-1.576-2.944-.524-3.756-1.215-.015-1.581-2.962-2.012-1.72.941-2.551-.972-5.825,2.958-1.458-.541-1.351.954,1,2.285-3.562,4.279-4.772-1.171-4.2,2.012-1.421-3.064-3.5-3.67-.176,2.012-2.949,1.738-3.152,7.088-17.365,8.321,4.148.7,4.173-2.577,2.386,1.238-1.011,3.3,3.849,1.1.743,1.85L210,394.343l.286,5.237,4.685,2.61-2.486,2.1.51,1,1.272-.287,2.546,2.012,4.568-.6-.4-1.769,1.654-1.034.737-3.377.759.046,1.47-4.187,3.077-.186.562-5.549,4.14-.555.642-1.569,6.41-1.344,5.306,1.315,3.467,7.075,2.03-.1,3.619-9.443,9.643-4.527-.972-1.445,1.362-2.087Z" transform="translate(126.078 230.339)" fill="#f4f3ec"/>
              <path id="패스_1683" data-name="패스 1683" d="M248.95,364.9l2.553.972,1.72-.941,2.962,2.012.013,1.581,3.758,1.215,2.944.524,1.315,1.576-.978,4.135,2.716,2.789-1.364,2.087.972,1.445-9.642,4.527-3.621,9.443-2.03.1-3.467-7.076-5.306-1.313-6.41,1.344-.642,1.569-4.14.555-.56,5.549-3.078.186-1.47,4.186-.759-.044L223.7,404.7l-1.656,1.034.4,1.769-4.566.6-2.548-2.012-1.272.287-.51-1,2.486-2.105-4.685-2.61-.286-5.237L214.5,393.7l-.743-1.85-3.849-1.1,1.009-3.3-2.386-1.238-4.171,2.577-4.15-.7,17.365-8.322,3.152-7.086,2.951-1.738.175-2.012,3.506,3.668,1.419,3.065,4.2-2.012,4.772,1.171,3.563-4.279-1-2.285,1.352-.954,1.458.541Zm0-2.763a2.784,2.784,0,0,0-1.253.3l-4.744,2.41-.322-.121a2.775,2.775,0,0,0-2.556.333l-1.352.952a2.767,2.767,0,0,0-.939,3.366l.315.722-1.369,1.641-3.093-.761a2.791,2.791,0,0,0-.658-.078,2.761,2.761,0,0,0-1.192.271l-1.676.8-.245-.526a2.729,2.729,0,0,0-.508-.748l-3.506-3.668A2.763,2.763,0,0,0,221.1,368.7l-.051.593-1.725,1.016a2.77,2.77,0,0,0-1.124,1.258l-2.739,6.158L199.019,385.6a2.765,2.765,0,0,0,.738,5.219l4.145.7a2.953,2.953,0,0,0,.461.038,2.762,2.762,0,0,0,1.452-.413l1.37-.846a2.764,2.764,0,0,0,1.965,3.109l.016,0a2.771,2.771,0,0,0-.859,2.154l.287,5.237a2.766,2.766,0,0,0,1.416,2.262l1.284.715a2.756,2.756,0,0,0-.2,2.838l.51,1a2.763,2.763,0,0,0,2.463,1.511,2.719,2.719,0,0,0,.594-.065l1.512,1.2a2.763,2.763,0,0,0,1.713.594,2.946,2.946,0,0,0,.359-.023l4.566-.6a129.8,129.8,0,0,0,3.591-4.953l.358-1.643a2.77,2.77,0,0,0,1.044-1.362l.864-2.456,1.243-.075a2.769,2.769,0,0,0,2.585-2.481l.34-3.377,1.978-.265A2.774,2.774,0,0,0,237,391.934l.087-.214,4.355-.913,3.443.851,2.9,5.918a2.767,2.767,0,0,0,2.482,1.548c.044,0,.09,0,.137,0l2.028-.1a2.761,2.761,0,0,0,2.445-1.772l3.222-8.4,8.634-4.055a2.761,2.761,0,0,0,1.169-3.967l.361-.555a2.766,2.766,0,0,0-.332-3.439l-1.658-1.7.629-2.659a2.768,2.768,0,0,0-.57-2.407l-1.313-1.574a2.753,2.753,0,0,0-1.638-.951l-2.76-.49-1.71-.555a2.765,2.765,0,0,0-1.177-1.841l-2.962-2.012a2.763,2.763,0,0,0-2.879-.137l-.6.328-1.36-.519a2.8,2.8,0,0,0-.983-.18" transform="translate(125.007 229.268)" fill="#b7b6af"/>
              <path id="패스_1684" data-name="패스 1684" d="M393.066,205.75l-2.327,8.549s8.309-4.842,8.309-5.985,13.963-12.537,13.963-12.537l5.125-3.132L415,185.486l-11.11,7.728Z" transform="translate(247.378 117.432)" fill="#f4f3ec"/>
              <path id="패스_1685" data-name="패스 1685" d="M416.074,186.557l3.134,7.16-5.125,3.132s-13.965,11.4-13.965,12.537-8.308,5.985-8.308,5.985l2.327-8.549,10.826-12.537Zm0-2.763a2.764,2.764,0,0,0-1.579.495l-11.112,7.728a2.858,2.858,0,0,0-.511.462l-10.824,12.536a2.774,2.774,0,0,0-.576,1.081l-2.327,8.549a2.765,2.765,0,0,0,4.06,3.114c7.457-4.349,9.168-6.17,9.562-7.391,1.45-1.625,7.584-6.9,12.919-11.259l4.963-3.036a2.758,2.758,0,0,0,1.089-3.465l-3.132-7.158a2.764,2.764,0,0,0-1.782-1.551,2.723,2.723,0,0,0-.75-.1" transform="translate(246.308 116.361)" fill="#b7b6af"/>
              <path id="패스_1686" data-name="패스 1686" d="M170.972,425.944l.124,4.932,3.668.936,3.425-3.358-3.978-4.017Z" transform="translate(108.243 268.712)" fill="#f4f3ec"/>
              <path id="패스_1687" data-name="패스 1687" d="M175.28,425.508l3.978,4.017-3.423,3.358-3.668-.936-.126-4.932Zm0-2.763a2.786,2.786,0,0,0-1.164.256l-3.24,1.509a2.761,2.761,0,0,0-1.6,2.576l.122,4.93a2.768,2.768,0,0,0,2.082,2.61l3.666.934a2.73,2.73,0,0,0,.684.087,2.764,2.764,0,0,0,1.934-.79L181.2,431.5a2.768,2.768,0,0,0,.028-3.918l-3.978-4.016a2.759,2.759,0,0,0-1.965-.82" transform="translate(107.171 267.641)" fill="#b7b6af"/>
              <path id="패스_1688" data-name="패스 1688" d="M171.374,397.642l3.082-3.051.534-4.989-3.642-1.091-2.8,5.711.839,1.3.142,2.66Z" transform="translate(106.707 245.968)" fill="#f4f3ec"/>
              <path id="패스_1689" data-name="패스 1689" d="M172.418,389.582l3.642,1.091-.534,4.989-3.082,3.051-1.845.536-.142-2.66-.841-1.3Zm0-2.763a2.765,2.765,0,0,0-2.481,1.547l-2.8,5.711a2.763,2.763,0,0,0,.163,2.721l.436.676.106,1.924a2.762,2.762,0,0,0,3.528,2.505l1.845-.536a2.724,2.724,0,0,0,1.174-.691l3.082-3.049a2.755,2.755,0,0,0,.805-1.671l.534-4.989a2.763,2.763,0,0,0-1.953-2.941l-3.643-1.091a2.8,2.8,0,0,0-.794-.116" transform="translate(105.635 244.896)" fill="#b7b6af"/>
              <path id="패스_1690" data-name="패스 1690" d="M179.8,426.618l-2.068,2.311-.372,3.7,3.343.08.735-3.495,4.522-6.652-.759-3.294-4.449,3.309Z" transform="translate(112.284 265.441)" fill="#f4f3ec"/>
              <path id="패스_1691" data-name="패스 1691" d="M186.267,420.34l.761,3.294-4.524,6.652-.733,3.495-3.345-.08.372-3.7,2.068-2.311.952-4.04Zm0-2.763a2.755,2.755,0,0,0-1.649.547l-4.447,3.307a2.76,2.76,0,0,0-1.042,1.582l-.792,3.358-1.6,1.788a2.767,2.767,0,0,0-.691,1.566l-.372,3.7a2.764,2.764,0,0,0,2.683,3.039l3.343.08c.025,0,.046,0,.069,0a2.766,2.766,0,0,0,2.7-2.195l.619-2.959,4.22-6.2a2.781,2.781,0,0,0,.407-2.177l-.761-3.294a2.767,2.767,0,0,0-2.693-2.141" transform="translate(111.213 264.369)" fill="#b7b6af"/>
              <path id="패스_1692" data-name="패스 1692" d="M217.005,401.123l2.82-.6,1.339-2.629-3.108-2.858.79-2.652-1.924-.562,2.579-3.212-8.415-.9-.134-2.8,3.867-1.016.286-5.649-4.055-2.534L208.6,378.2l-6.108-2.262-2.98-5.362,1.4-1.968-.861-1.344-.385.16-4.044.91.741-1.818-3.314-.637-.64,1.638-5.152.854-1.282,5.049-2.971,1.708-1.525-2.866-2.693,1.72,1.024,1.912-2.587,1.357-1.687.374.276-1.749-3.5-.643-1.61,4.287-5.246-1.1-.536,5.081,2.642,1.065,5.8,4.667-.111,3.99-2.91.5-.286-3.456-2.686-3.856-1.772,5.673,1.963,1.589,1.313,3.413-1.383,3.369,3.985-1.558.033-2.515,6.544,1.171-1.2,1.613-.5,2.484,5.028-1.88.926-1.814-1.538-2.59-4.259-.4-.474-1.607,2.554-2.659-.374-3.645,2.5-1.636,3.163,3.506-.523,4.814,4.1,3.456.057,2.6-1.914,2.789,3.247.168-4.13,2.659.521,2.45-6.9,7.641-2.938,1.246.425,4.39-1.733,2.977,3.294,4.726-1.986,6.038-3.772-.655,1.88,5.019,5.6,1.4,1.39,1.93,1.968-.361,1.968-2.13-2.43-1.52-.81-4.135.594-2.474,1.836-3.256,2.74-.877,1.93,2.141-1.48,1.782-.934,1.906,1.827,4.184-2.347,6.011-1.831,1.3a10.044,10.044,0,0,1-.474,1.93c-.2.268,7.548-2.216,7.548-2.216l3.283-2.342,1.189-1.52-2.172-2.9,2.49-1.457,5.4,3.431L202,434.662l2.34-2.112,1.551-10.333,5-10.618,2.615-2.107-.915-2.085,4.367-3.586Z" transform="translate(104.411 231.638)" fill="#f4f3ec"/>
              <path id="패스_1693" data-name="패스 1693" d="M194.122,366.948l3.314.637-.743,1.818,4.044-.91.385-.162.861,1.346-1.4,1.968,2.979,5.362,6.108,2.262,2.456-2.479,4.053,2.534-.286,5.649-3.867,1.016.136,2.8,8.414.9L218,392.9l1.924.562-.79,2.652,3.106,2.858L220.9,401.6l-2.819.6-.044,2.7-4.365,3.586.913,2.085-2.615,2.105-5,10.62-1.551,10.333-2.34,2.112-1.21,5.419-5.4-3.433-2.489,1.458,2.17,2.9-1.189,1.52-3.283,2.342s-6.977,2.237-7.517,2.237c-.029,0-.041-.007-.029-.021a10.044,10.044,0,0,0,.474-1.93l1.829-1.3,2.348-6.011-1.829-4.184.934-1.907,1.481-1.78-1.93-2.141-2.742.877-1.834,3.256-.594,2.474.81,4.133,2.428,1.522-1.966,2.13-1.968.361-1.39-1.93-5.6-1.4L172.7,435.3l3.774.655,1.986-6.036-3.3-4.728,1.733-2.976-.423-4.391,2.938-1.244,6.9-7.643-.521-2.448,4.128-2.659-3.247-.168,1.914-2.789-.057-2.6-4.1-3.456.523-4.814-3.162-3.506-2.505,1.636.376,3.643-2.556,2.66.475,1.607,4.257.4,1.54,2.59-.926,1.814-5.028,1.88.5-2.484,1.2-1.615-6.544-1.169-.033,2.515-3.986,1.556,1.385-3.367-1.315-3.413-1.961-1.589,1.772-5.675,2.686,3.856.286,3.457,2.91-.5.109-3.991-5.8-4.666-2.642-1.065.537-5.082,5.244,1.1,1.61-4.285,3.5.642-.274,1.751,1.685-.374,2.587-1.357-1.022-1.912,2.693-1.72,1.524,2.865,2.972-1.707,1.282-5.051,5.152-.852Zm0-2.763a2.767,2.767,0,0,0-2.572,1.757l-.069.175-3.6.6a2.762,2.762,0,0,0-2.231,2.046l-.777,3.072a2.764,2.764,0,0,0-3.808-.828l-2.693,1.72a2.758,2.758,0,0,0-1.142,1.476l-3.349-.614a2.76,2.76,0,0,0-3.085,1.746l-.776,2.064-2.925-.614a2.672,2.672,0,0,0-.568-.059,2.763,2.763,0,0,0-2.749,2.474l-.536,5.081a2.764,2.764,0,0,0,1.713,2.855l.622.25-1.545,4.95a2.761,2.761,0,0,0,.9,2.974l1.387,1.122.655,1.7-.967,2.353a2.764,2.764,0,0,0,3.562,3.624l3.986-1.558a2.75,2.75,0,0,0,1.3-1.048l-.137.684a2.764,2.764,0,0,0,2.709,3.307,2.8,2.8,0,0,0,.968-.175l5.028-1.88a2.871,2.871,0,0,0,.534-.269,2.728,2.728,0,0,0,.049,1.22,2.766,2.766,0,0,0-.918,2.683l.229,1.07-5.544,6.141-2.379,1.006a2.763,2.763,0,0,0-1.669,2.811l.336,3.5-1.284,2.206a2.757,2.757,0,0,0,.121,2.971l2.505,3.6-.808,2.456-1.422-.247a2.864,2.864,0,0,0-.472-.041,2.761,2.761,0,0,0-2.587,3.735l1.88,5.02a2.763,2.763,0,0,0,1.919,1.71l4.615,1.151.8,1.107a2.762,2.762,0,0,0,2.244,1.15c.06,0,.126,0,.189-.007-.047.227-.093.431-.124.555a2.779,2.779,0,0,0,.023,2.448,2.821,2.821,0,0,0,2.5,1.527c.457,0,.975,0,8.363-2.37a2.817,2.817,0,0,0,.761-.38l3.281-2.344a2.78,2.78,0,0,0,.57-.545l1.191-1.52a2.739,2.739,0,0,0,.55-1.253l1.511.96a2.764,2.764,0,0,0,4.179-1.731l1.017-4.558,1.687-1.522a2.782,2.782,0,0,0,.882-1.641l1.488-9.931,4.56-9.679,2.12-1.705a2.765,2.765,0,0,0,.8-3.261l-.077-.17,2.75-2.257a2.777,2.777,0,0,0,1.011-2.092l.007-.5.665-.139a2.768,2.768,0,0,0,1.889-1.452l1.338-2.628a2.758,2.758,0,0,0-.591-3.287l-1.836-1.689.3-1a2.747,2.747,0,0,0-.22-2.11,1.6,1.6,0,0,0-.083-.145l.467-.58a2.764,2.764,0,0,0-1.863-4.476l-2.771-.3a2.776,2.776,0,0,0,.557-1.525l.284-5.649a2.763,2.763,0,0,0-1.293-2.482l-4.055-2.536a2.761,2.761,0,0,0-3.429.4l-1.2,1.215-3.479-1.289-1.636-2.943.39-.547a2.763,2.763,0,0,0,.077-3.095l-.859-1.344a2.77,2.77,0,0,0-3.4-1.06l-.16.069-.256.059a2.763,2.763,0,0,0-1.68-1.039l-3.314-.637a2.844,2.844,0,0,0-.523-.049" transform="translate(103.339 230.567)" fill="#b7b6af"/>
              <path id="패스_1694" data-name="패스 1694" d="M246.95,361.293l-7.338,7.158-.193,1.849.877,1.992,4.623-1.782-.046-4.6,3.4-3.805Z" transform="translate(151.577 228.736)" fill="#f4f3ec"/>
              <path id="패스_1695" data-name="패스 1695" d="M248.021,362.364l1.324.81-3.4,3.805.046,4.6-4.623,1.782-.877-1.992.193-1.849Zm0-2.763a2.771,2.771,0,0,0-1.93.784l-7.339,7.158a2.762,2.762,0,0,0-.817,1.694l-.194,1.849a2.756,2.756,0,0,0,.222,1.4l.875,1.994a2.764,2.764,0,0,0,3.523,1.465l4.623-1.782a2.764,2.764,0,0,0,1.77-2.6l-.036-3.534,2.69-3a2.769,2.769,0,0,0-.621-4.2l-1.326-.808a2.768,2.768,0,0,0-1.44-.4" transform="translate(150.505 227.665)" fill="#b7b6af"/>
              <path id="패스_1696" data-name="패스 1696" d="M177.467,393.347l1.191-2.871-1.9-1.073-2.479.71-1.4,1.534.678,1.849Z" transform="translate(109.45 246.533)" fill="#f4f3ec"/>
              <path id="패스_1697" data-name="패스 1697" d="M177.829,390.474l1.9,1.073-1.191,2.871-3.91.149-.678-1.849,1.4-1.534Zm0-2.763a2.739,2.739,0,0,0-.761.108l-2.477.709a2.788,2.788,0,0,0-1.28.794l-1.4,1.534a2.766,2.766,0,0,0-.555,2.814l.681,1.85a2.762,2.762,0,0,0,2.593,1.811l.1,0,3.911-.149a2.763,2.763,0,0,0,2.446-1.7l1.191-2.871a2.765,2.765,0,0,0-1.2-3.465l-1.9-1.073a2.771,2.771,0,0,0-1.357-.356" transform="translate(108.379 245.461)" fill="#b7b6af"/>
              <path id="패스_1698" data-name="패스 1698" d="M436.244,321.337l1.21-3.281,2.347-.929.568-2.9,2.017-2.616.011-4.391,3.563-4.21-3.611-2.9,1.119-9.777-3.91-5.221.291-1.656-3.573-7.916-3.271-1.426-1.813-9.5,2.056-11.6-.492-2.747-5.443.137-6.684-4.31L417.623,257.4l5.786-.447,3.772-2.964,1.142,3.307-1.261,4.589-1.543,2.891-4.491-3.108-1.676.1.057,2.515-2.2,1.184-1.248-1.083-.276-7.362-1.762-1.95-1.9.929-2.977-1.733-2.025,3.245,1.253.99-1.166,8.216-1.177,1.153-4.114.621-3.22,2.9,1.777,1.676-.643,3.407,1.8,2.878-.284,3.8-4.311,6.2-3.152-.162.934,3.581,3.929-.635,3.01,3.031-.586,9.637-3.619,5.3-1.32,9.6-6.2,8.427-4.716,14.076-11.814,7.48L368.4,360.315l-8.771,6.152-3.544.193-3.748,2.41-10.764,3.265-.529,3.039-4.556,1.9-5.115-3.6,2.572-4.89-1.034-1.638-2.112,1.383-1.656-.456.261-5.007,2.829,1.071,5.381-1.582.441-3.325,2.8-2.087-1.782-1.489-11.6,3.222-4.155,6.67,2.406,2.074.509,2.722-1.128,5.8L317,385.58l-6.82,4.3.015,1.582-4.653,5.53,3.624,5.574-.815,3.214-1-2.192-1.607.48-.678,2.38-2.6,1.818-2.357-1.233.58,3.283-3.725.087-2.608-3.475-3.1.485,1.457,2.406-4.284-1.613-1.24-1.184,3.3-2.809-1.64-2.5-8.686,2.628-7.8-1.893-6.794,3.841-10.514.207-4.7-.985-2.371,1-2.412-.118-1.992-2.9-3.655-1.115-2.878,1.713-7.772,1,.853,1.618-.17,3.253-5,1.413-2.659,2.846-6.109,3.127-6.064,6.01-4.256,1.362-2.415-.029-5.077,4.757-.361,1.658-4.77.591-1.2-2.012-3.668-1.021,1.156,2.845-2.123-.292-1.739,1.3,1,2.286-1.287,1.609,1.039,1.444-1.021,1.9,1.009,1.912,3.692-1.208,2.884,3.493,5.864-2.023.81.6,6.038-1.651,3.106,4.721,2.023.286,1.133,1.545,1.676-.007.1-1.948,1.7-.655,1.795-6.046-.733-1.987,3.648-2.231,3.581.83,1.086,4.241,2.682.23,2.815-2.366,5.381.273.929-1.811,3.286-.759.325,1.039,3.095,1.177,1.952-1.762,1.973-.361-.629-2.267,2.175,1.14,1.829-1.3,1.253,2.853,1.937-1.576,1.411,1.47,2.945-1.153.109-2.229,2.59.224,2.711-2.09.279-1.752,4.243.681,1.158-2.731,1.2,2.107,5.667.011,7.222,4.274,4.844-1.938,2.82.629.792,3.671-3.327,3.661-2.179,1.769-3.528,2.123,2.933,4.062-3.6,2.322.89,1.576-.89,3.862,7.081,4.607-1.39,1.259,1.819,4,7.081,3.358.9-1.277,4.111-1.388-.3-3.65,3.338-5.263,4.006-2.03-.206-2.729,1.855-.808-.137-2.864,8.223-2.647,6.452.673,1.016-4.828-1.677-.018-7.983-4.728,3.462-10.5,4.731-1.289-.472,8,1.638.71,1.656-2.428,3.225,2.329,2.357-2.461,3.369,3.725-2.236.1-5.275.848-1.39,2.579,12.438-1.808,16.854,3.091-.883-1.788,6.209-11.05,5.58-2.714,3.748,3.051-2.561.916-1.375,9.2,2.317,2.417,3.407-1.22,4.23-7.736-2.049-3.588,2.585-2.8-.369-2.391,8.4-1.8,2.647,3.968,3.139-2.7-2.6-4.945,4-1.819.168-3.338,1.708.786,3.168-2.068,2.267,3.464-2.409,3.429-2.865.206-2.185,3.165,2.023,2.615-1.315,1.186-.142,2.85-1.906,3.109,3.007,2.528,6.377-5.768,5.17-2.876.624-8.121,6.327-5.12,4.037-1.259-6.353-14.958,1.07-4.548,4.646-13.148,3.831-1.271,3.039-18.665-2.552-7.244-1.341-6.55,3.732-7.55,7.953-.219,1.687,3.844.766-2.673-1.258-4.04,1.115-1.409-1.1-2.982,1.762-5.766Z" transform="translate(117.37 155.8)" fill="#f4f3ec"/>
              <path id="패스_1699" data-name="패스 1699" d="M421.7,247.16l6.684,4.31,5.443-.137.492,2.749-2.056,11.6,1.814,9.5,3.269,1.426,3.573,7.917-.291,1.656,3.911,5.219-1.12,9.777,3.611,2.9-3.562,4.21-.011,4.391L441.44,315.3l-.567,2.9-2.348.929-1.21,3.281-2.118.524-1.762,5.767,1.1,2.982-1.114,1.409,1.257,4.042-.768,2.672-1.687-3.843-7.953.217-3.732,7.55,1.341,6.552,2.554,7.243L421.4,376.19l-3.831,1.271-4.645,13.148-1.071,4.547,6.353,14.959-4.037,1.259-6.327,5.12-.624,8.12-5.17,2.878-6.377,5.766-3.007-2.528,1.906-3.108.142-2.851,1.315-1.186L394,420.97l2.185-3.163,2.865-.206,2.409-3.431-2.267-3.462-3.168,2.066-1.708-.784-.167,3.336-4,1.821,2.6,4.945-3.139,2.7-2.649-3.968-8.4,1.8.369,2.393-2.585,2.8,2.05,3.586-4.23,7.736-3.4,1.22-2.319-2.415,1.375-9.206,2.562-.916-3.748-3.051-5.582,2.714-6.209,11.05.885,1.788-16.855-3.091-12.438,1.808,1.39-2.579,5.277-.848,2.234-.1-3.367-3.727-2.358,2.463-3.224-2.33-1.658,2.43-1.638-.712.472-8-4.731,1.289-3.462,10.5,7.983,4.726,1.677.018-1.016,4.827-6.452-.673-8.221,2.647.136,2.866-1.855.808.206,2.727-4,2.032-3.338,5.262.3,3.65-4.11,1.388-.9,1.277-7.083-3.358-1.819-4,1.39-1.258-7.081-4.609.89-3.862-.89-1.576,3.606-2.322-2.933-4.062,3.526-2.121,2.179-1.77,3.328-3.661-.794-3.67-2.82-.629-4.844,1.937-7.22-4.274-5.667-.011-1.2-2.105-1.156,2.729-4.243-.681-.281,1.752-2.709,2.092-2.59-.225-.111,2.231-2.943,1.151-1.411-1.468-1.937,1.574-1.253-2.851-1.831,1.3-2.175-1.14.629,2.267-1.971.361-1.953,1.762-3.095-1.176-.323-1.04-3.287.759-.929,1.813-5.381-.274-2.815,2.368L225.9,440.7l-1.084-4.241-3.583-.828-3.648,2.229.733,1.988-1.795,6.047-1.7.653-.1,1.95-1.676,0-1.133-1.543-2.025-.287-3.106-4.72-6.036,1.649-.81-.6-5.866,2.025-2.884-3.493-3.692,1.207-1.009-1.912,1.021-1.9-1.039-1.444,1.287-1.607-1-2.286,1.738-1.3,2.125.294-1.158-2.846,3.668,1.022,1.2,2.01,4.769-.591.363-1.656,5.076-4.759,2.415.031,4.256-1.364,6.064-6.01,6.109-3.127,2.66-2.845,4.994-1.414.172-3.253-.854-1.618,7.774-1L241,403.45l3.655,1.115,1.994,2.9,2.41.119,2.371-1,4.7.986,10.514-.207,6.794-3.841,7.8,1.893,8.688-2.629,1.638,2.5-3.3,2.807,1.24,1.184,4.285,1.614-1.458-2.4,3.1-.487,2.61,3.477,3.725-.088-.581-3.282,2.357,1.233,2.6-1.818.679-2.378,1.607-.482,1,2.193.815-3.214-3.624-5.575,4.653-5.53-.015-1.583,6.821-4.3,8.11-9.441,1.129-5.8-.511-2.722-2.406-2.074,4.155-6.67,11.6-3.221,1.782,1.488-2.8,2.087-.439,3.325-5.381,1.584-2.83-1.073-.261,5.009,1.656.454,2.113-1.383,1.032,1.638-2.572,4.89,5.115,3.6,4.558-1.9.529-3.039,10.762-3.263,3.75-2.412,3.542-.191,8.771-6.154,5.007-10.625L386.3,343.28l4.715-14.074,6.2-8.427,1.32-9.6,3.621-5.3.585-9.635-3.01-3.033-3.929.635-.934-3.581,3.154.163,4.31-6.2.286-3.8-1.806-2.878.643-3.407-1.775-1.676,3.219-2.9,4.115-.622,1.176-1.153,1.166-8.215-1.253-.991,2.025-3.245,2.977,1.733,1.906-.928,1.76,1.95.278,7.36,1.246,1.083,2.2-1.182-.057-2.515,1.676-.1,4.491,3.106,1.543-2.891,1.261-4.589-1.142-3.307-3.773,2.964-5.786.449Zm0-2.763a2.761,2.761,0,0,0-2.672,2.054l-2.059,7.757a2.768,2.768,0,0,0-3.183-.545l-.576.283-1.7-.99a2.763,2.763,0,0,0-3.735.924l-2.023,3.247a2.76,2.76,0,0,0,.63,3.629l.01.007-.8,5.6-3.118.47a2.779,2.779,0,0,0-1.439.681l-3.219,2.9a2.762,2.762,0,0,0-.046,4.062l.678.64-.363,1.922a2.764,2.764,0,0,0,.372,1.979l1.324,2.108-.16,2.141-3,4.318-1.62-.083c-.046,0-.095,0-.14,0a2.764,2.764,0,0,0-2.673,3.462l.932,3.58a2.775,2.775,0,0,0,3.118,2.032l2.526-.408,1.137,1.145-.464,7.64-3.191,4.669a2.8,2.8,0,0,0-.456,1.182l-1.222,8.9-5.781,7.862a2.7,2.7,0,0,0-.4.761l-4.4,13.142L373,348.426a2.782,2.782,0,0,0-1.019,1.156l-4.7,9.964-7.524,5.277-2.755.15a2.757,2.757,0,0,0-1.344.434l-3.425,2.2-10.393,3.152a2.766,2.766,0,0,0-1.921,2.172l-.271,1.545-1.751.733-1.881-1.328,1.44-2.742a2.76,2.76,0,0,0-.108-2.762l-.787-1.249,2.9-.852a2.768,2.768,0,0,0,1.96-2.288l.286-2.169,1.868-1.39a2.765,2.765,0,0,0,.124-4.339l-1.782-1.486a2.755,2.755,0,0,0-2.512-.544l-11.6,3.222a2.759,2.759,0,0,0-1.605,1.2l-4.153,6.67a2.766,2.766,0,0,0,.539,3.555l1.674,1.44.232,1.253-.885,4.563-7.362,8.572-6.469,4.073a2.768,2.768,0,0,0-1.292,2.361l.007.562-4,4.749a2.766,2.766,0,0,0-.2,3.284l1.87,2.879-.149.044a2.755,2.755,0,0,0-1.862,1.888l-.413,1.436-.418.294-.869-.454a2.759,2.759,0,0,0-3.972,1.819l-.854-1.137a2.76,2.76,0,0,0-2.21-1.1,2.716,2.716,0,0,0-.429.034l-.668.1a2.771,2.771,0,0,0-.456-1.605l-1.638-2.5a2.763,2.763,0,0,0-2.309-1.248,2.711,2.711,0,0,0-.8.119l-7.966,2.409-7.075-1.713a2.644,2.644,0,0,0-.65-.08,2.78,2.78,0,0,0-1.36.358l-6.186,3.5-9.5.186-4.39-.919a2.641,2.641,0,0,0-.567-.06,2.754,2.754,0,0,0-1.07.217l-1.793.755-.418-.023-1.22-1.77a2.758,2.758,0,0,0-1.468-1.075l-3.653-1.115a2.742,2.742,0,0,0-.808-.121,2.772,2.772,0,0,0-1.413.389l-2.384,1.419-7.2.924a2.761,2.761,0,0,0-2.1,4.027l.5.947-.026.518-3.093.874a2.756,2.756,0,0,0-1.267.772l-2.329,2.494-5.682,2.907a2.789,2.789,0,0,0-.684.5L209.73,422l-3.194,1.024-1.97-.026h-.034a2.764,2.764,0,0,0-1.889.748l-5.077,4.759a2.773,2.773,0,0,0-.74,1.169l-1.053.131-.279-.465a2.761,2.761,0,0,0-1.63-1.244l-3.668-1.021a2.81,2.81,0,0,0-.741-.1,2.763,2.763,0,0,0-2.732,3.186l-1.628,1.22a2.764,2.764,0,0,0-.877,3.315l.328.758-.243.305a2.757,2.757,0,0,0-.085,3.341l.028.042-.2.379a2.762,2.762,0,0,0-.011,2.6l1.009,1.912a2.77,2.77,0,0,0,3.3,1.338l1.9-.622,1.684,2.04a2.767,2.767,0,0,0,2.131,1,2.723,2.723,0,0,0,.9-.152l4.532-1.563a2.758,2.758,0,0,0,1.971.2l4.1-1.122,2.005,3.046a2.765,2.765,0,0,0,1.922,1.217l.872.122.443.606a2.765,2.765,0,0,0,2.229,1.13h.011l1.676-.007a2.765,2.765,0,0,0,2.75-2.623l.007-.154.028-.01a2.769,2.769,0,0,0,1.659-1.795l1.8-6.046a2.776,2.776,0,0,0-.01-1.6l.751-.459.843.2.668,2.613a2.763,2.763,0,0,0,2.44,2.068l2.683.23c.082.007.16.01.237.01a2.765,2.765,0,0,0,1.78-.648l1.983-1.667,4.293.22c.046,0,.095,0,.14,0a2.759,2.759,0,0,0,2.458-1.5l.336-.65a2.786,2.786,0,0,0,.763.441l3.1,1.177a2.721,2.721,0,0,0,.981.181,2.756,2.756,0,0,0,1.85-.712l1.372-1.236,1.2-.222a2.763,2.763,0,0,0,1.679-1.016,2.771,2.771,0,0,0,1.8,1.409,2.849,2.849,0,0,0,.652.075,2.759,2.759,0,0,0,1.743-.619,2.775,2.775,0,0,0,2.615.323l2.943-1.153a2.768,2.768,0,0,0,1.648-1.814h.044a2.757,2.757,0,0,0,1.689-.576l2.709-2.092a2.746,2.746,0,0,0,.7-.8l1.7.271a2.492,2.492,0,0,0,.439.036,2.76,2.76,0,0,0,1.809-.678,2.66,2.66,0,0,0,.536.056l4.916.01,6.567,3.888a2.763,2.763,0,0,0,2.437.189l4.05-1.62.263.057.118.55-2.231,2.455-1.867,1.516-3.359,2.022a2.765,2.765,0,0,0-.815,3.986l1.228,1.7-1.156.745a2.765,2.765,0,0,0-.911,3.683l.364.642-.65,2.815a2.766,2.766,0,0,0,1.187,2.938l4.5,2.93a2.773,2.773,0,0,0,.178,1.764l1.819,4a2.755,2.755,0,0,0,1.331,1.352l7.083,3.359a2.765,2.765,0,0,0,3.439-.9l.382-.545,3.263-1.1a2.766,2.766,0,0,0,1.868-2.843l-.222-2.727,2.432-3.838,3.33-1.689a2.766,2.766,0,0,0,1.506-2.672l-.057-.772.057-.024a2.762,2.762,0,0,0,1.653-2.662l-.034-.753,5.652-1.821,5.874.612a2.867,2.867,0,0,0,.289.016,2.762,2.762,0,0,0,2.7-2.2l1.016-4.827a2.791,2.791,0,0,0,.008-1.1l11.081-1.61,16.406,3.008a2.764,2.764,0,0,0,2.977-3.944l-.238-.479,5.071-9.025,2.005-.977-1.333,8.918a2.755,2.755,0,0,0,.74,2.322l2.317,2.415a2.767,2.767,0,0,0,2,.851,2.739,2.739,0,0,0,.929-.163l3.407-1.22a2.754,2.754,0,0,0,1.493-1.277l4.231-7.736a2.762,2.762,0,0,0-.026-2.695l-1.042-1.827,1.21-1.31a2.765,2.765,0,0,0,.723-2.112l4.014-.861,1.607,2.406a2.762,2.762,0,0,0,1.924,1.2,2.643,2.643,0,0,0,.376.026,2.769,2.769,0,0,0,1.8-.666l.443-.379-.016.273-1.535,2.507a2.762,2.762,0,0,0,.576,3.559l3.007,2.528a2.759,2.759,0,0,0,3.632-.065l6.144-5.554,4.894-2.724a2.764,2.764,0,0,0,1.413-2.2l.531-6.934,4.991-4.037,3.532-1.1a2.765,2.765,0,0,0,1.72-3.719l-6-14.126.828-3.518,4.143-11.732,2.548-.844a2.77,2.77,0,0,0,1.86-2.179l3.038-18.666a2.783,2.783,0,0,0-.121-1.364l-2.492-7.063-1.11-5.437,2.574-5.208,4.429-.122.939,2.141a2.766,2.766,0,0,0,2.531,1.653c.06,0,.124,0,.188-.007a2.762,2.762,0,0,0,2.468-1.994l.766-2.672a2.782,2.782,0,0,0-.015-1.584l-.826-2.649.211-.265a2.767,2.767,0,0,0,.425-2.675l-.781-2.107,1.03-3.376.6-.149a2.765,2.765,0,0,0,1.929-1.728l.779-2.121,1.2-.474a2.76,2.76,0,0,0,1.7-2.04l.441-2.255,1.622-2.1a2.771,2.771,0,0,0,.575-1.682l.008-3.382,2.912-3.439a2.773,2.773,0,0,0-.377-3.941l-2.424-1.948.946-8.263a2.768,2.768,0,0,0-.536-1.971l-3.193-4.261.083-.479a2.753,2.753,0,0,0-.2-1.617l-3.573-7.916a2.757,2.757,0,0,0-1.413-1.4l-1.937-.841-1.442-7.573,1.966-11.1a2.755,2.755,0,0,0,0-.968l-.492-2.747a2.763,2.763,0,0,0-2.721-2.278c-.021,0-.046,0-.069,0l-4.592.116-5.969-3.849a2.762,2.762,0,0,0-1.5-.441m2.482,16.427.51-.039a2.786,2.786,0,0,0,1.293-.439l-.4,1.45ZM320.7,436.174l1.8-5.471-.162,2.766a2.762,2.762,0,0,0,1.658,2.7l1.638.71a2.734,2.734,0,0,0,.719.2l-.343.64a2.775,2.775,0,0,0-.33,1.4Z" transform="translate(116.297 154.729)" fill="#b7b6af"/>
              <path id="패스_1700" data-name="패스 1700" d="M315.16,233.6l-4.024.841-1.111,5.381,3.315.591Z" transform="translate(196.278 147.895)" fill="#f4f3ec"/>
              <path id="패스_1701" data-name="패스 1701" d="M316.231,234.674h.013m-.013,0-1.819,6.813L311.1,240.9l1.111-5.381,4.024-.841m0-2.763c-.042,0-.09,0-.134,0a2.8,2.8,0,0,0-.487.067l-3.968.828a2.764,2.764,0,0,0-2.143,2.148l-1.109,5.381a2.761,2.761,0,0,0,2.221,3.279l3.315.591a2.765,2.765,0,0,0,3.154-2.009l1.77-6.627a2.726,2.726,0,0,0,.149-.9,2.755,2.755,0,0,0-2.75-2.763Z" transform="translate(195.207 146.824)" fill="#b7b6af"/>
              <path id="패스_1702" data-name="패스 1702" d="M330.158,179.608l3.34,4.349,1.065-4.548-3.085-.993Z" transform="translate(209.024 112.956)" fill="#f4f3ec"/>
              <path id="패스_1703" data-name="패스 1703" d="M332.55,179.487l3.085.991-1.066,4.55-3.338-4.349Zm0-2.763a2.763,2.763,0,0,0-1.852.712l-1.318,1.192a2.76,2.76,0,0,0-.341,3.733l3.338,4.349a2.765,2.765,0,0,0,2.192,1.081,2.723,2.723,0,0,0,.583-.062,2.763,2.763,0,0,0,2.108-2.071l1.066-4.55a2.767,2.767,0,0,0-1.847-3.261l-3.083-.991a2.74,2.74,0,0,0-.846-.132" transform="translate(207.953 111.885)" fill="#b7b6af"/>
              <path id="패스_1704" data-name="패스 1704" d="M374.142,270.54l7.279.787,4.48,6.5,3.616-1.277.506-9.8,16.605-17.98,10.151,1.775,1.184-2.66,3.5,1.014,4.653-4.989,7.548-.451.4-3.746,4.529-2.695-2.023-1.36-5.208,3.709-4.068-6.482-3.867-6.054,6.807-14.5-1.793-1.762-10.633,11.582-9.165-.674-.648-3.8-13.8-4.261-12.692-9.433-9.02-11.755L361.7,178.3l-3.534,3.585-3.524-.6-1.452,7.872,4.509,10.062-1.089,9.145-1.829,3.046-1.058,12.5-5.148,2.456-.385,3.536,2,9.933-3.325,3.8-4.591-.235-.124-1.677-4.635.6L331.3,236.98l-4.279,1.878,3.493,9.379-4.068,5.855-1.414-.9-2.9,3.614-4.64.81-.281,5.425-2.068,3.656,6.877,8.721.972,5.481-3.8,4.827,1.782,5.953,3.3,1,4.133-3.134.882-4.973,2.956-.475.949-2.255,6.359,2.417,5.541-2.019-6.433-5.139-2.125-3.452-5.629-.291-5.148-5.7,6.025-7.432,6.516,3.47,1.037,4.235,2.505.132,13.445-9.356,9.176,4.654Z" transform="translate(199.521 112.88)" fill="#f4f3ec"/>
              <path id="패스_1705" data-name="패스 1705" d="M362.769,179.367,373.561,193.3l9.02,11.755,12.692,9.433,13.8,4.261.648,3.8,9.165.674,10.633-11.582,1.793,1.762L424.5,227.9l3.867,6.056,4.068,6.48,5.208-3.709,2.023,1.362-4.529,2.693-.405,3.746-7.548.451-4.653,4.989-3.5-1.013-1.184,2.659L407.7,249.842l-16.605,17.979-.506,9.8-3.616,1.277-4.48-6.5-7.279-.787-9.673-7.184-9.176-4.654-13.445,9.356L340.414,269l-1.037-4.235-6.516-3.472-6.025,7.432,5.148,5.7,5.629.291,2.125,3.452,6.433,5.139-5.541,2.018-6.359-2.417-.949,2.255-2.956.475-.882,4.973-4.133,3.134-3.3-1-1.782-5.953,3.8-4.827-.972-5.481-6.877-8.721,2.068-3.657.281-5.425,4.64-.81,2.9-3.614,1.414.906,4.068-5.856-3.493-9.379,4.279-1.878,6.209,5.339,4.635-.6.124,1.677,4.591.234,3.325-3.8-2-9.933.385-3.537,5.148-2.456,1.058-12.495,1.829-3.046,1.089-9.147-4.509-10.062,1.452-7.872,3.524.6Zm0-2.763a2.766,2.766,0,0,0-1.968.823l-2.523,2.559-2.105-.358a2.809,2.809,0,0,0-.464-.039,2.764,2.764,0,0,0-2.716,2.263l-1.452,7.873a2.747,2.747,0,0,0,.2,1.631l4.2,9.361-.931,7.8-1.524,2.538a2.751,2.751,0,0,0-.384,1.191l-.926,10.916-3.717,1.775a2.761,2.761,0,0,0-1.556,2.193l-.385,3.537a2.761,2.761,0,0,0,.038.844l1.729,8.6-1.543,1.764-.926-.046a2.766,2.766,0,0,0-2.59-1.8,2.919,2.919,0,0,0-.358.023l-3.412.443-5.272-4.535a2.766,2.766,0,0,0-2.915-.434l-4.275,1.876a2.764,2.764,0,0,0-1.481,3.5l2.987,8.023-1.827,2.633a2.774,2.774,0,0,0-2.713.978l-2.25,2.8-3.611.632a2.763,2.763,0,0,0-2.285,2.579l-.247,4.775-1.746,3.09a2.763,2.763,0,0,0,.234,3.072l6.448,8.175.635,3.578-3.036,3.854a2.762,2.762,0,0,0-.475,2.5l1.782,5.953a2.768,2.768,0,0,0,1.847,1.855l3.3,1a2.771,2.771,0,0,0,2.469-.443l4.135-3.134a2.774,2.774,0,0,0,1.05-1.721l.536-3.038,1.021-.163a2.779,2.779,0,0,0,2.014-1.455l3.87,1.47a2.757,2.757,0,0,0,1.927.015l5.543-2.019a2.764,2.764,0,0,0,.781-4.756l-6.057-4.837-1.872-3.044a2.762,2.762,0,0,0-2.211-1.311l-4.488-.232-2.8-3.095,3.1-3.823,3.412,1.819.746,3.034a2.762,2.762,0,0,0,2.541,2.1l2.505.132c.044,0,.095,0,.142,0a2.762,2.762,0,0,0,1.579-.495l12.09-8.412,7.493,3.8,9.483,7.045a2.784,2.784,0,0,0,1.352.529l6.018.65,3.763,5.459a2.761,2.761,0,0,0,3.2,1.037l3.616-1.277a2.765,2.765,0,0,0,1.841-2.463l.454-8.806,14.905-16.137,8.668,1.514a2.753,2.753,0,0,0,3-1.6l.2-.457,1.186.343a2.771,2.771,0,0,0,2.789-.771l3.9-4.181,6.444-.385a2.761,2.761,0,0,0,2.582-2.461l.256-2.375,3.345-1.988a2.764,2.764,0,0,0,.131-4.667l-2.025-1.362a2.766,2.766,0,0,0-3.147.042l-2.824,2.009-2.51-4-3.056-4.79,6.157-13.122a2.762,2.762,0,0,0-.563-3.145l-1.792-1.762a2.775,2.775,0,0,0-1.938-.794c-.023,0-.046,0-.069,0a2.763,2.763,0,0,0-1.966.893l-9.728,10.6-5.673-.418-.286-1.662a2.763,2.763,0,0,0-1.909-2.177l-13.342-4.12-12-8.92-8.786-11.45-10.8-13.945a2.764,2.764,0,0,0-2.022-1.066c-.052,0-.109,0-.163,0" transform="translate(198.45 111.809)" fill="#b7b6af"/>
              <path id="패스_1706" data-name="패스 1706" d="M237.567,362.672l-.087-1.863-4.628,1.439.449,2.069,1.707,1.2Z" transform="translate(147.419 228.429)" fill="#f4f3ec"/>
              <path id="패스_1707" data-name="패스 1707" d="M238.552,361.879l.087,1.863-2.559,2.845-1.707-1.2-.449-2.069Zm0-2.763a2.775,2.775,0,0,0-.82.124l-4.628,1.439a2.764,2.764,0,0,0-1.881,3.225l.447,2.068a2.776,2.776,0,0,0,1.112,1.676l1.708,1.2a2.766,2.766,0,0,0,3.647-.413l2.557-2.846a2.764,2.764,0,0,0,.705-1.974l-.088-1.863a2.763,2.763,0,0,0-2.76-2.634" transform="translate(146.348 227.358)" fill="#b7b6af"/>
              <path id="패스_1708" data-name="패스 1708" d="M189.305,322.371l-.162.671.957-.323Z" transform="translate(119.747 204.094)" fill="#f4f3ec"/>
              <path id="패스_1709" data-name="패스 1709" d="M190.376,323.443l.8.348-.957.323Zm0-2.765a2.765,2.765,0,0,0-2.688,2.116l-.162.671a2.764,2.764,0,0,0,3.572,3.266l.96-.325a2.763,2.763,0,0,0,.22-5.149l-.8-.349a2.767,2.767,0,0,0-1.106-.23" transform="translate(118.675 203.022)" fill="#b7b6af"/>
              <path id="패스_1710" data-name="패스 1710" d="M188.044,321.89l.537.866.412-.492Z" transform="translate(119.051 203.789)" fill="#f4f3ec"/>
              <path id="패스_1711" data-name="패스 1711" d="M189.115,322.961l.949.374-.412.492Zm0-2.763a2.763,2.763,0,0,0-2.348,4.22l.537.866a2.758,2.758,0,0,0,2.156,1.3c.062,0,.127.007.193.007a2.77,2.77,0,0,0,2.125-.995l.41-.493a2.763,2.763,0,0,0-1.111-4.339l-.946-.374a2.8,2.8,0,0,0-1.016-.193" transform="translate(117.98 202.718)" fill="#b7b6af"/>
              <path id="패스_1712" data-name="패스 1712" d="M339.107,66.008c-1.519.759-2.66,3.8-2.66,3.8l2.28,17.855,9.119,11.019,3.8,4.939-1.729,5.7-3.59,4.939-.758,10.258,4.347,11.78-3.776,12.346,1.52,2.662.754,4.747-2.275,6.459-1.711,7.027-5.319,2.281,1.9,11.776,2.845,9.119,4.187,3.039-.38,8.928-6.464,7.218,1.333,6.838,3.418,5.889-1.9,8.358-3.991,9.309.387,8.358.371,8.928,4.282,5.98,6.549-2.846,2.28-10.827,6.554-11.113,5.7,1.14v5.412l8.553-.852,2.278,7.976,4.56,2.569,1.707-9.975-5.126-7.694-6.552-2.848-.286-10.547-6.273-7.408-5.177-5.984V199.171l6.317-11.113,1.142-9.119,2.277-3.7.287-9.118,5.414-2.851,9.691-.854,7.978,3.136,6.265,6.552,3.134-.852-1.421-13.677-10.259-13.963-.284-10.829-3.707-10.54-2.561-21.088-8.549-14.53-4.272-3.709L373.3,65.243l3.988-2.559.859-19.378-7.124-13.53-5.133-12.967,3.519-4.272V7.12L363.383,3.7H351.266V8.26l8.735,5.7,3.382,9.5-6.059,1.52v4.8l-3.02,7.355-5.319-7.355-9.879,3.559v7.222l3.42,5.7-1.142,12.158s-.759,6.833-2.278,7.6" transform="translate(213.006 2.342)" fill="#f4f3ec"/>
              <path id="패스_1713" data-name="패스 1713" d="M364.456,4.771l6.023,3.42v5.417l-3.519,4.272,5.133,12.967,7.125,13.53-.861,19.378-3.986,2.559-1.991,17.669,4.272,3.709,8.549,14.53,2.561,21.088,3.706,10.54.286,10.829,10.259,13.963,1.419,13.677-3.132.852-6.265-6.552-7.978-3.136-9.691.854-5.415,2.853-.286,9.116-2.277,3.7-1.143,9.119-6.315,11.113v13.391l5.177,5.984,6.273,7.408.286,10.547,6.552,2.848,5.125,7.694-1.7,9.975-4.561-2.569-2.278-7.976-8.553.852v-5.412l-5.7-1.14L355,252.957l-2.28,10.827-6.55,2.846-4.28-5.98-.372-8.928-.387-8.358,3.993-9.309,1.9-8.358-3.42-5.889-1.333-6.838,6.464-7.218.38-8.928-4.186-3.039-2.845-9.118-1.9-11.778,5.319-2.281,1.711-7.027,2.275-6.459-.756-4.747-1.519-2.662,3.776-12.346-4.347-11.78.756-10.258,3.591-4.939,1.729-5.7-3.8-4.939L339.8,88.734l-2.278-17.855s1.14-3.041,2.66-3.8,2.278-7.6,2.278-7.6l1.14-12.158-3.418-5.7V34.406l9.877-3.559,5.319,7.355,3.021-7.355v-4.8l6.059-1.52-3.382-9.5-8.735-5.7V4.771Zm0-2.763H352.338a2.766,2.766,0,0,0-2.765,2.763v4.56a2.759,2.759,0,0,0,1.256,2.314l7.953,5.19,2.048,5.753-3.106.779a2.762,2.762,0,0,0-2.092,2.68V30.3L354.7,32.56,352.3,29.229a2.764,2.764,0,0,0-3.176-.981l-9.879,3.559a2.764,2.764,0,0,0-1.826,2.6v7.222a2.75,2.75,0,0,0,.394,1.422l2.953,4.919L339.7,59.222a23.935,23.935,0,0,1-1.227,5.651c-2.023,1.315-3.214,4.148-3.549,5.035a2.8,2.8,0,0,0-.154,1.323l2.281,17.855a2.774,2.774,0,0,0,.611,1.413l9.121,11.017,2.868,3.735-1.181,3.892-3.314,4.563a2.76,2.76,0,0,0-.523,1.421l-.758,10.259a2.8,2.8,0,0,0,.162,1.16l4.027,10.9-3.5,11.456a2.755,2.755,0,0,0,.242,2.179l1.269,2.224.567,3.557-2.041,5.8a2.453,2.453,0,0,0-.078.265l-1.385,5.685-4.052,1.738a2.757,2.757,0,0,0-1.636,2.979l1.9,11.778a3.114,3.114,0,0,0,.088.384l2.845,9.118a2.772,2.772,0,0,0,1.014,1.413l2.985,2.169-.276,6.456-5.8,6.482a2.758,2.758,0,0,0-.653,2.373l1.333,6.838a2.739,2.739,0,0,0,.325.859l2.871,4.95-1.6,7.052-3.893,9.077a2.776,2.776,0,0,0-.221,1.218l.385,8.358.374,8.913a2.752,2.752,0,0,0,.513,1.494l4.279,5.98a2.766,2.766,0,0,0,3.349.926l6.55-2.846a2.763,2.763,0,0,0,1.6-1.965l2.185-10.383,5.326-9.031,1.551.31V248.4a2.766,2.766,0,0,0,2.763,2.765,2.606,2.606,0,0,0,.276-.015l6.253-.624,1.643,5.757a2.776,2.776,0,0,0,1.3,1.649l4.563,2.569a2.763,2.763,0,0,0,4.078-1.943l1.7-9.975a2.755,2.755,0,0,0-.425-2l-5.125-7.692a2.749,2.749,0,0,0-1.2-1l-4.94-2.148-.237-8.791a2.777,2.777,0,0,0-.655-1.71l-6.274-7.406-4.519-5.228V200.972l5.953-10.478a2.735,2.735,0,0,0,.341-1.022l1.065-8.525,1.965-3.193a2.749,2.749,0,0,0,.41-1.36l.235-7.509,3.5-1.842,8.489-.748,6.807,2.673,5.843,6.113a2.768,2.768,0,0,0,2.724.758l3.132-.852a2.767,2.767,0,0,0,2.025-2.953l-1.419-13.676a2.749,2.749,0,0,0-.524-1.352l-9.745-13.266-.263-9.962a2.759,2.759,0,0,0-.157-.844l-3.6-10.256-2.526-20.789a2.727,2.727,0,0,0-.361-1.07l-8.551-14.53a2.8,2.8,0,0,0-.568-.686l-3.175-2.755,1.682-14.917,2.878-1.85a2.757,2.757,0,0,0,1.269-2.2l.861-19.378a2.752,2.752,0,0,0-.314-1.411l-7.057-13.4-4.476-11.314,2.481-3.013a2.771,2.771,0,0,0,.63-1.757V8.191a2.758,2.758,0,0,0-1.4-2.4l-6.023-3.42a2.749,2.749,0,0,0-1.362-.361" transform="translate(211.934 1.271)" fill="#b7b6af"/>
              <path id="패스_1714" data-name="패스 1714" d="M295.638,313.821l5.954-5.972-2.641-1.594.653-4.566-2.054-.737-4.439,5,2.321,3.674-3.79,4.615Z" transform="translate(184.639 190.534)" fill="#f4f3ec"/>
              <path id="패스_1715" data-name="패스 1715" d="M298.621,302.023l2.053.735-.652,4.566,2.641,1.6-5.954,5.971-4,.425,3.79-4.615-2.321-3.674Zm0-2.763a2.768,2.768,0,0,0-2.068.928l-4.439,5a2.765,2.765,0,0,0-.27,3.309l1.254,1.991-2.523,3.072a2.762,2.762,0,0,0,2.136,4.517,2.9,2.9,0,0,0,.291-.015l4-.423a2.76,2.76,0,0,0,1.664-.8l5.958-5.972a2.763,2.763,0,0,0-.529-4.316l-1.075-.65.4-2.753a2.769,2.769,0,0,0-1.806-2.994l-2.054-.735a2.738,2.738,0,0,0-.931-.162" transform="translate(183.567 189.463)" fill="#b7b6af"/>
              <path id="패스_1716" data-name="패스 1716" d="M337.082,185.786l-1.718-3.227-2.646,2.794,1.986,1.986Z" transform="translate(210.645 115.579)" fill="#f4f3ec"/>
              <path id="패스_1717" data-name="패스 1717" d="M336.435,183.63l1.718,3.227-2.376,1.553-1.987-1.986Zm0-2.763a2.766,2.766,0,0,0-2.007.864l-2.646,2.793a2.764,2.764,0,0,0,.054,3.854l1.987,1.986a2.762,2.762,0,0,0,3.464.361l2.378-1.553a2.766,2.766,0,0,0,.929-3.614l-1.718-3.225a2.764,2.764,0,0,0-2.442-1.465" transform="translate(209.574 114.508)" fill="#b7b6af"/>
              <path id="패스_1718" data-name="패스 1718" d="M30.721,145.675l-3.309,5.794H11.589a1.6,1.6,0,0,0-.255.018l-9.425,1.45m-.523,2.714a2.663,2.663,0,0,0,.523.051,2.815,2.815,0,0,0,.421-.033l9.328-1.435H27.412a2.761,2.761,0,0,0,2.4-1.393l3.309-5.794a2.765,2.765,0,0,0-.6-3.47" transform="translate(0.878 90.898)" fill="#b7b6af"/>
              <path id="패스_1719" data-name="패스 1719" d="M203.849,370.934l2.678.325,2.309-1.553-3.761-1.032Z" transform="translate(129.058 233.408)" fill="#f4f3ec"/>
              <path id="패스_1720" data-name="패스 1720" d="M206.146,369.745l3.761,1.032L207.6,372.33l-2.678-.325Zm0-2.765a2.758,2.758,0,0,0-2.428,1.447l-1.225,2.262a2.759,2.759,0,0,0,2.1,4.06l2.677.323a2.551,2.551,0,0,0,.333.021,2.758,2.758,0,0,0,1.542-.47l2.309-1.551a2.762,2.762,0,0,0-.81-4.958l-3.761-1.035a2.827,2.827,0,0,0-.732-.1" transform="translate(127.987 232.336)" fill="#b7b6af"/>
              <path id="패스_1721" data-name="패스 1721" d="M174.531,317.9l.637-3.9h-3.116l-.741,3.9Z" transform="translate(108.457 198.796)" fill="#f4f3ec"/>
              <path id="패스_1722" data-name="패스 1722" d="M176.239,315.074h.013m-.013,0-.637,3.9h-3.22l.741-3.9h3.116m.013-2.763h-3.129a2.761,2.761,0,0,0-2.714,2.247l-.741,3.9a2.761,2.761,0,0,0,2.714,3.279h3.22a2.764,2.764,0,0,0,2.729-2.317l.6-3.706a2.847,2.847,0,0,0,.072-.64,2.755,2.755,0,0,0-2.755-2.763" transform="translate(107.386 197.725)" fill="#b7b6af"/>
              <path id="패스_1723" data-name="패스 1723" d="M218.077,364.41l-2.41-.131-.212,2.317,5.1-1.509Z" transform="translate(136.405 230.627)" fill="#f4f3ec"/>
              <path id="패스_1724" data-name="패스 1724" d="M216.74,365.35l2.409.132,2.477.678-5.1,1.507Zm0-2.763a2.767,2.767,0,0,0-2.75,2.51l-.214,2.317a2.764,2.764,0,0,0,2.753,3.016,2.8,2.8,0,0,0,.784-.113l5.1-1.507a2.764,2.764,0,0,0-.052-5.316l-2.477-.678a2.616,2.616,0,0,0-.583-.095l-2.407-.131c-.051,0-.1,0-.154,0" transform="translate(135.333 229.555)" fill="#b7b6af"/>
              <path id="패스_1725" data-name="패스 1725" d="M208.129,369.153l3.238-1.6-3.544-3.529-1.39,1.793,1.248,1.084Z" transform="translate(130.694 230.467)" fill="#f4f3ec"/>
              <path id="패스_1726" data-name="패스 1726" d="M208.9,365.1l3.545,3.531-3.24,1.594-.447-2.247-1.248-1.084Zm0-2.763c-.06,0-.118,0-.178,0a2.765,2.765,0,0,0-2.005,1.065l-1.39,1.793a2.766,2.766,0,0,0,.369,3.781l.536.464.263,1.321a2.762,2.762,0,0,0,3.929,1.94l3.24-1.6a2.762,2.762,0,0,0,.732-4.437l-3.544-3.531a2.769,2.769,0,0,0-1.952-.805" transform="translate(129.623 229.396)" fill="#b7b6af"/>
              <path id="패스_1727" data-name="패스 1727" d="M166.088,435.36l-2.3-2.441L161.5,434.1l2.518,3.567Z" transform="translate(102.245 274.082)" fill="#f4f3ec"/>
              <path id="패스_1728" data-name="패스 1728" d="M164.86,433.989l2.3,2.442-2.072,2.311-2.518-3.568Zm0-2.763a2.778,2.778,0,0,0-1.267.307l-2.293,1.186a2.763,2.763,0,0,0-.99,4.048l2.518,3.568a2.768,2.768,0,0,0,2.1,1.164q.081,0,.162,0a2.759,2.759,0,0,0,2.056-.918l2.072-2.311a2.758,2.758,0,0,0-.046-3.74l-2.3-2.442a2.761,2.761,0,0,0-2.012-.869" transform="translate(101.173 273.011)" fill="#b7b6af"/>
              <path id="패스_1729" data-name="패스 1729" d="M119.6,376.505l-7.844,2.984-3.735,4.858,4.483,3.358,9.338-2.237,5.972-3.361,2.239-2.984-2.239-2.618Z" transform="translate(68.387 238.367)" fill="#f4f3ec"/>
              <path id="패스_1730" data-name="패스 1730" d="M128.882,377.576l2.241,2.618-2.241,2.982-5.972,3.363-9.338,2.236-4.483-3.356,3.735-4.859,7.844-2.984Zm0-2.763h-8.215a2.756,2.756,0,0,0-.981.18l-7.842,2.984a2.77,2.77,0,0,0-1.21.9l-3.735,4.859a2.766,2.766,0,0,0,.534,3.895l4.483,3.358a2.769,2.769,0,0,0,1.656.552,2.8,2.8,0,0,0,.647-.077l9.336-2.234a2.816,2.816,0,0,0,.71-.281l5.972-3.363a2.769,2.769,0,0,0,.856-.748l2.239-2.984a2.762,2.762,0,0,0-.109-3.457l-2.241-2.616a2.766,2.766,0,0,0-2.1-.967" transform="translate(67.316 237.295)" fill="#b7b6af"/>
              <path id="패스_1731" data-name="패스 1731" d="M1.593,146.068,14.7,142.936l-.717-8.549-5.268-4.7L34.931,92.076,49.463,81.244l.861-13.68-9.835-5.407-8.69.712-3.132-4.7,22.79-20.8H73.541L90.357,29.53h23.074l30.918,12.678,12.965-3.416,25.641,18.66,7.981,26.36,10.256,5.7,1.2,17.383,9.915,15.81v9.975l4.272,5.13V149.63l25.785,9.4,7.834,7.408,15.822-4.7,11.254,13.821,8.259,1.422,5.273,13.393-.71,13.249,4.553,9.261,32.2.428,19.235-12.537,6.982,1.854,22.795-10.4,8.553,7.124v8.976l5.7,10.829-16.38,10.685.136,9.544-19.374,41.747-6.265,4.128,1.992,13.819-29.2-8.12-18.665,7.267-3.995,7.264,6.982,14.959-2.42,9.4v9.689l4.845,8.688-14.531,12.4,1.571,8.834,17.231-17.381,9.119-11.113L325,343.677l-.43,10.827,17.1-.856,7.413,8.691,15.668-7.266,21.823-15.955,12.657-3.99,12.823-15.957,15.957-22.282,18.8-13.338,17.669-19.375,1.419-9.972,18.523-29.633,27.069-33.056,9.41-25.075,2.845-15.955-5.13-3.706,6.844-2.85V131.684l-5.419-4.849,3.132-4.556v-6.271l4.56-3.134,4.558-16.525L542.58,84.379V70.7l-8.005-4.555,4.558-5.131-.281-5.128-5.13-3.42,6.552-5.7,2.306-5.414L518.619,23.686,507.793,7.731H495.256L492.4,12.573,481.579,7.731l-2.851,3.134-1.994,17.381L469.041,32.1,474.8,20.267l-1.774-2.275L459.636,28.246l-13.963.854,8.265-9.688-3.705-3.134,2.853-7.124-8.838-1.424L434.562,26.82,433.988.036" transform="translate(1.009 0.023)" fill="#e8e9ea"/>
              <path id="패스_1732" data-name="패스 1732" d="M1.708,151.31l9.425-1.45a1.593,1.593,0,0,1,.253-.018H27.212l3.309-5.794" transform="translate(1.081 91.197)" fill="#e8e9ea"/>
              <path id="패스_1733" data-name="패스 1733" d="M1.115,451.551s8.028-3.732,8.59-4.29,1.306-5.98,1.306-5.98l7.656-9.149,5.226-4.484,8.588-.18,8.776-6.541,9.528-9.516,7.654-8.969,7.468-.188,9.71,1.31,9.521,5.786L84.051,415.7l-4.142,8.216-6.348,2.616-5.41,3.923-.934,3.732-5.98,5.412,4.858,1.868,10.645,1.12-7.468,6.534-10.277,9.9,10.831.56,1.124-3.73,6.351-1.876,6.751-4.1,7.623-8.4,9.9-3.918,13.627-5.045,12.325.56,2.456-1.277,2.825-8.956a1.156,1.156,0,0,1,.674-.717l5.812-2.174,13.3-10.712a1.012,1.012,0,0,1,.462-.224l9.658-2.149,4.852-6.751a1.134,1.134,0,0,1,.91-.461h7.765L187.65,383.6v-8.6a1.105,1.105,0,0,1,.351-.815l5.977-5.6a1.119,1.119,0,0,1,1.538,0l13.963,13.228,15.64,3.325-1.919-11.82-4.947-4.594a1.116,1.116,0,0,1,.761-1.934h27l8.265-13.656a1.123,1.123,0,0,1,.954-.541h5.91l3.843-11.892,2.234-8.556a1.132,1.132,0,0,1,.772-.794,1.12,1.12,0,0,1,1.071.251l9.338,8.592a1.132,1.132,0,0,1,.33.563l1.3,5.518,9.611.345a1.076,1.076,0,0,1,.261.042l.6.17,3.957-3.951,8.392-7.28-3.129-7.285v-11.76l2.571-8.4-8.4-16.806,5.825-7.839,20.494-8.962,26.335,7.282-1.124-10.646,6.16-3.359,3.924-8.4,6.719-13.442,9.314-19.607V215.724l15.332-9.524-4.476-9.523v-8.962l-6.168-5.038L352.709,192.2l-6.158-.559L328.624,203.4H292.768l-3.916-11.76V178.753l-4.484-12.884-7.282-1.12-11.2-12.884-16.81,4.481-6.16-6.72L214.909,138.98V126.657l-3.915-6.157v-8.964L199.789,94.729V78.486l-10.083-5.6-2.8-9.524L181.3,47.115,156.653,29.188l-12.506,3.364-29.51-12.885H91.112L73.19,27.508H53.022l-19.6,17.928,1.672,2.8h6.72L53.022,54.4V69.522L37.339,81.284,12.687,116.579l4.486,5.036V132.26l-12.32,3.361" transform="translate(0.706 12.451)" fill="#e8e9ea"/>
              <path id="패스_1734" data-name="패스 1734" d="M2.152,650.526l.189-3.55.366-6.16,4.858,3.171,4.111-2.051v-3.363l1.12-3.358,4.48,1.682.934,4.29L24,634.839,21.573,632.6l-5.414,1.868v-4.857L20.825,627l.934-4.292-3.924-2.244-.186-3.542,4.3-1.5L16.9,604.593l5.793,5.038,5.414-2.056,1.306-4.29,5.414-9.524,10.645-9.335.185-5.231,3.171-2.232-3.918-8.035,4.486,3.55,1.86-5.6,6.727-5.412,5.41,2.241,5.232-3.737,1.488-3.737-9.521-7.28,8.219,2.428,2.05-2.056-2.236-4.85-5.977-2.99,5.793-5.972,8.4-1.308,1.114-2.61s-5.224-.379-5.038-.941a39.252,39.252,0,0,1,2.054-3.358l3.17-3.549,1.682-3.358,1.494-.372,3.021-2.428-5.077-5.232-1.486,4.3.928,4.484H72.732l-5.224-4.857-7.842-5.786-3.926,1.674-4.852,5.42s-6.725-6.722-7.287-7.476,2.43-1.114,2.43-1.114H50.7l3.176-3.176,11.2-8.588,10.277-.374.748-3.549-3.738-.562-7.287-11.758-15.3-11.017,11.946.56,6.165,1.68,5.786,3.544,6.16-2.048-4.292-4.3-8.962-4.484-.934-4.478-2.8-5.412-4.48-2.242-7.279-4.016v-8.309l-.562-4.29-2.99-5.046v-4.476l-5.043-1.5-.934-8.962-1.115-4.671-7.287-8.589L16.9,395.282l-5.419-2.428-.367-6.16,3.363-5.226,12.882-12.139,7.093-6.908-2.234-4.483,7.468.372,8.028-.559,1.114-6.908,4.3-5.232,3.738-3.544,8.773-.932,6.162-4.112,5.791-2.99,6.751,2.43,6.315.753-.186-4.484a7.6,7.6,0,0,1,3.175-2.8c2.43-1.308-1.119-3.916-1.119-3.916l-6.534-3.737,1.488-3.55-5.036-.748s-9.71,1.682-10.834,1.682H65.822l-4.109-3.544-10.264-5.606-7.659-.374-7.658,7.094s-11.391,11.211-11.763,11.765-4.529,0-4.529,0H9.994L6.632,318.351a26.776,26.776,0,0,1,2.054-3.73c.562-.562,1.87-6.348,1.87-6.348l-4.672-4.485-5.226-5.6.188,3.923" transform="translate(0.417 188.781)" fill="#e8e9ea"/>
              <path id="패스_1735" data-name="패스 1735" d="M33.9,143.853a1.678,1.678,0,0,1,.363,2.11l-4.478,7.847a1.687,1.687,0,0,1-1.457.844H11.649l-9.581,1.473a1.668,1.668,0,0,1-.576-.011" transform="translate(0.944 91.074)" fill="#e8e9ea"/>
              <g id="그룹_719" data-name="그룹 719" transform="translate(179.666 350.203)" opacity="0.29">
                <g id="그룹_718" data-name="그룹 718">
                  <g id="그룹_717" data-name="그룹 717" clip-path="url(#clip-path-4)">
                    <path id="패스_1736" data-name="패스 1736" d="M363.391,236.489s-10.483-28.053-37.619-20.873c-23.221,6.144-28.45,24.305-50.518,47.747S187.529,405.912,154,428.455c-14.112,9.488-38.169,29.951-43.512,53.639-4.707,20.871,26.378,60.882,62.05,36.987,19.145-12.826,37.715-43.921,51.882-69.412s36.072-77.889,66.067-103.135c22.514-18.951,79.682-86.274,72.9-110.045" transform="translate(-110.015 -214.44)" fill="#5a4796"/>
                  </g>
                </g>
              </g>
              <g id="그룹_722" data-name="그룹 722" transform="translate(137.488 310.989)" opacity="0.2">
                <g id="그룹_721" data-name="그룹 721">
                  <g id="그룹_720" data-name="그룹 720" clip-path="url(#clip-path-5)">
                    <path id="패스_1737" data-name="패스 1737" d="M419.539,270.587c2.765-17.918-9.3-88.127-77.327-79.413s-68.829,82.761-89.207,106.967-68.724,96.851-92.977,122.973-58.137,41.739-72.737,87.624,24.095,92.847,78.884,83.463c97.073-16.625,117.541-113.468,134.934-142.513s63.513-89.079,85.413-115.625,30.253-45.557,33.018-63.475" transform="translate(-84.188 -190.428)" fill="#5a4796"/>
                  </g>
                </g>
              </g>
            </g>
          </g>
          <text id="울릉도" transform="translate(256.715 502.874)" fill="#464749" font-size="11" font-family="SpoqaHanSansNeo-Medium, Spoqa Han Sans Neo" font-weight="500"><tspan x="0" y="0">울릉도</tspan></text>
          <text id="서울" transform="translate(197.247 507.264)" fill="#464749" font-size="11" font-family="SpoqaHanSansNeo-Medium, Spoqa Han Sans Neo" font-weight="500"><tspan x="0" y="0">서울</tspan></text>
          <text id="독도" transform="translate(314.73 529.521)" fill="#464749" font-size="11" font-family="SpoqaHanSansNeo-Medium, Spoqa Han Sans Neo" font-weight="500"><tspan x="0" y="0">독도</tspan></text>
          <text id="LOW" transform="translate(445.132 289.375)" fill="#7c0b14" font-size="11" font-family="SpoqaHanSansNeo-Bold, Spoqa Han Sans Neo" font-weight="700"><tspan x="0" y="0" letter-spacing="-0.039em">L</tspan><tspan y="0">OW</tspan></text>
          <g id="그룹_729" data-name="그룹 729">
            <g id="그룹_728" data-name="그룹 728" clip-path="url(#clip-path-2)">
              <path id="패스_1738" data-name="패스 1738" d="M149.95,376.505l-17.133,25.156-14.442,31.587-8.437,30.389L108.018,490.8l5.023,54.724,9.42,123.866" transform="translate(68.387 238.367)" fill="none" stroke="#1a1818" stroke-miterlimit="10" stroke-width="0.7"/>
              <path id="패스_1739" data-name="패스 1739" d="M130.719,391.644a6.4,6.4,0,0,0-8.195-1.4,8.582,8.582,0,0,1,.921-4.365,13.158,13.158,0,0,0-3.332,3.968,9.469,9.469,0,0,0-.108,8.618h0a6.4,6.4,0,0,0,9.044,2.793,8.746,8.746,0,0,1-.911,4.609,13.159,13.159,0,0,0,3.332-3.968,9.49,9.49,0,0,0,.609-7.406,6.356,6.356,0,0,0-1.362-2.848" transform="translate(75.353 244.301)" fill="#1a1818"/>
              <path id="패스_1740" data-name="패스 1740" d="M125.963,395.059a2.679,2.679,0,1,1,.341-3.772,2.679,2.679,0,0,1-.341,3.772" transform="translate(76.966 247.115)" fill="#fff"/>
              <line id="선_9" data-name="선 9" y1="0.243" x2="0.217" transform="translate(219.475 613.984)" fill="none" stroke="#1a1818" stroke-linecap="round" stroke-miterlimit="10" stroke-width="1.3"/>
              <path id="패스_1741" data-name="패스 1741" d="M137.834,487.405l32.154-36.043,39.052-67.147,69.195-89.682,69.07-104.171" transform="translate(87.263 120.52)" fill="none" stroke="#1a1818" stroke-linecap="round" stroke-miterlimit="10" stroke-width="1.3" stroke-dasharray="0.398 4.972"/>
              <line id="선_10" data-name="선 10" y1="0.273" x2="0.181" transform="translate(436.812 307.226)" fill="none" stroke="#1a1818" stroke-linecap="round" stroke-miterlimit="10" stroke-width="1.3"/>
              <g id="그룹_727" data-name="그룹 727" transform="translate(314.248 559.516)" opacity="0.7" style="mix-blend-mode: multiply;isolation: isolate">
                <g id="그룹_726" data-name="그룹 726">
                  <g id="그룹_725" data-name="그룹 725" clip-path="url(#clip-path-7)">
                    <path id="패스_1742" data-name="패스 1742" d="M339.946,368.244H200.175l-7.751-12.116,7.751-13.519H339.946Z" transform="translate(-192.424 -342.609)" fill="#1a1818"/>
                  </g>
                </g>
              </g>
            </g>
          </g>
          <text id="_09월_06일_06시" data-name="09월 06일 06시" transform="translate(331.002 577.039)" fill="#fff" font-size="11" font-family="SpoqaHanSansNeo-Medium, Spoqa Han Sans Neo" font-weight="500"><tspan x="0" y="0">0</tspan><tspan y="0" letter-spacing="-0.001em">9</tspan><tspan y="0">월 </tspan><tspan y="0" letter-spacing="-0.001em">0</tspan><tspan y="0">6</tspan><tspan y="0" letter-spacing="-0.001em">일</tspan><tspan y="0"> </tspan><tspan y="0" letter-spacing="-0.001em">0</tspan><tspan y="0">6시</tspan></text>
          <text id="_" data-name=" " transform="translate(413.304 577.039)" fill="#e50019" font-size="11" font-family="SpoqaHanSansNeo-Medium, Spoqa Han Sans Neo" font-weight="500"><tspan x="0" y="0"> </tspan></text>
          <text id="태풍" transform="translate(416.014 577.039)" fill="#dc4e53" font-size="11" font-family="SpoqaHanSansNeo-Bold, Spoqa Han Sans Neo" font-weight="700"><tspan x="0" y="0" letter-spacing="-0.002em">태</tspan><tspan y="0">풍</tspan></text>
          <text id="_강" data-name=" 강" transform="translate(438.337 577.039)" fill="#fff" font-size="11" font-family="SpoqaHanSansNeo-Medium, Spoqa Han Sans Neo" font-weight="500"><tspan x="0" y="0" xml:space="preserve"> 강</tspan></text>
          <g id="그룹_734" data-name="그룹 734">
            <g id="그룹_733" data-name="그룹 733" clip-path="url(#clip-path-2)">
              <line id="선_11" data-name="선 11" x1="59.7" transform="translate(254.549 573.034)" fill="none" stroke="#313133" stroke-miterlimit="10" stroke-width="0.5"/>
              <g id="그룹_732" data-name="그룹 732" transform="translate(356.905 490.859)" opacity="0.7" style="mix-blend-mode: multiply;isolation: isolate">
                <g id="그룹_731" data-name="그룹 731">
                  <g id="그룹_730" data-name="그룹 730" clip-path="url(#clip-path-9)">
                    <path id="패스_1743" data-name="패스 1743" d="M366.065,326.2H226.294l-7.751-12.116,7.751-13.519H366.065Z" transform="translate(-218.544 -300.568)" fill="#1a1818"/>
                  </g>
                </g>
              </g>
            </g>
          </g>
          <text id="_09월_06일_12시" data-name="09월 06일 12시" transform="translate(373.657 508.382)" fill="#fff" font-size="11" font-family="SpoqaHanSansNeo-Medium, Spoqa Han Sans Neo" font-weight="500"><tspan x="0" y="0">0</tspan><tspan y="0" letter-spacing="-0.001em">9</tspan><tspan y="0">월</tspan><tspan y="0" letter-spacing="-0.001em"> </tspan><tspan y="0">0</tspan><tspan y="0" letter-spacing="-0.001em">6일 </tspan><tspan y="0" letter-spacing="-0.002em">12</tspan><tspan y="0">시</tspan></text>
          <text id="_2" data-name=" " transform="translate(455.915 508.382)" fill="#e50019" font-size="11" font-family="SpoqaHanSansNeo-Medium, Spoqa Han Sans Neo" font-weight="500"><tspan x="0" y="0"> </tspan></text>
          <text id="태풍-2" data-name="태풍" transform="translate(458.621 508.382)" fill="#dc4e53" font-size="11" font-family="SpoqaHanSansNeo-Bold, Spoqa Han Sans Neo" font-weight="700"><tspan x="0" y="0" letter-spacing="-0.002em">태</tspan><tspan y="0">풍</tspan></text>
          <text id="_강-2" data-name=" 강" transform="translate(480.944 508.382)" fill="#fff" font-size="11" font-family="SpoqaHanSansNeo-Medium, Spoqa Han Sans Neo" font-weight="500"><tspan x="0" y="0" xml:space="preserve"> 강</tspan></text>
          <g id="그룹_739" data-name="그룹 739">
            <g id="그룹_738" data-name="그룹 738" clip-path="url(#clip-path-2)">
              <line id="선_12" data-name="선 12" x1="59.7" transform="translate(297.204 504.378)" fill="none" stroke="#313133" stroke-miterlimit="10" stroke-width="0.5"/>
              <g id="그룹_737" data-name="그룹 737" transform="translate(427.889 401.007)" opacity="0.7" style="mix-blend-mode: multiply;isolation: isolate">
                <g id="그룹_736" data-name="그룹 736">
                  <g id="그룹_735" data-name="그룹 735" clip-path="url(#clip-path-11)">
                    <path id="패스_1744" data-name="패스 1744" d="M409.531,271.184H269.76l-7.751-12.116,7.751-13.519H409.531Z" transform="translate(-262.01 -245.549)" fill="#1a1818"/>
                  </g>
                </g>
              </g>
            </g>
          </g>
          <text id="_09월_06일_18시" data-name="09월 06일 18시" transform="translate(444.643 418.529)" fill="#fff" font-size="11" font-family="SpoqaHanSansNeo-Medium, Spoqa Han Sans Neo" font-weight="500"><tspan x="0" y="0" letter-spacing="-0.001em">0</tspan><tspan y="0">9</tspan><tspan y="0" letter-spacing="-0.001em">월</tspan><tspan y="0"> </tspan><tspan y="0" letter-spacing="-0.001em">06일 </tspan><tspan y="0" letter-spacing="-0.002em">18</tspan><tspan y="0">시</tspan></text>
          <text id="_3" data-name=" " transform="translate(526.901 418.529)" fill="#e50019" font-size="11" font-family="SpoqaHanSansNeo-Medium, Spoqa Han Sans Neo" font-weight="500"><tspan x="0" y="0"> </tspan></text>
          <text id="태풍-3" data-name="태풍" transform="translate(529.607 418.529)" fill="#dc4e53" font-size="11" font-family="SpoqaHanSansNeo-Bold, Spoqa Han Sans Neo" font-weight="700"><tspan x="0" y="0" letter-spacing="-0.002em">태</tspan><tspan y="0">풍</tspan></text>
          <text id="_강-3" data-name=" 강" transform="translate(551.93 418.529)" fill="#fff" font-size="11" font-family="SpoqaHanSansNeo-Medium, Spoqa Han Sans Neo" font-weight="500"><tspan x="0" y="0" xml:space="preserve"> 강</tspan></text>
          <g id="그룹_744" data-name="그룹 744">
            <g id="그룹_743" data-name="그룹 743" clip-path="url(#clip-path-2)">
              <line id="선_13" data-name="선 13" x1="59.7" transform="translate(368.189 414.525)" fill="none" stroke="#313133" stroke-miterlimit="10" stroke-width="0.5"/>
              <g id="그룹_742" data-name="그룹 742" transform="translate(477.554 286.859)" opacity="0.7" style="mix-blend-mode: multiply;isolation: isolate">
                <g id="그룹_741" data-name="그룹 741">
                  <g id="그룹_740" data-name="그룹 740" clip-path="url(#clip-path-13)">
                    <path id="패스_1745" data-name="패스 1745" d="M460.722,201.288H300.172l-7.751-12.116,7.751-13.519h160.55Z" transform="translate(-292.421 -175.653)" fill="#1a1818"/>
                  </g>
                </g>
              </g>
            </g>
          </g>
          <text id="_09월_07일_00시_온대저기압" data-name="09월 07일 00시 온대저기압" transform="translate(494.31 304.381)" fill="#fff" font-size="11" font-family="SpoqaHanSansNeo-Medium, Spoqa Han Sans Neo" font-weight="500"><tspan x="0" y="0" letter-spacing="-0.001em">0</tspan><tspan y="0">9</tspan><tspan y="0" letter-spacing="-0.001em">월</tspan><tspan y="0" xml:space="preserve"> 0</tspan><tspan y="0" letter-spacing="-0.001em">7일</tspan><tspan y="0"> </tspan><tspan y="0" letter-spacing="-0.001em">0</tspan><tspan y="0">0</tspan><tspan y="0" letter-spacing="-0.001em">시</tspan><tspan y="0"> </tspan><tspan y="0" letter-spacing="-0.001em">온</tspan><tspan y="0" letter-spacing="-0.002em">대저기</tspan><tspan y="0">압</tspan></text>
          <g id="그룹_746" data-name="그룹 746">
            <g id="그룹_745" data-name="그룹 745" clip-path="url(#clip-path-2)">
              <line id="선_14" data-name="선 14" x1="35.785" transform="translate(441.769 300.378)" fill="none" stroke="#313133" stroke-miterlimit="10" stroke-width="0.5"/>
              <path id="패스_1746" data-name="패스 1746" d="M166.255,352.962a6.4,6.4,0,0,0-6.6-5.054,8.572,8.572,0,0,1,2.847-3.434,13.178,13.178,0,0,0-4.8,1.96,9.47,9.47,0,0,0-4.107,7.578,6.4,6.4,0,0,0,6.7,6.684,8.758,8.758,0,0,1-2.953,3.652,13.178,13.178,0,0,0,4.8-1.96,9.482,9.482,0,0,0,3.988-6.269,6.38,6.38,0,0,0,.121-3.155" transform="translate(97.24 218.087)" fill="#e71618"/>
              <path id="패스_1747" data-name="패스 1747" d="M159.124,354.2a2.679,2.679,0,1,1,2.059-3.18,2.679,2.679,0,0,1-2.059,3.18" transform="translate(98.691 220.893)" fill="#fff"/>
              <path id="패스_1748" data-name="패스 1748" d="M189.869,310.552a6.4,6.4,0,0,0-7.359-3.869,8.573,8.573,0,0,1,2.228-3.864,13.162,13.162,0,0,0-4.4,2.74,9.472,9.472,0,0,0-2.771,8.162h0a6.4,6.4,0,0,0,7.734,5.456,8.752,8.752,0,0,1-2.293,4.1,13.184,13.184,0,0,0,4.4-2.742,9.486,9.486,0,0,0,2.873-6.852,6.376,6.376,0,0,0-.413-3.131" transform="translate(112.355 191.716)" fill="#e71618"/>
              <path id="패스_1749" data-name="패스 1749" d="M183.475,312.588a2.678,2.678,0,1,1,1.493-3.482,2.679,2.679,0,0,1-1.493,3.482" transform="translate(113.833 194.629)" fill="#fff"/>
              <path id="패스_1750" data-name="패스 1750" d="M232.456,256.269a6.4,6.4,0,0,0-6.867-4.685A8.569,8.569,0,0,1,228.242,248a13.155,13.155,0,0,0-4.68,2.219,9.465,9.465,0,0,0-3.686,7.792,6.408,6.408,0,0,0,7.06,6.305,8.721,8.721,0,0,1-2.747,3.808,13.169,13.169,0,0,0,4.682-2.219,9.49,9.49,0,0,0,3.637-6.48,6.371,6.371,0,0,0-.052-3.157" transform="translate(139.201 157.01)" fill="#e71618"/>
              <path id="패스_1751" data-name="패스 1751" d="M225.551,257.772a2.679,2.679,0,1,1,1.881-3.287,2.677,2.677,0,0,1-1.881,3.287" transform="translate(140.656 159.863)" fill="#fff"/>
              <path id="패스_1752" data-name="패스 1752" d="M121.372,410.97a6.4,6.4,0,0,0-8.183-1.463,8.581,8.581,0,0,1,.954-4.357,13.17,13.17,0,0,0-3.361,3.942,9.462,9.462,0,0,0-.173,8.618,6.4,6.4,0,0,0,9.023,2.861,8.759,8.759,0,0,1-.947,4.6,13.188,13.188,0,0,0,3.363-3.942,9.492,9.492,0,0,0,.666-7.4,6.38,6.38,0,0,0-1.341-2.86" transform="translate(69.422 256.502)" fill="#1a1818"/>
              <path id="패스_1753" data-name="패스 1753" d="M116.573,414.354a2.679,2.679,0,1,1,.371-3.771,2.68,2.68,0,0,1-.371,3.771" transform="translate(71.031 259.322)" fill="#fff"/>
              <path id="패스_1754" data-name="패스 1754" d="M117.054,431.491a6.4,6.4,0,0,0-8.01-2.223,8.587,8.587,0,0,1,1.359-4.249,13.158,13.158,0,0,0-3.717,3.609,9.467,9.467,0,0,0-.98,8.562,6.4,6.4,0,0,0,8.714,3.7,8.731,8.731,0,0,1-1.373,4.491,13.179,13.179,0,0,0,3.717-3.611,9.49,9.49,0,0,0,1.357-7.3,6.376,6.376,0,0,0-1.066-2.972" transform="translate(66.539 269.081)" fill="#1a1818"/>
              <path id="패스_1755" data-name="패스 1755" d="M111.738,434.48a2.679,2.679,0,1,1,.723-3.719,2.678,2.678,0,0,1-.723,3.719" transform="translate(68.097 271.969)" fill="#fff"/>
              <path id="패스_1756" data-name="패스 1756" d="M114.638,445.13a6.4,6.4,0,0,0-8.312.1,8.57,8.57,0,0,1,.121-4.458,13.174,13.174,0,0,0-2.564,4.5,9.468,9.468,0,0,0,1.444,8.5l0,0a6.406,6.406,0,0,0,9.4,1.12,8.745,8.745,0,0,1-.069,4.7,13.144,13.144,0,0,0,2.564-4.5,9.479,9.479,0,0,0-.732-7.395,6.375,6.375,0,0,0-1.852-2.557" transform="translate(65.493 279.052)" fill="#1a1818"/>
              <path id="패스_1757" data-name="패스 1757" d="M110.929,449.24a2.679,2.679,0,1,1-.341-3.772,2.677,2.677,0,0,1,.341,3.772" transform="translate(67.231 281.634)" fill="#fff"/>
              <path id="패스_1758" data-name="패스 1758" d="M116.781,478.894a5.334,5.334,0,0,0-6.928.049,7.14,7.14,0,0,1,.119-3.715,10.959,10.959,0,0,0-2.156,3.741,7.893,7.893,0,0,0,1.171,7.086,5.342,5.342,0,0,0,7.829.97,7.289,7.289,0,0,1-.075,3.913A10.971,10.971,0,0,0,118.9,487.2a7.909,7.909,0,0,0-.581-6.165,5.306,5.306,0,0,0-1.533-2.138" transform="translate(68.023 300.868)" fill="#1a1818"/>
              <path id="패스_1759" data-name="패스 1759" d="M113.668,482.306a2.233,2.233,0,1,1-.271-3.145,2.232,2.232,0,0,1,.271,3.145" transform="translate(69.468 303.026)" fill="#fff"/>
              <path id="패스_1760" data-name="패스 1760" d="M120.8,513.183a5.336,5.336,0,0,0-4.5-5.268,7.137,7.137,0,0,1,2.918-2.3,10.96,10.96,0,0,0-4.249.761,7.9,7.9,0,0,0-4.669,5.459,5.407,5.407,0,0,0-.171,1.351,5.333,5.333,0,0,0,4.471,5.264,7.283,7.283,0,0,1-3.042,2.463,10.958,10.958,0,0,0,4.249-.761,7.908,7.908,0,0,0,4.342-4.414,5.312,5.312,0,0,0,.648-2.551" transform="translate(69.724 320.101)" fill="#1a1818"/>
              <path id="패스_1761" data-name="패스 1761" d="M114.263,513.391a2.232,2.232,0,1,1,2.232-2.233,2.232,2.232,0,0,1-2.232,2.233" transform="translate(70.927 322.203)" fill="#fff"/>
            </g>
          </g>
          <text id="성산" transform="translate(187.437 606.348)" fill="#464749" font-size="11" font-family="SpoqaHanSansNeo-Medium, Spoqa Han Sans Neo" font-weight="500"><tspan x="0" y="0">성산</tspan></text>
          <text id="부산" transform="translate(267.516 568.199)" fill="#464749" font-size="11" font-family="SpoqaHanSansNeo-Medium, Spoqa Han Sans Neo" font-weight="500"><tspan x="0" y="0">부산</tspan></text>
          <g id="그룹_751" data-name="그룹 751">
            <g id="그룹_750" data-name="그룹 750" clip-path="url(#clip-path-2)">
              <line id="선_15" data-name="선 15" x1="18.443" y2="6.606" transform="translate(432.231 295.73)" fill="none" stroke="#7c0b14" stroke-miterlimit="10" stroke-width="3"/>
              <line id="선_16" data-name="선 16" x2="6.606" y2="18.443" transform="translate(438.149 289.811)" fill="none" stroke="#7c0b14" stroke-miterlimit="10" stroke-width="3"/>
              <g id="그룹_749" data-name="그룹 749" transform="translate(265.376 601.897)" opacity="0.7" style="mix-blend-mode: multiply;isolation: isolate">
                <g id="그룹_748" data-name="그룹 748">
                  <g id="그룹_747" data-name="그룹 747" clip-path="url(#clip-path-16)">
                    <path id="패스_1762" data-name="패스 1762" d="M332.178,394.2H170.248L162.5,382.079l7.749-13.519h161.93Z" transform="translate(-162.498 -368.56)" fill="#1a1818"/>
                  </g>
                </g>
              </g>
            </g>
          </g>
          <text id="_09월_06일_00시" data-name="09월 06일 00시" transform="translate(282.131 619.422)" fill="#fff" font-size="11" font-family="SpoqaHanSansNeo-Medium, Spoqa Han Sans Neo" font-weight="500"><tspan x="0" y="0">0</tspan><tspan y="0" letter-spacing="-0.001em">9</tspan><tspan y="0">월 </tspan><tspan y="0" letter-spacing="-0.001em">0</tspan><tspan y="0">6</tspan><tspan y="0" letter-spacing="-0.001em">일</tspan><tspan y="0"> </tspan><tspan y="0" letter-spacing="-0.001em">0</tspan><tspan y="0">0시</tspan></text>
          <text id="_4" data-name=" " transform="translate(364.434 619.422)" fill="#e50019" font-size="11" font-family="SpoqaHanSansNeo-Medium, Spoqa Han Sans Neo" font-weight="500"><tspan x="0" y="0"> </tspan></text>
          <text id="태풍-4" data-name="태풍" transform="translate(367.144 619.422)" fill="#dc4e53" font-size="11" font-family="SpoqaHanSansNeo-Bold, Spoqa Han Sans Neo" font-weight="700"><tspan x="0" y="0" letter-spacing="-0.001em">태</tspan><tspan y="0">풍</tspan></text>
          <text id="_매우강" data-name=" 매우강" transform="translate(389.466 619.422)" fill="#fff" font-size="11" font-family="SpoqaHanSansNeo-Medium, Spoqa Han Sans Neo" font-weight="500"><tspan x="0" y="0" xml:space="preserve" letter-spacing="-0.001em"> 매우</tspan><tspan y="0">강</tspan></text>
          <g id="그룹_753" data-name="그룹 753">
            <g id="그룹_752" data-name="그룹 752" clip-path="url(#clip-path-2)">
              <line id="선_17" data-name="선 17" x1="47.04" transform="translate(218.336 615.416)" fill="none" stroke="#313133" stroke-miterlimit="10" stroke-width="0.5"/>
              <path id="패스_1763" data-name="패스 1763" d="M142.358,378.266a6.4,6.4,0,0,0-6.826-4.746,8.573,8.573,0,0,1,2.688-3.56,13.163,13.163,0,0,0-4.7,2.177,9.467,9.467,0,0,0-3.755,7.759,6.4,6.4,0,0,0,7,6.367,8.747,8.747,0,0,1-2.783,3.786,13.185,13.185,0,0,0,4.7-2.179,9.489,9.489,0,0,0,3.7-6.447,6.382,6.382,0,0,0-.025-3.157" transform="translate(82.152 234.223)" fill="#e71618"/>
              <path id="패스_1764" data-name="패스 1764" d="M135.415,379.726a2.679,2.679,0,1,1,1.911-3.271,2.679,2.679,0,0,1-1.911,3.271" transform="translate(83.605 237.069)" fill="#fff"/>
            </g>
          </g>
        </g>
      </g>
    </g>
  </g>
</svg>
