<svg xmlns="http://www.w3.org/2000/svg" xmlns:xlink="http://www.w3.org/1999/xlink" width="345" height="310" viewBox="0 0 345 310">
  <defs>
    <clipPath id="clip-path">
      <rect id="사각형_1925" data-name="사각형 1925" width="345" height="310" transform="translate(0 237)" fill="#fff" stroke="#707070" stroke-width="1"/>
    </clipPath>
    <clipPath id="clip-path-2">
      <rect id="사각형_1924" data-name="사각형 1924" width="470.281" height="555.876" fill="none"/>
    </clipPath>
    <clipPath id="clip-path-4">
      <rect id="사각형_1909" data-name="사각형 1909" width="155.49" height="191.057" transform="translate(110.015 214.44)" fill="none"/>
    </clipPath>
    <clipPath id="clip-path-5">
      <rect id="사각형_1910" data-name="사각형 1910" width="205.566" height="246.758" transform="translate(84.188 190.428)" fill="none"/>
    </clipPath>
    <clipPath id="clip-path-7">
      <rect id="사각형_1912" data-name="사각형 1912" width="90.332" height="15.697" transform="translate(192.424 342.609)" fill="none"/>
    </clipPath>
    <clipPath id="clip-path-9">
      <rect id="사각형_1914" data-name="사각형 1914" width="90.331" height="15.698" transform="translate(218.544 300.568)" fill="none"/>
    </clipPath>
    <clipPath id="clip-path-11">
      <rect id="사각형_1916" data-name="사각형 1916" width="90.331" height="15.697" transform="translate(262.01 245.549)" fill="none"/>
    </clipPath>
    <clipPath id="clip-path-13">
      <rect id="사각형_1918" data-name="사각형 1918" width="103.056" height="15.697" transform="translate(292.421 175.653)" fill="none"/>
    </clipPath>
    <clipPath id="clip-path-16">
      <rect id="사각형_1921" data-name="사각형 1921" width="103.9" height="15.698" transform="translate(162.498 368.56)" fill="none"/>
    </clipPath>
  </defs>
  <g id="마스크_그룹_36" data-name="마스크 그룹 36" transform="translate(0 -237)" clip-path="url(#clip-path)">
    <g id="그룹_755" data-name="그룹 755" transform="translate(-50.76 82.559)">
      <g id="그룹_754" data-name="그룹 754" clip-path="url(#clip-path-2)">
        <rect id="사각형_1908" data-name="사각형 1908" width="468.584" height="513.246" transform="translate(0 19.666)" fill="#98cdd5"/>
        <path id="패스_1662" data-name="패스 1662" d="M139.805,483.062l-3.2,2.288v2.285l-6.174,5.72h2.289l4.8-3.2-.233-1.946,3.666-3.084Z" fill="#f4f3ec"/>
        <g id="그룹_724" data-name="그룹 724">
          <g id="그룹_723" data-name="그룹 723" clip-path="url(#clip-path-2)">
            <path id="패스_1663" data-name="패스 1663" d="M139.8,483.061l1.144,2.06-3.666,3.085.233,1.945-4.8,3.2h-2.289l6.174-5.72V485.35Zm0-1.692a1.691,1.691,0,0,0-.983.315l-3.2,2.288a1.693,1.693,0,0,0-.71,1.378v1.545l-5.631,5.218a1.693,1.693,0,0,0,1.15,2.934h2.289a1.7,1.7,0,0,0,.939-.285l4.8-3.2a1.691,1.691,0,0,0,.742-1.609l-.123-1.037,2.964-2.5a1.691,1.691,0,0,0,.39-2.116l-1.143-2.06a1.7,1.7,0,0,0-1.48-.871" fill="#b7b6af"/>
            <path id="패스_1664" data-name="패스 1664" d="M161.757,331.684l-2.059.118-.344-7.547-3.771-12.006-6.174-9.259-4.12-6.861-1.452-4.362-7.277,5.482a.7.7,0,0,1-.416.134H125.87l-6.856,5.53-4.253,4.8c.651.031,1.377.077,1.377.077a18.823,18.823,0,0,1,1.026,2.513,4.934,4.934,0,0,1-.458,1.258l2.975,2.861-1.945,2.4,1.373,3.661-3.2-1.258-4.232.342-2.858.916.8,1.941.686,4,1.827.461,1.144-2.292,2.284,2.746.921,3.2-1.95,1.373-.339,3.2,2.513-.23,1.373,1.717.8,1.372a9.685,9.685,0,0,1-2.055.8c-.458,0-1.716,1.143-1.716,1.143l.453,1.6-1.94,1.488-1.488,1.487.115,1.369.343,2.632-2.055,3.2.224,1.829,3.433,1.145-4.115,4v2.741l2.741.573,1.6-.683,3.773.568,3.088-2.284,1.026-1.831,1.945.229L125.4,360.5l1.373-.226.911-1.834,2.747-.8,1.715-2.858,2.4-1.373,1.831,1.259,2.744.682.23-1.369,2.4-.458,1.6,2.747h2.169l.687-2.063-.572-1.37.572-1.487,4.234.572,4.687-1.716,2.4-1.025-.456-4.349,3.2-5.03Z" fill="#e8e9ea"/>
            <path id="패스_1665" data-name="패스 1665" d="M143.837,291.767l1.452,4.362,4.12,6.861,6.174,9.259,3.771,12.006.344,7.547,2.059-.118L160.27,339.8l-3.2,5.03.456,4.349-2.4,1.025-4.687,1.716-4.234-.572-.572,1.487.572,1.37-.686,2.063h-2.17l-1.6-2.747-2.4.458-.229,1.369-2.745-.682-1.831-1.259-2.4,1.373-1.715,2.858-2.746.8-.911,1.834-1.374.226-1.143-2.514-1.946-.229-1.026,1.831-3.088,2.284-3.773-.568-1.6.683-2.741-.573V358.67l4.115-4-3.432-1.145-.225-1.829,2.056-3.2-.344-2.632-.114-1.369,1.487-1.487,1.94-1.488-.452-1.6s1.257-1.143,1.715-1.143a9.663,9.663,0,0,0,2.055-.8l-.8-1.372-1.373-1.717-2.514.23.339-3.2,1.95-1.373-.921-3.2-2.283-2.746-1.144,2.292-1.828-.461-.686-4-.8-1.941,2.858-.916,4.232-.342,3.2,1.258-1.374-3.661,1.945-2.4-2.974-2.861a4.94,4.94,0,0,0,.457-1.258,18.823,18.823,0,0,0-1.026-2.513s-.725-.046-1.377-.077l4.253-4.8,6.856-5.53h10.274a.7.7,0,0,0,.416-.134Zm17.92,39.917h.009m-17.929-41.61a1.69,1.69,0,0,0-1.018.341l-7,5.276H125.87a1.689,1.689,0,0,0-1.062.375l-6.857,5.53a1.874,1.874,0,0,0-.2.194l-4.252,4.8a1.693,1.693,0,0,0,1.188,2.813c.113.005.229.01.34.017.159.356.3.68.385.907-.062.155-.146.342-.214.476a1.693,1.693,0,0,0,.34,1.977l1.854,1.783-.964,1.19a1.692,1.692,0,0,0-.271,1.661l.054.143a1.668,1.668,0,0,0-.3-.027c-.046,0-.091,0-.137.006l-4.232.343a1.649,1.649,0,0,0-.38.075l-2.856.916a1.69,1.69,0,0,0-1.047,2.257l.729,1.767.654,3.815a1.691,1.691,0,0,0,1.254,1.355l1.828.461a1.717,1.717,0,0,0,.413.051,1.692,1.692,0,0,0,1.5-.909l.4.48.492,1.7-.966.679a1.688,1.688,0,0,0-.708,1.206l-.339,3.2a1.692,1.692,0,0,0,1.682,1.871c.052,0,.1,0,.153-.007l1.608-.147.384.481a5.949,5.949,0,0,0-2.368,1.529,1.691,1.691,0,0,0-.489,1.713l.14.5-1.029.789a1.54,1.54,0,0,0-.168.146l-1.486,1.488a1.686,1.686,0,0,0-.49,1.336l.113,1.37.272,2.1-1.72,2.679a1.687,1.687,0,0,0-.256,1.122l.225,1.83a1.69,1.69,0,0,0,1.143,1.4l.795.264-2.122,2.063a1.693,1.693,0,0,0-.512,1.213v2.741a1.692,1.692,0,0,0,1.347,1.657l2.742.573a1.73,1.73,0,0,0,.344.035,1.679,1.679,0,0,0,.663-.135l1.162-.495,3.3.5a1.626,1.626,0,0,0,.252.02,1.7,1.7,0,0,0,1.006-.332l3.089-2.285a1.7,1.7,0,0,0,.469-.532l.411-.731.688,1.516a1.7,1.7,0,0,0,1.54.991,1.84,1.84,0,0,0,.275-.022l1.373-.226a1.693,1.693,0,0,0,1.241-.917l.58-1.169,2.033-.589a1.7,1.7,0,0,0,.98-.755l1.487-2.478,1.094-.626.956.657a1.673,1.673,0,0,0,.55.246l2.745.683a1.659,1.659,0,0,0,.408.051,1.694,1.694,0,0,0,1.668-1.412l.035-.208.066-.013,1,1.713a1.687,1.687,0,0,0,1.46.839h2.17a1.692,1.692,0,0,0,1.606-1.158l.686-2.064a1.7,1.7,0,0,0-.044-1.185l-.127-.3,2.573.347a1.7,1.7,0,0,0,.807-.088l4.687-1.716q.042-.015.084-.033l2.4-1.026a1.689,1.689,0,0,0,1.017-1.732l-.393-3.76,2.885-4.533a1.668,1.668,0,0,0,.236-.6l1.466-8a1.732,1.732,0,0,0,.053-.423,1.687,1.687,0,0,0-1.687-1.692h-.039l-.081,0-.335.019-.266-5.837a1.66,1.66,0,0,0-.076-.43L157.2,311.741a1.672,1.672,0,0,0-.207-.43l-6.174-9.26-3.981-6.633-1.393-4.186a1.694,1.694,0,0,0-1.1-1.081,1.623,1.623,0,0,0-.5-.077" fill="#b7b6af"/>
            <path id="패스_1666" data-name="패스 1666" d="M92.241,305.159h4.115l1.372,3.428,1.373-.453,1.484-2.174,1.831-2.4,2.975,1.487,2.283,2.289,3.547-1.03s1.151.728,1.957,1.125l4.847-5.469a.818.818,0,0,1,.08-.076l7.09-5.717a.682.682,0,0,1,.429-.153h10.291l7.463-5.621-.145-.438-1.258.342-3.543-4-7.777-2.627-1.943-8.005-2.175-1.484,2.86-2.745s1.374,1.83,1.716,1.258,4.116-1.716,4.116-1.716l3.2-.229,2.856-2.056,5.488-4.462,4.23-.229.343-2.627,1.831-1.945,4.114-.114,5.488-5.6-.571-3.658,3.089-.572-.115-4.688-3.657-.228-.229-4,4.228-3.317,5.6-6.861,6.634.229,1.939-2.628-1.6-4.345-.26-2.349-.19-.055-6.319-.227a.678.678,0,0,1-.641-.527l-.866-3.683-4.725-4.343-1.079,4.153a.2.2,0,0,1-.015.04l-2.513,7.773a.686.686,0,0,1-.653.476h-3.729l-5.061,8.359a.683.683,0,0,1-.584.331H136.289l1.921,1.785a.648.648,0,0,1,.21.389l1.377,8.463a.692.692,0,0,1-.823.781l-10.748-2.288a.641.641,0,0,1-.327-.172l-8.224-7.787-2.966,2.783v5.193a.681.681,0,0,1-.129.4l-7.319,10.292a.687.687,0,0,1-.557.287h-4.756l-2.92,4.061a.68.68,0,0,1-.409.267L94.6,259.375,86.5,265.908a.909.909,0,0,1-.19.107l-3.345,1.251-1.412,4.458,4.973,3.6,2.857-.23,3.314.569,3.89,2.174,2.173,3.085-2.974,3.2,1.487,4.459,1.487,1.826L96.24,292.7l-5.6,1.827L88.7,296.7l.911,3.2.458,1.373h3.2s.687,1.716.457,2.059-1.482,1.827-1.482,1.827" fill="#e8e9ea"/>
            <path id="패스_1667" data-name="패스 1667" d="M165.1,212.455l4.724,4.344.867,3.683a.678.678,0,0,0,.641.527l6.319.226.19.056.26,2.349,1.6,4.344-1.94,2.629-6.634-.229-5.6,6.861-4.229,3.317.23,4,3.657.228.114,4.687-3.088.572.571,3.658-5.488,5.6-4.115.113-1.831,1.946L151.007,264l-4.23.229-5.489,4.462-2.856,2.056-3.2.229s-3.773,1.143-4.117,1.716a.208.208,0,0,1-.189.111c-.5,0-1.526-1.37-1.526-1.37l-2.861,2.746,2.176,1.483,1.942,8.005,7.777,2.628,3.543,4,1.259-.343.145.439-7.463,5.621H125.625a.682.682,0,0,0-.429.153l-7.09,5.716a.988.988,0,0,0-.081.077l-4.847,5.468c-.805-.4-1.957-1.124-1.957-1.124l-3.546,1.029-2.283-2.288-2.975-1.488-1.832,2.4L99.1,308.134l-1.373.454-1.371-3.428H92.242s1.257-1.483,1.482-1.828-.457-2.058-.457-2.058h-3.2l-.458-1.374-.911-3.2,1.941-2.174,5.6-1.827,2.517-2.292-1.487-1.827-1.488-4.458,2.975-3.2-2.174-3.086-3.889-2.174-3.314-.568-2.857.23-4.973-3.6,1.411-4.458,3.345-1.251a.916.916,0,0,0,.191-.107l8.107-6.533,6.015-1.339a.679.679,0,0,0,.409-.267l2.92-4.061h4.756a.682.682,0,0,0,.556-.287l7.319-10.291a.676.676,0,0,0,.129-.4v-5.193l2.967-2.783,8.224,7.787a.642.642,0,0,0,.326.172l10.749,2.288a.667.667,0,0,0,.141.014.693.693,0,0,0,.682-.8l-1.377-8.463a.664.664,0,0,0-.21-.389l-1.922-1.784h15.179a.68.68,0,0,0,.583-.332l5.061-8.358h3.73a.684.684,0,0,0,.652-.476l2.514-7.773a.288.288,0,0,0,.015-.04Zm0-1.692a1.69,1.69,0,0,0-1.638,1.267l-1.059,4.076-.007.022-2.288,7.077h-3a1.693,1.693,0,0,0-1.448.816L150.9,231.9H136.289a1.694,1.694,0,0,0-1.152,2.933l1.67,1.549,1.084,6.668-9.035-1.924-8.017-7.591a1.69,1.69,0,0,0-2.321-.005l-2.967,2.784a1.686,1.686,0,0,0-.533,1.233v4.868l-6.834,9.607h-4.235a1.689,1.689,0,0,0-1.374.7l-2.695,3.747-5.642,1.256a1.7,1.7,0,0,0-.7.334l-7.979,6.43-3.194,1.194a1.687,1.687,0,0,0-1.019,1.074l-1.412,4.458a1.69,1.69,0,0,0,.622,1.882l4.972,3.6a1.688,1.688,0,0,0,.992.322c.044,0,.091,0,.135-.006l2.646-.212,2.818.483,3.3,1.844,1.161,1.65-2.04,2.2a1.692,1.692,0,0,0-.366,1.688l1.488,4.458a1.673,1.673,0,0,0,.293.533l.475.585-1.064.969-5.255,1.714a1.705,1.705,0,0,0-.739.482l-1.94,2.174a1.7,1.7,0,0,0-.365,1.59l.91,3.2.481,1.445a1.69,1.69,0,0,0,1.605,1.156h1.8c-.269.33-.611.741-.915,1.1a1.693,1.693,0,0,0,1.291,2.787h2.97l.945,2.364a1.692,1.692,0,0,0,2.1.979l1.374-.454a1.689,1.689,0,0,0,.868-.653l1.459-2.137.954-1.254,1.475.738,2.089,2.094a1.7,1.7,0,0,0,1.2.5,1.716,1.716,0,0,0,.473-.067l2.828-.821c.424.254.984.577,1.454.808a1.689,1.689,0,0,0,2.014-.4l4.791-5.4,6.747-5.441h9.934a1.7,1.7,0,0,0,1.018-.34l7.463-5.621a1.693,1.693,0,0,0,.588-1.884l-.145-.439a1.694,1.694,0,0,0-1.606-1.16,1.64,1.64,0,0,0-.446.06l-.242.066-2.845-3.216a1.7,1.7,0,0,0-.726-.482l-6.9-2.329-1.724-7.1a1.7,1.7,0,0,0-.69-1l-.453-.308.121-.115a2.312,2.312,0,0,0,1.59.654,1.89,1.89,0,0,0,1.437-.653,22.644,22.644,0,0,1,3.181-1.192l3.012-.215a1.687,1.687,0,0,0,.867-.315l2.855-2.056c.027-.019.053-.039.08-.06l5.062-4.115,3.68-.2a1.691,1.691,0,0,0,1.587-1.472l.272-2.085.973-1.033,3.411-.1a1.7,1.7,0,0,0,1.164-.507l5.486-5.6a1.681,1.681,0,0,0,.464-1.445l-.318-2.033,1.47-.271a1.693,1.693,0,0,0,1.385-1.706l-.113-4.687a1.694,1.694,0,0,0-1.587-1.648l-2.16-.135-.093-1.621,3.533-2.77a1.736,1.736,0,0,0,.266-.262l5.073-6.211,5.795.2h.058a1.7,1.7,0,0,0,1.362-.687l1.94-2.629a1.693,1.693,0,0,0,.226-1.589l-1.531-4.151-.235-2.144a1.7,1.7,0,0,0-1.21-1.439l-.19-.055a1.65,1.65,0,0,0-.412-.067l-5.551-.2-.689-2.934a1.7,1.7,0,0,0-.5-.859l-4.725-4.344a1.691,1.691,0,0,0-1.145-.446" fill="#b7b6af"/>
            <path id="패스_1668" data-name="패스 1668" d="M3.4,90.668l7.544-2.058V82.093L8.2,79.008,23.3,57.4l9.6-7.2v-9.26l-6.862-3.776H21.923L20.9,35.446l12-10.978H45.249l10.974-4.8H70.629M1.491,151.362a1.068,1.068,0,0,0,.2.019.924.924,0,0,0,.157-.013l5.867-.9H17.924a1.034,1.034,0,0,0,.892-.517l2.742-4.8a1.028,1.028,0,0,0-.222-1.293M.774,300.586l-.116-2.4,3.2,3.433,2.86,2.746a23.4,23.4,0,0,1-1.145,3.886,16.371,16.371,0,0,0-1.257,2.284l2.059,6.518H12.4a17.95,17.95,0,0,0,1.953.153c.411,0,.744-.038.82-.153.228-.34,7.2-7.2,7.2-7.2l4.688-4.343,4.69.229,6.285,3.432,2.517,2.171H44.1c.688,0,6.634-1.031,6.634-1.031l3.083.458-.911,2.174,4,2.288s2.173,1.6.686,2.4a4.652,4.652,0,0,0-1.945,1.715l.114,2.747-3.867-.462-4.133-1.487-3.546,1.831-3.774,2.517-5.372.572-2.289,2.17-2.63,3.2-.683,4.229L24.556,335l-4.573-.229,1.368,2.746-4.343,4.229-7.887,7.434-2.059,3.2.224,3.772L10.6,357.64l9.946,4.686,4.463,5.26.682,2.859.572,5.489,3.088.915v2.742l1.831,3.089.344,2.627v5.088l4.458,2.46,2.742,1.373,1.715,3.313.572,2.743,5.489,2.746,2.627,2.631-3.771,1.255-3.543-2.17-3.776-1.029-7.314-.343,9.37,6.746,4.462,7.2,2.288.343-.458,2.173-6.292.23-6.856,5.259L31.3,427.27H28.441s-1.829.229-1.487.682,4.461,4.577,4.461,4.577l2.971-3.318,2.4-1.026,4.8,3.543,3.2,2.975h3.657l-.569-2.747.911-2.631,3.108,3.2-1.849,1.487-.916.229L48.1,436.3l-1.942,2.173a23.65,23.65,0,0,0-1.257,2.056c-.114.344,3.084.576,3.084.576l-.682,1.6-5.144.8-3.547,3.658,3.66,1.831,1.369,2.97-1.254,1.259-5.034-1.488,5.83,4.459-.911,2.288-3.2,2.288L35.76,459.4l-4.119,3.315L30.5,466.143l-2.746-2.174,2.4,4.92-1.942,1.367-.114,3.2-6.518,5.716-3.314,5.831-.8,2.628-3.315,1.259L10.6,485.807l3.088,6.632-2.631.915.115,2.17,2.4,1.373-.571,2.628-2.858,1.6V504.1l3.315-1.144,1.485,1.371-3.544,3.888-.572-2.628-2.743-1.029-.686,2.056v2.058l-2.517,1.256-2.974-1.941-.225,3.771-.116,2.175M70.629,19.667,88.7,27.556l7.658-2.06,15.09,10.977,3.432,9.947,1.717,5.832,6.175,3.431v9.946l6.861,10.291v5.489l2.4,3.771v7.545l17.151,6.52,3.772,4.115,10.292-2.745L170.1,108.5l4.459.687,2.745,7.888v7.891l2.4,7.2H201.66l10.976-7.2,3.771.342,14.4-5.83,3.776,3.085v5.489l2.742,5.831-9.389,5.831v6.516l-5.7,12.006-4.114,8.231-2.4,5.146-3.772,2.058.687,6.518-16.125-4.458-12.55,5.487-3.566,4.8,5.141,10.29-1.575,5.145v7.2l1.917,4.46-5.14,4.459L178.316,220l-.365-.1a.666.666,0,0,0-.161-.026l-5.885-.21-.793-3.379a.675.675,0,0,0-.2-.345l-5.717-5.261a.7.7,0,0,0-.466-.182.676.676,0,0,0-.19.027.693.693,0,0,0-.473.486l-1.368,5.239-2.353,7.283h-3.62a.684.684,0,0,0-.583.331l-5.062,8.362H134.543a.683.683,0,0,0-.467,1.184l3.03,2.813,1.175,7.238-9.577-2.036-8.55-8.1a.684.684,0,0,0-.942,0l-3.661,3.428a.678.678,0,0,0-.215.5v5.269l-6.987,9.826H103.6a.692.692,0,0,0-.557.282l-2.971,4.134-5.915,1.316a.617.617,0,0,0-.282.138l-8.146,6.559L82.166,266.1a.706.706,0,0,0-.413.438l-1.731,5.485-1.5.781-7.547-.343-8.343,3.089-6.06,2.4L51.9,283.093l-4.133,2.513-3.89,1.148-.688,2.284-6.631-.343,6.292-6.06,4.573-4-6.518-.686L37.93,276.8l3.662-3.314.572-2.285,3.313-2.4,3.887-1.6,2.535-5.03.668-3.89-5.83-3.543-5.946-.8-4.573.115-4.687,5.491L25.7,265.371l-5.374,4-5.259.111-3.2,2.746-4.688,5.6s-.457,3.314-.8,3.661-5.26,2.627-5.26,2.627m18.7-139.342-2.279,3.995H7.711a1.723,1.723,0,0,0-.258.019l-5.754.885m-.54,136.135a1.686,1.686,0,0,0,.669-.157c5.187-2.41,5.523-2.743,5.743-2.964.322-.325.712-.72,1.213-4.144l4.288-5.124,2.632-2.26,4.654-.1a1.69,1.69,0,0,0,.975-.335l5.374-4.005a1.552,1.552,0,0,0,.185-.159l5.836-5.828c.031-.031.06-.064.09-.1l4.2-4.918,3.682-.092,5.462.736L50.7,259.13l-.43,2.505-2.138,4.241-3.3,1.362a1.678,1.678,0,0,0-.349.2l-3.313,2.4a1.683,1.683,0,0,0-.648.96l-.448,1.785-3.28,2.969a1.691,1.691,0,0,0,.526,2.834l2.975,1.145a1.757,1.757,0,0,0,.432.1l2.664.28-1.656,1.45-6.353,6.115a1.691,1.691,0,0,0,1.086,2.908l6.632.343.087,0a1.69,1.69,0,0,0,1.62-1.2l.424-1.408,3.013-.889a1.7,1.7,0,0,0,.4-.177l4.133-2.513a1.683,1.683,0,0,0,.374-.309l4.4-4.853,5.695-2.255,7.987-2.955,7.2.327.077,0a1.7,1.7,0,0,0,.781-.191l1.5-.782a1.7,1.7,0,0,0,.835-.992l1.583-5.02,3.1-1.159a1.671,1.671,0,0,0,.468-.266l7.965-6.415,5.683-1.264a1.689,1.689,0,0,0,1.008-.664l2.668-3.711h4.24a1.688,1.688,0,0,0,1.378-.712l6.989-9.826a1.7,1.7,0,0,0,.313-.981v-4.834l2.65-2.481,7.862,7.447a1.688,1.688,0,0,0,.811.427l9.577,2.036a1.693,1.693,0,0,0,2.022-1.926l-1.174-7.238a1.7,1.7,0,0,0-.52-.97l-1.147-1.064h13.968a1.7,1.7,0,0,0,1.448-.816l4.769-7.877h3.048a1.692,1.692,0,0,0,1.609-1.172l2.353-7.282c.01-.031.02-.062.028-.093l.945-3.62,4.258,3.917.721,3.076a1.694,1.694,0,0,0,1.587,1.305l5.761.206.246.07a1.7,1.7,0,0,0,1.662-.43l2.379-2.375,5.1-4.421a1.693,1.693,0,0,0,.446-1.947l-1.78-4.14v-6.6l1.5-4.9a1.692,1.692,0,0,0-.105-1.251l-4.676-9.36,2.678-3.605,11.587-5.066,15.547,4.3a1.661,1.661,0,0,0,.451.061,1.691,1.691,0,0,0,1.682-1.869l-.568-5.4,2.781-1.517a1.7,1.7,0,0,0,.724-.77l2.4-5.146,4.094-8.19,5.718-12.037a1.69,1.69,0,0,0,.164-.726v-5.575l8.589-5.335a1.691,1.691,0,0,0,.639-2.157l-2.581-5.489v-5.111a1.692,1.692,0,0,0-.622-1.31l-3.776-3.085a1.687,1.687,0,0,0-1.071-.382,1.665,1.665,0,0,0-.634.124l-14.024,5.676-3.365-.3c-.05,0-.1-.007-.152-.007a1.7,1.7,0,0,0-.928.277l-10.554,6.924H180.923L179,124.7v-7.617a1.674,1.674,0,0,0-.094-.556l-2.746-7.889a1.694,1.694,0,0,0-1.341-1.116l-3.845-.592-6.45-7.42a1.7,1.7,0,0,0-1.278-.583,1.717,1.717,0,0,0-.436.057l-9.3,2.481-3.081-3.36a1.71,1.71,0,0,0-.646-.438l-16.06-6.1V85.18a1.686,1.686,0,0,0-.264-.908l-2.134-3.355v-5a1.693,1.693,0,0,0-.284-.938l-6.578-9.865V55.683a1.691,1.691,0,0,0-.87-1.479l-5.568-3.095L116.5,45.943l-3.455-10.022a1.678,1.678,0,0,0-.606-.816L97.351,24.128a1.69,1.69,0,0,0-1.434-.266l-7.084,1.906L71.307,18.116a1.7,1.7,0,0,0-.678-.142H56.223a1.674,1.674,0,0,0-.676.143L44.9,22.775h-12a1.694,1.694,0,0,0-1.142.444l-12,10.978a1.693,1.693,0,0,0-.31,2.117l1.024,1.714a1.694,1.694,0,0,0,1.453.824H25.6l5.6,3.083v7.414l-8.925,6.694a1.674,1.674,0,0,0-.372.384L6.815,78.039a1.693,1.693,0,0,0,.123,2.1l2.318,2.6v4.581l-6.3,1.717a1.769,1.769,0,0,0-.327.126M.106,519.622l1.942-1.829a1.693,1.693,0,0,0,.381-1.929l-.171-.382a1.894,1.894,0,0,0,.226-.122,1.7,1.7,0,0,0,.78-1.337l.116-2.175L3.429,511l.534.349a1.7,1.7,0,0,0,.925.274,1.68,1.68,0,0,0,.756-.179l2.517-1.256a1.688,1.688,0,0,0,.936-1.514v-1.784l.044-.129.236.089.375,1.727a1.691,1.691,0,0,0,1.215,1.274,1.655,1.655,0,0,0,.439.058,1.692,1.692,0,0,0,1.251-.552l3.543-3.888a1.693,1.693,0,0,0-.1-2.383l-1.484-1.37a1.7,1.7,0,0,0-1.149-.45c-.036,0-.07,0-.107,0l.477-.267a1.7,1.7,0,0,0,.827-1.116l.571-2.627a1.694,1.694,0,0,0-.814-1.83l-1.577-.9,1.408-.491a1.691,1.691,0,0,0,.977-2.312l-.567-1.219.091-.031,3.315-1.259a1.7,1.7,0,0,0,1.02-1.09l.743-2.447,3.083-5.42,6.3-5.527a1.691,1.691,0,0,0,.575-1.212l.085-2.364,1.256-.884a1.691,1.691,0,0,0,.545-2.126l-.276-.568a1.7,1.7,0,0,0,.709-.9l.983-2.96,2.948-2.373,2.387.988a1.684,1.684,0,0,0,1.631-.186l3.2-2.288a1.67,1.67,0,0,0,.588-.751l.911-2.289a1.691,1.691,0,0,0-.544-1.969l-.6-.459,1.228-1.232a1.694,1.694,0,0,0,.339-1.9l-1.368-2.97a1.684,1.684,0,0,0-.781-.806l-1.594-.8,1.543-1.592,4.585-.713a1.7,1.7,0,0,0,1.3-1.007l.683-1.6a1.694,1.694,0,0,0-1.435-2.353c-.16-.012-.326-.025-.489-.04l1.743-1.95a1.682,1.682,0,0,0,.251-.369l.681-1.36.16-.041a1.684,1.684,0,0,0,.652-.323l1.849-1.487a1.692,1.692,0,0,0,.153-2.5l-3.108-3.2a1.692,1.692,0,0,0-2.814.625l-.91,2.631a1.7,1.7,0,0,0-.059.9l.148.712h-.914l-2.712-2.522a1.417,1.417,0,0,0-.147-.122l-4.8-3.543a1.692,1.692,0,0,0-1.67-.2l-2.4,1.025a1.686,1.686,0,0,0-.6.428l-1.777,1.984c-.378-.381-.747-.755-1.09-1.1H31.3a1.688,1.688,0,0,0,1.2-.5l1.866-1.866,6.34-4.862,5.753-.21a1.7,1.7,0,0,0,1.6-1.343l.457-2.173a1.69,1.69,0,0,0-1.4-2.022l-1.514-.228-4.05-6.534a1.7,1.7,0,0,0-.45-.482l-4.743-3.415,1.433.067,3.365.917,3.336,2.044a1.69,1.69,0,0,0,1.418.162l3.771-1.254a1.694,1.694,0,0,0,.665-2.8l-2.628-2.632a1.692,1.692,0,0,0-.441-.318l-4.757-2.379-.4-1.941a1.778,1.778,0,0,0-.155-.433l-1.715-3.313a1.694,1.694,0,0,0-.744-.735l-2.745-1.373L33.224,389.4v-4.089a1.6,1.6,0,0,0-.016-.219l-.343-2.627a1.708,1.708,0,0,0-.221-.644l-1.6-2.69v-2.278a1.69,1.69,0,0,0-1.21-1.622l-2.006-.594-.452-4.363a1.928,1.928,0,0,0-.038-.217l-.683-2.86a1.677,1.677,0,0,0-.355-.7l-4.462-5.26a1.7,1.7,0,0,0-.57-.436l-9.947-4.686-2.411-1.081-.13-2.2,1.647-2.56,7.738-7.292,4.362-4.249a1.691,1.691,0,0,0,.334-1.967l-.078-.156,1.684.084.085,0c.04,0,.079,0,.117,0l4.917-.343a1.692,1.692,0,0,0,1.553-1.418l.609-3.779,2.274-2.769,1.8-1.7,4.8-.511a1.7,1.7,0,0,0,.76-.275l3.694-2.465,2.808-1.449,3.439,1.238a1.762,1.762,0,0,0,.373.089l3.867.461a1.918,1.918,0,0,0,.2.011,1.691,1.691,0,0,0,1.691-1.763l-.09-2.151a4.307,4.307,0,0,1,1.033-.751,2.48,2.48,0,0,0,1.4-2.047c.11-1.557-1.284-2.76-1.888-3.2a1.7,1.7,0,0,0-.164-.106l-2.7-1.545.332-.8a1.691,1.691,0,0,0-1.313-2.327l-3.083-.458a1.722,1.722,0,0,0-.247-.018,1.654,1.654,0,0,0-.29.025c-2.744.476-5.88.982-6.374,1.006H41.19l-2.041-1.76a1.778,1.778,0,0,0-.293-.2l-6.285-3.432a1.674,1.674,0,0,0-.729-.205l-4.69-.229-.083,0a1.69,1.69,0,0,0-1.15.451L21.231,308.6c-4.461,4.389-6.214,6.156-6.931,6.906a16.213,16.213,0,0,1-1.669-.138,1.717,1.717,0,0,0-.227-.014H7.615l-1.482-4.694a14.461,14.461,0,0,1,.691-1.272c.291-.3.7-.894,1.546-4.657a1.694,1.694,0,0,0-.479-1.595l-2.826-2.712-3.169-3.4a1.694,1.694,0,0,0-1.9-.4" fill="#b7b6af"/>
            <path id="패스_1669" data-name="패스 1669" d="M151.536,382.36l-1.543,2.368,1.653,1,1.008-.687,1.25.005-.057-1.141-1.407-1.437Z" fill="#f4f3ec"/>
            <path id="패스_1670" data-name="패스 1670" d="M151.536,382.36l.9.1,1.407,1.437.057,1.141-1.25-.005-1.008.687-1.653-1Zm0-1.692a1.693,1.693,0,0,0-1.418.769l-1.544,2.368a1.693,1.693,0,0,0,.546,2.374l1.654,1a1.693,1.693,0,0,0,1.824-.051l.575-.392.726,0h.005a1.693,1.693,0,0,0,1.69-1.776l-.056-1.14a1.7,1.7,0,0,0-.48-1.1l-1.409-1.438a1.7,1.7,0,0,0-1.018-.5l-.9-.1a1.568,1.568,0,0,0-.192-.011" fill="#b7b6af"/>
            <path id="패스_1671" data-name="패스 1671" d="M157.916,377.791l-1.682,1.736,1.419,2.291,1.071-1.994Z" fill="#f4f3ec"/>
            <path id="패스_1672" data-name="패스 1672" d="M157.916,377.791l.808,2.033-1.071,1.994-1.419-2.291Zm0-1.692a1.7,1.7,0,0,0-1.215.514l-1.682,1.735a1.693,1.693,0,0,0-.225,2.069l1.42,2.292a1.7,1.7,0,0,0,1.439.8h.053a1.693,1.693,0,0,0,1.438-.891l1.071-1.994a1.692,1.692,0,0,0,.081-1.426l-.807-2.033a1.694,1.694,0,0,0-1.244-1.034,1.669,1.669,0,0,0-.329-.033" fill="#b7b6af"/>
            <path id="패스_1673" data-name="패스 1673" d="M155.431,381.933l-.221-1.262-1.378,1.292.652.607Z" fill="#f4f3ec"/>
            <path id="패스_1674" data-name="패스 1674" d="M155.209,380.671l.221,1.262-.946.637-.652-.606Zm0-1.692a1.7,1.7,0,0,0-1.159.458l-1.376,1.293a1.692,1.692,0,0,0,.005,2.472l.651.607a1.694,1.694,0,0,0,2.1.165l.948-.637a1.7,1.7,0,0,0,.722-1.7l-.221-1.262a1.695,1.695,0,0,0-1.668-1.4" fill="#b7b6af"/>
            <path id="패스_1675" data-name="패스 1675" d="M158.782,460.542V457l-4.8,2.741v4.344h3.657Z" fill="#f4f3ec"/>
            <path id="패스_1676" data-name="패스 1676" d="M158.782,457v3.543l-1.143,3.542h-3.657V459.74Zm0-1.693a1.7,1.7,0,0,0-.839.223l-4.8,2.742a1.692,1.692,0,0,0-.852,1.469v4.344a1.691,1.691,0,0,0,1.692,1.692h3.657a1.689,1.689,0,0,0,1.609-1.173l1.144-3.542a1.658,1.658,0,0,0,.083-.519V457a1.695,1.695,0,0,0-1.693-1.693" fill="#b7b6af"/>
            <path id="패스_1677" data-name="패스 1677" d="M449.745,165.965V170.5s5.057-1.4,5.407-2.094,4.009-5.583,4.009-5.583l6.11-4.362s2.094-3.489,2.268-4.012,1.045-3.665,1.045-3.665l-4.535,5.582-7.5,4.711Z" fill="#f4f3ec"/>
            <path id="패스_1678" data-name="패스 1678" d="M468.584,150.786h.009m-.009,0s-.868,3.142-1.044,3.665-2.269,4.012-2.269,4.012l-6.109,4.362s-3.662,4.886-4.009,5.583-5.408,2.094-5.408,2.094v-4.537l6.8-4.886,7.5-4.711,4.534-5.582m0-1.692c-.036,0-.072,0-.106,0a1.682,1.682,0,0,0-1.161.567c-.02.022-.038.044-.056.066l-4.35,5.354-7.264,4.562c-.029.019-.059.038-.087.058l-6.8,4.887a1.686,1.686,0,0,0-.705,1.374V170.5a1.689,1.689,0,0,0,1.691,1.692,1.656,1.656,0,0,0,.451-.061c5.781-1.6,6.194-2.42,6.469-2.965.24-.433,2.039-2.906,3.693-5.118l5.9-4.209a1.688,1.688,0,0,0,.467-.507,40.316,40.316,0,0,0,2.423-4.346c.17-.508.839-2.918,1.04-3.639a1.661,1.661,0,0,0,.1-.563,1.689,1.689,0,0,0-1.67-1.692Z" fill="#b7b6af"/>
            <path id="패스_1679" data-name="패스 1679" d="M429.853,172.422l-2.094,1.918-5.934,4.077-4.535,4.143-1.922,5.565,4.191-1.921s4.535-5.377,5.057-6.092,9.6-4.026,9.6-4.026l6.281-2.268-.869-2.095-2.444-1.22-5.931,3.837v-1.918Z" fill="#f4f3ec"/>
            <path id="패스_1680" data-name="패스 1680" d="M437.179,170.5l2.443,1.221.87,2.094-6.281,2.269s-9.073,3.313-9.6,4.027-5.057,6.092-5.057,6.092l-4.191,1.919,1.922-5.565,4.535-4.143,5.934-4.077,2.094-1.917h1.395v1.917Zm0-1.692a1.69,1.69,0,0,0-.919.271l-3.637,2.354a1.693,1.693,0,0,0-1.375-.705h-1.395a1.69,1.69,0,0,0-1.143.445l-2.007,1.837-5.837,4.01a1.8,1.8,0,0,0-.184.145l-4.534,4.143a1.67,1.67,0,0,0-.457.7l-1.923,5.564a1.692,1.692,0,0,0,2.3,2.092l4.191-1.92a1.7,1.7,0,0,0,.59-.447c.438-.52,4.079-4.84,4.984-6,.937-.563,5.285-2.286,8.954-3.626l6.276-2.266a1.692,1.692,0,0,0,.989-2.241l-.87-2.094a1.7,1.7,0,0,0-.807-.865l-2.445-1.22a1.679,1.679,0,0,0-.755-.179" fill="#b7b6af"/>
            <path id="패스_1681" data-name="패스 1681" d="M266.362.036l.351,16.4,5.931-11.689,5.412.872-1.747,4.362,2.269,1.919-5.061,5.932,8.55-.523,8.2-6.279,1.086,1.393-3.528,7.243,4.71-2.357,1.221-10.643L295.5,4.748l6.628,2.965,1.747-2.965h7.677l6.629,9.77,14.672,10.818-1.412,3.316-4.012,3.489,3.141,2.094.172,3.14-2.791,3.142,4.9,2.789v8.376l-6.3,7.329L323.767,69.13l-2.792,1.919v3.84l-1.919,2.79,3.319,2.969v7.5l-4.191,1.745,3.141,2.269-1.742,9.77-5.762,15.354-16.575,20.241L285.9,155.672l-.869,6.106-10.819,11.864L262.7,181.809l-9.771,13.644-7.852,9.771-7.75,2.443-13.363,9.77-9.594,4.449-4.539-5.322-10.469.524.263-6.63L197.27,208.8l-5.584,6.8-10.551,10.643-.962-5.409,8.9-7.591-2.967-5.32v-5.933l1.482-5.758-4.275-9.16,2.446-4.448,11.429-4.45,17.883,4.972-1.22-8.462,3.836-2.528L229.548,146.6l-.083-5.844,10.03-6.543-3.488-6.631v-5.5l-5.237-4.362-13.958,6.37-4.275-1.135-11.778,7.677-19.717-.262-2.788-5.671.435-8.113-3.229-8.2-5.057-.871-6.891-8.463-9.688,2.879-4.8-4.536-15.789-5.759V84.4l-2.616-3.141V75.148l-6.071-9.681-.737-10.644-6.28-3.489-4.887-16.141-15.7-11.426-7.939,2.092L70.075,18.1H55.946l-10.3,4.8H32.126L18.171,35.629l1.918,2.881,5.321-.436,6.022,3.311-.527,8.377-8.9,6.633L5.956,79.424,9.181,82.3l.44,5.235L1.593,89.456m.585,1.6,7.837-1.872A1.692,1.692,0,0,0,11.307,87.4l-.44-5.235a1.693,1.693,0,0,0-.559-1.121L8.2,79.161,23.238,57.588l8.678-6.469a1.692,1.692,0,0,0,.677-1.25l.528-8.377a1.693,1.693,0,0,0-.875-1.59l-6.022-3.311a1.683,1.683,0,0,0-.814-.209c-.046,0-.093,0-.139.005l-4.327.355-.56-.842,12.4-11.314H45.649a1.686,1.686,0,0,0,.715-.158l9.957-4.64H69.742l18.624,7.637a1.686,1.686,0,0,0,1.073.071L96.6,25.608l14.592,10.62,4.721,15.6a1.686,1.686,0,0,0,.8.989l5.478,3.043.672,9.727a1.692,1.692,0,0,0,.255.783l5.813,9.269v5.621a1.7,1.7,0,0,0,.391,1.083l2.225,2.67v6.628a1.694,1.694,0,0,0,1.113,1.59l15.459,5.639,4.543,4.3a1.688,1.688,0,0,0,1.646.392l8.6-2.558,6.179,7.589a1.692,1.692,0,0,0,1.024.6l4.118.71,2.747,6.972-.416,7.744a1.7,1.7,0,0,0,.172.838l2.787,5.67a1.693,1.693,0,0,0,1.5.946l19.718.262h.023a1.689,1.689,0,0,0,.924-.274l11.148-7.266,3.546.942a1.748,1.748,0,0,0,.435.056,1.672,1.672,0,0,0,.7-.153L230.5,119.7l3.811,3.173v4.7a1.68,1.68,0,0,0,.194.788l2.772,5.267-8.741,5.7a1.686,1.686,0,0,0-.766,1.44l.077,5.459-11.5,24.776-3.436,2.264a1.7,1.7,0,0,0-.744,1.654l.852,5.9-15.386-4.277a1.706,1.706,0,0,0-.453-.062,1.684,1.684,0,0,0-.613.116l-11.429,4.449a1.69,1.69,0,0,0-.869.761l-2.447,4.448a1.69,1.69,0,0,0-.05,1.531L185.8,196.4l-1.332,5.17a1.766,1.766,0,0,0-.052.422v5.933a1.7,1.7,0,0,0,.215.825l2.29,4.108-7.843,6.691a1.69,1.69,0,0,0-.567,1.583l.962,5.41a1.693,1.693,0,0,0,1.162,1.319,1.69,1.69,0,0,0,1.705-.424L192.888,216.8c.038-.039.072-.077.107-.119l4.586-5.59.319.224-.226,5.709a1.691,1.691,0,0,0,1.69,1.759c.029,0,.057,0,.085,0l9.637-.481,4,4.689a1.692,1.692,0,0,0,2,.437l9.6-4.45a1.641,1.641,0,0,0,.286-.169L238.1,209.2l7.486-2.36a1.683,1.683,0,0,0,.81-.553l7.852-9.771c.019-.025.037-.05.057-.075l9.6-13.412,11.282-8a1.678,1.678,0,0,0,.273-.24l10.817-11.863a1.7,1.7,0,0,0,.427-.9l.818-5.752,11.1-17.75,16.506-20.157a1.722,1.722,0,0,0,.276-.477l5.762-15.354a1.724,1.724,0,0,0,.082-.3l1.741-9.77a1.692,1.692,0,0,0-.674-1.669l-.69-.5,1.4-.581a1.7,1.7,0,0,0,1.041-1.563v-7.5a1.69,1.69,0,0,0-.564-1.261l-2.209-1.976,1.075-1.564a1.688,1.688,0,0,0,.3-.958v-2.95l2.058-1.415a1.684,1.684,0,0,0,.672-.944l2.691-9.754,6.051-7.04a1.7,1.7,0,0,0,.409-1.1V43.306a1.7,1.7,0,0,0-.856-1.471l-3.085-1.756,1.4-1.58a1.689,1.689,0,0,0,.423-1.216l-.172-3.141a1.69,1.69,0,0,0-.75-1.315l-1.3-.865,2.339-2.034a1.691,1.691,0,0,0,.446-.614L334.412,26a1.69,1.69,0,0,0-.552-2.024L319.422,13.328,312.955,3.8a1.688,1.688,0,0,0-1.4-.742h-7.677a1.691,1.691,0,0,0-1.458.833l-.98,1.661L296.193,3.2a1.7,1.7,0,0,0-1.943.406L292.5,5.529a1.685,1.685,0,0,0-.427.946l-.414,3.595-.063-.08a1.691,1.691,0,0,0-2.361-.3l-7.79,5.965-4.059.248,2.475-2.9a1.687,1.687,0,0,0-.194-2.389l-1.337-1.132,1.294-3.229a1.693,1.693,0,0,0-1.3-2.3l-5.412-.872a1.655,1.655,0,0,0-.27-.021,1.691,1.691,0,0,0-1.508.926l-2.874,5.665L268.055,0" fill="#b7b6af"/>
            <path id="패스_1682" data-name="패스 1682" d="M237.734,370.606l.6-2.532-.8-.965-1.8-.321-2.3-.744-.009-.968-1.814-1.232-1.053.576-1.562-.6-3.567,1.811-.893-.331-.827.584.611,1.4-2.181,2.62-2.922-.717-2.571,1.232-.87-1.876L213.62,366.3l-.108,1.232-1.806,1.064-1.93,4.34-10.633,5.1,2.54.427,2.555-1.578,1.461.758-.619,2.018,2.357.675.455,1.133-2.1,1.048.175,3.207,2.869,1.6-1.522,1.289.312.615.779-.176,1.559,1.232,2.8-.366-.248-1.083,1.013-.633.451-2.068.465.028.9-2.564,1.884-.114.344-3.4,2.535-.34.393-.961,3.925-.823,3.249.8,2.123,4.332,1.243-.061,2.216-5.782,5.9-2.772-.6-.885.834-1.278Z" fill="#f4f3ec"/>
            <path id="패스_1683" data-name="패스 1683" d="M228.985,363.825l1.563.6,1.053-.576,1.814,1.232.008.968,2.3.744,1.8.321.805.965-.6,2.532,1.663,1.708-.835,1.278.6.885-5.9,2.772-2.217,5.782-1.243.061-2.123-4.333-3.249-.8-3.925.823-.393.961-2.535.34-.343,3.4-1.885.114-.9,2.563-.465-.027-.45,2.068-1.014.633.248,1.083-2.8.366-1.56-1.232-.779.176-.312-.615,1.522-1.289-2.869-1.6-.175-3.207,2.1-1.048-.455-1.133-2.357-.675.618-2.018-1.461-.758-2.554,1.578-2.541-.427,10.633-5.1,1.93-4.339,1.807-1.064.107-1.232,2.147,2.246.869,1.877,2.571-1.232,2.922.717,2.182-2.62-.612-1.4.828-.584.893.331Zm0-1.692a1.7,1.7,0,0,0-.767.183l-2.9,1.476-.2-.074a1.7,1.7,0,0,0-1.565.2l-.828.583a1.694,1.694,0,0,0-.575,2.061l.193.442-.838,1.005-1.894-.466a1.709,1.709,0,0,0-.4-.048,1.69,1.69,0,0,0-.73.166l-1.026.492-.15-.322a1.671,1.671,0,0,0-.311-.458l-2.147-2.246a1.692,1.692,0,0,0-2.909,1.022l-.031.363-1.056.622a1.7,1.7,0,0,0-.688.77l-1.677,3.771-10.07,4.826a1.693,1.693,0,0,0,.452,3.2l2.538.426a1.809,1.809,0,0,0,.282.023,1.691,1.691,0,0,0,.889-.253l.839-.518a1.693,1.693,0,0,0,1.2,1.9l.01,0a1.7,1.7,0,0,0-.526,1.319l.176,3.207a1.694,1.694,0,0,0,.867,1.385l.786.438a1.687,1.687,0,0,0-.124,1.738l.312.615a1.692,1.692,0,0,0,1.508.925,1.663,1.663,0,0,0,.364-.04l.926.732a1.692,1.692,0,0,0,1.049.364,1.8,1.8,0,0,0,.22-.014l2.8-.366a79.475,79.475,0,0,0,2.2-3.033l.219-1.006a1.7,1.7,0,0,0,.639-.834l.529-1.5.761-.046a1.7,1.7,0,0,0,1.583-1.519l.208-2.068,1.211-.162a1.7,1.7,0,0,0,1.342-1.036l.053-.131,2.667-.559,2.108.521,1.775,3.624a1.694,1.694,0,0,0,1.52.948l.084,0,1.242-.061a1.691,1.691,0,0,0,1.5-1.085l1.973-5.144,5.287-2.483a1.691,1.691,0,0,0,.716-2.429l.221-.34a1.694,1.694,0,0,0-.2-2.106l-1.015-1.043.385-1.628a1.7,1.7,0,0,0-.349-1.474l-.8-.964a1.686,1.686,0,0,0-1-.582l-1.69-.3-1.047-.34a1.693,1.693,0,0,0-.721-1.127l-1.814-1.232a1.692,1.692,0,0,0-1.763-.084l-.368.2-.833-.318a1.714,1.714,0,0,0-.6-.11" fill="#b7b6af"/>
            <path id="패스_1684" data-name="패스 1684" d="M392.164,197.894l-1.425,5.235s5.088-2.965,5.088-3.665,8.55-7.677,8.55-7.677l3.138-1.918-1.919-4.383-6.8,4.732Z" fill="#f4f3ec"/>
            <path id="패스_1685" data-name="패스 1685" d="M405.6,185.486l1.919,4.384-3.138,1.918s-8.551,6.979-8.551,7.677-5.087,3.665-5.087,3.665l1.425-5.235,6.629-7.677Zm0-1.692a1.692,1.692,0,0,0-.967.3l-6.8,4.732a1.75,1.75,0,0,0-.313.283l-6.628,7.676a1.7,1.7,0,0,0-.353.662l-1.425,5.235a1.693,1.693,0,0,0,2.486,1.907c4.566-2.663,5.614-3.778,5.855-4.526.888-.995,4.644-4.226,7.911-6.894l3.039-1.859a1.689,1.689,0,0,0,.667-2.122l-1.918-4.383a1.692,1.692,0,0,0-1.091-.95,1.668,1.668,0,0,0-.459-.064" fill="#b7b6af"/>
            <path id="패스_1686" data-name="패스 1686" d="M170.972,425.359l.076,3.02,2.246.573,2.1-2.056-2.436-2.46Z" fill="#f4f3ec"/>
            <path id="패스_1687" data-name="패스 1687" d="M172.954,424.437l2.436,2.46-2.1,2.056-2.246-.573-.077-3.02Zm0-1.692a1.706,1.706,0,0,0-.713.157l-1.984.924a1.69,1.69,0,0,0-.977,1.577l.075,3.019a1.7,1.7,0,0,0,1.275,1.6l2.245.572a1.672,1.672,0,0,0,.419.053,1.693,1.693,0,0,0,1.184-.484l2.1-2.056a1.695,1.695,0,0,0,.017-2.4l-2.436-2.459a1.69,1.69,0,0,0-1.2-.5" fill="#b7b6af"/>
            <path id="패스_1688" data-name="패스 1688" d="M170.278,394.1l1.887-1.868.327-3.055-2.23-.668-1.716,3.5.514.793.087,1.629Z" fill="#f4f3ec"/>
            <path id="패스_1689" data-name="패스 1689" d="M170.261,388.511l2.23.668-.327,3.055-1.887,1.868-1.13.328-.087-1.629-.515-.793Zm0-1.692a1.693,1.693,0,0,0-1.519.947l-1.716,3.5a1.692,1.692,0,0,0,.1,1.666l.267.414.065,1.178a1.691,1.691,0,0,0,2.16,1.534l1.13-.328a1.668,1.668,0,0,0,.719-.423l1.887-1.867a1.687,1.687,0,0,0,.493-1.023l.327-3.055a1.692,1.692,0,0,0-1.2-1.8l-2.231-.668a1.717,1.717,0,0,0-.486-.071" fill="#b7b6af"/>
            <path id="패스_1690" data-name="패스 1690" d="M178.85,423.769l-1.266,1.415-.228,2.266,2.047.049.45-2.14,2.769-4.073-.465-2.017-2.724,2.026Z" fill="#f4f3ec"/>
            <path id="패스_1691" data-name="패스 1691" d="M182.156,419.269l.466,2.017-2.77,4.073-.449,2.14-2.048-.049.228-2.266,1.266-1.415.583-2.474Zm0-1.692a1.687,1.687,0,0,0-1.01.335l-2.723,2.025a1.69,1.69,0,0,0-.638.969l-.485,2.056-.978,1.1a1.694,1.694,0,0,0-.423.959l-.228,2.264a1.692,1.692,0,0,0,1.643,1.861l2.047.049h.042a1.693,1.693,0,0,0,1.656-1.344l.379-1.812,2.584-3.8a1.7,1.7,0,0,0,.249-1.333l-.466-2.017a1.694,1.694,0,0,0-1.649-1.311" fill="#b7b6af"/>
            <path id="패스_1692" data-name="패스 1692" d="M196.813,387.459l1.727-.366.82-1.61-1.9-1.75.484-1.624-1.178-.344,1.579-1.967-5.153-.55-.082-1.712,2.368-.622.175-3.459-2.483-1.552-1.5,1.518-3.74-1.385-1.825-3.283.86-1.2-.527-.823-.236.1-2.476.557.454-1.113-2.029-.39-.392,1-3.155.523-.785,3.092-1.819,1.046-.934-1.755-1.649,1.053.627,1.171-1.584.831-1.033.229L171.59,372l-2.145-.394-.986,2.625-3.212-.675-.328,3.111,1.618.652,3.553,2.858-.068,2.443-1.782.309-.175-2.116-1.645-2.361-1.085,3.474,1.2.973.8,2.09-.847,2.063,2.44-.954.02-1.54,4.007.717-.735.988-.306,1.521L175,386.632l.567-1.111-.942-1.586-2.608-.244-.29-.984,1.564-1.628-.229-2.232,1.533-1,1.937,2.147-.32,2.948,2.51,2.116.035,1.6-1.172,1.708,1.988.1-2.529,1.628.319,1.5-4.226,4.679-1.8.763.26,2.688-1.061,1.823,2.017,2.894-1.216,3.7-2.31-.4,1.151,3.073,3.428.855.851,1.182,1.205-.221,1.205-1.3-1.488-.931-.5-2.532.364-1.515,1.124-1.994,1.678-.537,1.182,1.311-.906,1.091-.572,1.167,1.119,2.562-1.437,3.681-1.121.8a6.15,6.15,0,0,1-.29,1.182c-.121.164,4.622-1.357,4.622-1.357l2.01-1.434.728-.931-1.33-1.773,1.525-.892,3.307,2.1.74-3.318,1.433-1.293.95-6.327,3.063-6.5,1.6-1.29-.56-1.277,2.674-2.2Z" fill="#f4f3ec"/>
            <path id="패스_1693" data-name="패스 1693" d="M182.145,365.877l2.029.39-.455,1.113,2.476-.557.236-.1.527.824-.859,1.2,1.824,3.283,3.74,1.385,1.5-1.518,2.482,1.552-.175,3.459-2.368.622.083,1.712,5.152.55-1.578,1.967,1.178.344-.484,1.624,1.9,1.75-.82,1.61-1.726.366-.027,1.652-2.673,2.2.559,1.277-1.6,1.289-3.062,6.5-.95,6.327L187.626,408l-.741,3.318-3.307-2.1-1.524.893,1.329,1.773-.728.931-2.01,1.434s-4.272,1.37-4.6,1.37c-.018,0-.025,0-.018-.013a6.15,6.15,0,0,0,.29-1.182l1.12-.8,1.438-3.681-1.12-2.562.572-1.168.907-1.09-1.182-1.311-1.679.537-1.123,1.994-.364,1.515.5,2.531,1.487.932-1.2,1.3-1.205.221-.851-1.182-3.428-.855-1.152-3.074,2.311.4,1.216-3.7-2.018-2.9,1.061-1.822-.259-2.689,1.8-.762,4.226-4.68-.319-1.5,2.528-1.628-1.988-.1,1.172-1.708-.035-1.6-2.51-2.116.32-2.948-1.936-2.147-1.534,1,.23,2.231-1.565,1.629.291.984,2.607.244.943,1.586L175,386.632l-3.079,1.151.306-1.521.735-.989-4.007-.716-.02,1.54-2.441.953.848-2.062-.805-2.09-1.2-.973,1.085-3.475,1.645,2.361.175,2.117,1.782-.309.067-2.444-3.553-2.857-1.618-.652.329-3.112,3.211.675.986-2.624,2.145.393-.168,1.072,1.032-.229,1.584-.831-.626-1.171,1.649-1.053.933,1.754,1.82-1.045.785-3.093,3.155-.522Zm0-1.692a1.7,1.7,0,0,0-1.575,1.076l-.042.107-2.2.365a1.691,1.691,0,0,0-1.366,1.253l-.476,1.881a1.693,1.693,0,0,0-2.332-.507l-1.649,1.053a1.689,1.689,0,0,0-.7.9l-2.051-.376a1.69,1.69,0,0,0-1.889,1.069l-.475,1.264L165.6,371.9a1.637,1.637,0,0,0-.348-.036,1.692,1.692,0,0,0-1.683,1.515l-.328,3.111a1.693,1.693,0,0,0,1.049,1.748l.381.153-.946,3.031a1.691,1.691,0,0,0,.55,1.821l.849.687.4,1.039-.592,1.441a1.692,1.692,0,0,0,2.181,2.219l2.441-.954a1.684,1.684,0,0,0,.795-.642l-.084.419a1.692,1.692,0,0,0,1.659,2.025,1.716,1.716,0,0,0,.593-.107l3.079-1.151a1.758,1.758,0,0,0,.327-.165,1.671,1.671,0,0,0,.03.747,1.694,1.694,0,0,0-.562,1.643l.14.655-3.395,3.76-1.457.616a1.692,1.692,0,0,0-1.022,1.721l.206,2.146-.786,1.351a1.688,1.688,0,0,0,.074,1.819l1.534,2.2-.495,1.5-.871-.151a1.754,1.754,0,0,0-.289-.025,1.691,1.691,0,0,0-1.584,2.287l1.151,3.074a1.692,1.692,0,0,0,1.175,1.047l2.826.705.489.678a1.691,1.691,0,0,0,1.374.7c.037,0,.077,0,.116,0-.029.139-.057.264-.076.34a1.7,1.7,0,0,0,.014,1.5,1.727,1.727,0,0,0,1.531.935c.28,0,.6,0,5.121-1.451a1.725,1.725,0,0,0,.466-.233l2.009-1.435a1.7,1.7,0,0,0,.349-.334l.729-.931a1.677,1.677,0,0,0,.337-.767l.925.588a1.692,1.692,0,0,0,2.559-1.06l.623-2.791,1.033-.932a1.7,1.7,0,0,0,.54-1.005l.911-6.081,2.792-5.927,1.3-1.044a1.693,1.693,0,0,0,.489-2l-.047-.1,1.684-1.382a1.7,1.7,0,0,0,.619-1.281l0-.3.407-.085a1.7,1.7,0,0,0,1.157-.889l.819-1.609a1.689,1.689,0,0,0-.362-2.013L199.38,383.2l.182-.612a1.682,1.682,0,0,0-.135-1.292.98.98,0,0,0-.051-.089l.286-.355a1.692,1.692,0,0,0-1.141-2.741l-1.7-.181a1.7,1.7,0,0,0,.341-.934l.174-3.459a1.692,1.692,0,0,0-.792-1.52l-2.483-1.553a1.691,1.691,0,0,0-2.1.244l-.735.744-2.13-.789-1-1.8.239-.335a1.692,1.692,0,0,0,.047-1.895l-.526-.823a1.7,1.7,0,0,0-2.081-.649l-.1.042-.157.036a1.692,1.692,0,0,0-1.029-.636l-2.029-.39a1.742,1.742,0,0,0-.32-.03" fill="#b7b6af"/>
            <path id="패스_1694" data-name="패스 1694" d="M244.03,361.293l-4.493,4.383-.118,1.132.537,1.22,2.831-1.091-.028-2.818,2.082-2.33Z" fill="#f4f3ec"/>
            <path id="패스_1695" data-name="패스 1695" d="M244.03,361.293l.811.5-2.082,2.33.028,2.818-2.831,1.091-.537-1.22.118-1.132Zm0-1.692a1.7,1.7,0,0,0-1.182.48l-4.494,4.383a1.691,1.691,0,0,0-.5,1.037l-.119,1.132a1.688,1.688,0,0,0,.136.856l.536,1.221a1.693,1.693,0,0,0,2.157.9l2.831-1.091a1.693,1.693,0,0,0,1.084-1.6l-.022-2.164,1.647-1.84a1.7,1.7,0,0,0-.38-2.573l-.812-.495a1.7,1.7,0,0,0-.882-.248" fill="#b7b6af"/>
            <path id="패스_1696" data-name="패스 1696" d="M175.688,391.818l.729-1.758-1.163-.657-1.518.435-.857.939.415,1.132Z" fill="#f4f3ec"/>
            <path id="패스_1697" data-name="패스 1697" d="M175.254,389.4l1.163.657-.729,1.758-2.394.091-.415-1.132.857-.939Zm0-1.692a1.676,1.676,0,0,0-.466.066l-1.517.434a1.707,1.707,0,0,0-.784.486l-.858.939a1.694,1.694,0,0,0-.34,1.723l.417,1.133a1.691,1.691,0,0,0,1.588,1.109h.064l2.4-.091a1.692,1.692,0,0,0,1.5-1.043l.729-1.758a1.693,1.693,0,0,0-.732-2.122l-1.163-.657a1.7,1.7,0,0,0-.831-.218" fill="#b7b6af"/>
            <path id="패스_1698" data-name="패스 1698" d="M338.995,292.166l.741-2.009,1.437-.569.348-1.773,1.235-1.6.007-2.689,2.182-2.578-2.211-1.777.685-5.987-2.394-3.2.178-1.014-2.188-4.847-2-.873-1.11-5.82,1.259-7.105-.3-1.682-3.333.084-4.093-2.639-1.841,6.929,3.543-.274,2.31-1.815.7,2.025-.772,2.81-.945,1.77-2.75-1.9-1.026.061.035,1.54-1.345.725-.764-.663-.169-4.508-1.079-1.194-1.166.569-1.823-1.061-1.24,1.987.767.606-.714,5.031-.721.706-2.519.38-1.972,1.778,1.088,1.026-.394,2.086,1.1,1.762-.174,2.326-2.64,3.8-1.93-.1.572,2.193,2.406-.389,1.843,1.856-.359,5.9-2.216,3.245-.808,5.877-3.794,5.16-2.888,8.619-7.234,4.58-3.066,6.507-5.371,3.767-2.17.118-2.3,1.476-6.591,2-.324,1.861-2.79,1.166-3.132-2.207,1.575-2.994-.633-1-1.293.847-1.014-.279.16-3.066,1.732.656,3.3-.969.27-2.036,1.717-1.278-1.091-.912-7.1,1.973-2.544,4.084,1.473,1.27.312,1.667-.691,3.551-4.966,5.78-4.176,2.632.009.969-2.849,3.386,2.219,3.413-.5,1.968-.615-1.342-.984.294-.415,1.457-1.593,1.113-1.443-.755.355,2.01-2.281.053-1.6-2.128-1.9.3.892,1.473-2.623-.988-.759-.725,2.021-1.72-1-1.529-5.319,1.609-4.779-1.159-4.16,2.352-6.438.127-2.876-.6-1.452.61-1.477-.072-1.22-1.773-2.238-.683-1.762,1.049-4.759.61.522.991-.1,1.992-3.059.865-1.628,1.743-3.741,1.915-3.713,3.68-2.606.834-1.479-.018-3.109,2.913-.221,1.015-2.921.362-.736-1.232-2.246-.625.708,1.742-1.3-.179-1.065.8.611,1.4-.788.985.636.884-.625,1.163.618,1.171,2.261-.74,1.766,2.139,3.591-1.239.5.37,3.7-1.011,1.9,2.891,1.239.175.694.946,1.026,0,.062-1.193,1.044-.4,1.1-3.7-.449-1.217,2.234-1.366,2.193.508.665,2.6,1.642.141,1.724-1.449,3.3.167.569-1.109,2.012-.465.2.636,1.895.721,1.2-1.079,1.208-.221-.385-1.388,1.332.7,1.12-.8.767,1.747,1.186-.965.864.9,1.8-.706.067-1.365,1.586.137,1.66-1.28.171-1.073,2.6.417.709-1.672.732,1.29,3.47.007,4.422,2.617,2.966-1.187,1.727.385.485,2.248-2.037,2.242-1.334,1.083-2.16,1.3,1.8,2.487-2.207,1.422.545.965-.545,2.365,4.336,2.821-.851.771,1.114,2.448,4.336,2.056.554-.782,2.517-.85-.184-2.235,2.044-3.223,2.453-1.243-.126-1.671,1.136-.495-.084-1.754,5.035-1.621,3.951.412.622-2.956-1.027-.011-4.888-2.895,2.12-6.427,2.9-.789-.289,4.9,1,.435,1.014-1.487,1.975,1.426,1.443-1.507,2.063,2.281-1.369.061-3.23.519-.851,1.579,7.616-1.107,10.32,1.893-.541-1.1,3.8-6.766,3.417-1.662,2.295,1.868-1.568.561-.842,5.636,1.419,1.48,2.086-.747,2.59-4.737-1.255-2.2,1.583-1.712-.226-1.464,5.141-1.1,1.621,2.43,1.922-1.652-1.593-3.028,2.447-1.114.1-2.044,1.046.481,1.94-1.266,1.388,2.121-1.475,2.1-1.754.126-1.338,1.938,1.239,1.6-.8.726-.087,1.745-1.167,1.9,1.841,1.548,3.9-3.532,3.166-1.761.382-4.973,3.874-3.135,2.472-.771-3.89-9.159.655-2.785,2.845-8.051,2.346-.778,1.861-11.429-1.563-4.436-.821-4.011,2.285-4.623,4.87-.134,1.033,2.354.469-1.637-.77-2.474.683-.863-.676-1.826,1.079-3.531Z" fill="#f4f3ec"/>
            <path id="패스_1699" data-name="패스 1699" d="M329.433,246.089l4.093,2.639,3.333-.084.3,1.683-1.259,7.1,1.111,5.82,2,.873,2.188,4.848-.178,1.014,2.4,3.2-.686,5.987,2.211,1.777-2.181,2.578-.007,2.689-1.236,1.6-.347,1.773-1.438.569-.741,2.009-1.3.321-1.079,3.531.676,1.826-.682.863.77,2.475-.47,1.636-1.033-2.353-4.87.133-2.285,4.623.821,4.012,1.564,4.435-1.862,11.43-2.346.778-2.844,8.051-.656,2.784,3.89,9.16-2.472.771-3.874,3.135-.382,4.972-3.166,1.762-3.9,3.531-1.841-1.548,1.167-1.9.087-1.746.8-.726-1.239-1.6,1.338-1.937,1.754-.126,1.475-2.1-1.388-2.12-1.94,1.265-1.046-.48-.1,2.043-2.448,1.115,1.594,3.028-1.922,1.651-1.622-2.43-5.141,1.1.226,1.465-1.583,1.712,1.255,2.2-2.59,4.737-2.085.747-1.42-1.479.842-5.637,1.569-.561-2.3-1.868-3.418,1.662-3.8,6.766.542,1.1-10.321-1.893-7.616,1.107.851-1.579,3.231-.519,1.368-.06-2.062-2.282-1.444,1.508-1.974-1.427-1.015,1.488-1-.436.289-4.9-2.9.789-2.12,6.427,4.888,2.894,1.027.011-.622,2.956-3.951-.412-5.034,1.621.083,1.755-1.136.5.126,1.67-2.452,1.244-2.044,3.222.183,2.235-2.517.85-.553.782-4.337-2.056L248.1,377.41l.851-.77-4.336-2.822.545-2.365-.545-.965,2.208-1.422-1.8-2.487,2.159-1.3,1.334-1.084,2.038-2.242-.486-2.247-1.727-.385-2.966,1.186-4.421-2.617-3.47-.007-.733-1.289-.708,1.671-2.6-.417-.172,1.073-1.659,1.281-1.586-.138-.068,1.366-1.8.7-.864-.9-1.186.964-.767-1.746-1.121.8-1.332-.7.385,1.388-1.207.221-1.2,1.079-1.895-.72-.2-.637-2.013.465-.569,1.11-3.3-.168-1.724,1.45-1.642-.142-.664-2.6-2.194-.507-2.234,1.365.449,1.217-1.1,3.7-1.043.4-.062,1.194-1.026,0-.694-.945-1.24-.176-1.9-2.89-3.7,1.01-.5-.37-3.592,1.24-1.766-2.139-2.261.739-.618-1.171.625-1.163-.636-.884.788-.984-.61-1.4,1.064-.8,1.3.18-.709-1.743,2.246.626.737,1.231,2.92-.362.222-1.014,3.108-2.914,1.479.019,2.606-.835,3.713-3.68,3.741-1.915,1.629-1.742,3.058-.866.105-1.992-.523-.991,4.76-.61,1.761-1.049,2.238.683,1.221,1.773,1.476.073,1.452-.611,2.876.6,6.438-.127,4.16-2.352,4.779,1.159,5.32-1.61,1,1.53-2.021,1.719.759.725,2.624.988-.893-1.472,1.9-.3,1.6,2.129,2.281-.054-.356-2.01,1.443.755,1.593-1.113.416-1.456.984-.3.614,1.343.5-1.968-2.219-3.414,2.849-3.386-.009-.969,4.177-2.631,4.966-5.781.691-3.551-.313-1.667-1.473-1.27,2.544-4.084,7.1-1.972,1.091.911-1.717,1.278L278.6,317.4l-3.295.97-1.733-.657-.16,3.067,1.014.278,1.294-.847.632,1-1.575,2.994,3.132,2.207,2.791-1.166.324-1.861,6.59-2,2.3-1.477,2.169-.117,5.371-3.768,3.066-6.506,7.235-4.581,2.887-8.618,3.794-5.16.808-5.878,2.217-3.245.358-5.9-1.843-1.857-2.406.389L313,272.484l1.931.1,2.639-3.8.175-2.326-1.106-1.762.394-2.086-1.087-1.026,1.971-1.777,2.52-.381.72-.706.714-5.03-.767-.607,1.24-1.987,1.823,1.061,1.167-.568,1.078,1.194.17,4.507.763.663,1.345-.724-.035-1.54,1.026-.061,2.75,1.9.945-1.77.772-2.81-.7-2.025-2.31,1.815-3.543.275Zm0-1.692a1.691,1.691,0,0,0-1.636,1.258l-1.261,4.75a1.7,1.7,0,0,0-1.949-.334l-.353.173-1.043-.606a1.692,1.692,0,0,0-2.287.566l-1.239,1.988a1.69,1.69,0,0,0,.386,2.222l.006,0-.488,3.431-1.909.288a1.7,1.7,0,0,0-.881.417l-1.971,1.777a1.691,1.691,0,0,0-.028,2.487l.415.392-.222,1.177a1.692,1.692,0,0,0,.228,1.212l.811,1.291-.1,1.311-1.84,2.644-.992-.051-.086,0a1.692,1.692,0,0,0-1.637,2.12l.571,2.192a1.7,1.7,0,0,0,1.909,1.244l1.547-.25.7.7-.284,4.678-1.954,2.859a1.716,1.716,0,0,0-.279.724l-.748,5.451-3.54,4.814a1.653,1.653,0,0,0-.242.466l-2.7,8.047-6.728,4.259a1.7,1.7,0,0,0-.624.708l-2.875,6.1-4.607,3.231-1.687.092a1.688,1.688,0,0,0-.823.266l-2.1,1.349-6.364,1.93a1.694,1.694,0,0,0-1.176,1.33l-.166.946-1.072.449-1.152-.813.882-1.679a1.69,1.69,0,0,0-.066-1.691l-.482-.765,1.776-.522a1.7,1.7,0,0,0,1.2-1.4l.175-1.328,1.144-.851a1.693,1.693,0,0,0,.076-2.657l-1.091-.91a1.687,1.687,0,0,0-1.538-.333l-7.1,1.973a1.689,1.689,0,0,0-.983.735l-2.543,4.084a1.694,1.694,0,0,0,.33,2.177l1.025.882.142.767-.542,2.794-4.508,5.249L260.9,332.7a1.7,1.7,0,0,0-.791,1.446l0,.344-2.448,2.908a1.694,1.694,0,0,0-.122,2.011l1.145,1.763-.091.027a1.687,1.687,0,0,0-1.14,1.156l-.253.879-.256.18-.532-.278a1.69,1.69,0,0,0-2.432,1.114l-.523-.7a1.69,1.69,0,0,0-1.353-.676,1.664,1.664,0,0,0-.263.021l-.409.064a1.7,1.7,0,0,0-.279-.983l-1-1.53a1.692,1.692,0,0,0-1.414-.764,1.661,1.661,0,0,0-.491.073l-4.878,1.475-4.332-1.049a1.619,1.619,0,0,0-.4-.049,1.7,1.7,0,0,0-.833.219l-3.788,2.143-5.818.114-2.688-.563a1.617,1.617,0,0,0-.347-.037,1.686,1.686,0,0,0-.655.133l-1.1.462-.256-.014-.747-1.084a1.689,1.689,0,0,0-.9-.658l-2.237-.683a1.678,1.678,0,0,0-.495-.074,1.7,1.7,0,0,0-.865.238l-1.46.869-4.41.566a1.691,1.691,0,0,0-1.283,2.466l.306.58-.016.317-1.894.535a1.688,1.688,0,0,0-.776.473l-1.426,1.527-3.479,1.78a1.707,1.707,0,0,0-.419.3l-3.424,3.394-1.956.627-1.206-.016h-.021a1.692,1.692,0,0,0-1.157.458l-3.109,2.914a1.7,1.7,0,0,0-.453.716l-.645.08-.171-.285a1.691,1.691,0,0,0-1-.762l-2.246-.625a1.72,1.72,0,0,0-.454-.062,1.692,1.692,0,0,0-1.673,1.951l-1,.747a1.693,1.693,0,0,0-.537,2.03l.2.464-.149.187a1.688,1.688,0,0,0-.052,2.046l.017.026-.123.232a1.691,1.691,0,0,0-.007,1.591l.618,1.171a1.7,1.7,0,0,0,2.023.819l1.165-.381,1.031,1.249a1.694,1.694,0,0,0,1.3.615,1.667,1.667,0,0,0,.552-.093l2.775-.957a1.689,1.689,0,0,0,1.207.121l2.511-.687,1.228,1.865a1.693,1.693,0,0,0,1.177.745l.534.075.271.371a1.693,1.693,0,0,0,1.365.692h.007l1.026,0a1.693,1.693,0,0,0,1.684-1.606l0-.094.017-.006a1.7,1.7,0,0,0,1.016-1.1l1.1-3.7a1.7,1.7,0,0,0-.006-.979l.46-.281.516.12.409,1.6a1.692,1.692,0,0,0,1.494,1.266l1.643.141c.05,0,.1.006.145.006a1.693,1.693,0,0,0,1.09-.4l1.214-1.021,2.629.135.086,0a1.689,1.689,0,0,0,1.5-.921l.206-.4a1.706,1.706,0,0,0,.467.27l1.9.721a1.666,1.666,0,0,0,.6.111,1.688,1.688,0,0,0,1.133-.436l.84-.757.736-.136a1.692,1.692,0,0,0,1.028-.622,1.7,1.7,0,0,0,1.1.863,1.745,1.745,0,0,0,.4.046,1.693,1.693,0,0,1,2.05-.065,1.705,1.705,0,0,0,.618-.116l1.8-.706a1.7,1.7,0,0,0,1.009-1.111h.027a1.688,1.688,0,0,0,1.034-.353l1.659-1.281a1.681,1.681,0,0,0,.43-.491l1.038.166a1.527,1.527,0,0,0,.269.022,1.69,1.69,0,0,0,1.108-.415,1.63,1.63,0,0,0,.328.034l3.01.006,4.021,2.381a1.692,1.692,0,0,0,1.492.116l2.48-.992.161.035.072.337-1.366,1.5-1.143.928-2.057,1.238a1.693,1.693,0,0,0-.5,2.441l.752,1.04-.708.456a1.693,1.693,0,0,0-.558,2.255l.223.393-.4,1.724a1.694,1.694,0,0,0,.727,1.8l2.758,1.794a1.7,1.7,0,0,0,.109,1.08l1.114,2.448a1.687,1.687,0,0,0,.815.828l4.337,2.057a1.693,1.693,0,0,0,2.106-.551l.234-.334,2-.674a1.694,1.694,0,0,0,1.144-1.741l-.136-1.67,1.489-2.35,2.039-1.034a1.694,1.694,0,0,0,.922-1.636l-.035-.473.035-.015a1.691,1.691,0,0,0,1.012-1.63l-.021-.461,3.461-1.115,3.6.375a1.755,1.755,0,0,0,.177.01A1.691,1.691,0,0,0,272.5,368.8l.622-2.956a1.709,1.709,0,0,0,.005-.672l6.785-.986,10.046,1.842a1.692,1.692,0,0,0,1.823-2.415l-.146-.293,3.1-5.526,1.228-.6-.816,5.461a1.687,1.687,0,0,0,.453,1.422l1.419,1.479a1.694,1.694,0,0,0,1.222.521,1.677,1.677,0,0,0,.569-.1l2.086-.747a1.686,1.686,0,0,0,.914-.782l2.591-4.737a1.691,1.691,0,0,0-.016-1.65l-.638-1.119.741-.8a1.693,1.693,0,0,0,.443-1.293l2.458-.527.984,1.473a1.691,1.691,0,0,0,1.178.737,1.619,1.619,0,0,0,.23.016,1.7,1.7,0,0,0,1.1-.408l.271-.232-.01.167-.94,1.535a1.691,1.691,0,0,0,.353,2.179l1.841,1.548a1.689,1.689,0,0,0,2.224-.04l3.762-3.4,3-1.668a1.692,1.692,0,0,0,.865-1.349l.325-4.246,3.056-2.472,2.163-.675a1.693,1.693,0,0,0,1.053-2.277l-3.672-8.65.507-2.154,2.537-7.184,1.56-.517a1.7,1.7,0,0,0,1.139-1.334l1.86-11.43a1.7,1.7,0,0,0-.074-.835l-1.526-4.325-.68-3.329,1.576-3.189,2.712-.075.575,1.311a1.694,1.694,0,0,0,1.55,1.012c.037,0,.076,0,.115,0a1.691,1.691,0,0,0,1.511-1.221l.469-1.636a1.7,1.7,0,0,0-.009-.97l-.506-1.622.129-.162a1.7,1.7,0,0,0,.26-1.638l-.478-1.29.631-2.067.368-.091a1.693,1.693,0,0,0,1.181-1.058l.477-1.3.734-.29a1.69,1.69,0,0,0,1.039-1.249l.27-1.381.993-1.285a1.7,1.7,0,0,0,.352-1.03l.005-2.071,1.783-2.106a1.7,1.7,0,0,0-.231-2.413l-1.484-1.193.579-5.06a1.7,1.7,0,0,0-.328-1.207l-1.955-2.609.051-.293a1.686,1.686,0,0,0-.124-.99l-2.188-4.847a1.688,1.688,0,0,0-.865-.856l-1.186-.515-.883-4.637,1.2-6.8a1.687,1.687,0,0,0,0-.593l-.3-1.682a1.692,1.692,0,0,0-1.666-1.4h-.042l-2.812.071-3.655-2.357a1.691,1.691,0,0,0-.917-.27m1.52,10.059.312-.024a1.706,1.706,0,0,0,.792-.269l-.244.888ZM267.584,361.828l1.1-3.35-.1,1.694a1.691,1.691,0,0,0,1.015,1.652l1,.435a1.674,1.674,0,0,0,.44.124l-.21.392a1.7,1.7,0,0,0-.2.859Z" fill="#b7b6af"/>
            <path id="패스_1700" data-name="패스 1700" d="M313.169,233.6l-2.464.515-.68,3.3,2.03.362Z" fill="#f4f3ec"/>
            <path id="패스_1701" data-name="패스 1701" d="M313.169,233.6h.008m-.008,0-1.114,4.172-2.03-.362.68-3.295,2.464-.515m0-1.692-.082,0a1.713,1.713,0,0,0-.3.041l-2.43.507a1.692,1.692,0,0,0-1.312,1.315l-.679,3.295a1.691,1.691,0,0,0,1.36,2.008l2.03.362a1.693,1.693,0,0,0,1.931-1.23l1.084-4.058a1.67,1.67,0,0,0,.091-.55,1.687,1.687,0,0,0-1.684-1.692Z" fill="#b7b6af"/>
            <path id="패스_1702" data-name="패스 1702" d="M330.158,179.146l2.045,2.663.652-2.785-1.889-.608Z" fill="#f4f3ec"/>
            <path id="패스_1703" data-name="패스 1703" d="M330.967,178.416l1.889.607-.653,2.786-2.044-2.663Zm0-1.692a1.692,1.692,0,0,0-1.134.436l-.807.73a1.69,1.69,0,0,0-.209,2.286l2.044,2.663a1.693,1.693,0,0,0,1.342.662,1.667,1.667,0,0,0,.357-.038,1.692,1.692,0,0,0,1.291-1.268l.653-2.786a1.694,1.694,0,0,0-1.131-2l-1.888-.607a1.677,1.677,0,0,0-.518-.081" fill="#b7b6af"/>
            <path id="패스_1704" data-name="패스 1704" d="M351.272,234.78l4.457.482,2.743,3.982,2.214-.782.31-6,10.168-11.01,6.216,1.087.725-1.629,2.143.621,2.849-3.055,4.622-.276.248-2.294,2.773-1.65-1.239-.833-3.189,2.271-2.491-3.969-2.368-3.707,4.168-8.879-1.1-1.079-6.511,7.092-5.612-.413-.4-2.324-8.448-2.609-7.772-5.776-5.523-7.2-6.608-8.533-2.164,2.195-2.158-.366-.889,4.82,2.761,6.161-.667,5.6-1.12,1.865-.648,7.652-3.152,1.5-.236,2.165,1.225,6.082-2.036,2.328-2.811-.144-.076-1.027-2.838.368-3.8-3.269-2.62,1.15,2.139,5.743-2.491,3.585-.866-.554-1.776,2.213-2.841.5-.172,3.322-1.266,2.239,4.211,5.34.6,3.356-2.327,2.956,1.091,3.645,2.021.611,2.531-1.919.54-3.045,1.81-.291.581-1.381,3.894,1.48,3.393-1.236-3.939-3.147-1.3-2.114L324.8,236.5l-3.152-3.489,3.689-4.551,3.99,2.125.635,2.593,1.534.081,8.233-5.729,5.619,2.85Z" fill="#f4f3ec"/>
            <path id="패스_1705" data-name="패스 1705" d="M343.652,178.3l6.608,8.533,5.523,7.2,7.772,5.776L372,202.412l.4,2.324,5.612.413,6.511-7.092,1.1,1.079-4.168,8.879,2.368,3.708,2.491,3.968,3.189-2.271,1.239.834-2.773,1.649-.248,2.294-4.622.276-2.849,3.055-2.143-.62-.725,1.628-6.216-1.086L361,232.459l-.31,6-2.214.782-2.743-3.982-4.457-.482-5.923-4.4-5.619-2.85L331.5,233.26l-1.534-.08-.635-2.593-3.99-2.126-3.689,4.551L324.8,236.5l3.447.178,1.3,2.114,3.939,3.147-3.393,1.236L326.2,241.7l-.581,1.381-1.81.291-.54,3.045-2.531,1.919-2.021-.611-1.091-3.645,2.327-2.956-.6-3.356-4.211-5.34,1.266-2.239.172-3.322,2.841-.5,1.776-2.213.866.555,2.491-3.586-2.139-5.743,2.62-1.15,3.8,3.269,2.838-.367.076,1.027,2.811.143,2.036-2.327-1.225-6.082.236-2.166,3.152-1.5.648-7.651,1.12-1.865.667-5.6-2.761-6.161.889-4.82,2.158.366Zm0-1.692a1.694,1.694,0,0,0-1.205.5l-1.545,1.567-1.289-.219a1.72,1.72,0,0,0-.284-.024,1.693,1.693,0,0,0-1.663,1.386l-.889,4.821a1.682,1.682,0,0,0,.121,1l2.569,5.732-.57,4.776-.933,1.554a1.684,1.684,0,0,0-.235.729l-.567,6.684-2.276,1.087a1.691,1.691,0,0,0-.953,1.343l-.236,2.166a1.691,1.691,0,0,0,.023.517l1.059,5.264-.945,1.08-.567-.028a1.693,1.693,0,0,0-1.586-1.1,1.788,1.788,0,0,0-.219.014l-2.089.271-3.228-2.777a1.694,1.694,0,0,0-1.785-.266l-2.618,1.149a1.692,1.692,0,0,0-.907,2.141l1.829,4.913-1.119,1.612a1.7,1.7,0,0,0-1.661.6l-1.378,1.714-2.211.387a1.692,1.692,0,0,0-1.4,1.579l-.151,2.924-1.069,1.892a1.692,1.692,0,0,0,.143,1.881l3.948,5.006.389,2.191-1.859,2.36a1.691,1.691,0,0,0-.291,1.532l1.091,3.645a1.7,1.7,0,0,0,1.131,1.136l2.022.61a1.7,1.7,0,0,0,1.512-.271l2.532-1.919a1.7,1.7,0,0,0,.643-1.054l.328-1.86.625-.1a1.7,1.7,0,0,0,1.233-.891l2.37.9a1.688,1.688,0,0,0,1.18.009l3.394-1.236a1.693,1.693,0,0,0,.478-2.912l-3.709-2.962-1.146-1.864a1.691,1.691,0,0,0-1.354-.8l-2.748-.142-1.712-1.9,1.9-2.341,2.089,1.114.457,1.858a1.691,1.691,0,0,0,1.556,1.286l1.534.081.087,0a1.691,1.691,0,0,0,.967-.3l7.4-5.151,4.588,2.327,5.807,4.314a1.7,1.7,0,0,0,.828.324l3.685.4,2.3,3.343a1.691,1.691,0,0,0,1.957.635l2.214-.782a1.693,1.693,0,0,0,1.127-1.508l.278-5.392,9.127-9.881,5.308.927a1.686,1.686,0,0,0,1.837-.979l.124-.28.726.21a1.7,1.7,0,0,0,1.708-.472l2.389-2.56,3.946-.236a1.691,1.691,0,0,0,1.581-1.507l.157-1.454,2.048-1.217a1.693,1.693,0,0,0,.08-2.858l-1.24-.834a1.693,1.693,0,0,0-1.927.026l-1.729,1.23-1.537-2.449-1.871-2.933,3.77-8.035a1.691,1.691,0,0,0-.345-1.926l-1.1-1.079a1.7,1.7,0,0,0-1.187-.486h-.042a1.692,1.692,0,0,0-1.2.547l-5.957,6.49-3.474-.256-.175-1.018a1.692,1.692,0,0,0-1.169-1.333l-8.17-2.523-7.35-5.462L351.6,185.8l-6.612-8.539a1.692,1.692,0,0,0-1.238-.653c-.032,0-.067,0-.1,0" fill="#b7b6af"/>
            <path id="패스_1706" data-name="패스 1706" d="M235.739,361.949l-.053-1.141-2.834.881.275,1.267,1.045.735Z" fill="#f4f3ec"/>
            <path id="패스_1707" data-name="패스 1707" d="M235.686,360.808l.053,1.141-1.567,1.742-1.045-.735-.275-1.267Zm0-1.692a1.7,1.7,0,0,0-.5.076l-2.834.881a1.693,1.693,0,0,0-1.152,1.975l.274,1.266a1.7,1.7,0,0,0,.681,1.026l1.046.735a1.694,1.694,0,0,0,2.233-.253L237,363.079a1.693,1.693,0,0,0,.432-1.209l-.054-1.141a1.692,1.692,0,0,0-1.69-1.613" fill="#b7b6af"/>
            <path id="패스_1708" data-name="패스 1708" d="M189.242,322.371l-.1.411.586-.2Z" fill="#f4f3ec"/>
            <path id="패스_1709" data-name="패스 1709" d="M189.242,322.371l.487.213-.586.2Zm0-1.693a1.693,1.693,0,0,0-1.646,1.3l-.1.411a1.693,1.693,0,0,0,2.187,2l.588-.2a1.692,1.692,0,0,0,.135-3.153l-.488-.214a1.694,1.694,0,0,0-.677-.141" fill="#b7b6af"/>
            <path id="패스_1710" data-name="패스 1710" d="M188.044,321.89l.329.53.252-.3Z" fill="#f4f3ec"/>
            <path id="패스_1711" data-name="패스 1711" d="M188.044,321.89l.581.229-.252.3Zm0-1.692a1.692,1.692,0,0,0-1.438,2.584l.329.53a1.689,1.689,0,0,0,1.32.8c.038,0,.078,0,.118,0a1.7,1.7,0,0,0,1.3-.609l.251-.3a1.692,1.692,0,0,0-.68-2.657l-.579-.229a1.711,1.711,0,0,0-.622-.118" fill="#b7b6af"/>
            <path id="패스_1712" data-name="패스 1712" d="M338.076,41.853c-.93.465-1.629,2.327-1.629,2.327l1.4,10.933,5.584,6.747,2.325,3.024-1.059,3.49-2.2,3.024-.464,6.281,2.662,7.213-2.312,7.56.931,1.63.462,2.907-1.393,3.955-1.048,4.3-3.257,1.4,1.163,7.211,1.742,5.584,2.564,1.861-.233,5.467-3.958,4.42.816,4.187,2.093,3.606L341.1,144.1l-2.444,5.7.237,5.118.227,5.467,2.622,3.662,4.01-1.743,1.4-6.63,4.013-6.8,3.489.7v3.314l5.237-.522,1.4,4.884,2.792,1.573,1.045-6.108-3.139-4.711-4.012-1.744-.175-6.458-3.841-4.536-3.17-3.664v-8.2l3.868-6.805.7-5.584,1.394-2.267.176-5.583,3.315-1.746,5.934-.523,4.885,1.92,3.836,4.012,1.919-.522-.87-8.375-6.282-8.55-.174-6.631-2.27-6.454-1.568-12.913-5.235-8.9L357.793,52.2l1.219-10.819,2.442-1.567.526-11.866-4.362-8.285-3.143-7.94,2.155-2.616V5.794L352.941,3.7h-7.42V6.492l5.349,3.49,2.071,5.815-3.71.931v2.939l-1.849,4.5-3.257-4.5-6.049,2.179v4.422l2.094,3.488-.7,7.445s-.465,4.184-1.4,4.652" fill="#f4f3ec"/>
            <path id="패스_1713" data-name="패스 1713" d="M352.941,3.7l3.688,2.094V9.111l-2.155,2.616,3.143,7.94,4.363,8.285-.527,11.866-2.441,1.567L357.793,52.2l2.616,2.271,5.235,8.9,1.568,12.913,2.269,6.454.175,6.631,6.282,8.55.869,8.375-1.918.522-3.836-4.012-4.885-1.92-5.934.523-3.316,1.747-.175,5.582L355.349,111l-.7,5.584-3.867,6.805v8.2l3.17,3.664,3.841,4.536.175,6.458,4.012,1.744,3.138,4.711-1.044,6.108-2.793-1.573-1.4-4.884-5.237.522v-3.314l-3.488-.7-4.013,6.8-1.4,6.63-4.011,1.743-2.621-3.662-.228-5.467-.237-5.118,2.445-5.7,1.163-5.118-2.094-3.606-.816-4.187,3.958-4.42.233-5.467-2.563-1.861-1.742-5.583-1.163-7.212,3.257-1.4,1.048-4.3,1.393-3.955-.463-2.907-.93-1.63,2.312-7.56-2.662-7.213.463-6.281,2.2-3.024,1.059-3.49-2.326-3.024-5.584-6.747-1.4-10.933s.7-1.862,1.629-2.327,1.4-4.652,1.4-4.652l.7-7.445-2.093-3.488V21.846l6.048-2.179,3.257,4.5,1.85-4.5V16.728l3.71-.931L350.87,9.982l-5.349-3.49V3.7Zm0-1.692h-7.42A1.693,1.693,0,0,0,343.828,3.7V6.492a1.69,1.69,0,0,0,.769,1.417l4.87,3.178,1.254,3.523-1.9.477a1.691,1.691,0,0,0-1.281,1.641v2.6l-.569,1.383-1.473-2.04a1.693,1.693,0,0,0-1.945-.6L337.5,20.254a1.692,1.692,0,0,0-1.118,1.592v4.422a1.684,1.684,0,0,0,.241.871l1.808,3.012-.648,6.891a14.656,14.656,0,0,1-.751,3.46,6.791,6.791,0,0,0-2.173,3.083,1.715,1.715,0,0,0-.094.81l1.4,10.933a1.7,1.7,0,0,0,.374.865l5.585,6.746,1.756,2.287-.723,2.383L341.127,70.4a1.69,1.69,0,0,0-.32.87l-.464,6.282a1.716,1.716,0,0,0,.1.71l2.466,6.677-2.145,7.015a1.687,1.687,0,0,0,.148,1.334l.777,1.362.347,2.178-1.25,3.551a1.5,1.5,0,0,0-.048.162l-.848,3.481-2.481,1.064a1.688,1.688,0,0,0-1,1.824l1.163,7.212a1.907,1.907,0,0,0,.054.235l1.742,5.583a1.7,1.7,0,0,0,.621.865l1.828,1.328-.169,3.953-3.553,3.969a1.689,1.689,0,0,0-.4,1.453l.816,4.187a1.677,1.677,0,0,0,.2.526l1.758,3.031-.981,4.318-2.384,5.558a1.7,1.7,0,0,0-.135.746l.236,5.118.229,5.458a1.685,1.685,0,0,0,.314.915l2.62,3.662a1.694,1.694,0,0,0,2.051.567l4.011-1.743a1.692,1.692,0,0,0,.982-1.2l1.338-6.358,3.261-5.53.95.19v1.926a1.694,1.694,0,0,0,1.692,1.693,1.6,1.6,0,0,0,.169-.009l3.829-.382,1.006,3.525a1.7,1.7,0,0,0,.8,1.01l2.794,1.573a1.692,1.692,0,0,0,2.5-1.19l1.044-6.108a1.687,1.687,0,0,0-.26-1.224l-3.138-4.71a1.683,1.683,0,0,0-.733-.613l-3.025-1.315-.145-5.383a1.7,1.7,0,0,0-.4-1.047l-3.842-4.535-2.767-3.2V123.84l3.645-6.416a1.674,1.674,0,0,0,.209-.626l.652-5.22,1.2-1.955a1.683,1.683,0,0,0,.251-.833l.144-4.6,2.142-1.128,5.2-.458,4.168,1.637,3.578,3.743a1.7,1.7,0,0,0,1.668.464l1.918-.522a1.694,1.694,0,0,0,1.24-1.808l-.869-8.374a1.683,1.683,0,0,0-.321-.828l-5.967-8.123-.161-6.1a1.689,1.689,0,0,0-.1-.517L368.87,75.9l-1.547-12.73a1.67,1.67,0,0,0-.221-.655l-5.236-8.9a1.713,1.713,0,0,0-.348-.42l-1.944-1.687,1.03-9.134,1.762-1.133a1.688,1.688,0,0,0,.777-1.349l.527-11.866a1.685,1.685,0,0,0-.192-.864l-4.321-8.2-2.741-6.928,1.519-1.845a1.7,1.7,0,0,0,.386-1.076V5.794a1.689,1.689,0,0,0-.858-1.471l-3.688-2.094a1.683,1.683,0,0,0-.834-.221" fill="#b7b6af"/>
            <path id="패스_1714" data-name="패스 1714" d="M294.088,308.832l3.646-3.657-1.617-.976.4-2.8-1.258-.451-2.718,3.063,1.421,2.25-2.321,2.826Z" fill="#f4f3ec"/>
            <path id="패스_1715" data-name="패스 1715" d="M295.259,300.952l1.257.45-.4,2.8,1.617.977-3.646,3.656-2.447.26,2.321-2.826-1.421-2.25Zm0-1.692a1.7,1.7,0,0,0-1.266.568l-2.718,3.063a1.693,1.693,0,0,0-.165,2.026l.768,1.219-1.545,1.881a1.692,1.692,0,0,0,1.308,2.766,1.779,1.779,0,0,0,.178-.009l2.447-.259a1.69,1.69,0,0,0,1.019-.489l3.648-3.657a1.692,1.692,0,0,0-.324-2.643l-.658-.4.242-1.686a1.7,1.7,0,0,0-1.106-1.833l-1.258-.45a1.676,1.676,0,0,0-.57-.1" fill="#b7b6af"/>
            <path id="패스_1716" data-name="패스 1716" d="M335.39,184.535l-1.052-1.976-1.62,1.711,1.216,1.216Z" fill="#f4f3ec"/>
            <path id="패스_1717" data-name="패스 1717" d="M334.338,182.559l1.052,1.976-1.455.951-1.217-1.216Zm0-1.692a1.694,1.694,0,0,0-1.229.529l-1.62,1.71a1.692,1.692,0,0,0,.033,2.36l1.217,1.216a1.691,1.691,0,0,0,2.121.221l1.456-.951a1.694,1.694,0,0,0,.569-2.213l-1.052-1.975a1.692,1.692,0,0,0-1.495-.9" fill="#b7b6af"/>
            <path id="패스_1718" data-name="패스 1718" d="M19.349,144.861l-2.026,3.548H7.634a.98.98,0,0,0-.156.011l-5.771.888m-.32,1.662a1.63,1.63,0,0,0,.32.031,1.725,1.725,0,0,0,.258-.02l5.712-.879h9.646a1.691,1.691,0,0,0,1.47-.853l2.026-3.548a1.693,1.693,0,0,0-.368-2.125" fill="#b7b6af"/>
            <path id="패스_1719" data-name="패스 1719" d="M203.849,370.057l1.64.2,1.414-.951-2.3-.632Z" fill="#f4f3ec"/>
            <path id="패스_1720" data-name="패스 1720" d="M204.6,368.673l2.3.632-1.414.951-1.64-.2Zm0-1.693a1.689,1.689,0,0,0-1.487.886l-.75,1.385a1.689,1.689,0,0,0,1.283,2.486l1.639.2a1.563,1.563,0,0,0,.2.013,1.689,1.689,0,0,0,.944-.288l1.414-.95a1.691,1.691,0,0,0-.5-3.036l-2.3-.634a1.73,1.73,0,0,0-.448-.06" fill="#b7b6af"/>
            <path id="패스_1721" data-name="패스 1721" d="M173.282,316.391l.39-2.388h-1.908l-.454,2.388Z" fill="#f4f3ec"/>
            <path id="패스_1722" data-name="패스 1722" d="M173.672,314h.008m-.008,0-.39,2.388H171.31l.454-2.388h1.908m.008-1.692h-1.916a1.691,1.691,0,0,0-1.662,1.376l-.454,2.388a1.691,1.691,0,0,0,1.662,2.008h1.972a1.693,1.693,0,0,0,1.671-1.419l.37-2.269a1.744,1.744,0,0,0,.044-.392,1.687,1.687,0,0,0-1.687-1.692" fill="#b7b6af"/>
            <path id="패스_1723" data-name="패스 1723" d="M217.06,364.36l-1.476-.08-.13,1.419,3.123-.924Z" fill="#f4f3ec"/>
            <path id="패스_1724" data-name="패스 1724" d="M215.585,364.279l1.475.081,1.517.415-3.123.923Zm0-1.692a1.694,1.694,0,0,0-1.684,1.537l-.131,1.419a1.693,1.693,0,0,0,1.686,1.847,1.715,1.715,0,0,0,.48-.069l3.123-.923a1.692,1.692,0,0,0-.032-3.255l-1.517-.415a1.6,1.6,0,0,0-.357-.058l-1.474-.08c-.031,0-.062,0-.094,0" fill="#b7b6af"/>
            <path id="패스_1725" data-name="패스 1725" d="M207.472,367.166l1.983-.977-2.17-2.161-.851,1.1.764.664Z" fill="#f4f3ec"/>
            <path id="패스_1726" data-name="패스 1726" d="M207.285,364.028l2.171,2.162-1.984.976-.274-1.376-.764-.664Zm0-1.692c-.037,0-.072,0-.109,0a1.693,1.693,0,0,0-1.228.652l-.851,1.1a1.694,1.694,0,0,0,.226,2.315l.328.284.161.809a1.691,1.691,0,0,0,2.406,1.188l1.984-.977a1.691,1.691,0,0,0,.448-2.717l-2.17-2.162a1.7,1.7,0,0,0-1.195-.493" fill="#b7b6af"/>
            <path id="패스_1727" data-name="패스 1727" d="M164.308,434.413l-1.408-1.495-1.4.725,1.542,2.184Z" fill="#f4f3ec"/>
            <path id="패스_1728" data-name="패스 1728" d="M162.9,432.918l1.408,1.495-1.269,1.415-1.542-2.185Zm0-1.692a1.7,1.7,0,0,0-.776.188l-1.4.726a1.692,1.692,0,0,0-.606,2.479l1.542,2.185a1.7,1.7,0,0,0,1.284.713q.05,0,.1,0a1.689,1.689,0,0,0,1.259-.562l1.269-1.415a1.689,1.689,0,0,0-.028-2.29l-1.407-1.495a1.691,1.691,0,0,0-1.232-.532" fill="#b7b6af"/>
            <path id="패스_1729" data-name="패스 1729" d="M115.108,376.505l-4.8,1.827-2.287,2.975,2.745,2.056,5.718-1.37,3.657-2.058,1.371-1.827-1.371-1.6Z" fill="#f4f3ec"/>
            <path id="패스_1730" data-name="패스 1730" d="M120.138,376.505l1.372,1.6-1.372,1.826-3.657,2.059-5.718,1.369-2.745-2.055,2.287-2.975,4.8-1.827Zm0-1.692h-5.03a1.688,1.688,0,0,0-.6.11l-4.8,1.827a1.7,1.7,0,0,0-.741.551l-2.287,2.975a1.694,1.694,0,0,0,.327,2.385l2.745,2.056a1.7,1.7,0,0,0,1.014.338,1.714,1.714,0,0,0,.4-.047l5.717-1.368a1.723,1.723,0,0,0,.435-.172l3.657-2.059a1.7,1.7,0,0,0,.524-.458l1.371-1.827a1.691,1.691,0,0,0-.067-2.117l-1.372-1.6a1.693,1.693,0,0,0-1.286-.592" fill="#b7b6af"/>
            <path id="패스_1731" data-name="패스 1731" d="M1.593,89.456l8.028-1.918L9.182,82.3,5.956,79.424,22.007,56.395l8.9-6.633.527-8.377L25.41,38.074l-5.321.436-1.918-2.881L32.126,22.894H45.649l10.3-4.8H70.075l18.932,7.763,7.939-2.092,15.7,11.426,4.887,16.141,6.28,3.489.737,10.644,6.071,9.681v6.108l2.616,3.141v7.24L149.027,97.4l4.8,4.536,9.688-2.879,6.891,8.463,5.057.871,3.229,8.2-.435,8.113,2.788,5.671,19.717.262,11.778-7.677,4.275,1.135,13.958-6.37,5.237,4.362v5.5l3.488,6.631-10.03,6.543.083,5.844-11.863,25.563-3.836,2.528,1.22,8.462-17.883-4.972-11.429,4.45-2.446,4.448,4.275,9.16-1.482,5.758v5.933l2.967,5.32-8.9,7.591.962,5.409L191.686,215.6l5.584-6.8,2.357,1.658-.263,6.63,10.469-.524,4.539,5.322,9.594-4.449,13.363-9.77,7.75-2.443,7.852-9.771,9.771-13.644,11.514-8.167,10.819-11.864.869-6.106,11.342-18.145,16.575-20.241,5.762-15.354,1.742-9.77-3.141-2.269,4.191-1.745v-7.5l-3.318-2.969,1.918-2.79v-3.84l2.792-1.919,2.791-10.119,6.3-7.329V43.306l-4.9-2.789,2.791-3.142-.172-3.14-3.141-2.094,4.012-3.49,1.412-3.315L318.184,14.518l-6.629-9.77h-7.677l-1.747,2.965L295.5,4.748l-1.746,1.919L292.536,17.31l-4.71,2.357,3.528-7.243-1.086-1.393-8.2,6.279-8.55.523,5.061-5.932-2.269-1.919,1.747-4.362-5.412-.872-5.931,11.689-.351-16.4" fill="#e8e9ea"/>
            <path id="패스_1732" data-name="패스 1732" d="M1.708,148.495l5.771-.888a.976.976,0,0,1,.155-.011h9.691l2.026-3.548" fill="#e8e9ea"/>
            <path id="패스_1733" data-name="패스 1733" d="M1.115,284.123s4.916-2.285,5.26-2.627.8-3.662.8-3.662l4.688-5.6,3.2-2.746,5.259-.11,5.374-4.005,5.834-5.827,4.687-5.492,4.573-.115,5.946.8,5.83,3.543-.667,3.889L49.363,267.2l-3.887,1.6-3.313,2.4-.572,2.285L37.929,276.8l2.975,1.144,6.518.686-4.573,4-6.293,6.06,6.632.343.688-2.284,3.889-1.149,4.134-2.512,4.668-5.145,6.06-2.4,8.344-3.089,7.547.343,1.5-.782,1.73-5.484a.708.708,0,0,1,.413-.439l3.559-1.331,8.145-6.559a.62.62,0,0,1,.283-.137l5.914-1.316,2.971-4.134a.694.694,0,0,1,.557-.282h4.755l6.987-9.826v-5.269a.677.677,0,0,1,.215-.5l3.66-3.429a.685.685,0,0,1,.942,0l8.55,8.1,9.577,2.036-1.175-7.238-3.029-2.813a.684.684,0,0,1,.466-1.184h16.536l5.061-8.362a.688.688,0,0,1,.584-.331h3.619l2.353-7.282L164.063,211a.693.693,0,0,1,.473-.486.686.686,0,0,1,.656.154l5.718,5.261a.693.693,0,0,1,.2.345l.793,3.379,5.885.211a.659.659,0,0,1,.16.026l.365.1,2.423-2.419,5.139-4.458-1.916-4.461v-7.2l1.574-5.145-5.141-10.291,3.567-4.8,12.549-5.488,16.126,4.459-.688-6.519,3.772-2.057,2.4-5.146,4.114-8.231,5.7-12.006v-6.516l9.388-5.832-2.741-5.831v-5.488l-3.777-3.085-14.4,5.83-3.771-.342-10.977,7.2H179.7l-2.4-7.2V117.08l-2.746-7.889L170.1,108.5l-6.856-7.889-10.293,2.744-3.772-4.115-17.151-6.519V85.18l-2.4-3.77V75.921L122.769,65.63V55.684L116.6,52.253l-1.717-5.832-3.433-9.947L96.356,25.5,88.7,27.557l-18.07-7.89h-14.4l-10.974,4.8H32.9l-12,10.978,1.024,1.714h4.115L32.9,40.935v9.26l-9.6,7.2L8.2,79.009l2.747,3.084v6.518L3.4,90.669" fill="#e8e9ea"/>
            <path id="패스_1734" data-name="패스 1734" d="M1.573,513.934l.116-2.174.224-3.772,2.975,1.942,2.517-1.256v-2.059l.686-2.056,2.743,1.03.572,2.627,3.543-3.888-1.484-1.371L10.15,504.1v-2.974l2.857-1.6.572-2.628-2.4-1.374-.114-2.169,2.631-.916L10.6,485.808l3.547,3.085,3.315-1.259.8-2.627,3.315-5.832,6.518-5.716.113-3.2,1.942-1.367-2.4-4.92,2.747,2.174,1.139-3.432L35.76,459.4l3.313,1.372,3.2-2.288.911-2.288-5.83-4.458,5.033,1.487,1.255-1.259-1.369-2.97-3.66-1.831,3.547-3.657,5.144-.8.682-1.6s-3.2-.232-3.085-.576a24.033,24.033,0,0,1,1.258-2.056L48.1,436.3l1.03-2.056.915-.228,1.85-1.487-3.109-3.2-.91,2.631.568,2.746H44.791l-3.2-2.974-4.8-3.543-2.4,1.025-2.971,3.319s-4.118-4.116-4.462-4.578,1.488-.682,1.488-.682H31.3l1.945-1.945,6.856-5.259,6.293-.229.458-2.173-2.289-.344-4.462-7.2-9.37-6.746,7.315.343,3.775,1.029,3.543,2.17,3.772-1.254-2.628-2.632-5.488-2.746-.572-2.742-1.715-3.314-2.743-1.373L31.531,390.4v-5.088l-.344-2.627-1.831-3.09V376.85l-3.088-.916-.572-5.488-.683-2.86-4.462-5.259L10.6,357.64l-3.318-1.487-.225-3.772,2.059-3.2,7.888-7.433,4.343-4.23-1.368-2.745,4.573.228,4.916-.342.682-4.23,2.631-3.2,2.289-2.17,5.372-.571,3.773-2.518,3.546-1.831,4.134,1.488,3.867.461-.114-2.746a4.65,4.65,0,0,1,1.944-1.716c1.488-.8-.685-2.4-.685-2.4l-4-2.288.911-2.174-3.084-.458s-5.946,1.03-6.634,1.03H40.56l-2.516-2.17-6.285-3.433-4.69-.229-4.689,4.344s-6.975,6.865-7.2,7.2-2.773,0-2.773,0H6.375l-2.059-6.517a16.4,16.4,0,0,1,1.258-2.284,23.41,23.41,0,0,0,1.145-3.887l-2.861-2.746-3.2-3.432.115,2.4" fill="#e8e9ea"/>
            <path id="패스_1735" data-name="패스 1735" d="M21.336,143.853a1.028,1.028,0,0,1,.222,1.292l-2.742,4.8a1.033,1.033,0,0,1-.892.517H7.711l-5.867.9a1.022,1.022,0,0,1-.353-.007" fill="#e8e9ea"/>
            <g id="그룹_719" data-name="그룹 719" opacity="0.29">
              <g id="그룹_718" data-name="그룹 718">
                <g id="그룹_717" data-name="그룹 717" clip-path="url(#clip-path-4)">
                  <path id="패스_1736" data-name="패스 1736" d="M265.165,227.941s-6.419-17.178-23.035-12.781c-14.219,3.762-17.421,14.883-30.934,29.237s-53.717,87.287-74.247,101.091c-8.641,5.81-23.372,18.34-26.644,32.845-2.882,12.78,16.152,37.28,38,22.648,11.723-7.854,23.094-26.894,31.769-42.5s22.088-47.694,40.455-63.153c13.786-11.6,48.792-52.828,44.641-67.384" fill="#5a4796"/>
                </g>
              </g>
            </g>
            <g id="그룹_722" data-name="그룹 722" opacity="0.2">
              <g id="그룹_721" data-name="그룹 721">
                <g id="그룹_720" data-name="그룹 720" clip-path="url(#clip-path-5)">
                  <path id="패스_1737" data-name="패스 1737" d="M289.534,239.512c1.693-10.972-5.692-53.963-47.35-48.627s-42.146,50.677-54.624,65.5-42.082,59.3-56.933,75.3-35.6,25.558-44.539,53.655,14.754,56.853,48.3,51.107c59.441-10.18,71.974-69.48,82.624-87.265s38.891-54.546,52.3-70.8,18.525-27.9,20.218-38.868" fill="#5a4796"/>
                </g>
              </g>
            </g>
          </g>
        </g>
        <text id="울릉도" transform="translate(157.194 308.189)" fill="#464749" font-size="7" font-family="SpoqaHanSansNeo-Medium, Spoqa Han Sans Neo" font-weight="500"><tspan x="0" y="0">울릉도</tspan></text>
        <text id="서울" transform="translate(120.78 310.878)" fill="#464749" font-size="7" font-family="SpoqaHanSansNeo-Medium, Spoqa Han Sans Neo" font-weight="500"><tspan x="0" y="0">서울</tspan></text>
        <text id="독도" transform="translate(192.719 324.507)" fill="#464749" font-size="7" font-family="SpoqaHanSansNeo-Medium, Spoqa Han Sans Neo" font-weight="500"><tspan x="0" y="0">독도</tspan></text>
        <text id="LOW" transform="translate(272.568 177.458)" fill="#7c0b14" font-size="7" font-family="SpoqaHanSansNeo-Bold, Spoqa Han Sans Neo" font-weight="700"><tspan x="0" y="0" letter-spacing="-0.039em">L</tspan><tspan y="0">OW</tspan></text>
        <g id="그룹_729" data-name="그룹 729">
          <g id="그룹_728" data-name="그룹 728" clip-path="url(#clip-path-2)">
            <path id="패스_1738" data-name="패스 1738" d="M133.694,376.505l-10.491,15.4-8.843,19.342-5.166,18.608-1.176,16.634L111.094,480l5.768,75.847" fill="none" stroke="#1a1818" stroke-miterlimit="10" stroke-width="0.7"/>
            <path id="패스_1739" data-name="패스 1739" d="M126.184,389.409a3.921,3.921,0,0,0-5.018-.857,5.255,5.255,0,0,1,.564-2.673,8.057,8.057,0,0,0-2.04,2.43,5.8,5.8,0,0,0-.066,5.277h0a3.918,3.918,0,0,0,5.538,1.71,5.355,5.355,0,0,1-.558,2.822,8.058,8.058,0,0,0,2.04-2.43,5.811,5.811,0,0,0,.373-4.535,3.892,3.892,0,0,0-.834-1.744" fill="#1a1818"/>
            <path id="패스_1740" data-name="패스 1740" d="M124.26,393.223a1.64,1.64,0,1,1,.209-2.31,1.641,1.641,0,0,1-.209,2.31" fill="#fff"/>
            <line id="선_9" data-name="선 9" y1="0.149" x2="0.133" transform="translate(134.391 375.961)" fill="none" stroke="#1a1818" stroke-linecap="round" stroke-miterlimit="10" stroke-width="1.3"/>
            <path id="패스_1741" data-name="패스 1741" d="M137.834,372.251l19.689-22.07,23.913-41.116,42.37-54.915L266.1,190.363" fill="none" stroke="#1a1818" stroke-linecap="round" stroke-miterlimit="10" stroke-width="1.3" stroke-dasharray="0.398 4.972"/>
            <line id="선_10" data-name="선 10" y1="0.167" x2="0.111" transform="translate(267.474 188.124)" fill="none" stroke="#1a1818" stroke-linecap="round" stroke-miterlimit="10" stroke-width="1.3"/>
            <g id="그룹_727" data-name="그룹 727" opacity="0.7" style="mix-blend-mode: multiply;isolation: isolate">
              <g id="그룹_726" data-name="그룹 726">
                <g id="그룹_725" data-name="그룹 725" clip-path="url(#clip-path-7)">
                  <path id="패스_1742" data-name="패스 1742" d="M282.756,358.306H197.17l-4.746-7.419,4.746-8.278h85.586Z" fill="#1a1818"/>
                </g>
              </g>
            </g>
          </g>
        </g>
        <text id="_09월_06일_06시" data-name="09월 06일 06시" transform="translate(202.683 353.604)" fill="#fff" font-size="7.441" font-family="SpoqaHanSansNeo-Medium, Spoqa Han Sans Neo" font-weight="500"><tspan x="0" y="0">0</tspan><tspan y="0" letter-spacing="-0.001em">9</tspan><tspan y="0">월 </tspan><tspan y="0" letter-spacing="-0.001em">0</tspan><tspan y="0">6</tspan><tspan y="0" letter-spacing="-0.001em">일</tspan><tspan y="0"> </tspan><tspan y="0" letter-spacing="-0.001em">0</tspan><tspan y="0">6시</tspan></text>
        <text id="_" data-name=" " transform="translate(253.079 353.604)" fill="#e50019" font-size="7.441" font-family="SpoqaHanSansNeo-Medium, Spoqa Han Sans Neo" font-weight="500"><tspan x="0" y="0"> </tspan></text>
        <text id="태풍" transform="translate(254.738 353.604)" fill="#dc4e53" font-size="7.441" font-family="SpoqaHanSansNeo-Bold, Spoqa Han Sans Neo" font-weight="700"><tspan x="0" y="0" letter-spacing="-0.002em">태</tspan><tspan y="0">풍</tspan></text>
        <text id="_강" data-name=" 강" transform="translate(268.407 353.604)" fill="#fff" font-size="7.441" font-family="SpoqaHanSansNeo-Medium, Spoqa Han Sans Neo" font-weight="500"><tspan x="0" y="0" xml:space="preserve"> 강</tspan></text>
        <g id="그룹_734" data-name="그룹 734">
          <g id="그룹_733" data-name="그룹 733" clip-path="url(#clip-path-2)">
            <line id="선_11" data-name="선 11" x1="36.556" transform="translate(155.868 350.887)" fill="none" stroke="#313133" stroke-miterlimit="10" stroke-width="0.5"/>
            <g id="그룹_732" data-name="그룹 732" opacity="0.7" style="mix-blend-mode: multiply;isolation: isolate">
              <g id="그룹_731" data-name="그룹 731">
                <g id="그룹_730" data-name="그룹 730" clip-path="url(#clip-path-9)">
                  <path id="패스_1743" data-name="패스 1743" d="M308.875,316.265H223.289l-4.746-7.419,4.746-8.278h85.586Z" fill="#1a1818"/>
                </g>
              </g>
            </g>
          </g>
        </g>
        <text id="_09월_06일_12시" data-name="09월 06일 12시" transform="translate(228.802 311.563)" fill="#fff" font-size="7.441" font-family="SpoqaHanSansNeo-Medium, Spoqa Han Sans Neo" font-weight="500"><tspan x="0" y="0">0</tspan><tspan y="0" letter-spacing="-0.001em">9</tspan><tspan y="0">월</tspan><tspan y="0" letter-spacing="-0.001em"> </tspan><tspan y="0">0</tspan><tspan y="0" letter-spacing="-0.001em">6일 </tspan><tspan y="0" letter-spacing="-0.002em">12</tspan><tspan y="0">시</tspan></text>
        <text id="_2" data-name=" " transform="translate(279.171 311.563)" fill="#e50019" font-size="7.441" font-family="SpoqaHanSansNeo-Medium, Spoqa Han Sans Neo" font-weight="500"><tspan x="0" y="0"> </tspan></text>
        <text id="태풍-2" data-name="태풍" transform="translate(280.828 311.563)" fill="#dc4e53" font-size="7.441" font-family="SpoqaHanSansNeo-Bold, Spoqa Han Sans Neo" font-weight="700"><tspan x="0" y="0" letter-spacing="-0.002em">태</tspan><tspan y="0">풍</tspan></text>
        <text id="_강-2" data-name=" 강" transform="translate(294.497 311.563)" fill="#fff" font-size="7.441" font-family="SpoqaHanSansNeo-Medium, Spoqa Han Sans Neo" font-weight="500"><tspan x="0" y="0" xml:space="preserve"> 강</tspan></text>
        <g id="그룹_739" data-name="그룹 739">
          <g id="그룹_738" data-name="그룹 738" clip-path="url(#clip-path-2)">
            <line id="선_12" data-name="선 12" x1="36.556" transform="translate(181.988 308.846)" fill="none" stroke="#313133" stroke-miterlimit="10" stroke-width="0.5"/>
            <g id="그룹_737" data-name="그룹 737" opacity="0.7" style="mix-blend-mode: multiply;isolation: isolate">
              <g id="그룹_736" data-name="그룹 736">
                <g id="그룹_735" data-name="그룹 735" clip-path="url(#clip-path-11)">
                  <path id="패스_1744" data-name="패스 1744" d="M352.341,261.246H266.755l-4.746-7.419,4.746-8.278h85.586Z" fill="#1a1818"/>
                </g>
              </g>
            </g>
          </g>
        </g>
        <text id="_09월_06일_18시" data-name="09월 06일 18시" transform="translate(272.269 256.543)" fill="#fff" font-size="7.441" font-family="SpoqaHanSansNeo-Medium, Spoqa Han Sans Neo" font-weight="500"><tspan x="0" y="0" letter-spacing="-0.001em">0</tspan><tspan y="0">9</tspan><tspan y="0" letter-spacing="-0.001em">월</tspan><tspan y="0"> </tspan><tspan y="0" letter-spacing="-0.001em">06일 </tspan><tspan y="0" letter-spacing="-0.002em">18</tspan><tspan y="0">시</tspan></text>
        <text id="_3" data-name=" " transform="translate(322.638 256.543)" fill="#e50019" font-size="7.441" font-family="SpoqaHanSansNeo-Medium, Spoqa Han Sans Neo" font-weight="500"><tspan x="0" y="0"> </tspan></text>
        <text id="태풍-3" data-name="태풍" transform="translate(324.295 256.543)" fill="#dc4e53" font-size="7.441" font-family="SpoqaHanSansNeo-Bold, Spoqa Han Sans Neo" font-weight="700"><tspan x="0" y="0" letter-spacing="-0.002em">태</tspan><tspan y="0">풍</tspan></text>
        <text id="_강-3" data-name=" 강" transform="translate(337.964 256.543)" fill="#fff" font-size="7.441" font-family="SpoqaHanSansNeo-Medium, Spoqa Han Sans Neo" font-weight="500"><tspan x="0" y="0" xml:space="preserve"> 강</tspan></text>
        <g id="그룹_744" data-name="그룹 744">
          <g id="그룹_743" data-name="그룹 743" clip-path="url(#clip-path-2)">
            <line id="선_13" data-name="선 13" x1="36.556" transform="translate(225.454 253.826)" fill="none" stroke="#313133" stroke-miterlimit="10" stroke-width="0.5"/>
            <g id="그룹_742" data-name="그룹 742" opacity="0.7" style="mix-blend-mode: multiply;isolation: isolate">
              <g id="그룹_741" data-name="그룹 741">
                <g id="그룹_740" data-name="그룹 740" clip-path="url(#clip-path-13)">
                  <path id="패스_1745" data-name="패스 1745" d="M395.477,191.35h-98.31l-4.746-7.419,4.746-8.278h98.31Z" fill="#1a1818"/>
                </g>
              </g>
            </g>
          </g>
        </g>
        <text id="_09월_07일_00시_온대저기압" data-name="09월 07일 00시 온대저기압" transform="translate(302.682 186.646)" fill="#fff" font-size="7.441" font-family="SpoqaHanSansNeo-Medium, Spoqa Han Sans Neo" font-weight="500"><tspan x="0" y="0" letter-spacing="-0.001em">0</tspan><tspan y="0">9</tspan><tspan y="0" letter-spacing="-0.001em">월</tspan><tspan y="0" xml:space="preserve"> 0</tspan><tspan y="0" letter-spacing="-0.001em">7일</tspan><tspan y="0"> </tspan><tspan y="0" letter-spacing="-0.001em">0</tspan><tspan y="0">0</tspan><tspan y="0" letter-spacing="-0.001em">시</tspan><tspan y="0"> </tspan><tspan y="0" letter-spacing="-0.001em">온</tspan><tspan y="0" letter-spacing="-0.002em">대저기</tspan><tspan y="0">압</tspan></text>
        <g id="그룹_746" data-name="그룹 746">
          <g id="그룹_745" data-name="그룹 745" clip-path="url(#clip-path-2)">
            <line id="선_14" data-name="선 14" x1="21.912" transform="translate(270.509 183.93)" fill="none" stroke="#313133" stroke-miterlimit="10" stroke-width="0.5"/>
            <path id="패스_1746" data-name="패스 1746" d="M161.346,349.671a3.92,3.92,0,0,0-4.041-3.1,5.248,5.248,0,0,1,1.743-2.1,8.07,8.07,0,0,0-2.937,1.2,5.8,5.8,0,0,0-2.515,4.64,3.922,3.922,0,0,0,4.105,4.093,5.363,5.363,0,0,1-1.808,2.236,8.07,8.07,0,0,0,2.937-1.2,5.806,5.806,0,0,0,2.442-3.839,3.907,3.907,0,0,0,.074-1.932" fill="#e71618"/>
            <path id="패스_1747" data-name="패스 1747" d="M157.868,352.15a1.64,1.64,0,1,1,1.261-1.947,1.64,1.64,0,0,1-1.261,1.947" fill="#fff"/>
            <path id="패스_1748" data-name="패스 1748" d="M185.061,307.554a3.921,3.921,0,0,0-4.506-2.369,5.249,5.249,0,0,1,1.364-2.366,8.059,8.059,0,0,0-2.692,1.678,5.8,5.8,0,0,0-1.7,5h0a3.922,3.922,0,0,0,4.736,3.341,5.359,5.359,0,0,1-1.4,2.51,8.073,8.073,0,0,0,2.692-1.679,5.808,5.808,0,0,0,1.759-4.2,3.9,3.9,0,0,0-.253-1.917" fill="#e71618"/>
            <path id="패스_1749" data-name="패스 1749" d="M182.051,310.585a1.64,1.64,0,1,1,.914-2.132,1.64,1.64,0,0,1-.914,2.132" fill="#fff"/>
            <path id="패스_1750" data-name="패스 1750" d="M227.577,253.064a3.922,3.922,0,0,0-4.205-2.869A5.247,5.247,0,0,1,225,248a8.056,8.056,0,0,0-2.866,1.359,5.8,5.8,0,0,0-2.257,4.771,3.924,3.924,0,0,0,4.323,3.861,5.34,5.34,0,0,1-1.682,2.332,8.064,8.064,0,0,0,2.867-1.359A5.811,5.811,0,0,0,227.609,255a3.9,3.9,0,0,0-.032-1.933" fill="#e71618"/>
            <path id="패스_1751" data-name="패스 1751" d="M224.24,255.731a1.64,1.64,0,1,1,1.152-2.013,1.639,1.639,0,0,1-1.152,2.013" fill="#fff"/>
            <path id="패스_1752" data-name="패스 1752" d="M116.829,408.714a3.92,3.92,0,0,0-5.011-.9,5.255,5.255,0,0,1,.584-2.668,8.065,8.065,0,0,0-2.058,2.414,5.794,5.794,0,0,0-.106,5.277,3.922,3.922,0,0,0,5.525,1.752,5.364,5.364,0,0,1-.58,2.817A8.075,8.075,0,0,0,117.242,415a5.812,5.812,0,0,0,.408-4.531,3.907,3.907,0,0,0-.821-1.751" fill="#1a1818"/>
            <path id="패스_1753" data-name="패스 1753" d="M114.876,412.513a1.64,1.64,0,1,1,.227-2.309,1.641,1.641,0,0,1-.227,2.309" fill="#fff"/>
            <path id="패스_1754" data-name="패스 1754" d="M112.42,428.982a3.92,3.92,0,0,0-4.9-1.361,5.258,5.258,0,0,1,.832-2.6,8.057,8.057,0,0,0-2.276,2.21,5.8,5.8,0,0,0-.6,5.243,3.92,3.92,0,0,0,5.336,2.264,5.347,5.347,0,0,1-.841,2.75,8.07,8.07,0,0,0,2.276-2.211,5.811,5.811,0,0,0,.831-4.473,3.9,3.9,0,0,0-.653-1.82" fill="#1a1818"/>
            <path id="패스_1755" data-name="패스 1755" d="M110.119,432.581a1.641,1.641,0,1,1,.443-2.277,1.64,1.64,0,0,1-.443,2.277" fill="#fff"/>
            <path id="패스_1756" data-name="패스 1756" d="M110.3,443.439a3.921,3.921,0,0,0-5.09.059,5.248,5.248,0,0,1,.074-2.73,8.067,8.067,0,0,0-1.57,2.757,5.8,5.8,0,0,0,.884,5.2h0a3.922,3.922,0,0,0,5.755.686,5.355,5.355,0,0,1-.042,2.876,8.048,8.048,0,0,0,1.57-2.757,5.8,5.8,0,0,0-.448-4.528,3.9,3.9,0,0,0-1.134-1.566" fill="#1a1818"/>
            <path id="패스_1757" data-name="패스 1757" d="M109.093,447.537a1.64,1.64,0,1,1-.209-2.31,1.639,1.639,0,0,1,.209,2.31" fill="#fff"/>
            <path id="패스_1758" data-name="패스 1758" d="M113.161,477.473a3.266,3.266,0,0,0-4.242.03,4.372,4.372,0,0,1,.073-2.275,6.711,6.711,0,0,0-1.32,2.291,4.833,4.833,0,0,0,.717,4.339,3.271,3.271,0,0,0,4.794.594,4.463,4.463,0,0,1-.046,2.4,6.718,6.718,0,0,0,1.319-2.291,4.843,4.843,0,0,0-.356-3.775,3.249,3.249,0,0,0-.939-1.309" fill="#1a1818"/>
            <path id="패스_1759" data-name="패스 1759" d="M112.14,480.883a1.367,1.367,0,1,1-.166-1.926,1.367,1.367,0,0,1,.166,1.926" fill="#fff"/>
            <path id="패스_1760" data-name="패스 1760" d="M116.664,510.246a3.267,3.267,0,0,0-2.754-3.226,4.37,4.37,0,0,1,1.787-1.41,6.711,6.711,0,0,0-2.6.466,4.834,4.834,0,0,0-2.859,3.343,3.311,3.311,0,0,0-.105.827,3.266,3.266,0,0,0,2.738,3.223,4.46,4.46,0,0,1-1.863,1.508,6.711,6.711,0,0,0,2.6-.466,4.842,4.842,0,0,0,2.659-2.7,3.253,3.253,0,0,0,.4-1.562" fill="#1a1818"/>
            <path id="패스_1761" data-name="패스 1761" d="M113.4,511.66a1.367,1.367,0,1,1,1.367-1.367,1.367,1.367,0,0,1-1.367,1.367" fill="#fff"/>
          </g>
        </g>
        <text id="성산" transform="translate(114.773 371.55)" fill="#464749" font-size="7" font-family="SpoqaHanSansNeo-Medium, Spoqa Han Sans Neo" font-weight="500"><tspan x="0" y="0">성산</tspan></text>
        <text id="부산" transform="translate(163.809 348.19)" fill="#464749" font-size="7" font-family="SpoqaHanSansNeo-Medium, Spoqa Han Sans Neo" font-weight="500"><tspan x="0" y="0">부산</tspan></text>
        <g id="그룹_751" data-name="그룹 751">
          <g id="그룹_750" data-name="그룹 750" clip-path="url(#clip-path-2)">
            <line id="선_15" data-name="선 15" x1="11.293" y2="4.045" transform="translate(264.668 181.084)" fill="none" stroke="#7c0b14" stroke-miterlimit="10" stroke-width="3"/>
            <line id="선_16" data-name="선 16" x2="4.045" y2="11.293" transform="translate(268.292 177.46)" fill="none" stroke="#7c0b14" stroke-miterlimit="10" stroke-width="3"/>
            <g id="그룹_749" data-name="그룹 749" opacity="0.7" style="mix-blend-mode: multiply;isolation: isolate">
              <g id="그룹_748" data-name="그룹 748">
                <g id="그룹_747" data-name="그룹 747" clip-path="url(#clip-path-16)">
                  <path id="패스_1762" data-name="패스 1762" d="M266.4,384.257H167.243l-4.745-7.419,4.745-8.278H266.4Z" fill="#1a1818"/>
                </g>
              </g>
            </g>
          </g>
        </g>
        <text id="_09월_06일_00시" data-name="09월 06일 00시" transform="translate(172.758 379.556)" fill="#fff" font-size="7.441" font-family="SpoqaHanSansNeo-Medium, Spoqa Han Sans Neo" font-weight="500"><tspan x="0" y="0">0</tspan><tspan y="0" letter-spacing="-0.001em">9</tspan><tspan y="0">월 </tspan><tspan y="0" letter-spacing="-0.001em">0</tspan><tspan y="0">6</tspan><tspan y="0" letter-spacing="-0.001em">일</tspan><tspan y="0"> </tspan><tspan y="0" letter-spacing="-0.001em">0</tspan><tspan y="0">0시</tspan></text>
        <text id="_4" data-name=" " transform="translate(223.154 379.556)" fill="#e50019" font-size="7.441" font-family="SpoqaHanSansNeo-Medium, Spoqa Han Sans Neo" font-weight="500"><tspan x="0" y="0"> </tspan></text>
        <text id="태풍-4" data-name="태풍" transform="translate(224.813 379.556)" fill="#dc4e53" font-size="7.441" font-family="SpoqaHanSansNeo-Bold, Spoqa Han Sans Neo" font-weight="700"><tspan x="0" y="0" letter-spacing="-0.001em">태</tspan><tspan y="0">풍</tspan></text>
        <text id="_매우강" data-name=" 매우강" transform="translate(238.482 379.556)" fill="#fff" font-size="7.441" font-family="SpoqaHanSansNeo-Medium, Spoqa Han Sans Neo" font-weight="500"><tspan x="0" y="0" xml:space="preserve" letter-spacing="-0.001em"> 매우</tspan><tspan y="0">강</tspan></text>
        <g id="그룹_753" data-name="그룹 753">
          <g id="그룹_752" data-name="그룹 752" clip-path="url(#clip-path-2)">
            <line id="선_17" data-name="선 17" x1="28.804" transform="translate(133.694 376.838)" fill="none" stroke="#313133" stroke-miterlimit="10" stroke-width="0.5"/>
            <path id="패스_1763" data-name="패스 1763" d="M137.474,375.046a3.92,3.92,0,0,0-4.18-2.906,5.249,5.249,0,0,1,1.646-2.18,8.061,8.061,0,0,0-2.879,1.333,5.8,5.8,0,0,0-2.3,4.751,3.922,3.922,0,0,0,4.289,3.9,5.356,5.356,0,0,1-1.7,2.318,8.074,8.074,0,0,0,2.879-1.334,5.81,5.81,0,0,0,2.263-3.948,3.908,3.908,0,0,0-.015-1.933" fill="#e71618"/>
            <path id="패스_1764" data-name="패스 1764" d="M134.113,377.683a1.64,1.64,0,1,1,1.17-2,1.641,1.641,0,0,1-1.17,2" fill="#fff"/>
          </g>
        </g>
      </g>
    </g>
  </g>
</svg>
