<svg xmlns="http://www.w3.org/2000/svg" width="88" height="88" viewBox="0 0 88 88">
    <defs>
        <clipPath id="clip-path">
            <path id="패스_2794" data-name="패스 2794" d="M0 33.17h72v-88H0z" transform="translate(0 54.83)" style="fill:none"/>
        </clipPath>
        <clipPath id="clip-path-2">
            <path id="사각형_2120" data-name="사각형 2120" style="fill:#ff2300" d="M0 0h37.536v39.637H0z"/>
        </clipPath>
        <style>
            
        </style>
    </defs>
    <g id="그룹_1296" data-name="그룹 1296" transform="translate(-129 -220)">
        <g id="그룹_1013" data-name="그룹 1013">
            <path id="합치기_6" data-name="합치기 6" d="M-2862.556 3185.7h.333a36.8 36.8 0 0 1-11.777-27.084c0-20.223 16.117-36.615 36-36.615s36 16.393 36 36.615a36.8 36.8 0 0 1-11.777 27.087h.33l-25.271 24.3z" transform="translate(3011.001 -2902)" style="fill:#ececec"/>
            <g id="그룹_1297" data-name="그룹 1297" transform="translate(152.131 241.963)">
                <g id="그룹_1296-2" data-name="그룹 1296" style="clip-path:url(#clip-path-2)">
                    <path id="패스_3999" data-name="패스 3999" d="M37.536 6.7V6.451l-.009-.141c-.006-.094-.02-.187-.032-.279A4.1 4.1 0 0 0 37.186 5a4.669 4.669 0 0 0-.492-.85 5.511 5.511 0 0 0-.581-.674 7.142 7.142 0 0 0-.616-.543 8.226 8.226 0 0 0-.629-.444 10.739 10.739 0 0 0-1.256-.689c-.416-.194-.825-.36-1.229-.505s-.8-.272-1.188-.38a21.62 21.62 0 0 0-2.226-.502 28.126 28.126 0 0 0-1.026-.158A29.429 29.429 0 0 0 24.511 0a28.995 28.995 0 0 0-2.777.088l-.2.017.756.167c.246.056.548.124.9.208s.76.181 1.211.3c.9.232 1.988.531 3.2.94.3.1.612.211.927.328s.637.242.962.377a20.733 20.733 0 0 1 1.976.932c.328.18.655.369.969.577a9.239 9.239 0 0 1 .9.665c.138.119.271.241.394.366a4.307 4.307 0 0 1 .334.381 2.224 2.224 0 0 1 .4.738 1.1 1.1 0 0 1 .041.3V6.5v-.036.044l-.007.088v.022l-.005.006v.012l-.005.017a1.316 1.316 0 0 1-.125.281 2.113 2.113 0 0 1-.228.32 4.256 4.256 0 0 1-.761.678c-.154.111-.32.219-.5.323s-.358.206-.549.3q-.233.119-.478.23l-.131-.061a14.213 14.213 0 0 0-2.128-.756c-.344-.091-.674-.172-1-.239s-.642-.127-.95-.176-.607-.092-.9-.126a24.912 24.912 0 0 0-2.994-.172c-.827 0-1.473.042-1.913.077-.22.017-.388.035-.5.046l-.172.019.655.16c.213.053.475.118.781.2s.657.17 1.047.278c.779.215 1.717.491 2.758.861.26.093.527.191.8.3s.548.217.827.338c.237.1.477.21.717.324l-.333.084c-.471.116-.95.224-1.435.318a42.458 42.458 0 0 1-6.011.715q-1.532.079-3.066.068h-.38c-.127 0-.254 0-.381-.008l-.381-.01c-.127 0-.254-.007-.38-.012a50.31 50.31 0 0 1-1.512-.08 39.591 39.591 0 0 1-5.8-.8c-.458-.1-.909-.214-1.349-.337h-.012a21.026 21.026 0 0 1 1.855-.92 38.936 38.936 0 0 1 1.741-.716l.63-.24h-.173c-.114 0-.284 0-.5.016a18.72 18.72 0 0 0-1.912.181c-.411.061-.867.138-1.362.252-.124.028-.249.06-.378.091s-.259.07-.392.106-.268.079-.406.121-.277.091-.418.142-.286.1-.431.163l-.22.09-.088.018-.149-.059c-.1-.04-.194-.082-.289-.125l-.282-.13a9.671 9.671 0 0 1-.789-.421c-.166-.098-.321-.2-.469-.3s-.283-.212-.409-.321a3.111 3.111 0 0 1-.582-.658 1.64 1.64 0 0 1-.154-.314 1.291 1.291 0 0 1-.045-.154.626.626 0 0 1-.016-.078v-.03.015V6.214c0-.028.007-.056.01-.085a1.813 1.813 0 0 1 .1-.357 2.975 2.975 0 0 1 .444-.746 5.614 5.614 0 0 1 .66-.693 10.777 10.777 0 0 1 1.539-1.128c.264-.162.528-.312.787-.452s.514-.269.761-.391c.5-.242.962-.449 1.389-.629.855-.359 1.547-.611 2.02-.784L10.9.69l-.2.007c-.131.006-.325.013-.578.031a22.35 22.35 0 0 0-3.746.564c-.282.07-.576.147-.879.238q-.227.068-.462.145c-.156.053-.315.108-.476.168-.322.119-.653.254-.99.413a9.752 9.752 0 0 0-1.028.554 7.178 7.178 0 0 0-1.036.772 5.421 5.421 0 0 0-.5.509 4.635 4.635 0 0 0-.454.626A3.974 3.974 0 0 0 .2 5.48c-.022.07-.047.14-.065.213l-.03.107-.025.113c-.017.074-.028.15-.041.226l-.016.133-.011.113L0 6.463v.378a3.68 3.68 0 0 0 .051.471 4.13 4.13 0 0 0 .264.9A4.853 4.853 0 0 0 .745 9a6.1 6.1 0 0 0 .522.681 7.682 7.682 0 0 0 .582.59c.2.182.409.355.622.517q.231.176.469.339a4.688 4.688 0 0 0-.138.208 3.446 3.446 0 0 0-.179.327 1.925 1.925 0 0 0-.078.177c-.024.061-.049.121-.072.184s-.04.129-.059.194l-.028.1-.024.12q-.023.121-.041.244l-.018.138-.009.067v.377a3.361 3.361 0 0 0 .045.43 3.781 3.781 0 0 0 .237.817 4.395 4.395 0 0 0 .381.715 5.5 5.5 0 0 0 .465.614 6.846 6.846 0 0 0 .516.53q.268.244.55.463a10.707 10.707 0 0 0 1.165.78l.143.082c-.02.03-.041.06-.061.092a2.973 2.973 0 0 0-.157.281 1.675 1.675 0 0 0-.069.153c-.022.053-.044.1-.064.159s-.036.112-.053.168l-.025.085q-.012.053-.022.107a5.173 5.173 0 0 0-.038.217l-.017.112-.008.054-.005.148v.189a2.935 2.935 0 0 0 .037.376 3.291 3.291 0 0 0 .2.713 3.79 3.79 0 0 0 .323.62 4.748 4.748 0 0 0 .392.527 5.756 5.756 0 0 0 .431.452c.149.138.3.269.456.392a8.844 8.844 0 0 0 .96.658c.328.2.664.375 1.006.537a14.1 14.1 0 0 0 1.043.447c.353.137.71.262 1.072.375q.335.106.676.2l-.024.053c-.018.041-.036.083-.052.125s-.03.089-.045.134l-.021.068q-.011.044-.02.089a3.64 3.64 0 0 0-.032.182.121.121 0 0 1 0 .013V25.447l-.007.036-.007.036-.006.13v.152a2.363 2.363 0 0 0 .025.3 2.657 2.657 0 0 0 .152.571 3.333 3.333 0 0 0 .536.9 4.288 4.288 0 0 0 .315.345c.108.1.218.2.329.3a6.384 6.384 0 0 0 .68.492 7.988 7.988 0 0 0 .7.4c.119.06.238.118.358.173s.242.106.364.157c.244.1.49.194.739.277q.29.1.585.182c0 .027.006.053.009.08s.008.064.015.094l.022.09.025.09c.008.03.02.055.03.083a2.061 2.061 0 0 0 .325.558 3 3 0 0 0 .384.392 3.849 3.849 0 0 0 .4.3c.068.046.135.085.2.127s.137.077.207.114.139.072.209.1.141.065.211.094.125.053.187.077c.268 2.758 2.652 5.846 6.7 7.547-1.011-2-.91-4.92.55-7.832.111-.06.221-.126.332-.2l.114-.077c.038-.027.076-.057.114-.085s.076-.06.114-.092.075-.062.114-.1a2.54 2.54 0 0 0 .443-.519l.025-.039.025-.044.049-.089a1.83 1.83 0 0 0 .088-.194 1.747 1.747 0 0 0 .068-.215l.014-.055.015-.076c.009-.051.016-.1.021-.155v-.039a.256.256 0 0 0 0-.029v-.177l-.006-.059q-.006-.059-.015-.117a2.324 2.324 0 0 0-.027-.12c.109-.049.218-.1.327-.154a8.216 8.216 0 0 0 .772-.439 6.045 6.045 0 0 0 .764-.58 4.185 4.185 0 0 0 .729-.841 3.325 3.325 0 0 0 .3-.584 2.879 2.879 0 0 0 .178-.709l.005-.047c0-.016 0-.029.005-.052q0-.061.008-.122v-.254l-.009-.094q-.009-.094-.023-.186a3.559 3.559 0 0 0-.039-.179l-.029-.09a.852.852 0 0 0-.026-.085q-.028-.083-.059-.164l-.032-.081c-.011-.026-.023-.05-.035-.075a2.547 2.547 0 0 0-.152-.281l-.082-.128-.021-.031-.021-.029-.043-.056-.087-.11-.022-.027-.022-.024-.045-.048c-.06-.063-.121-.129-.181-.181l-.091-.081-.045-.04-.045-.036c-.057-.044-.113-.089-.17-.131.121-.069.242-.14.362-.215a8.273 8.273 0 0 0 1.053-.773 5.4 5.4 0 0 0 .967-1.084 4.108 4.108 0 0 0 .388-.729 3.506 3.506 0 0 0 .227-.867l.007-.057c0-.019 0-.036.007-.062 0-.048.007-.1.01-.143v-.314l-.008-.114c-.006-.076-.017-.151-.027-.226a3.277 3.277 0 0 0-.253-.83q-.064-.14-.136-.268c.088-.051.175-.1.263-.156a9.889 9.889 0 0 0 1.265-.915 6.312 6.312 0 0 0 1.142-1.262 4.7 4.7 0 0 0 .45-.835 3.966 3.966 0 0 0 .262-.983l.008-.065c0-.022.005-.041.008-.07q.007-.079.011-.158v-.359l-.008-.129c-.006-.086-.019-.171-.03-.256a3.744 3.744 0 0 0-.282-.944 4.1 4.1 0 0 0-.227-.435l.063-.045q.358-.253.7-.547a7.017 7.017 0 0 0 1.277-1.4 5.154 5.154 0 0 0 .5-.917A4.33 4.33 0 0 0 37.5 7.16l.009-.07c0-.024.006-.045.008-.075l.013-.169v-.125zM7.067 14.866c-.082-.035-.161-.072-.241-.108s-.157-.074-.232-.113a6.487 6.487 0 0 1-.84-.486 4.173 4.173 0 0 1-.344-.261 2.655 2.655 0 0 1-.481-.517 1.322 1.322 0 0 1-.127-.234 1 1 0 0 1-.039-.113.433.433 0 0 1-.015-.057v-.021.047-.2a.054.054 0 0 0 0-.023l-.005-.013v-.097c0-.022.009-.045.012-.068a.421.421 0 0 1 .014-.07 1.161 1.161 0 0 1 .043-.146 1.642 1.642 0 0 1 .066-.16q.16.077.322.15a20.196 20.196 0 0 0 1.459.598c.124.046.248.089.372.134l.375.129.378.122.381.117a31.671 31.671 0 0 0 3.124.759q.8.151 1.606.271t1.627.2c.545.058 1.094.1 1.644.136.138.01.275.017.413.025s.276.015.414.02l.414.015c.138.004.275.009.417.012 1.094.029 2.2.013 3.3-.043l.039.011c.34.1.837.241 1.458.435s1.366.439 2.189.759l.109.043a38.825 38.825 0 0 1-4.309.452 45.62 45.62 0 0 1-2.643.06h-.327c-.109 0-.219 0-.329-.006-.219 0-.438-.01-.656-.017a45.602 45.602 0 0 1-1.3-.065 36.684 36.684 0 0 1-4.127-.5l.131-.064c.581-.281 1.056-.486 1.38-.627l.372-.159.128-.056h-.14c-.092 0-.229-.007-.407 0a14.177 14.177 0 0 0-1.55.092c-.334.039-.706.09-1.109.171l-.309.065c-.105.024-.211.051-.321.077l-.2.054c-.189-.052-.376-.1-.559-.161s-.365-.113-.543-.173l-.265-.092a3.652 3.652 0 0 1-.259-.1 20.82 20.82 0 0 1-.5-.2m20.439 10.807h-.008a.052.052 0 0 1-.013-.011l-.007-.008-.008-.009a.077.077 0 0 1-.011-.021.1.1 0 0 1-.013-.025.1.1 0 0 1 0-.013v-.047.02l-.006.04v.01a.072.072 0 0 1 0-.009v-.062a.021.021 0 0 0 0-.011v-.007a.8.8 0 0 0-.014-.083c0-.016-.014-.019-.033-.012-.037.014-.11.063-.214.12-.051.028-.109.059-.174.089s-.132.062-.206.093a7.623 7.623 0 0 1-1.028.341c-.189.052-.386.1-.588.14s-.407.082-.616.118a22.424 22.424 0 0 1-2.619.279c-.448.023-.895.035-1.348.036h-.667q-.334-.007-.664-.021a21.193 21.193 0 0 1-2.534-.256c-.2-.035-.393-.071-.582-.111a15.109 15.109 0 0 1-.547-.131c-.088-.023-.173-.048-.256-.074s-.165-.051-.242-.078a5.47 5.47 0 0 1-.603-.251l-.143-.076a.727.727 0 0 0-.171-.086.055.055 0 0 0-.042.011l-.019.014-.011.007v.055V25.549s0-.009 0 0a.161.161 0 0 1-.012.04.149.149 0 0 1-.01.018h-.011a.08.08 0 0 1-.024-.056.5.5 0 0 1 .069-.24l.017-.032q.214.037.429.072.574.087 1.153.152c.386.044.775.075 1.165.1l.293.019c.1.006.2.012.293.016l.293.012c.1 0 .194.007.3.009.778.024 1.569.013 2.356-.027a27.112 27.112 0 0 0 2.946-.311l.293-.05.292-.053a21.301 21.301 0 0 0 2.313-.561l.212-.067.169.113.1.07.049.035.047.036.094.072c.031.024.06.049.09.074.061.048.114.1.17.15.027.025.051.051.077.076l.038.038.033.038c.021.025.047.05.064.075s.037.049.056.073l.045.069c0 .006.008.011.011.017l.007.016.015.031c.036.081.034.138 0 .13m1.692-6.515c0 .006 0 .011-.008.016v.007-.043.03l-.007.061v.015-.01a.1.1 0 0 1 0-.021c0-.006 0 0 0 0l-.062.075a1.643 1.643 0 0 1-.117.132 2.931 2.931 0 0 1-.452.362c-.1.064-.2.128-.314.191s-.23.125-.355.184a11.039 11.039 0 0 1-1.679.626 20.601 20.601 0 0 1-1.906.451 30.729 30.729 0 0 1-4.093.468c-.7.036-1.393.052-2.095.051h-.52c-.174 0-.347-.006-.52-.012-.346-.009-.69-.028-1.032-.047a28.918 28.918 0 0 1-3.953-.494 21.562 21.562 0 0 1-.915-.209c-.149-.038-.3-.078-.44-.12s-.287-.084-.427-.128c-.07-.022-.138-.046-.208-.069s-.136-.047-.2-.072c-.134-.049-.265-.1-.391-.15l-.187-.079a7.687 7.687 0 0 1-.52-.254 4.467 4.467 0 0 1-.559-.363 2.227 2.227 0 0 1-.35-.335 1.031 1.031 0 0 1-.091-.13.616.616 0 0 1-.031-.059.2.2 0 0 1-.013-.03v-.008.05-.155a.155.155 0 0 1-.026 0h-.108V19.1c0-.013.015-.026.014-.039a.84.84 0 0 1 .035-.187 1.18 1.18 0 0 1 .078-.19c.115.045.233.09.349.133q.649.244 1.319.447a27.413 27.413 0 0 0 2.73.676q.7.134 1.4.241t1.421.18c.476.052.955.089 1.436.121.12.009.24.015.361.022s.241.014.361.018l.362.014c.121.004.24.009.364.011.961.027 1.935.013 2.9-.037s1.941-.141 2.906-.273l.362-.051.361-.055.36-.06.359-.064a27.658 27.658 0 0 0 2.841-.676q.593-.179 1.178-.388a.547.547 0 0 1 .042.152.208.208 0 0 1-.011.1m2.983-6.285c0 .016 0 .031-.006.046s0 .015 0 .022v.006-.039.038l-.007.076v.019-.006.017a1.036 1.036 0 0 1-.1.191 1.741 1.741 0 0 1-.18.238 3.615 3.615 0 0 1-.627.541c-.129.09-.268.18-.417.265s-.3.171-.464.251a13.3 13.3 0 0 1-1.9.756l-.139-.047q-.439-.144-.857-.247t-.817-.178q-.4-.074-.774-.125t-.729-.084q-.349-.033-.675-.051l.414-.058.413-.062.412-.068.411-.073a31.389 31.389 0 0 0 3.248-.764 24.898 24.898 0 0 0 1.585-.524q.6-.221 1.18-.477a.955.955 0 0 1 .037.123.72.72 0 0 1 .019.216" transform="translate(0 -.001)" style="fill:#ff2300"/>
                </g>
            </g>
        </g>
        <path id="사각형_1988" data-name="사각형 1988" transform="translate(129 220)" style="fill:none" d="M0 0h88v88H0z"/>
    </g>
</svg>
