<svg xmlns="http://www.w3.org/2000/svg" xmlns:xlink="http://www.w3.org/1999/xlink" width="345" height="642" viewBox="0 0 345 642">
  <defs>
    <clipPath id="clip-path">
      <rect id="사각형_1996" data-name="사각형 1996" width="345" height="642" transform="translate(0 140)" fill="#fff"/>
    </clipPath>
    <clipPath id="clip-path-2">
      <path id="패스_2620" data-name="패스 2620" d="M1178.5,2666.5c3.667,0,15.667-17.833,27-6.5s15.5,10,39.5,0,32.5-10.5,53.5-5.5,27.667-15.5,39-21.5,26.833-9,47.5-7c10.912,1.056,27.4-8.017,45.338-17.67,5.113-2.752,25.611,2.511,41.828-9.663,7.295-5.475,10.017-25.694,16.667-32.667,22-23.07-1.4-36.954-19.333-34-18.573,3.059-53,9-53,9s-31.9,15.291-47.667,15.667c-28,.667-65.167,21.333-89.833,32s-21.667,16.667-57,10-43.5-10-43.5-10Z" transform="translate(-1216.669 -2020)" fill="#11547d" opacity="0.58"/>
    </clipPath>
  </defs>
  <g id="m11-animation" transform="translate(0 -140)" clip-path="url(#clip-path)">
    <path id="패스_1152" data-name="패스 1152" d="M1178.5,2666.5c3.667,0,15.667-17.833,27-6.5s15.5,10,39.5,0,32.5-10.5,53.5-5.5,27.667-15.5,39-21.5,26.833-9,47.5-7c10.912,1.056,27.4-8.017,45.338-17.67,5.113-2.752,25.611,2.511,41.828-9.663,7.295-5.475,10.017-25.694,16.667-32.667,22-23.07-1.4-36.954-19.333-34-18.573,3.059-53,9-53,9s-31.9,15.291-47.667,15.667c-28,.667-65.167,21.333-89.833,32s-21.667,16.667-57,10-43.5-10-43.5-10Z" transform="translate(-1216.669 -2020)" fill="#11547d" opacity="0.58"/>
    <g id="마스크_그룹_43" data-name="마스크 그룹 43" opacity="0.5" clip-path="url(#clip-path-2)">
      <g id="그룹_857" data-name="그룹 857">
        <g id="그룹_854" data-name="그룹 854">
          <g id="그룹_852" data-name="그룹 852">
            <g id="그룹_848" data-name="그룹 848" transform="translate(14.135 9)">
              <line id="선_50" data-name="선 50" x1="13.04" y2="21.982" transform="translate(255.648 505.785)" fill="none" stroke="#fff" stroke-linecap="round" stroke-width="2"/>
              <line id="선_51" data-name="선 51" x1="13.04" y2="21.982" transform="translate(240 532.518)" fill="none" stroke="#fff" stroke-linecap="round" stroke-width="2"/>
              <line id="선_52" data-name="선 52" x1="13.04" y2="21.982" transform="translate(224 559.518)" fill="none" stroke="#fff" stroke-linecap="round" stroke-width="2"/>
              <line id="선_53" data-name="선 53" x1="13.04" y2="21.982" transform="translate(208 586.518)" fill="none" stroke="#fff" stroke-linecap="round" stroke-width="2"/>
              <line id="선_54" data-name="선 54" x1="13.04" y2="21.982" transform="translate(192 613.518)" fill="none" stroke="#fff" stroke-linecap="round" stroke-width="2"/>
            </g>
            <g id="그룹_851" data-name="그룹 851" transform="translate(-11.865 9)">
              <line id="선_50-2" data-name="선 50" x1="13.04" y2="21.982" transform="translate(255.648 505.785)" fill="none" stroke="#fff" stroke-linecap="round" stroke-width="2"/>
              <line id="선_51-2" data-name="선 51" x1="13.04" y2="21.982" transform="translate(240 532.518)" fill="none" stroke="#fff" stroke-linecap="round" stroke-width="2"/>
              <line id="선_52-2" data-name="선 52" x1="13.04" y2="21.982" transform="translate(224 559.518)" fill="none" stroke="#fff" stroke-linecap="round" stroke-width="2"/>
              <line id="선_53-2" data-name="선 53" x1="13.04" y2="21.982" transform="translate(208 586.518)" fill="none" stroke="#fff" stroke-linecap="round" stroke-width="2"/>
              <line id="선_54-2" data-name="선 54" x1="13.04" y2="21.982" transform="translate(192 613.518)" fill="none" stroke="#fff" stroke-linecap="round" stroke-width="2"/>
            </g>
            <g id="그룹_849" data-name="그룹 849" transform="translate(12.747 -9)">
              <line id="선_50-3" data-name="선 50" x1="13.04" y2="21.982" transform="translate(255.648 505.785)" fill="none" stroke="#fff" stroke-linecap="round" stroke-width="2"/>
              <line id="선_51-3" data-name="선 51" x1="13.04" y2="21.982" transform="translate(240 532.518)" fill="none" stroke="#fff" stroke-linecap="round" stroke-width="2"/>
              <line id="선_52-3" data-name="선 52" x1="13.04" y2="21.982" transform="translate(224 559.518)" fill="none" stroke="#fff" stroke-linecap="round" stroke-width="2"/>
              <line id="선_53-3" data-name="선 53" x1="13.04" y2="21.982" transform="translate(208 586.518)" fill="none" stroke="#fff" stroke-linecap="round" stroke-width="2"/>
              <line id="선_54-3" data-name="선 54" x1="13.04" y2="21.982" transform="translate(192 613.518)" fill="none" stroke="#fff" stroke-linecap="round" stroke-width="2"/>
            </g>
            <g id="그룹_850" data-name="그룹 850" transform="translate(-13.253 -9)">
              <line id="선_50-4" data-name="선 50" x1="13.04" y2="21.982" transform="translate(255.648 505.785)" fill="none" stroke="#fff" stroke-linecap="round" stroke-width="2"/>
              <line id="선_51-4" data-name="선 51" x1="13.04" y2="21.982" transform="translate(240 532.518)" fill="none" stroke="#fff" stroke-linecap="round" stroke-width="2"/>
              <line id="선_52-4" data-name="선 52" x1="13.04" y2="21.982" transform="translate(224 559.518)" fill="none" stroke="#fff" stroke-linecap="round" stroke-width="2"/>
              <line id="선_53-4" data-name="선 53" x1="13.04" y2="21.982" transform="translate(208 586.518)" fill="none" stroke="#fff" stroke-linecap="round" stroke-width="2"/>
              <line id="선_54-4" data-name="선 54" x1="13.04" y2="21.982" transform="translate(192 613.518)" fill="none" stroke="#fff" stroke-linecap="round" stroke-width="2"/>
            </g>
          </g>
          <g id="그룹_853" data-name="그룹 853" transform="translate(-51)">
            <g id="그룹_848-2" data-name="그룹 848" transform="translate(14.135 9)">
              <line id="선_50-5" data-name="선 50" x1="13.04" y2="21.982" transform="translate(255.648 505.785)" fill="none" stroke="#fff" stroke-linecap="round" stroke-width="2"/>
              <line id="선_51-5" data-name="선 51" x1="13.04" y2="21.982" transform="translate(240 532.518)" fill="none" stroke="#fff" stroke-linecap="round" stroke-width="2"/>
              <line id="선_52-5" data-name="선 52" x1="13.04" y2="21.982" transform="translate(224 559.518)" fill="none" stroke="#fff" stroke-linecap="round" stroke-width="2"/>
              <line id="선_53-5" data-name="선 53" x1="13.04" y2="21.982" transform="translate(208 586.518)" fill="none" stroke="#fff" stroke-linecap="round" stroke-width="2"/>
              <line id="선_54-5" data-name="선 54" x1="13.04" y2="21.982" transform="translate(192 613.518)" fill="none" stroke="#fff" stroke-linecap="round" stroke-width="2"/>
            </g>
            <g id="그룹_851-2" data-name="그룹 851" transform="translate(-11.865 9)">
              <line id="선_50-6" data-name="선 50" x1="13.04" y2="21.982" transform="translate(255.648 505.785)" fill="none" stroke="#fff" stroke-linecap="round" stroke-width="2"/>
              <line id="선_51-6" data-name="선 51" x1="13.04" y2="21.982" transform="translate(240 532.518)" fill="none" stroke="#fff" stroke-linecap="round" stroke-width="2"/>
              <line id="선_52-6" data-name="선 52" x1="13.04" y2="21.982" transform="translate(224 559.518)" fill="none" stroke="#fff" stroke-linecap="round" stroke-width="2"/>
              <line id="선_53-6" data-name="선 53" x1="13.04" y2="21.982" transform="translate(208 586.518)" fill="none" stroke="#fff" stroke-linecap="round" stroke-width="2"/>
              <line id="선_54-6" data-name="선 54" x1="13.04" y2="21.982" transform="translate(192 613.518)" fill="none" stroke="#fff" stroke-linecap="round" stroke-width="2"/>
            </g>
            <g id="그룹_849-2" data-name="그룹 849" transform="translate(12.747 -9)">
              <line id="선_50-7" data-name="선 50" x1="13.04" y2="21.982" transform="translate(255.648 505.785)" fill="none" stroke="#fff" stroke-linecap="round" stroke-width="2"/>
              <line id="선_51-7" data-name="선 51" x1="13.04" y2="21.982" transform="translate(240 532.518)" fill="none" stroke="#fff" stroke-linecap="round" stroke-width="2"/>
              <line id="선_52-7" data-name="선 52" x1="13.04" y2="21.982" transform="translate(224 559.518)" fill="none" stroke="#fff" stroke-linecap="round" stroke-width="2"/>
              <line id="선_53-7" data-name="선 53" x1="13.04" y2="21.982" transform="translate(208 586.518)" fill="none" stroke="#fff" stroke-linecap="round" stroke-width="2"/>
              <line id="선_54-7" data-name="선 54" x1="13.04" y2="21.982" transform="translate(192 613.518)" fill="none" stroke="#fff" stroke-linecap="round" stroke-width="2"/>
            </g>
            <g id="그룹_850-2" data-name="그룹 850" transform="translate(-13.253 -9)">
              <line id="선_50-8" data-name="선 50" x1="13.04" y2="21.982" transform="translate(255.648 505.785)" fill="none" stroke="#fff" stroke-linecap="round" stroke-width="2"/>
              <line id="선_51-8" data-name="선 51" x1="13.04" y2="21.982" transform="translate(240 532.518)" fill="none" stroke="#fff" stroke-linecap="round" stroke-width="2"/>
              <line id="선_52-8" data-name="선 52" x1="13.04" y2="21.982" transform="translate(224 559.518)" fill="none" stroke="#fff" stroke-linecap="round" stroke-width="2"/>
              <line id="선_53-8" data-name="선 53" x1="13.04" y2="21.982" transform="translate(208 586.518)" fill="none" stroke="#fff" stroke-linecap="round" stroke-width="2"/>
              <line id="선_54-8" data-name="선 54" x1="13.04" y2="21.982" transform="translate(192 613.518)" fill="none" stroke="#fff" stroke-linecap="round" stroke-width="2"/>
            </g>
          </g>
        </g>
        <g id="그룹_855" data-name="그룹 855" transform="translate(-102)">
          <g id="그룹_852-2" data-name="그룹 852">
            <g id="그룹_848-3" data-name="그룹 848" transform="translate(14.135 9)">
              <line id="선_50-9" data-name="선 50" x1="13.04" y2="21.982" transform="translate(255.648 505.785)" fill="none" stroke="#fff" stroke-linecap="round" stroke-width="2"/>
              <line id="선_51-9" data-name="선 51" x1="13.04" y2="21.982" transform="translate(240 532.518)" fill="none" stroke="#fff" stroke-linecap="round" stroke-width="2"/>
              <line id="선_52-9" data-name="선 52" x1="13.04" y2="21.982" transform="translate(224 559.518)" fill="none" stroke="#fff" stroke-linecap="round" stroke-width="2"/>
              <line id="선_53-9" data-name="선 53" x1="13.04" y2="21.982" transform="translate(208 586.518)" fill="none" stroke="#fff" stroke-linecap="round" stroke-width="2"/>
              <line id="선_54-9" data-name="선 54" x1="13.04" y2="21.982" transform="translate(192 613.518)" fill="none" stroke="#fff" stroke-linecap="round" stroke-width="2"/>
            </g>
            <g id="그룹_851-3" data-name="그룹 851" transform="translate(-11.865 9)">
              <line id="선_50-10" data-name="선 50" x1="13.04" y2="21.982" transform="translate(255.648 505.785)" fill="none" stroke="#fff" stroke-linecap="round" stroke-width="2"/>
              <line id="선_51-10" data-name="선 51" x1="13.04" y2="21.982" transform="translate(240 532.518)" fill="none" stroke="#fff" stroke-linecap="round" stroke-width="2"/>
              <line id="선_52-10" data-name="선 52" x1="13.04" y2="21.982" transform="translate(224 559.518)" fill="none" stroke="#fff" stroke-linecap="round" stroke-width="2"/>
              <line id="선_53-10" data-name="선 53" x1="13.04" y2="21.982" transform="translate(208 586.518)" fill="none" stroke="#fff" stroke-linecap="round" stroke-width="2"/>
              <line id="선_54-10" data-name="선 54" x1="13.04" y2="21.982" transform="translate(192 613.518)" fill="none" stroke="#fff" stroke-linecap="round" stroke-width="2"/>
            </g>
            <g id="그룹_849-3" data-name="그룹 849" transform="translate(12.747 -9)">
              <line id="선_50-11" data-name="선 50" x1="13.04" y2="21.982" transform="translate(255.648 505.785)" fill="none" stroke="#fff" stroke-linecap="round" stroke-width="2"/>
              <line id="선_51-11" data-name="선 51" x1="13.04" y2="21.982" transform="translate(240 532.518)" fill="none" stroke="#fff" stroke-linecap="round" stroke-width="2"/>
              <line id="선_52-11" data-name="선 52" x1="13.04" y2="21.982" transform="translate(224 559.518)" fill="none" stroke="#fff" stroke-linecap="round" stroke-width="2"/>
              <line id="선_53-11" data-name="선 53" x1="13.04" y2="21.982" transform="translate(208 586.518)" fill="none" stroke="#fff" stroke-linecap="round" stroke-width="2"/>
              <line id="선_54-11" data-name="선 54" x1="13.04" y2="21.982" transform="translate(192 613.518)" fill="none" stroke="#fff" stroke-linecap="round" stroke-width="2"/>
            </g>
            <g id="그룹_850-3" data-name="그룹 850" transform="translate(-13.253 -9)">
              <line id="선_50-12" data-name="선 50" x1="13.04" y2="21.982" transform="translate(255.648 505.785)" fill="none" stroke="#fff" stroke-linecap="round" stroke-width="2"/>
              <line id="선_51-12" data-name="선 51" x1="13.04" y2="21.982" transform="translate(240 532.518)" fill="none" stroke="#fff" stroke-linecap="round" stroke-width="2"/>
              <line id="선_52-12" data-name="선 52" x1="13.04" y2="21.982" transform="translate(224 559.518)" fill="none" stroke="#fff" stroke-linecap="round" stroke-width="2"/>
              <line id="선_53-12" data-name="선 53" x1="13.04" y2="21.982" transform="translate(208 586.518)" fill="none" stroke="#fff" stroke-linecap="round" stroke-width="2"/>
              <line id="선_54-12" data-name="선 54" x1="13.04" y2="21.982" transform="translate(192 613.518)" fill="none" stroke="#fff" stroke-linecap="round" stroke-width="2"/>
            </g>
          </g>
          <g id="그룹_853-2" data-name="그룹 853" transform="translate(-51)">
            <g id="그룹_848-4" data-name="그룹 848" transform="translate(14.135 9)">
              <line id="선_50-13" data-name="선 50" x1="13.04" y2="21.982" transform="translate(255.648 505.785)" fill="none" stroke="#fff" stroke-linecap="round" stroke-width="2"/>
              <line id="선_51-13" data-name="선 51" x1="13.04" y2="21.982" transform="translate(240 532.518)" fill="none" stroke="#fff" stroke-linecap="round" stroke-width="2"/>
              <line id="선_52-13" data-name="선 52" x1="13.04" y2="21.982" transform="translate(224 559.518)" fill="none" stroke="#fff" stroke-linecap="round" stroke-width="2"/>
              <line id="선_53-13" data-name="선 53" x1="13.04" y2="21.982" transform="translate(208 586.518)" fill="none" stroke="#fff" stroke-linecap="round" stroke-width="2"/>
              <line id="선_54-13" data-name="선 54" x1="13.04" y2="21.982" transform="translate(192 613.518)" fill="none" stroke="#fff" stroke-linecap="round" stroke-width="2"/>
            </g>
            <g id="그룹_851-4" data-name="그룹 851" transform="translate(-11.865 9)">
              <line id="선_50-14" data-name="선 50" x1="13.04" y2="21.982" transform="translate(255.648 505.785)" fill="none" stroke="#fff" stroke-linecap="round" stroke-width="2"/>
              <line id="선_51-14" data-name="선 51" x1="13.04" y2="21.982" transform="translate(240 532.518)" fill="none" stroke="#fff" stroke-linecap="round" stroke-width="2"/>
              <line id="선_52-14" data-name="선 52" x1="13.04" y2="21.982" transform="translate(224 559.518)" fill="none" stroke="#fff" stroke-linecap="round" stroke-width="2"/>
              <line id="선_53-14" data-name="선 53" x1="13.04" y2="21.982" transform="translate(208 586.518)" fill="none" stroke="#fff" stroke-linecap="round" stroke-width="2"/>
              <line id="선_54-14" data-name="선 54" x1="13.04" y2="21.982" transform="translate(192 613.518)" fill="none" stroke="#fff" stroke-linecap="round" stroke-width="2"/>
            </g>
            <g id="그룹_849-4" data-name="그룹 849" transform="translate(12.747 -9)">
              <line id="선_50-15" data-name="선 50" x1="13.04" y2="21.982" transform="translate(255.648 505.785)" fill="none" stroke="#fff" stroke-linecap="round" stroke-width="2"/>
              <line id="선_51-15" data-name="선 51" x1="13.04" y2="21.982" transform="translate(240 532.518)" fill="none" stroke="#fff" stroke-linecap="round" stroke-width="2"/>
              <line id="선_52-15" data-name="선 52" x1="13.04" y2="21.982" transform="translate(224 559.518)" fill="none" stroke="#fff" stroke-linecap="round" stroke-width="2"/>
              <line id="선_53-15" data-name="선 53" x1="13.04" y2="21.982" transform="translate(208 586.518)" fill="none" stroke="#fff" stroke-linecap="round" stroke-width="2"/>
              <line id="선_54-15" data-name="선 54" x1="13.04" y2="21.982" transform="translate(192 613.518)" fill="none" stroke="#fff" stroke-linecap="round" stroke-width="2"/>
            </g>
            <g id="그룹_850-4" data-name="그룹 850" transform="translate(-13.253 -9)">
              <line id="선_50-16" data-name="선 50" x1="13.04" y2="21.982" transform="translate(255.648 505.785)" fill="none" stroke="#fff" stroke-linecap="round" stroke-width="2"/>
              <line id="선_51-16" data-name="선 51" x1="13.04" y2="21.982" transform="translate(240 532.518)" fill="none" stroke="#fff" stroke-linecap="round" stroke-width="2"/>
              <line id="선_52-16" data-name="선 52" x1="13.04" y2="21.982" transform="translate(224 559.518)" fill="none" stroke="#fff" stroke-linecap="round" stroke-width="2"/>
              <line id="선_53-16" data-name="선 53" x1="13.04" y2="21.982" transform="translate(208 586.518)" fill="none" stroke="#fff" stroke-linecap="round" stroke-width="2"/>
              <line id="선_54-16" data-name="선 54" x1="13.04" y2="21.982" transform="translate(192 613.518)" fill="none" stroke="#fff" stroke-linecap="round" stroke-width="2"/>
            </g>
          </g>
          <g id="그룹_856" data-name="그룹 856" transform="translate(-103)">
            <g id="그룹_848-5" data-name="그룹 848" transform="translate(14.135 9)">
              <line id="선_50-17" data-name="선 50" x1="13.04" y2="21.982" transform="translate(255.648 505.785)" fill="none" stroke="#fff" stroke-linecap="round" stroke-width="2"/>
              <line id="선_51-17" data-name="선 51" x1="13.04" y2="21.982" transform="translate(240 532.518)" fill="none" stroke="#fff" stroke-linecap="round" stroke-width="2"/>
              <line id="선_52-17" data-name="선 52" x1="13.04" y2="21.982" transform="translate(224 559.518)" fill="none" stroke="#fff" stroke-linecap="round" stroke-width="2"/>
              <line id="선_53-17" data-name="선 53" x1="13.04" y2="21.982" transform="translate(208 586.518)" fill="none" stroke="#fff" stroke-linecap="round" stroke-width="2"/>
              <line id="선_54-17" data-name="선 54" x1="13.04" y2="21.982" transform="translate(192 613.518)" fill="none" stroke="#fff" stroke-linecap="round" stroke-width="2"/>
            </g>
            <g id="그룹_851-5" data-name="그룹 851" transform="translate(-11.865 9)">
              <line id="선_50-18" data-name="선 50" x1="13.04" y2="21.982" transform="translate(255.648 505.785)" fill="none" stroke="#fff" stroke-linecap="round" stroke-width="2"/>
              <line id="선_51-18" data-name="선 51" x1="13.04" y2="21.982" transform="translate(240 532.518)" fill="none" stroke="#fff" stroke-linecap="round" stroke-width="2"/>
              <line id="선_52-18" data-name="선 52" x1="13.04" y2="21.982" transform="translate(224 559.518)" fill="none" stroke="#fff" stroke-linecap="round" stroke-width="2"/>
              <line id="선_53-18" data-name="선 53" x1="13.04" y2="21.982" transform="translate(208 586.518)" fill="none" stroke="#fff" stroke-linecap="round" stroke-width="2"/>
              <line id="선_54-18" data-name="선 54" x1="13.04" y2="21.982" transform="translate(192 613.518)" fill="none" stroke="#fff" stroke-linecap="round" stroke-width="2"/>
            </g>
            <g id="그룹_849-5" data-name="그룹 849" transform="translate(12.747 -9)">
              <line id="선_50-19" data-name="선 50" x1="13.04" y2="21.982" transform="translate(255.648 505.785)" fill="none" stroke="#fff" stroke-linecap="round" stroke-width="2"/>
              <line id="선_51-19" data-name="선 51" x1="13.04" y2="21.982" transform="translate(240 532.518)" fill="none" stroke="#fff" stroke-linecap="round" stroke-width="2"/>
              <line id="선_52-19" data-name="선 52" x1="13.04" y2="21.982" transform="translate(224 559.518)" fill="none" stroke="#fff" stroke-linecap="round" stroke-width="2"/>
              <line id="선_53-19" data-name="선 53" x1="13.04" y2="21.982" transform="translate(208 586.518)" fill="none" stroke="#fff" stroke-linecap="round" stroke-width="2"/>
              <line id="선_54-19" data-name="선 54" x1="13.04" y2="21.982" transform="translate(192 613.518)" fill="none" stroke="#fff" stroke-linecap="round" stroke-width="2"/>
            </g>
            <g id="그룹_850-5" data-name="그룹 850" transform="translate(-13.253 -9)">
              <line id="선_50-20" data-name="선 50" x1="13.04" y2="21.982" transform="translate(255.648 505.785)" fill="none" stroke="#fff" stroke-linecap="round" stroke-width="2"/>
              <line id="선_51-20" data-name="선 51" x1="13.04" y2="21.982" transform="translate(240 532.518)" fill="none" stroke="#fff" stroke-linecap="round" stroke-width="2"/>
              <line id="선_52-20" data-name="선 52" x1="13.04" y2="21.982" transform="translate(224 559.518)" fill="none" stroke="#fff" stroke-linecap="round" stroke-width="2"/>
              <line id="선_53-20" data-name="선 53" x1="13.04" y2="21.982" transform="translate(208 586.518)" fill="none" stroke="#fff" stroke-linecap="round" stroke-width="2"/>
              <line id="선_54-20" data-name="선 54" x1="13.04" y2="21.982" transform="translate(192 613.518)" fill="none" stroke="#fff" stroke-linecap="round" stroke-width="2"/>
            </g>
          </g>
        </g>
      </g>
    </g>
  </g>
</svg>
