<svg xmlns="http://www.w3.org/2000/svg" xmlns:xlink="http://www.w3.org/1999/xlink" width="924" height="1180" viewBox="0 0 924 1180">
  <defs>
    <clipPath id="clip-path">
      <circle id="타원_267" data-name="타원 267" cx="34" cy="34" r="34" fill="#fff" stroke="#910004" stroke-width="6"/>
    </clipPath>
    <clipPath id="clip-path-2">
      <rect id="사각형_1939" data-name="사각형 1939" width="63.095" height="59.91" transform="translate(0 0)" fill="#ff2300"/>
    </clipPath>
    <clipPath id="clip-path-3">
      <rect id="사각형_1938" data-name="사각형 1938" width="63.095" height="31.861" fill="#ff2300"/>
    </clipPath>
  </defs>
  <g id="m11-distance-lg" transform="translate(0 -60)">
    <path id="패스_1139" data-name="패스 1139" d="M0,72.167V0" transform="translate(331.5 841.163) rotate(180)" fill="none" stroke="#910004" stroke-width="1"/>
    <g id="그룹_889" data-name="그룹 889">
      <g id="그룹_888" data-name="그룹 888">
        <g id="그룹_885" data-name="그룹 885" transform="translate(0 -14)">
          <g id="그룹_502" data-name="그룹 502" transform="translate(116 444.791)">
            <path id="패스_980" data-name="패스 980" d="M547,295.61l-97.017,18.9L351,295.61v-81.1H547Z" transform="translate(-234 24.702)" fill="#910004"/>
          </g>
          <text id="제주_서귀포시" data-name="제주 서귀포시" transform="translate(275 719.082)" fill="#fff" font-size="20" font-family="SpoqaHanSansNeo-Medium, Spoqa Han Sans Neo" font-weight="500" letter-spacing="-0.015em"><tspan x="0" y="0">제주 서귀포시</tspan></text>
          <text id="_170_180mm" data-name="170~180mm" transform="translate(251 753.082)" fill="#fff" font-size="27" font-family="SpoqaHanSansNeo-Bold, Spoqa Han Sans Neo" font-weight="700" letter-spacing="-0.015em"><tspan x="0" y="0">170~180mm</tspan></text>
        </g>
        <g id="그룹_864" data-name="그룹 864" transform="translate(228 255.863)">
          <g id="그룹_632" data-name="그룹 632" transform="translate(69 554.663)">
            <g id="그룹_501" data-name="그룹 501" transform="translate(0 0)">
              <g id="패스_1150" data-name="패스 1150" transform="translate(0 0)" fill="#fff">
                <path d="M 34 67 C 29.54458999633789 67 25.22298049926758 66.12761688232422 21.15522003173828 64.40711212158203 C 17.2257194519043 62.74507141113281 13.69645977020264 60.36550903320312 10.66547966003418 57.33451843261719 C 7.634490013122559 54.30353927612305 5.254930019378662 50.7742805480957 3.592890024185181 46.84477996826172 C 1.872380018234253 42.77701950073242 1 38.45541000366211 1 34 C 1 29.54458999633789 1.872380018234253 25.22298049926758 3.592890024185181 21.15522003173828 C 5.254930019378662 17.2257194519043 7.634490013122559 13.69645977020264 10.66547966003418 10.66547966003418 C 13.69645977020264 7.634490013122559 17.2257194519043 5.254930019378662 21.15522003173828 3.592890024185181 C 25.22298049926758 1.872380018234253 29.54458999633789 1 34 1 C 38.45541000366211 1 42.77701950073242 1.872380018234253 46.84477996826172 3.592890024185181 C 50.7742805480957 5.254930019378662 54.30353927612305 7.634490013122559 57.33451843261719 10.66547966003418 C 60.36550903320312 13.69645977020264 62.74507141113281 17.2257194519043 64.40711212158203 21.15522003173828 C 66.12761688232422 25.22298049926758 67 29.54458999633789 67 34 C 67 38.45541000366211 66.12761688232422 42.77701950073242 64.40711212158203 46.84477996826172 C 62.74507141113281 50.7742805480957 60.36550903320312 54.30353927612305 57.33451843261719 57.33451843261719 C 54.30353927612305 60.36550903320312 50.7742805480957 62.74507141113281 46.84477996826172 64.40711212158203 C 42.77701950073242 66.12761688232422 38.45541000366211 67 34 67 Z" stroke="none"/>
                <path d="M 34 2 C 29.67914581298828 2 25.48860168457031 2.845802307128906 21.54476547241211 4.513900756835938 C 17.73447799682617 6.125522613525391 14.31205368041992 8.433109283447266 11.37258911132812 11.37258911132812 C 8.433109283447266 14.31205368041992 6.125522613525391 17.73447799682617 4.513900756835938 21.54476547241211 C 2.845802307128906 25.48860168457031 2 29.67914581298828 2 34 C 2 38.32085418701172 2.845802307128906 42.51139831542969 4.513900756835938 46.45523071289062 C 6.125522613525391 50.26552200317383 8.433109283447266 53.68794250488281 11.37258911132812 56.62741088867188 C 14.31205368041992 59.56688690185547 17.73447799682617 61.87447738647461 21.54476547241211 63.48609924316406 C 25.48860168457031 65.15419769287109 29.67914581298828 66 34 66 C 38.32085418701172 66 42.51139831542969 65.15419769287109 46.45523071289062 63.48609924316406 C 50.26552200317383 61.87447738647461 53.68794250488281 59.56688690185547 56.62741088867188 56.62741088867188 C 59.56688690185547 53.68794250488281 61.87447738647461 50.26552200317383 63.48609924316406 46.45523071289062 C 65.15419769287109 42.51139831542969 66 38.32085418701172 66 34 C 66 29.67914581298828 65.15419769287109 25.48860168457031 63.48609924316406 21.54476547241211 C 61.87447738647461 17.73447799682617 59.56688690185547 14.31205368041992 56.62741088867188 11.37258911132812 C 53.68794250488281 8.433109283447266 50.26552200317383 6.125522613525391 46.45523071289062 4.513900756835938 C 42.51139831542969 2.845802307128906 38.32085418701172 2 34 2 M 34 0 C 52.77767944335938 0 68 15.22232055664062 68 34 C 68 52.77767944335938 52.77767944335938 68 34 68 C 15.22232055664062 68 0 52.77767944335938 0 34 C 0 15.22232055664062 15.22232055664062 0 34 0 Z" stroke="none" fill="#910004"/>
              </g>
            </g>
          </g>
          <g id="그룹_859" data-name="그룹 859" transform="translate(71.445 560.702)">
            <g id="그룹_795" data-name="그룹 795" transform="translate(0 0)">
              <g id="그룹_794" data-name="그룹 794" transform="translate(0 0)" clip-path="url(#clip-path-2)">
                <g id="그룹_793" data-name="그룹 793" transform="translate(0 28.049)" style="isolation: isolate">
                  <g id="그룹_792" data-name="그룹 792">
                    <g id="그룹_791" data-name="그룹 791" clip-path="url(#clip-path-3)">
                      <path id="패스_2549" data-name="패스 2549" d="M31.547,73.99A31.863,31.863,0,0,0,63.095,46.561c-.38-.334-.746-.7-1.125-1.082-1.553-1.571-3.312-3.35-6.8-3.35s-5.246,1.78-6.8,3.35c-1.391,1.408-2.593,2.623-5.013,2.623s-3.622-1.215-5.013-2.622c-1.553-1.571-3.313-3.35-6.8-3.35s-5.245,1.78-6.8,3.35c-1.391,1.408-2.593,2.623-5.013,2.623s-3.623-1.215-5.013-2.623c-1.554-1.57-3.314-3.35-6.8-3.35s-5.247,1.78-6.8,3.35c-.379.383-.746.749-1.125,1.083A31.862,31.862,0,0,0,31.547,73.99" transform="translate(0 -42.129)" fill="#ff2300"/>
                    </g>
                  </g>
                </g>
                <path id="패스_2550" data-name="패스 2550" d="M47.345,9.625,50.671,0l3.075,9.511c.822,3.073,1.565,4.507-.186,6.556a4.152,4.152,0,0,1-6.113-.269c-1.138-1.729-1.344-2.642-.1-6.173M36.86,17.315,40.186,7.69,43.262,17.2c.822,3.074,1.565,4.507-.186,6.557a4.151,4.151,0,0,1-6.112-.27c-1.139-1.728-1.344-2.642-.1-6.173M26.375,9.625,29.7,0l3.076,9.511c.821,3.073,1.565,4.507-.187,6.556a4.151,4.151,0,0,1-6.111-.269c-1.138-1.729-1.344-2.642-.1-6.173" transform="translate(-8.533 0)" fill="#ff2300" fill-rule="evenodd"/>
              </g>
            </g>
          </g>
        </g>
        <g id="t_location" transform="translate(728 422)">
          <g id="lacation" transform="translate(7 4)">
            <path id="패스_997" data-name="패스 997" d="M27.882,40.411A11.842,11.842,0,0,0,39.745,28.548c0-6.355-5.084-12.287-11.863-12.287A11.842,11.842,0,0,0,16.019,28.124C16.019,34.48,21.527,40.411,27.882,40.411ZM7.969,8.212A28.161,28.161,0,1,1,47.794,48.037L27.882,67.95,7.969,48.037A28.929,28.929,0,0,1,7.969,8.212Z" transform="translate(-0.025 0.05)" fill="#910004" fill-rule="evenodd"/>
            <circle id="타원_272" data-name="타원 272" cx="17.761" cy="17.761" r="17.761" transform="translate(10.627 9.855)" fill="#910004"/>
            <circle id="타원_273" data-name="타원 273" cx="11.303" cy="11.303" r="11.303" transform="translate(17.109 16.26)" fill="#fff"/>
          </g>
          <rect id="사각형_1863" data-name="사각형 1863" width="72" height="71.851" fill="none"/>
        </g>
        <g id="그룹_771" data-name="그룹 771" transform="translate(456.269 88.347)">
          <g id="그룹_525" data-name="그룹 525" transform="matrix(0.866, -0.5, 0.5, 0.866, 211.065, 464.473)">
            <path id="패스_2622" data-name="패스 2622" d="M81.187,0,0,140.63" transform="translate(18.508 20.128)" fill="none" stroke="#000" stroke-linecap="round" stroke-width="2.5" stroke-dasharray="0.2 5"/>
            <path id="다각형_1" data-name="다각형 1" d="M9.952,0,19.9,19.9H0Z" transform="translate(100.233 0) rotate(29)"/>
            <path id="다각형_2" data-name="다각형 2" d="M9.952,0,19.9,19.9H0Z" transform="translate(17.409 182.906) rotate(-151)"/>
          </g>
          <g id="그룹_524" data-name="그룹 524" transform="translate(245.033 489.383)">
            <rect id="사각형_1838" data-name="사각형 1838" width="160" height="56" rx="28" transform="translate(-19.301 -8.731)"/>
            <text id="_13_km" data-name="13 km" transform="translate(60.699 30.269)" fill="#fff" font-size="30" font-family="SpoqaHanSansNeo-Medium, Spoqa Han Sans Neo" font-weight="500"><tspan x="-43.995" y="0">13 km</tspan></text>
          </g>
        </g>
        <rect id="사각형_1949" data-name="사각형 1949" width="924" height="1180" transform="translate(0 60)" fill="none"/>
      </g>
    </g>
  </g>
</svg>
