<svg xmlns="http://www.w3.org/2000/svg" width="88" height="88" viewBox="0 0 88 88">
    <defs>
        <clipPath id="clip-path">
            <path id="패스_2794" data-name="패스 2794" d="M0 33.17h72v-88H0z" transform="translate(0 54.83)" style="fill:none"/>
        </clipPath>
        <clipPath id="clip-path-2">
            <path id="사각형_2116" data-name="사각형 2116" style="fill:#ff2300" d="M0 0h49.362v45.056H0z"/>
        </clipPath>
        <style>
            
        </style>
    </defs>
    <g id="그룹_1290" data-name="그룹 1290" transform="translate(-129 -220)">
        <g id="그룹_1013" data-name="그룹 1013">
            <path id="합치기_6" data-name="합치기 6" d="M-2862.556 3185.7h.333a36.8 36.8 0 0 1-11.777-27.084c0-20.223 16.117-36.615 36-36.615s36 16.393 36 36.615a36.8 36.8 0 0 1-11.777 27.087h.33l-25.271 24.3z" transform="translate(3011.001 -2902)" style="fill:#ececec"/>
            <g id="그룹_1293" data-name="그룹 1293" transform="translate(147.319 233.61)">
                <g id="그룹_1292" data-name="그룹 1292" style="clip-path:url(#clip-path-2)">
                    <path id="패스_3988" data-name="패스 3988" d="M208.143 18.841a4.76 4.76 0 0 0 3.679 1.012 5.489 5.489 0 0 0 1.348 1.49 5.947 5.947 0 0 0 3.679 1.324 6.976 6.976 0 0 0 2.313 3.348 6.83 6.83 0 0 0 4.863 1.472 3.508 3.508 0 0 0 6.211 1.527 5.194 5.194 0 0 0 .474-.809 5.172 5.172 0 0 0 6.393-1.472 5.279 5.279 0 0 0-.874-7.377 5.538 5.538 0 0 0-1.166-.718 7.057 7.057 0 0 0-1.239-9.732 6.9 6.9 0 0 0-3.534-1.472 7.047 7.047 0 0 0-2.659-5.924 6.934 6.934 0 0 0-9.8 1.177 7.094 7.094 0 0 0-.71 1.1 5.086 5.086 0 0 0-6.83 1.141 5.228 5.228 0 0 0-.656 5.317 4.965 4.965 0 0 0-1.494 8.592" transform="translate(-189.564)" style="fill:#ff2300"/>
                    <path id="패스_3989" data-name="패스 3989" d="M246.667 281.556a7.556 7.556 0 0 1-2.35-3.256q-.246-.028-.437-.055l-.638 1.453a12.637 12.637 0 0 1-.182-1.6 6.706 6.706 0 0 1-1.311-.515c-.073 4.6-1.239 6.181-3.7 11.609a9.843 9.843 0 0 1-1.475 2.263 3.319 3.319 0 0 0 .747.074 4.1 4.1 0 0 0 2.077-.57 4.179 4.179 0 0 0 1.512-1.582 1.28 1.28 0 0 1 .546-.533 1.322 1.322 0 0 1 1.821.533 4.047 4.047 0 0 0 1.075 1.288l1.111-2.557c3.825-.331 4.881-1.361 6.685-3.643a3.84 3.84 0 0 1-.583-.993 5.851 5.851 0 0 1-5.3 2.263l1.494-3.459a8.634 8.634 0 0 1-1.093-.718" transform="translate(-217.414 -255.099)" style="fill:#ff2300"/>
                    <path id="패스_3990" data-name="패스 3990" d="M48.579 504.035a4.583 4.583 0 0 1-4.08-2.447.811.811 0 0 0-1.4 0 4.761 4.761 0 0 1-1.712 1.8 4.676 4.676 0 0 1-4.736 0 4.761 4.761 0 0 1-1.712-1.8.811.811 0 0 0-1.4 0 4.761 4.761 0 0 1-1.712 1.8 4.66 4.66 0 0 1-2.368.644 4.71 4.71 0 0 1-2.368-.644 4.9 4.9 0 0 1-1.712-1.8.778.778 0 0 0-1.075-.313.846.846 0 0 0-.31.313 4.9 4.9 0 0 1-1.712 1.8 4.71 4.71 0 0 1-2.368.644 4.659 4.659 0 0 1-2.368-.644 4.761 4.761 0 0 1-1.712-1.8.811.811 0 0 0-1.4 0 4.762 4.762 0 0 1-1.712 1.8 4.676 4.676 0 0 1-4.736 0 4.9 4.9 0 0 1-1.712-1.8.782.782 0 0 0-1.075-.313.642.642 0 0 0-.31.313 4.905 4.905 0 0 1-1.712 1.8 4.726 4.726 0 0 1-2.386.644.8.8 0 0 0-.783.809.781.781 0 0 0 .783.791 6.369 6.369 0 0 0 3.06-.791c.036-.037.091-.055.128-.092a6.331 6.331 0 0 0 1.6-1.361 6.031 6.031 0 0 0 1.6 1.361.382.382 0 0 0 .109.074 6.189 6.189 0 0 0 6.12 0 .382.382 0 0 0 .109-.074 5.76 5.76 0 0 0 1.6-1.361 6.331 6.331 0 0 0 1.6 1.361.382.382 0 0 0 .109.074 6.258 6.258 0 0 0 6.157 0 .32.32 0 0 0 .091-.074 6.329 6.329 0 0 0 1.6-1.361 6.333 6.333 0 0 0 1.6 1.361c.037.037.055.055.091.055a6.171 6.171 0 0 0 6.175 0c.036-.018.055-.037.091-.055a6.327 6.327 0 0 0 1.6-1.361 6.034 6.034 0 0 0 1.6 1.361c.018.018.055.037.073.055a6.094 6.094 0 0 0 3.1.828 6.211 6.211 0 0 0 3.115-.828l.055-.055a5.76 5.76 0 0 0 1.6-1.361 6.329 6.329 0 0 0 1.6 1.361c.018.018.055.037.073.055a6.161 6.161 0 0 0 3.115.828.781.781 0 0 0 .783-.791.8.8 0 0 0-.783-.809" transform="translate(0 -460.58)" style="fill:#ff2300"/>
                    <path id="패스_3991" data-name="패스 3991" d="M.783 425.684a6.224 6.224 0 0 0 3.188-.865 6.806 6.806 0 0 0 1.6-1.38 6.46 6.46 0 0 0 1.6 1.38 6.178 6.178 0 0 0 7.942-1.38 6.8 6.8 0 0 0 1.6 1.38 6.275 6.275 0 0 0 6.357 0 6.8 6.8 0 0 0 1.6-1.38 6.807 6.807 0 0 0 1.6 1.38 6.274 6.274 0 0 0 6.357 0 6.8 6.8 0 0 0 1.6-1.38 6.463 6.463 0 0 0 1.6 1.38 6.178 6.178 0 0 0 7.942-1.38 6.8 6.8 0 0 0 1.6 1.38 6.224 6.224 0 0 0 3.188.865.781.781 0 0 0 .783-.791.8.8 0 0 0-.783-.809 4.583 4.583 0 0 1-4.08-2.447.811.811 0 0 0-1.4 0 4.641 4.641 0 0 1-6.448 1.8 4.761 4.761 0 0 1-1.712-1.8.811.811 0 0 0-1.4 0 4.583 4.583 0 0 1-4.08 2.447 4.709 4.709 0 0 1-2.368-.644 4.9 4.9 0 0 1-1.712-1.8.778.778 0 0 0-1.075-.313.846.846 0 0 0-.31.313 4.766 4.766 0 0 1-1.712 1.8 4.71 4.71 0 0 1-2.368.644 4.659 4.659 0 0 1-2.368-.644 4.761 4.761 0 0 1-1.712-1.8.811.811 0 0 0-1.4 0 4.641 4.641 0 0 1-6.448 1.8 4.9 4.9 0 0 1-1.712-1.8.782.782 0 0 0-1.075-.313.642.642 0 0 0-.31.313 4.767 4.767 0 0 1-1.712 1.8 4.725 4.725 0 0 1-2.386.644.8.8 0 0 0-.783.809.781.781 0 0 0 .783.791" transform="translate(0 -387.104)" style="fill:#ff2300"/>
                </g>
            </g>
        </g>
        <path id="사각형_1988" data-name="사각형 1988" transform="translate(129 220)" style="fill:none" d="M0 0h88v88H0z"/>
    </g>
</svg>
