<svg xmlns="http://www.w3.org/2000/svg" xmlns:xlink="http://www.w3.org/1999/xlink" width="924" height="1180" viewBox="0 0 924 1180">
  <defs>
    <clipPath id="clip-path">
      <rect id="사각형_2113" data-name="사각형 2113" width="924" height="1180" transform="translate(0 60)" fill="#ff2f2f"/>
    </clipPath>
    <clipPath id="clip-path-2">
      <circle id="타원_267" data-name="타원 267" cx="36.768" cy="36.768" r="36.768" fill="#fff" stroke="#ff2300" stroke-width="6"/>
    </clipPath>
    <clipPath id="clip-path-3">
      <rect id="사각형_1939" data-name="사각형 1939" width="69.714" height="66.195" fill="#ff2300"/>
    </clipPath>
    <clipPath id="clip-path-4">
      <rect id="사각형_1938" data-name="사각형 1938" width="69.714" height="35.204" fill="#ff2300"/>
    </clipPath>
  </defs>
  <g id="우회도로" transform="translate(0 -60)" clip-path="url(#clip-path)">
    <g id="우회도로_표시" data-name="우회도로 표시" transform="translate(0 60)">
      <g id="그룹_1108" data-name="그룹 1108" transform="translate(198 331)">
        <path id="패스_2968" data-name="패스 2968" d="M5002.8-1769.333c-12.869,10.418-34.93,14.707-44.734,20.835s-39.22,35.542-56.377,41.67-26.351,25.737-33.7,31.865-26.963,20.835-59.441,36.768-61.279,35.542-68.633,44.121-2.451,23.9-9.8,27.576-10.418,6.741-15.32,11.643-7.354,19,0,23.9,23.286,11.643,29.414,19,19.609,20.835,29.414,29.414" transform="translate(-4702.729 1969.013)" fill="none" stroke="#135f9b" stroke-width="8"/>
        <path id="패스_2969" data-name="패스 2969" d="M4919.208-1838.667s11.03,16.546,14.707,21.448,15.933,20.835,15.933,26.963,5.516,30.64,6.128,37.381,1.226,20.222-15.32,24.512-45.959,4.289-56.989,7.966" transform="translate(-4557.25 1910.885)" fill="none" stroke="#135f9b" stroke-linejoin="round" stroke-width="8"/>
        <path id="다각형_6" data-name="다각형 6" d="M12.869,0,25.737,25.737H0Z" transform="translate(318.704 205.158) rotate(-100)" fill="#135f9b"/>
        <path id="다각형_7" data-name="다각형 7" d="M12.869,0,25.737,25.737H0Z" transform="translate(95.481 493.901) rotate(136)" fill="#135f9b"/>
        <path id="다각형_8" data-name="다각형 8" d="M12.869,0,25.737,25.737H0Z" transform="matrix(-0.985, -0.174, 0.174, -0.985, 105.919, 681.299)" fill="#135f9b"/>
        <path id="패스_2970" data-name="패스 2970" d="M4756-1599.565s11.949,12.988,11.949,19.422,2.758,14.707,5.516,25.737,12.868,49.636,12.868,58.828-4.6,16.545-12.868,20.222-11.03,11.949-11.95,20.222" transform="translate(-4664.283 2111.344)" fill="none" stroke="#135f9b" stroke-width="8"/>
        <g id="타원_296" data-name="타원 296" transform="translate(296 187)" fill="#fff" stroke="#135f9b" stroke-width="2">
          <circle cx="9" cy="9" r="9" stroke="none"/>
          <circle cx="9" cy="9" r="8" fill="none"/>
        </g>
        <g id="타원_300" data-name="타원 300" transform="translate(388 164)" fill="#fff" stroke="#135f9b" stroke-width="2">
          <circle cx="9" cy="9" r="9" stroke="none"/>
          <circle cx="9" cy="9" r="8" fill="none"/>
        </g>
        <g id="타원_297" data-name="타원 297" transform="translate(0 426)" fill="#fff" stroke="#135f9b" stroke-width="2">
          <circle cx="9" cy="9" r="9" stroke="none"/>
          <circle cx="9" cy="9" r="8" fill="none"/>
        </g>
        <g id="타원_299" data-name="타원 299" transform="translate(22 388)" fill="#fff" stroke="#135f9b" stroke-width="2">
          <circle cx="9" cy="9" r="9" stroke="none"/>
          <circle cx="9" cy="9" r="8" fill="none"/>
        </g>
        <g id="타원_298" data-name="타원 298" transform="translate(112 611)" fill="#fff" stroke="#135f9b" stroke-width="2">
          <circle cx="9" cy="9" r="9" stroke="none"/>
          <circle cx="9" cy="9" r="8" fill="none"/>
        </g>
        <g id="타원_301" data-name="타원 301" transform="translate(86 505)" fill="#fff" stroke="#135f9b" stroke-width="2">
          <circle cx="9" cy="9" r="9" stroke="none"/>
          <circle cx="9" cy="9" r="8" fill="none"/>
        </g>
        <g id="t_location" transform="translate(328 7)">
          <g id="lacation" transform="translate(7 4)">
            <path id="패스_997" data-name="패스 997" d="M27.882,40.411A11.842,11.842,0,0,0,39.745,28.548c0-6.355-5.084-12.287-11.863-12.287A11.842,11.842,0,0,0,16.019,28.124C16.019,34.48,21.527,40.411,27.882,40.411ZM7.969,8.212A28.161,28.161,0,1,1,47.794,48.037L27.882,67.95,7.969,48.037A28.929,28.929,0,0,1,7.969,8.212Z" transform="translate(-0.025 0.05)" fill="#910004" fill-rule="evenodd"/>
            <circle id="타원_272" data-name="타원 272" cx="17.761" cy="17.761" r="17.761" transform="translate(10.627 9.855)" fill="#910004"/>
            <circle id="타원_273" data-name="타원 273" cx="11.303" cy="11.303" r="11.303" transform="translate(17.109 16.26)" fill="#fff"/>
          </g>
          <rect id="사각형_1863" data-name="사각형 1863" width="72" height="71.851" fill="none"/>
        </g>
      </g>
      <g id="통제구간_표시" data-name="통제구간 표시">
        <g id="그룹_1106" data-name="그룹 1106" transform="translate(569.847 529)">
          <g id="타원_295" data-name="타원 295" transform="translate(0.153 0)" fill="#fff" stroke="#ff2300" stroke-width="2">
            <circle cx="22" cy="22" r="22" stroke="none"/>
            <circle cx="22" cy="22" r="21" fill="none"/>
          </g>
          <line id="선_61" data-name="선 61" x2="20.222" transform="translate(11.653 22.5)" fill="none" stroke="#ff2300" stroke-width="8"/>
        </g>
        <g id="그룹_1107" data-name="그룹 1107" transform="translate(336.847 921)">
          <g id="타원_295-2" data-name="타원 295" transform="translate(0.153)" fill="#fff" stroke="#ff2300" stroke-width="2">
            <circle cx="22" cy="22" r="22" stroke="none"/>
            <circle cx="22" cy="22" r="21" fill="none"/>
          </g>
          <line id="선_61-2" data-name="선 61" x2="20.222" transform="translate(11.653 22.5)" fill="none" stroke="#ff2300" stroke-width="8"/>
        </g>
        <g id="그룹_1123" data-name="그룹 1123" transform="translate(503.816 652.654)">
          <g id="그룹_864" data-name="그룹 864" transform="translate(0 0)">
            <g id="그룹_632" data-name="그룹 632">
              <g id="그룹_501" data-name="그룹 501">
                <g id="패스_1150" data-name="패스 1150" transform="translate(0 0)" fill="#fff">
                  <path d="M 36.76767730712891 72.53535461425781 C 31.93862724304199 72.53535461425781 27.25456809997559 71.58980560302734 22.8455867767334 69.72496795654297 C 18.58651733398438 67.92353057861328 14.76126766204834 65.34440612792969 11.47610759735107 62.05924606323242 C 8.190947532653809 58.77408599853516 5.611827373504639 54.94883728027344 3.810387372970581 50.68976593017578 C 1.945547342300415 46.28078842163086 0.9999973177909851 41.59672546386719 0.9999973177909851 36.76767730712891 C 0.9999973177909851 31.93862724304199 1.945547342300415 27.25456809997559 3.810387372970581 22.8455867767334 C 5.611827373504639 18.58651733398438 8.190947532653809 14.76126766204834 11.47610759735107 11.47610759735107 C 14.76126766204834 8.190947532653809 18.58651733398438 5.611827373504639 22.8455867767334 3.810387372970581 C 27.25456809997559 1.945547342300415 31.93862724304199 0.9999973177909851 36.76767730712891 0.9999973177909851 C 41.59672546386719 0.9999973177909851 46.28078842163086 1.945547342300415 50.68976593017578 3.810387372970581 C 54.94883728027344 5.611827373504639 58.77408599853516 8.190947532653809 62.05924606323242 11.47610759735107 C 65.34440612792969 14.76126766204834 67.92353057861328 18.58651733398438 69.72496795654297 22.8455867767334 C 71.58980560302734 27.25456809997559 72.53535461425781 31.93862724304199 72.53535461425781 36.76767730712891 C 72.53535461425781 41.59672546386719 71.58980560302734 46.28078842163086 69.72496795654297 50.68976593017578 C 67.92353057861328 54.94883728027344 65.34440612792969 58.77408599853516 62.05924606323242 62.05924606323242 C 58.77408599853516 65.34440612792969 54.94883728027344 67.92353057861328 50.68976593017578 69.72496795654297 C 46.28078842163086 71.58980560302734 41.59672546386719 72.53535461425781 36.76767730712891 72.53535461425781 Z" stroke="none"/>
                  <path d="M 36.76767730712891 2 C 32.07318878173828 2 27.52018737792969 2.918975830078125 23.23514556884766 4.731399536132812 C 19.09526443481445 6.482414245605469 15.37686538696289 8.98956298828125 12.18321228027344 12.18321228027344 C 8.98956298828125 15.37686538696289 6.482414245605469 19.09526443481445 4.731399536132812 23.23514556884766 C 2.918975830078125 27.52018737792969 2 32.07318878173828 2 36.76767730712891 C 2 41.46216583251953 2.918975830078125 46.01516723632812 4.731399536132812 50.30020904541016 C 6.482414245605469 54.44008636474609 8.98956298828125 58.15848922729492 12.18321228027344 61.35214233398438 C 15.37686538696289 64.54579162597656 19.09526443481445 67.05294799804688 23.23514556884766 68.803955078125 C 27.52018737792969 70.61637878417969 32.07318878173828 71.53535461425781 36.76767730712891 71.53535461425781 C 41.46216583251953 71.53535461425781 46.01516723632812 70.61637878417969 50.30020904541016 68.803955078125 C 54.44008636474609 67.05294799804688 58.15848922729492 64.54579162597656 61.35214233398438 61.35214233398438 C 64.54579162597656 58.15848922729492 67.05294799804688 54.44008636474609 68.803955078125 50.30020904541016 C 70.61637878417969 46.01516723632812 71.53535461425781 41.46216583251953 71.53535461425781 36.76767730712891 C 71.53535461425781 32.07318878173828 70.61637878417969 27.52018737792969 68.803955078125 23.23514556884766 C 67.05294799804688 19.09526443481445 64.54579162597656 15.37686538696289 61.35214233398438 12.18321228027344 C 58.15848922729492 8.98956298828125 54.44008636474609 6.482414245605469 50.30020904541016 4.731399536132812 C 46.01516723632812 2.918975830078125 41.46216583251953 2 36.76767730712891 2 M 36.76767730712891 0 C 57.07390975952148 0 73.53535461425781 16.46144485473633 73.53535461425781 36.76767730712891 C 73.53535461425781 57.07390975952148 57.07390975952148 73.53535461425781 36.76767730712891 73.53535461425781 C 16.46144485473633 73.53535461425781 0 57.07390975952148 0 36.76767730712891 C 0 16.46144485473633 16.46144485473633 0 36.76767730712891 0 Z" stroke="none" fill="#ff2300"/>
                </g>
              </g>
            </g>
            <g id="그룹_859" data-name="그룹 859" transform="translate(1.911 7.818)">
              <g id="그룹_795" data-name="그룹 795" transform="translate(0 0)">
                <g id="그룹_794" data-name="그룹 794" clip-path="url(#clip-path-3)">
                  <g id="그룹_793" data-name="그룹 793" transform="translate(0 30.991)" style="isolation: isolate">
                    <g id="그룹_792" data-name="그룹 792">
                      <g id="그룹_791" data-name="그룹 791" clip-path="url(#clip-path-4)">
                        <path id="패스_2549" data-name="패스 2549" d="M34.856,77.333A35.205,35.205,0,0,0,69.714,47.026c-.419-.369-.824-.772-1.242-1.2-1.715-1.735-3.659-3.7-7.511-3.7s-5.8,1.966-7.512,3.7c-1.537,1.555-2.865,2.9-5.539,2.9s-4-1.342-5.539-2.9c-1.716-1.735-3.661-3.7-7.512-3.7s-5.8,1.966-7.512,3.7c-1.537,1.555-2.865,2.9-5.539,2.9s-4-1.342-5.539-2.9c-1.717-1.735-3.662-3.7-7.512-3.7s-5.8,1.966-7.514,3.7c-.419.424-.824.828-1.242,1.2A35.2,35.2,0,0,0,34.856,77.333" transform="translate(0 -42.129)" fill="#ff2300"/>
                      </g>
                    </g>
                  </g>
                  <path id="패스_2550" data-name="패스 2550" d="M49.633,10.634,53.308,0l3.4,10.508c.908,3.4,1.729,4.98-.205,7.244-1.4,1.633-5.048,2.04-6.754-.3-1.258-1.91-1.484-2.919-.114-6.821m-11.585,8.5L41.723,8.5l3.4,10.508c.908,3.4,1.729,4.98-.206,7.244-1.4,1.633-5.047,2.04-6.753-.3-1.258-1.91-1.485-2.919-.114-6.82m-11.585-8.5L30.138,0l3.4,10.508c.907,3.4,1.729,4.98-.207,7.244-1.4,1.633-5.047,2.04-6.752-.3-1.258-1.91-1.484-2.919-.114-6.821" transform="translate(-6.75 0)" fill="#ff2300" fill-rule="evenodd"/>
                </g>
              </g>
            </g>
          </g>
        </g>
      </g>
      <g id="그룹_1118" data-name="그룹 1118" transform="translate(365.606 764.768)">
        <g id="사각형_2026" data-name="사각형 2026" transform="translate(7.394 0.232)" fill="#fff" stroke="#ff2300" stroke-width="2">
          <rect width="168" height="72" rx="16" stroke="none"/>
          <rect x="1" y="1" width="166" height="70" rx="15" fill="none"/>
        </g>
        <text id="_1132번_국도_통제구간" data-name="1132번 국도 
통제구간" transform="translate(91.394 30.232)" fill="#ff2300" font-size="20" font-family="SpoqaHanSansNeo-Bold, Spoqa Han Sans Neo" font-weight="700"><tspan x="-55.98" y="0">1132번 국도 </tspan><tspan x="-36.8" y="26">통제구간</tspan></text>
      </g>
    </g>
  </g>
</svg>
