<svg xmlns="http://www.w3.org/2000/svg" width="924" height="1180" viewBox="0 0 924 1180">
    <defs>
        <clipPath id="clip-path">
            <circle id="타원_267" data-name="타원 267" cx="33.707" cy="33.707" r="33.707" style="stroke-width:6px;stroke:#910004;fill:#fff"/>
        </clipPath>
        <clipPath id="clip-path-2">
            <circle id="타원_275" data-name="타원 275" cx="32.598" cy="32.598" r="32.598" style="fill:#86a4e8"/>
        </clipPath>
        <style>
            
        </style>
    </defs>
    <g id="그룹_673" data-name="그룹 673" transform="translate(0 -60)">
        <g id="그룹_672" data-name="그룹 672">
            <g id="그룹_619" data-name="그룹 619" transform="translate(3 -2)">
                <g id="그룹_568" data-name="그룹 568" transform="rotate(-18 727.184 259.215)">
                    <g id="그룹_525" data-name="그룹 525" transform="rotate(16 85.472 608.165)">
                        <g id="그룹_601" data-name="그룹 601" transform="translate(-1.618)">
                            <path id="패스_1151" data-name="패스 1151" d="M200.26 258.787 3.8 570.489l-3.114 4.948" transform="translate(22.278 23.729)" style="stroke:#000;stroke-linecap:round;stroke-width:3px;stroke-dasharray:.3 8;fill:none"/>
                        </g>
                        <path id="다각형_1" data-name="다각형 1" d="m9 0 9 18H0z" transform="rotate(28 -413.378 575.632)"/>
                        <path id="다각형_2" data-name="다각형 2" d="m9 0 9 18H0z" transform="rotate(-150 92.797 307.92)"/>
                    </g>
                </g>
                <g id="그룹_600" data-name="그룹 600" transform="translate(-201 67.289)">
                    <rect id="사각형_1838" data-name="사각형 1838" width="160" height="56" rx="28" transform="translate(382 521.711)"/>
                    <text id="_143_km" data-name="143 km" transform="translate(462 558.711)" style="font-family:SpoqaHanSansNeo-Medium,Spoqa Han Sans Neo;font-weight:500;font-size:26px;fill:#fff"><tspan x="-45.877" y="0">143 km</tspan></text>
                </g>
            </g>
            <g id="그룹_505" data-name="그룹 505" transform="translate(106.571 791.335)">
                <path id="패스_1139" data-name="패스 1139" d="M0 167.925V0" transform="rotate(90 71.885 119.05)" style="fill:none;stroke:#910004"/>
                <g id="그룹_504" data-name="그룹 504" transform="translate(106.971 -5)">
                    <g id="그룹_502" data-name="그룹 502" transform="rotate(90 82.534 86.199)">
                        <path id="패스_980" data-name="패스 980" d="M92 136.535 48.339 170 0 136.535V-22h92z" style="fill:#910004"/>
                    </g>
                    <text id="전남_목포_12km" data-name="전남 목포 12km" transform="translate(37.312 40.615)" style="letter-spacing:-.015em;font-size:20px;font-family:SpoqaHanSansNeo-Medium,Spoqa Han Sans Neo;font-weight:500;fill:#fff"><tspan x="0" y="0">전남 목포 12km</tspan></text>
                    <text id="규모_5.9" data-name="규모 5.9" transform="translate(37.312 73.449)" style="font-size:27px;font-family:SpoqaHanSansNeo-Bold,Spoqa Han Sans Neo;font-weight:700;letter-spacing:-.015em;fill:#fff"><tspan x="0" y="0">규모 5.9</tspan></text>
                </g>
                <g id="그룹_501" data-name="그룹 501" transform="translate(-.571 11.665)">
                    <g id="패스_1150" data-name="패스 1150" style="fill:#fff">
                        <path d="M34 67a32.891 32.891 0 0 1-23.335-9.665A32.891 32.891 0 0 1 1 34a32.891 32.891 0 0 1 9.665-23.335A32.891 32.891 0 0 1 34 1a32.891 32.891 0 0 1 23.335 9.665A32.891 32.891 0 0 1 67 34a32.891 32.891 0 0 1-9.665 23.335A32.891 32.891 0 0 1 34 67z" style="stroke:none"/>
                        <path d="M34 2a31.896 31.896 0 0 0-22.627 9.373A31.896 31.896 0 0 0 2 34a31.896 31.896 0 0 0 9.373 22.627A31.896 31.896 0 0 0 34 66a31.896 31.896 0 0 0 22.627-9.373A31.896 31.896 0 0 0 66 34a31.896 31.896 0 0 0-9.373-22.627A31.896 31.896 0 0 0 34 2m0-2c18.778 0 34 15.222 34 34S52.778 68 34 68 0 52.778 0 34 15.222 0 34 0z" style="fill:#910004;stroke:none"/>
                    </g>
                    <g id="마스크_그룹_29" data-name="마스크 그룹 29" transform="translate(1.402 1.47)" style="clip-path:url(#clip-path-2)">
                        <path id="패스_1152" data-name="패스 1152" d="M503.25 125.784h21.68l4.369-11.8 5.68 19.66 9.175-28.4 6.684 20.534H579.1" transform="translate(-508.579 -88.741)" style="stroke:#ff2300;stroke-width:4.5px;fill:none"/>
                    </g>
                </g>
            </g>
            <g id="t_location" transform="translate(328.274 361.513)">
                <g id="lacation" transform="translate(7 4)">
                    <path id="패스_997" data-name="패스 997" d="M27.882 40.411a11.842 11.842 0 0 0 11.863-11.863c0-6.355-5.084-12.287-11.863-12.287a11.842 11.842 0 0 0-11.863 11.863c0 6.356 5.508 12.287 11.863 12.287zM7.969 8.212a28.161 28.161 0 1 1 39.825 39.825L27.882 67.95 7.969 48.037a28.929 28.929 0 0 1 0-39.825z" transform="translate(-.025 .05)" style="fill-rule:evenodd;fill:#910004"/>
                    <circle id="타원_272" data-name="타원 272" cx="17.761" cy="17.761" r="17.761" transform="translate(10.627 9.855)" style="fill:#910004"/>
                    <circle id="타원_273" data-name="타원 273" cx="11.303" cy="11.303" r="11.303" transform="translate(17.109 16.26)" style="fill:#fff"/>
                </g>
                <path id="사각형_1863" data-name="사각형 1863" style="fill:none" d="M0 0h72v71.851H0z"/>
            </g>
        </g>
        <path id="사각형_1876" data-name="사각형 1876" transform="translate(0 60)" style="fill:none" d="M0 0h924v1180H0z"/>
    </g>
</svg>
