<svg xmlns="http://www.w3.org/2000/svg" xmlns:xlink="http://www.w3.org/1999/xlink" width="64" height="64" viewBox="0 0 64 64">
  <defs>
    <clipPath id="clip-path">
      <circle id="타원_294" data-name="타원 294" cx="31" cy="31" r="31" transform="translate(109 1017)" fill="#fff" stroke="#707070" stroke-width="1"/>
    </clipPath>
    <clipPath id="clip-path-2">
      <rect id="사각형_1648" data-name="사각형 1648" width="182.066" height="66.646" fill="#fff"/>
    </clipPath>
  </defs>
  <g id="그룹_956" data-name="그룹 956" transform="translate(-108 -1016)">
    <g id="마스크_그룹_51" data-name="마스크 그룹 51" clip-path="url(#clip-path)">
      <g id="그룹_947" data-name="그룹 947" transform="translate(56.433 1036.021)">
        <g id="그룹_392" data-name="그룹 392" clip-path="url(#clip-path-2)">
          <path id="패스_1061" data-name="패스 1061" d="M0,61.227c1.888-.861,2.617-2.363,4.846-3.041.633-.225,1.419-.177,2.093-.339a17.876,17.876,0,0,0,3.716-.964c1.789-.889,2.629-2.209,4.37-3.122a4.99,4.99,0,0,1,1.937-.576c.409-.039.809.075,1.214.025a10.437,10.437,0,0,0,2.565-.732,30.518,30.518,0,0,0,4.578-2.521,5.56,5.56,0,0,1,1.716-.815c.5-.122,1.248.13,1.553-.183a21.108,21.108,0,0,0,5.836-6.28c1.044-1.571,1.995-3.162,2.907-4.759,1.321-2.267,2.478-4.564,3.934-6.806,1.352-2.081,3.092-4.073,4.684-6.1a60.572,60.572,0,0,0,4.973-7.391c2.114-3.715,4.456-7.39,6.521-11.113.832-1.44,1.569-2.9,2.531-4.314a8.026,8.026,0,0,1,1.264-1.5A2.555,2.555,0,0,1,62.7,0a16.394,16.394,0,0,1,2.618.427,2.454,2.454,0,0,0-1.463.556,12.455,12.455,0,0,0-2.613,3.25c-1.561,2.549-2.845,5.147-4.373,7.7-.793,1.376-1.644,2.742-2.452,4.115a69.555,69.555,0,0,1-4.109,6.515c-1.379,1.866-2.744,3.737-4.222,5.58-.89,1.085-1.809,2.163-2.558,3.28-1.362,2.037-2.372,4.138-3.578,6.2-1.084,1.88-2.243,3.747-3.5,5.594A19.469,19.469,0,0,1,30.706,49.2a4.565,4.565,0,0,0-1.6.075,18.373,18.373,0,0,0-2.489,1.5c-.868.521-1.861.97-2.8,1.447a10.48,10.48,0,0,1-3.66,1.214,11.7,11.7,0,0,0-2.407.407c-2.342.716-2.867,2.334-4.717,3.316a17.457,17.457,0,0,1-3.771.91,3.979,3.979,0,0,1-1.243.036,4.026,4.026,0,0,0-1.782.683c-1.152.758-2.127,1.6-3.412,2.3a10.463,10.463,0,0,1-2.826.9Z" transform="translate(0 -0.001)" fill="#fff"/>
          <path id="패스_1062" data-name="패스 1062" d="M0,58.185c.555-.112,1.143-.175,1.691-.3a5.7,5.7,0,0,1,1.115-.1c.067-.077-.684.027-.459-.091a13.05,13.05,0,0,0,4.127-1.461,19.4,19.4,0,0,0,2.481-1.457c.764-.54,1.38-1.143,2.229-1.646a2.815,2.815,0,0,1,1.019-.318c-.512-.069-1.034-.111-1.544-.185a7.031,7.031,0,0,0,1.984-.574c1.411-.713,2.083-1.779,3.605-2.432a8.6,8.6,0,0,1,3.336-.344,18.484,18.484,0,0,0,3.557-2.926,36.526,36.526,0,0,0,4.181-5.8c1.672-2.683,3.113-5.414,5-8.054a73.7,73.7,0,0,1,4.945-5.736,61.543,61.543,0,0,0,5.556-7.942c1.535-2.441,3.167-4.864,4.621-7.321.7-1.184,1.436-2.363,2.114-3.551a20.416,20.416,0,0,1,2.716-3.775,22.67,22.67,0,0,1,2.607-1.848,10.783,10.783,0,0,0-1.827,2.135C52,6.012,51.142,7.6,50.2,9.173c-1.619,2.815-3.421,5.6-5.134,8.394a73.8,73.8,0,0,1-4.343,6.652c-.881,1.182-1.885,2.335-2.88,3.489a47.974,47.974,0,0,0-3.761,4.89c-1.613,2.411-2.961,4.873-4.35,7.327a35.264,35.264,0,0,1-3.484,5.263,20.462,20.462,0,0,1-4.639,4.133,6.253,6.253,0,0,0-3.464.6c-1.038.576-1.726,1.31-2.7,1.919a7.259,7.259,0,0,1-3.036.989c.59.088,1.193.166,1.793.228a9.947,9.947,0,0,0,3.306-1.015c1.127-.651,1.951-1.444,3.118-2.073a5.067,5.067,0,0,1,2.556-.63c.22-.016.511.074.672-.048a22.223,22.223,0,0,0,6.12-6.173c1.479-2.26,2.55-4.593,3.889-6.879,1.246-2.157,2.644-4.286,4.094-6.4a47.706,47.706,0,0,1,3.965-4.85A54.138,54.138,0,0,0,46.262,18.5c1.754-3.076,3.721-6.112,5.5-9.183q1.056-1.826,2.1-3.654A29.611,29.611,0,0,1,55.854,2.6a6.211,6.211,0,0,1,1.563-1.481,11.973,11.973,0,0,1,2.567-.71,5.137,5.137,0,0,0-2.041,1.825c-1.408,2.01-2.432,4.095-3.649,6.141-2.123,3.6-4.336,7.183-6.4,10.792a39.646,39.646,0,0,1-4.782,6.8,44.734,44.734,0,0,0-5.2,7.192c-1.6,2.546-2.952,5.136-4.4,7.708A23.633,23.633,0,0,1,26,49.374a6.629,6.629,0,0,0-1.325.035,6.682,6.682,0,0,0-2.131.948,21.014,21.014,0,0,1-4.2,2.367,11.758,11.758,0,0,1-2.307.571c-.46-.033-.9-.128-1.359-.158a3.309,3.309,0,0,0-1.891.667c-1.266.858-2.326,1.811-3.719,2.612a14.041,14.041,0,0,1-4.437,1.506c-.4.061.189.041.289.107a13.558,13.558,0,0,0-2.663.369A4.906,4.906,0,0,0,0,59.59Z" transform="translate(0 -0.293)" fill="#fff"/>
          <path id="패스_1063" data-name="패스 1063" d="M0,65.974c.2-.017.394-.029.589-.048.112-.106-.526.037-.422-.064.267-.083.584-.092.868-.149a13.962,13.962,0,0,0,4.807-1.595,27.416,27.416,0,0,0,2.885-1.935,3.562,3.562,0,0,1,1.292-.568c.5-.08,1.024.117,1.51-.007,1.371-.291,2.994-.394,4.017-1.04,1.2-.76,1.815-1.742,2.955-2.527a5.081,5.081,0,0,1,1.955-.708A11.869,11.869,0,0,1,22.707,57l-.235-.028a11.707,11.707,0,0,0,2.878-.9c1.28-.635,2.611-1.246,3.758-1.958A13.986,13.986,0,0,1,31.436,52.7a4.108,4.108,0,0,1,1.639-.033,18.18,18.18,0,0,0,4.411-4c3.308-4.209,5.28-8.688,8.111-12.993,1.722-2.529,4-4.926,5.894-7.414a53.578,53.578,0,0,0,4.058-5.986c1.643-2.786,3.409-5.549,4.941-8.356a66.592,66.592,0,0,1,3.993-6.749,9.358,9.358,0,0,1,2.057-2.2,1.972,1.972,0,0,1,1.475-.37,19.557,19.557,0,0,1,2.8,1.478,2.1,2.1,0,0,0-1.647.108,6.377,6.377,0,0,0-2.12,2.07c-1.6,2.367-2.756,4.818-4.2,7.214-.978,1.707-2.038,3.4-3.1,5.091s-2.09,3.42-3.164,5.125a31.1,31.1,0,0,1-4.44,5.75,26.946,26.946,0,0,0-2.488,2.738,80.623,80.623,0,0,0-6.631,10.3,23.994,23.994,0,0,1-5.007,6.5A23.072,23.072,0,0,1,35.43,52.9a4.716,4.716,0,0,0-1.479-.043,5.411,5.411,0,0,0-1.548.715,38.34,38.34,0,0,1-4.022,2.466,11.9,11.9,0,0,1-3.1,1.039c-.269.069-.58.083-.836.166.13.036.347.008.446.076a8.383,8.383,0,0,0-2.748.39,7.222,7.222,0,0,0-2.881,1.961,5.81,5.81,0,0,1-2.7,1.648c-.992.233-2.035.391-3.055.583-.349.063-.7-.055-1.054-.008a3.736,3.736,0,0,0-1.482.536c-1.227.751-2.214,1.619-3.552,2.316a16.3,16.3,0,0,1-5.231,1.357c-.029.082.231.035.305.092A6.522,6.522,0,0,0,0,66.584Z" transform="translate(0 -3.294)" fill="#fff"/>
          <path id="패스_1064" data-name="패스 1064" d="M26.441,70.8c.725-.476,1.383-.984,2.137-1.446a3.674,3.674,0,0,1,1.869-.59c-.054-.008-.157-.017-.05-.035q1.717-.247,3.43-.505a5.679,5.679,0,0,0,2.4-.823A24.236,24.236,0,0,1,39.3,65.274a7.413,7.413,0,0,1,3.087-.6,2.631,2.631,0,0,0-.286-.056,17.829,17.829,0,0,0,4.746-1.164c1.532-.814,2.512-1.886,3.979-2.733a3.636,3.636,0,0,1,1.9-.546l-.067-.046a22.317,22.317,0,0,0,4.529-1.08c2.266-.966,3.138-2.66,5.625-3.491a5.256,5.256,0,0,1,2.206-.175,19.724,19.724,0,0,1,2.86-1.785,6.411,6.411,0,0,1,2.627-.347c1.539-1.448,2.334-3.1,3.783-4.574a21.792,21.792,0,0,1,2.626-2.152,10.786,10.786,0,0,1,2.374-1.59,10.7,10.7,0,0,1,2.361-.384,4.363,4.363,0,0,0,1.663-.749,35.692,35.692,0,0,0,4.068-3.629,55.468,55.468,0,0,0,4.645-4.933c1.543-1.9,2.513-3.928,3.873-5.871a10.581,10.581,0,0,1,3.825-3.3,4.117,4.117,0,0,1,1.649-.515,3.839,3.839,0,0,1,1.666.427,11.312,11.312,0,0,0,2.605,1.024,24.068,24.068,0,0,0,3.72.4c.806.055,1.586.194,2.394.247a9.077,9.077,0,0,0,3.648-.53,20.428,20.428,0,0,1,2.941-.959,6.909,6.909,0,0,1,2.684.13c1.106-4.914,2.12-9.874,4.784-14.62a20.282,20.282,0,0,1,3.472-4.615,4.5,4.5,0,0,1,3.264-1.3,24.628,24.628,0,0,1,4.194.606,18.857,18.857,0,0,0-2.436-.131,4.34,4.34,0,0,0-2.261.732,9.737,9.737,0,0,0-1.463,1.271c-3.324,3.528-4.768,7.483-5.908,11.381-.69,2.385-1.237,4.782-1.754,7.18.54.13,1.033.309,1.554.461.542-2.64,1.224-5.271,2.018-7.892a33.717,33.717,0,0,1,2.494-6.177,15.077,15.077,0,0,1,4.446-4.994,5.049,5.049,0,0,1,2.1-.963,9.753,9.753,0,0,1,2.728.1,8.428,8.428,0,0,1,2.384.638,32.639,32.639,0,0,1,3.768,2.512,27.619,27.619,0,0,0-4.588-1.667,6.017,6.017,0,0,0-2.615-.264,7.89,7.89,0,0,0-2.346.973,11.234,11.234,0,0,0-4.378,4.186,23.942,23.942,0,0,0-1.766,3.672,91.057,91.057,0,0,0-3.107,10.393,6.04,6.04,0,0,0-2.654-.557,8.7,8.7,0,0,0-2.634.672,28.187,28.187,0,0,1-4.751,1.868,16.986,16.986,0,0,1-3.4.242,19.728,19.728,0,0,1-3.482-.046c-1.542-.216-2.836-.793-4.392-.979a4.947,4.947,0,0,0-3.319.864A13.221,13.221,0,0,0,98.1,32.779a60.042,60.042,0,0,1-5.59,7.17c-.748.774-1.594,1.516-2.434,2.259a30.953,30.953,0,0,1-3.64,2.9,7.606,7.606,0,0,1-1.942.908c-.791.234-1.723.211-2.557.373a7.456,7.456,0,0,0-2.295.954,15.669,15.669,0,0,0-3.48,2.793c-.958.979-1.678,2.028-2.7,2.987-.792.1-1.642.05-2.435.17a3.949,3.949,0,0,0-1.658.654c-.837.556-1.436,1.219-2.358,1.736a7.8,7.8,0,0,0-2.761.485c-1.9.811-2.524,2.2-4.21,3.113a6.7,6.7,0,0,1-1.588.523c-1.126.229-2.271.426-3.42.614-.062.05.212,0,.126.045a4.293,4.293,0,0,0-2.62.95,25.172,25.172,0,0,1-3.76,2.394,18.851,18.851,0,0,1-4.59,1.11c.08.018.162.034.243.054a5.626,5.626,0,0,0-2.495.39A11.447,11.447,0,0,0,39.147,67.2a5.53,5.53,0,0,1-2.471,1.171c-1.388.25-2.825.407-4.224.638.226.03.454.062.684.091a4.75,4.75,0,0,0-1.365.157A10.261,10.261,0,0,0,28.915,70.8Z" transform="translate(-13.12 -4.152)" fill="#fff"/>
          <path id="패스_1065" data-name="패스 1065" d="M15.422,71.12a21.719,21.719,0,0,1,2.818-1.875,7.552,7.552,0,0,1,3.236-.561c-.253-.089-.673-.044-.839-.166a21.206,21.206,0,0,0,5.3-1.175,37.787,37.787,0,0,0,4.039-2.554,3.556,3.556,0,0,1,1.19-.432c.467-.1.944.114,1.4-.018a15.652,15.652,0,0,0,4.23-.995c1.513-.871,2.147-2.144,3.951-2.87a8.678,8.678,0,0,1,3.047-.516c-.3-.082-.65-.074-.966-.126a20.748,20.748,0,0,0,3.574-.844c2.247-.825,3.614-2.149,5.353-3.255a4.209,4.209,0,0,1,1.9-.716c-.6-.018-1.2-.077-1.8-.1a13.242,13.242,0,0,1,2.533-1.071c-.847.048-1.694.115-2.531.2a17.746,17.746,0,0,0,2.042-1.409,15.034,15.034,0,0,0,3.736-4.759c.573-.974,1.119-1.954,1.785-2.91.953-1.378,2.287-2.66,3.328-4.016a16.728,16.728,0,0,1,2.265-2.523c.78-.633,2.029-1.035,2.753-1.693A17.383,17.383,0,0,0,70.215,33.9c1.543-2.1,3.007-4.223,4.529-6.33,1.083-1.51,2.2-3.014,3.152-4.55,1.256-1.96,2.109-3.988,3.27-5.964a7.149,7.149,0,0,1,2.947-2.943,4.74,4.74,0,0,1,1.78-.62,2,2,0,0,1,1.367.388c1.141,1.044,2.135,2.137,3.147,3.22a3.055,3.055,0,0,0-1.676-.838,3.887,3.887,0,0,0-1.979.626,7.855,7.855,0,0,0-3.014,2.76c-1.431,2.229-2.368,4.546-3.891,6.758-1.509,2.228-3.271,4.4-4.927,6.594-1.157,1.511-2.293,3.029-3.572,4.511a7.119,7.119,0,0,1-2.111,1.71,10.9,10.9,0,0,0-2.147,1.037,20.111,20.111,0,0,0-2.456,2.561c-.709.814-1.551,1.589-2.266,2.4a46.208,46.208,0,0,0-3.343,5.026,10.621,10.621,0,0,1-2.836,3.029,7.841,7.841,0,0,0-.672.475c.47-.023.932-.08,1.4-.094A23.16,23.16,0,0,0,54.1,54.949c-.054.032-.182.055-.132.109.561.019,1.1.115,1.659.147a13.361,13.361,0,0,0,1.731-.77,6.867,6.867,0,0,1,2.082-.889l-.422-.009a9.668,9.668,0,0,0,2.027-2.045c1.067-1.452,1.842-2.966,2.986-4.4a27.326,27.326,0,0,1,2.591-2.584,23.144,23.144,0,0,1,2.549-2.437,5.617,5.617,0,0,1,1.917-.752,5.086,5.086,0,0,0,2.356-1.454c1.456-1.454,2.645-2.984,3.916-4.49a75.226,75.226,0,0,0,5.489-7.033c1.244-1.924,2.046-3.932,3.422-5.83a9.7,9.7,0,0,1,3.435-2.794,2.918,2.918,0,0,1,1.762-.4,4.13,4.13,0,0,1,1.685.956,11.007,11.007,0,0,0,2.878,1.939c1.009.45,2.041.886,3.047,1.338-.168-.213-.865-.287-.692-.559a34.959,34.959,0,0,1,3.044-5.874,7.945,7.945,0,0,1,3.9-3.241,37.517,37.517,0,0,0,3.79-1.748,11.3,11.3,0,0,0-2.921,2.328,16.994,16.994,0,0,0-2.221,3.638c-1,2.095-1.788,4.217-2.553,6.341-.036.132-.153.3.119.389a9.86,9.86,0,0,0,2.86.944,58.551,58.551,0,0,1,3.4-9.06,17.484,17.484,0,0,1,6.15-6.978c1.1-.6,2.262-1.159,3.479-1.68a13.523,13.523,0,0,0-3.133,2.84,24.642,24.642,0,0,0-4.673,8.431c-.7,2.06-1.3,4.131-1.822,6.208a19.489,19.489,0,0,1,3,0c.532-2.247,1.137-4.491,1.863-6.722a26.708,26.708,0,0,1,5.072-9.567A9.015,9.015,0,0,1,120.5,6.92a18.15,18.15,0,0,1,3.128-.706A5.785,5.785,0,0,0,120.946,8a23.881,23.881,0,0,0-3.1,4.5c-2.36,4.378-3.464,8.923-4.495,13.445a9.54,9.54,0,0,0-2.846-.34,22.964,22.964,0,0,0-3.073.669,7.59,7.59,0,0,1-2.921-.043c-1.2-.257-2.272-.67-3.47-.931a21.391,21.391,0,0,1-4.057-1.066,20.79,20.79,0,0,1-2.052-1.285,2.882,2.882,0,0,0-1.3-.44,3.852,3.852,0,0,0-1.859.66,14.355,14.355,0,0,0-2.309,1.65,10.808,10.808,0,0,0-1.83,2.352,57.752,57.752,0,0,1-3.2,5.275c-1.062,1.452-2.368,2.841-3.618,4.243-1.5,1.6-2.9,3.237-4.522,4.806a6.852,6.852,0,0,1-2.057,1.475,26.422,26.422,0,0,0-2.626.65,11.419,11.419,0,0,0-2.174,1.723c-.865.826-1.938,1.58-2.746,2.424a22.491,22.491,0,0,0-2.26,3.01,12.306,12.306,0,0,1-2.3,2.748,4.177,4.177,0,0,0-.987.15,29.322,29.322,0,0,0-3.671,1.764,7.336,7.336,0,0,0-1.878-.1,5.18,5.18,0,0,0-1.777.854,22.459,22.459,0,0,1-5.863,3.31,23.207,23.207,0,0,1-2.89.625c.21.082.563.046.734.143a6.046,6.046,0,0,0-3.759,1.035c-1.26.826-1.926,1.937-3.562,2.578a27.84,27.84,0,0,1-3.706.729c-.485.116-1.033-.005-1.511.128a8.208,8.208,0,0,0-2.944,1.515,9.014,9.014,0,0,1-3.524,1.871c-1.368.293-2.8.478-4.218.682-.1.08.342.052.123.07a4.031,4.031,0,0,0-1.82.493A30.533,30.533,0,0,0,18.2,71.12Z" transform="translate(-7.652 -4.474)" fill="#fff"/>
          <path id="패스_1066" data-name="패스 1066" d="M0,76.626c.59-.416,1.172-.836,1.791-1.24a4.241,4.241,0,0,1,2-.751,7.14,7.14,0,0,0,1.564-.153,14.232,14.232,0,0,0,3.912-.9c1.341-.726,2.12-1.711,3.512-2.411a6.393,6.393,0,0,1,2.735-.686,16.894,16.894,0,0,0,4.611-1.219c1.509-.872,2.426-2,3.971-2.859a4.281,4.281,0,0,1,2.187-.565,18.239,18.239,0,0,0,4.48-1.135c1.393-.71,2.216-1.682,3.472-2.458a5.338,5.338,0,0,1,2.775-.871,11.154,11.154,0,0,0,1.891-.006c-.311-.006-.622,0-.932,0a22.275,22.275,0,0,0,4.052-3.209,21.756,21.756,0,0,0,3.436-4.95,44.049,44.049,0,0,1,2.959-4.827c.642-.9,1.325-1.79,1.962-2.691a29.863,29.863,0,0,1,2.5-3.217c.8-.819,1.919-1.525,2.71-2.347a22.921,22.921,0,0,0,2.426-3.16c1.558-2.341,3-4.707,4.538-7.052,1.3-2.007,2.642-4.005,3.785-6.041,1.111-1.924,1.917-3.9,3.233-5.79a4.882,4.882,0,0,1,2.085-1.774,2.979,2.979,0,0,1,2.208-.033,25.366,25.366,0,0,1,2.977,2.151,2.28,2.28,0,0,0-1.1-.274,4.8,4.8,0,0,0-1.645.434,5.382,5.382,0,0,0-2.377,2.048,50.226,50.226,0,0,0-2.494,4.6,91.467,91.467,0,0,1-5.395,8.394c-1.223,1.81-2.405,3.629-3.655,5.435a20.216,20.216,0,0,1-2.2,2.752c-.769.8-2.087,1.366-2.9,2.147a24.562,24.562,0,0,0-2.449,3c-.85,1.154-1.848,2.272-2.681,3.43-1.893,2.6-2.8,5.409-5.129,7.911a19.913,19.913,0,0,1-3.845,2.98c-.787.119-1.677,0-2.442.194.44.058.9.063,1.338.116a7.883,7.883,0,0,0-3.345.753c-1.248.777-1.9,1.789-3.139,2.57-1.1.68-2.815.77-4.279,1.063-.508.145-1.113-.028-1.6.154a7.628,7.628,0,0,0-2.134,1.285,16.029,16.029,0,0,1-4.622,2.618,18.548,18.548,0,0,1-2.891.67c.091.016.182.034.275.054a11.61,11.61,0,0,0-2.984.526c-1.8.679-2.378,1.965-4.048,2.719a15.992,15.992,0,0,1-3.262.659,7.838,7.838,0,0,1-1.9.174,3.671,3.671,0,0,0-1.66.661A16.484,16.484,0,0,1,0,78.009Z" transform="translate(0 -11.579)" fill="#fff"/>
          <path id="패스_1067" data-name="패스 1067" d="M237.466,21.562a5.158,5.158,0,0,1,2.465.306c1.558.53,2.664,1.415,4.386,1.8a5.312,5.312,0,0,1,1.765.715,32.617,32.617,0,0,1,2.752,2.712c-.245-.139-.45-.3-.717-.425a7.155,7.155,0,0,0-1.708-.457,6.3,6.3,0,0,1-1.6-.635,18.466,18.466,0,0,0-3.438-1.774,5.931,5.931,0,0,0-2.5-.281c-1.094.083-2.079.393-3.166.5a8.31,8.31,0,0,0-1.956.2,3.557,3.557,0,0,0-1.662,1.33,17.9,17.9,0,0,0-1.531,2.518,67.64,67.64,0,0,0-4.706,11.882,2.513,2.513,0,0,1-.737-.4c.7-2.6,1.516-5.185,2.414-7.762a36.642,36.642,0,0,1,2.471-5.68,7.164,7.164,0,0,1,1.864-2.163,15.264,15.264,0,0,1,2.277-1.231,12.249,12.249,0,0,1,3.333-1.155" transform="translate(-111.694 -15.493)" fill="#fff"/>
          <path id="패스_1068" data-name="패스 1068" d="M0,204.476c.04.006.034.014,0,.02Z" transform="translate(0 -147.21)" fill="#fff"/>
          <path id="패스_1069" data-name="패스 1069" d="M0,72.512a24.011,24.011,0,0,0,2.645-1.288,16.143,16.143,0,0,0,1.889-1.132A24.518,24.518,0,0,1,6.8,68.443a2.173,2.173,0,0,1,.912-.258c-.324-.028-.653-.043-.971-.087,2.353-.448,3-1.947,4.815-2.756a6.176,6.176,0,0,1,2.092-.39c-.409-.016-.819-.016-1.227-.03a17.138,17.138,0,0,0,5.446-5.235c2.049-2.811,3.8-5.726,6.836-8.272.529-.422,1.126-.817,1.664-1.233a37.9,37.9,0,0,1,3.575-3.757c-.335.506-.822.979-1.169,1.483a14.432,14.432,0,0,0,2-2.4,43.769,43.769,0,0,1,3.577-4.387c-1.055,1.485-2.233,2.946-3.357,4.414.3-.243.447-.532.747-.774-1.174,1.44-2.424,2.867-3.755,4.266a19.722,19.722,0,0,0,2.968-2.861c1.236-1.419,2.333-2.875,3.489-4.314,1.66-2.066,3.269-4.146,4.685-6.268.85-1.28,1.655-2.569,2.492-3.851.855-1.2,1.733-2.39,2.717-3.557-1.2,1.778-2.264,3.585-3.423,5.37-1.532,2.395-3.307,4.736-5.047,7.085-2,2.669-3.826,5.428-6.954,7.769-3.927,2.93-6,6.436-8.277,9.822a19.625,19.625,0,0,1-6.553,6.758c.556.012,1.111.035,1.668.045a4.845,4.845,0,0,0,.9-.533,20.165,20.165,0,0,0,5.966-6.573,54.462,54.462,0,0,1,6.84-9.458c1.189-1.233,2.693-2.363,3.841-3.609a43.84,43.84,0,0,0,3.824-4.9c2-2.93,4.148-5.828,5.991-8.791,1.294-2.021,2.465-4.069,3.935-6.054.774-.912,1.581-1.819,2.474-2.7-1.433,1.9-2.468,3.885-3.683,5.831-1.354,2.23-2.839,4.434-4.323,6.639-1.532,2.271-2.929,4.571-4.633,6.8a27.482,27.482,0,0,1-3.247,3.6c-3.989,3.751-6.252,7.953-8.817,12.042-1.7,2.7-3.544,5.467-7,7.642-.225.192-.678.077-1.007.088a6.361,6.361,0,0,0-3.422.58c-1.291.747-1.963,1.8-3.57,2.379-.316.132-.742.173-1.064.281.406.038.918.05,1.249.118a2.072,2.072,0,0,0-1,.263A18.1,18.1,0,0,0,7.22,70.01a24.778,24.778,0,0,1-4.161,2.366A12.42,12.42,0,0,1,0,73.341Z" transform="translate(0 -16.129)" fill="#fff"/>
          <path id="패스_1070" data-name="패스 1070" d="M236.068,34.157a2.211,2.211,0,0,1,1.516-.427c.829.079,1.483.413,2.294.529a36.113,36.113,0,0,1,4.1.511c2.256.628,3.519,1.912,5.406,2.788.732.369,1.818.358,2.572.7a4.133,4.133,0,0,1,1.037.684c1,1.066,1.91,2.158,2.848,3.241a5.31,5.31,0,0,0-1.279-.889,6.539,6.539,0,0,0-1.663-.385,5.641,5.641,0,0,1-1.969-.772,23.579,23.579,0,0,0-5.081-2.751,29.523,29.523,0,0,1-4.28-1.378,9.393,9.393,0,0,0-1.957-.875,2.218,2.218,0,0,0-1.375.126,6.041,6.041,0,0,0-1.631,1.153,19.856,19.856,0,0,0-4.333,6.488,27.106,27.106,0,0,1-3.995,6.483c-.151-.087-.483-.172-.349-.318,1.778-3.576,2.733-7.272,4.871-10.793a30.5,30.5,0,0,1,1.875-2.715,7.521,7.521,0,0,1,1.4-1.405" transform="translate(-113.078 -24.276)" fill="#fff"/>
          <path id="패스_1071" data-name="패스 1071" d="M173.951,39.935a42.242,42.242,0,0,1,4.393-1.872,8.386,8.386,0,0,0-2.4,2.158,30.633,30.633,0,0,0-2.791,4.414,24.432,24.432,0,0,1-2.111-1.409,11.646,11.646,0,0,1,2.9-3.291" transform="translate(-84.87 -27.403)" fill="#fff"/>
          <path id="패스_1072" data-name="패스 1072" d="M239.576,45.879a4.364,4.364,0,0,1,1.77-.717,2.586,2.586,0,0,1,1.588.414c.824.508,1.475,1.1,2.336,1.586,1.564.857,3.654,1.352,5.164,2.244,1.141.606,2.122,1.294,3.166,1.949a6.9,6.9,0,0,0,1.862.855,19.322,19.322,0,0,1,2.179.365,4.558,4.558,0,0,1,1.518,1.023c1.043,1.123,2.047,2.258,3.058,3.389a5.549,5.549,0,0,0-2.025-1.37c-.751-.224-1.658-.054-2.42-.255a6.639,6.639,0,0,1-1.688-.758c-1.109-.669-2.132-1.382-3.316-2.011-1.6-.937-3.709-1.567-5.156-2.589a35.23,35.23,0,0,0-3-2.308,2.7,2.7,0,0,0-1.932-.139,7.208,7.208,0,0,0-4.052,2.764,41.919,41.919,0,0,1-3.053,4.072,11.358,11.358,0,0,1-3.682,2.656,11.21,11.21,0,0,1-2.5.923c-.117-.088-.482-.191-.24-.292a13.387,13.387,0,0,0,3.624-3.026c1.66-1.949,2.534-4.062,3.9-6.073a9.34,9.34,0,0,1,2.9-2.7" transform="translate(-113.661 -32.506)" fill="#fff"/>
          <path id="패스_1073" data-name="패스 1073" d="M168.651,51.783c.364-.158.722-.319,1.094-.471-.263.236-.577.452-.86.681-.086-.068-.159-.143-.234-.211" transform="translate(-83.682 -36.941)" fill="#fff"/>
          <path id="패스_1074" data-name="패스 1074" d="M243.459,63.448a5.141,5.141,0,0,1,2.376-.889,3.731,3.731,0,0,1,2.08.426,21.589,21.589,0,0,1,2.721,2.123,16.246,16.246,0,0,0,2.233,1.523c1.21.669,2.566,1.253,3.749,1.939,1.216.65,2.27,1.392,3.587,1.981a4.946,4.946,0,0,0,1.88.459,5.671,5.671,0,0,1,2.233.286,11.823,11.823,0,0,1,2.55,1.9c.81.746,1.62,1.493,2.42,2.242a11.39,11.39,0,0,0-2.148-1.2,9.727,9.727,0,0,0-2.707-.46,12.466,12.466,0,0,1-4.712-1.7c-1.027-.577-2.148-1.1-3.207-1.659a37.109,37.109,0,0,1-4.655-3.376,11.15,11.15,0,0,0-2.33-1.444,4.419,4.419,0,0,0-1.62-.381,4.559,4.559,0,0,0-2.635.981c-1.753,1.3-2.882,2.831-4.837,4.049a11.888,11.888,0,0,1-3.891,1.4,7.141,7.141,0,0,1-2.991.163,7.87,7.87,0,0,1-2.39-.924,9.747,9.747,0,0,0,4.272-.8,12.042,12.042,0,0,0,5.183-3.833,16.348,16.348,0,0,1,2.839-2.81" transform="translate(-114.7 -45.028)" fill="#fff"/>
          <path id="패스_1075" data-name="패스 1075" d="M68.686,71c.929-1.324,1.857-2.651,2.954-3.934a2.264,2.264,0,0,1-.289.446,88.09,88.09,0,0,1-5.77,7.871c1.111-1.442,2.177-2.9,3.105-4.383" transform="translate(-32.54 -48.283)" fill="#fff"/>
          <path id="패스_1076" data-name="패스 1076" d="M36.114,125.693a5.838,5.838,0,0,1,.684-.442,7.18,7.18,0,0,1,3.8-.907,10.413,10.413,0,0,1-1.142-.185c1.078-.144,2.146-.31,3.22-.462a8.75,8.75,0,0,0,2.579-.675c1.413-.74,2.337-1.712,3.711-2.47a4.115,4.115,0,0,1,1.435-.489c.358-.063.734.057,1.088-.022a17.271,17.271,0,0,0,4.709-1.117c1.4-.767,2.243-1.788,3.687-2.531a5.376,5.376,0,0,1,2.718-.673c-.089-.083-.475-.017-.507-.09,1.122-.187,2.241-.38,3.334-.616a6.907,6.907,0,0,0,1.956-.706c1.392-.837,2.17-1.93,3.6-2.751a5.1,5.1,0,0,1,2.532-.685c.469.021.055-.029-.057-.054a12.838,12.838,0,0,0,2.791-1.74,5.5,5.5,0,0,1,2.9-1.1q1.037-.076,2.082-.117c1.273-1.111,2.336-2.295,3.625-3.4a6.383,6.383,0,0,1,2.4-1.406c1.237-.343,2.655-.378,3.939-.646a9.709,9.709,0,0,0,3.623-1.355,21.642,21.642,0,0,0,1.839-1.3,28.318,28.318,0,0,0,3.447-2.932c2.195-2.353,3.939-4.826,6.063-7.2a11.328,11.328,0,0,1,2.045-1.893,4.462,4.462,0,0,1,2.607-.672c1.859.051,3.478.651,5.305.789a27.21,27.21,0,0,0,3.925-.3,10.883,10.883,0,0,0,2.819-.542,38.435,38.435,0,0,0,4.189-2.035,7.686,7.686,0,0,1,2.412-.744,7.277,7.277,0,0,1,2.734.233c2.513.7,3.908,2.238,6.536,2.838A11.147,11.147,0,0,0,143.2,87.1a8.667,8.667,0,0,0,3.2-1.132c1.679-1.008,2.86-2.237,4.546-3.242a4.6,4.6,0,0,1,2.6-.693,5.812,5.812,0,0,1,2.545,1c1.731,1.137,3.036,2.449,4.716,3.607a27.13,27.13,0,0,0,4.058,2.18,12.655,12.655,0,0,0,3.378,1.3c1.41.269,2.9.38,4.307.66a6.851,6.851,0,0,1,2.464.861c.921.688,1.789,1.4,2.678,2.1a5.159,5.159,0,0,0-2.022-.646c-1.685-.171-3.444-.06-5.1-.342a12.241,12.241,0,0,1-3.021-1.036c-1.082-.5-2.224-.955-3.242-1.494a33.378,33.378,0,0,1-4.98-3.728,8.657,8.657,0,0,0-2.8-1.6,3.825,3.825,0,0,0-2.055-.052,7.54,7.54,0,0,0-2.7,1.5,12,12,0,0,1-3.688,2.217,19.3,19.3,0,0,1-4.414.7,6.979,6.979,0,0,1-3.108-.458c-1.816-.716-3.106-1.752-4.82-2.533a5.808,5.808,0,0,0-2.974-.527,6.957,6.957,0,0,0-2.8,1.117A19.421,19.421,0,0,1,125.24,89.6a19.065,19.065,0,0,1-3.224.681,20.8,20.8,0,0,1-3.594.453,15.569,15.569,0,0,1-3.737-.592,6.937,6.937,0,0,0-2.048-.18,5.108,5.108,0,0,0-2.029.667,11.393,11.393,0,0,0-2.135,1.771c-2.191,2.251-3.8,4.669-6.187,6.863a26.669,26.669,0,0,1-3.392,2.5,13.362,13.362,0,0,1-2.45,1.353,15.907,15.907,0,0,1-3.557.689,23.437,23.437,0,0,1-2.712.14A4.742,4.742,0,0,0,86.9,105.49c-.884.791-1.729,1.6-2.74,2.344a17.639,17.639,0,0,0-2.935.078,7.267,7.267,0,0,0-1.8.77,20.444,20.444,0,0,1-4.619,2.333,7.5,7.5,0,0,1,.843.1,4.541,4.541,0,0,0-2.282.8,44.678,44.678,0,0,1-4.069,2.756,18.648,18.648,0,0,1-4.911,1.295,6.809,6.809,0,0,1,.721.124,6.464,6.464,0,0,0-3.6.892c-1.126.716-1.835,1.607-3.015,2.3a12.739,12.739,0,0,1-3.87.9,7.445,7.445,0,0,1-1.407.155,3.135,3.135,0,0,0-1.618.346,30.365,30.365,0,0,0-3.139,2.012A7.148,7.148,0,0,1,45.7,123.8c-1.377.269-2.812.441-4.209.663.258.065.561.066.8.15a5.965,5.965,0,0,0-3.5,1.077Z" transform="translate(-17.919 -59.047)" fill="#fff"/>
          <path id="패스_1077" data-name="패스 1077" d="M294.863,87.413c.057.055.118.111.18.168-.063-.057-.122-.113-.18-.168" transform="translate(-146.306 -62.932)" fill="#fff"/>
          <path id="패스_1078" data-name="패스 1078" d="M65.214,97.156c.043.013-.059.166-.162.2a.361.361,0,0,1,.162-.2" transform="translate(-32.278 -69.946)" fill="#fff"/>
          <path id="패스_1079" data-name="패스 1079" d="M63.566,100.266c.037.078-.194.3-.329.4a1.371,1.371,0,0,1,.329-.4" transform="translate(-31.377 -72.185)" fill="#fff"/>
          <path id="패스_1080" data-name="패스 1080" d="M47.163,139.621a4.683,4.683,0,0,1,2.44-.877c-.193-.02-.389-.034-.58-.06,1.415-.216,2.855-.4,4.267-.632a6.481,6.481,0,0,0,1.811-.545c1.394-.715,2.2-1.72,3.7-2.38a5.776,5.776,0,0,1,2.534-.532l-.143-.038c1.688-.31,3.629-.379,5.024-1.053,1.492-.808,2.3-1.926,3.852-2.707a4.378,4.378,0,0,1,2.207-.514c-.024-.058-.408-.042-.171-.078a16.719,16.719,0,0,0,5.281-1.449c1.421-.807,2.44-1.8,3.838-2.618a4.725,4.725,0,0,1,2.671-.717c-.585-.1-1.185-.171-1.775-.26,2.341-.642,3.844-1.876,5.742-2.824a4.381,4.381,0,0,1,2.115-.544c.757.024,1.63.071,2.3.118a5.9,5.9,0,0,0-2.794.772c-1.286.719-2.136,1.668-3.641,2.267a10.463,10.463,0,0,1-1.805.485,17.494,17.494,0,0,0,1.777.246,8.754,8.754,0,0,0,2.9-.734c1.333-.7,2.1-1.663,3.419-2.366a5.655,5.655,0,0,1,2.043-.593c-.591-.051-1.2-.054-1.8-.069,1.047-.837,2.025-1.706,3.2-2.492a4.537,4.537,0,0,1,2.048-.729c1.622-.1,3.167.366,4.793.217a9.219,9.219,0,0,0,3.882-1.284,25.791,25.791,0,0,0,4.694-3.087,34,34,0,0,0,3.887-4.264,12.254,12.254,0,0,1,3.491-3.028,5.441,5.441,0,0,1,3.055-.661c1.263.132,2.325.588,3.588.721a12.552,12.552,0,0,0,4.4-.395c.856-.184,1.745-.325,2.56-.565,2.868-.9,4.393-2.647,7.04-3.7a6.908,6.908,0,0,1,2.126-.443,7.5,7.5,0,0,1,3.338.8,20.98,20.98,0,0,0,4.473,1.973,9.8,9.8,0,0,0,3,.2,15.311,15.311,0,0,0,4.012-.558c1.832-.667,2.989-1.733,4.524-2.576a5.281,5.281,0,0,1,3.088-.662,6.764,6.764,0,0,1,3.358,1.455,33.415,33.415,0,0,0,5.267,3.908c1.276.647,2.744,1.159,4.133,1.727a9.168,9.168,0,0,0,3.689.751,31.763,31.763,0,0,1,3.384-.37,6.225,6.225,0,0,1,2.339.69c.447.278.88.563,1.334.839.718.033,1.446.041,2.164.1a4.077,4.077,0,0,0-1.539.274c.225.157.531.275.744.439a6.809,6.809,0,0,0-3.028-.649c-1.245.117-2.225.682-3.521.691a11.41,11.41,0,0,1-4.061-.884c-.88-.317-1.8-.6-2.625-.965a16.794,16.794,0,0,1-4.379-2.85,18.629,18.629,0,0,0-3.045-2.235,4.512,4.512,0,0,0-1.986-.556,4.867,4.867,0,0,0-2.294.585,33.373,33.373,0,0,1-4.416,2.345,17.177,17.177,0,0,1-5.31.59,8.391,8.391,0,0,1-4-1.053,36.708,36.708,0,0,0-4.036-2.072,5.313,5.313,0,0,0-2.59-.288,6.646,6.646,0,0,0-2.552,1.1c-1.595,1.128-2.814,2.449-4.892,3.341a17.747,17.747,0,0,1-3.443.97,13.842,13.842,0,0,1-4.767.555c-1.483-.127-2.648-.757-4.146-.849a5.612,5.612,0,0,0-3.114.833,19.2,19.2,0,0,0-4.228,4,17.462,17.462,0,0,1-4.986,4.064c-1.082.549-2.162,1.1-3.341,1.585a7.84,7.84,0,0,1-3.138.68c.147.08.408.092.58.167a5.383,5.383,0,0,0-3.342.77,10.121,10.121,0,0,0-1.646,1.125c.61.06,1.219.12,1.833.17a5.632,5.632,0,0,0-2.511.589c-1.5.731-2.369,1.771-3.826,2.527a12.8,12.8,0,0,1-4.281,1.06,5,5,0,0,0-2.281.164c-2.179.874-3.171,2.357-5.207,3.311a21.137,21.137,0,0,1-4.88,1.149c.162.036.334.058.5.085a5.683,5.683,0,0,0-2.946.609c-1.58.776-2.291,1.968-3.977,2.686a32.914,32.914,0,0,1-4.8.861,4.234,4.234,0,0,0-2.165.549c-1.319.7-2.238,1.592-3.559,2.288a7.963,7.963,0,0,1-2.435.683c-1.342.2-2.681.4-4.032.573a2.324,2.324,0,0,0,.488.106H52.951a6.4,6.4,0,0,1,1.9-.191c-.468-.081-.961-.111-1.422-.2,1.372-.191,2.743-.384,4.109-.586a6.793,6.793,0,0,0,2.324-.7c1.478-.808,2.395-1.913,4.129-2.578a10.008,10.008,0,0,1,2.1-.313,27.945,27.945,0,0,0,3.843-.724c2.051-.721,2.93-2.076,4.768-2.925a4.92,4.92,0,0,1,2.384-.5c-.107-.028-.22-.046-.331-.065,1.18-.2,2.373-.375,3.518-.63a6.256,6.256,0,0,0,2.2-.909,36.626,36.626,0,0,1,3.238-2.467,4.946,4.946,0,0,1,2.444-.657c.43-.032.824.127,1.254.073a12.513,12.513,0,0,0,3.3-.808c1.755-.73,2.853-1.821,4.437-2.649a5.456,5.456,0,0,1,2.174-.642c-.538-.055-1.088-.063-1.626-.119a7.06,7.06,0,0,1,2.828-1.7,7.6,7.6,0,0,1,3.151-.383,12.591,12.591,0,0,0-2.967-.628,7.338,7.338,0,0,0-2.616.629A11.118,11.118,0,0,0,95.037,122c.553-.01,1.109-.013,1.661.02a4.935,4.935,0,0,0-1.687.492c-1.446.7-2.4,1.65-3.756,2.4a10.658,10.658,0,0,1-3.892,1.069,5.761,5.761,0,0,0-3.982.542c-1.786.908-2.5,2.332-4.542,3.1a32.081,32.081,0,0,1-4.388.906,4.007,4.007,0,0,0-1.724.423c-1.716.852-2.738,2.051-4.52,2.869a22.876,22.876,0,0,1-4.885,1.043c.124.023.251.043.369.076a5.792,5.792,0,0,0-2.858.527c-1.5.691-2.256,1.753-3.745,2.451a7.045,7.045,0,0,1-1.684.446c-1.368.205-2.752.382-4.116.6.3.044.608.067.9.122a4.3,4.3,0,0,0-2.266.549Z" transform="translate(-23.402 -72.975)" fill="#fff"/>
          <path id="패스_1081" data-name="패스 1081" d="M160.1,151.568c.286-.036.572-.074.856-.116a5.923,5.923,0,0,0,2.386-.879,21.1,21.1,0,0,1,3.226-2.037,4.271,4.271,0,0,1,1.74-.367c.432.04.119-.031.02-.064,1.335-.163,2.673-.318,3.994-.515a6.271,6.271,0,0,0,2.341-.783,31.574,31.574,0,0,1,3.219-2.138,5.448,5.448,0,0,1,2.9-.528c-.078-.021-.158-.04-.234-.06A20.537,20.537,0,0,0,185.792,143c1.631-.751,2.6-1.841,4.209-2.606a5.1,5.1,0,0,1,2.846-.565,16.619,16.619,0,0,0,5.106-1.1c1.8-.831,2.869-2.053,4.753-2.836a4.9,4.9,0,0,1,2.326-.388,5.147,5.147,0,0,0-.59-.1,16.26,16.26,0,0,0,4.087-2.242,6.866,6.866,0,0,1,3.274-1.186c.828-.013,1.631-.148,2.453-.185,1.547-.695,2.569-1.673,3.992-2.438a6.063,6.063,0,0,1,2.9-.786,10.609,10.609,0,0,0,1.358-.145,13.766,13.766,0,0,0-1.315-.631c1.3,0,2.6.025,3.895-.065a7.953,7.953,0,0,0,3.4-.994c1.147-.627,1.966-1.423,3.225-1.988a4.263,4.263,0,0,1,2.116-.343,5.648,5.648,0,0,1,1.576.436,7.821,7.821,0,0,0-3.545-1.4,7.443,7.443,0,0,0-4.116,1.141,14.549,14.549,0,0,1-4.007,1.675,13.293,13.293,0,0,1-2.506.207,13.918,13.918,0,0,1-3.817-.3,16.355,16.355,0,0,1-3.721-1.738,12.364,12.364,0,0,0,3.791.486,15.666,15.666,0,0,0,4.882-.463c1.654-.542,2.629-1.5,3.982-2.222a4.551,4.551,0,0,1,2.761-.531,8.777,8.777,0,0,1,3.071,1.326c-.623-.558-1.313-1.092-2.011-1.622a6.737,6.737,0,0,0-2.932-1.3,5.169,5.169,0,0,0-2.251.259,18.454,18.454,0,0,0-2.672,1.279,10.423,10.423,0,0,1-4.934,1.5,17.558,17.558,0,0,1-4.612-.228,22.959,22.959,0,0,1-4.641-2.2,7.661,7.661,0,0,0-3.088-.976,5.127,5.127,0,0,0-2.546.6,23.25,23.25,0,0,0-3.5,2.61,11.265,11.265,0,0,1-3.7,1.989c-1.02.305-2.117.509-3.184.752a10.264,10.264,0,0,1-4.447.147,25.959,25.959,0,0,0-4.155-.989,5.292,5.292,0,0,0-3.135.958c-2.014,1.36-3.242,3.005-5.05,4.442a13.694,13.694,0,0,1-4.9,2.517,6,6,0,0,0-2.909.488,17.968,17.968,0,0,0-2.842,1.758c-.666-.067-1.321-.173-1.989-.233a7.9,7.9,0,0,1,4.4-2.029c-.512-.038-1.028-.055-1.541-.077a32.158,32.158,0,0,0,4.572-1.826,20.927,20.927,0,0,0,5.412-4.53,12.422,12.422,0,0,1,3.568-2.768,5.621,5.621,0,0,1,3.118-.428c1.418.206,2.649.7,4.1.845a10.552,10.552,0,0,0,3.659-.332c1.048-.252,2.154-.441,3.125-.784a19.731,19.731,0,0,0,4.544-2.588,10.623,10.623,0,0,1,3.556-1.756,5.735,5.735,0,0,1,3,.145c1.919.6,3.165,1.706,5.171,2.241a11.519,11.519,0,0,0,3.527.361,17.218,17.218,0,0,0,3.928-.338,14.9,14.9,0,0,0,4.061-2.105,5.329,5.329,0,0,1,2.451-.847,5.874,5.874,0,0,1,2.962.718c2.671,1.419,4.26,3.374,7.192,4.656,1.005.43,2.162.728,3.265,1.069a9.274,9.274,0,0,0,3.215.482c1.732-.039,2.971-.886,4.683-.963a6.071,6.071,0,0,1,2.873.7,20.977,20.977,0,0,1,3.209-1.852,3.637,3.637,0,0,1,.945-.228c.871-.036,1.742-.044,2.613-.015a3.671,3.671,0,0,0-1.7.549,29.057,29.057,0,0,1-3.786,1.966c-.112.018-.036.147-.17.095a5.252,5.252,0,0,0-3.03.261,11.324,11.324,0,0,1-3.676.989,9.142,9.142,0,0,1-2.743-.332c-.951-.231-1.9-.467-2.822-.733a13.257,13.257,0,0,0,1.35.68,8.676,8.676,0,0,0-1.293-.206,6.4,6.4,0,0,0-3.087.659c-1.544.724-2.766,1.689-4.643,2.17a11.266,11.266,0,0,1-3.039.277,6.618,6.618,0,0,0-2.706-.445,5.424,5.424,0,0,0-1.992.618c-1.733.9-2.7,2.161-4.481,3.031a5.11,5.11,0,0,0-3.052-.068c-2.22.783-3.149,2.261-5.128,3.186a9.732,9.732,0,0,1-1.946.573c.316.118.679.2.969.34a5.514,5.514,0,0,0-2.69.2c-2.052.75-2.865,2.16-4.815,2.972a19.746,19.746,0,0,1-5.056.97c.063.034.273.1.07.068a5.192,5.192,0,0,0-3.568.874c-1.211.761-1.978,1.745-3.477,2.357a21.3,21.3,0,0,1-4.163.765,6.254,6.254,0,0,1-1.3.091,4.351,4.351,0,0,0-2.263.57c-1.351.709-2.184,1.664-3.537,2.373a6.744,6.744,0,0,1-1.932.549c-1.293.181-2.6.329-3.9.493-.232.054.212.021.215.083a4.468,4.468,0,0,0-2.146.425c-1.515.667-2.422,1.653-3.867,2.36a4.9,4.9,0,0,1-.749.276Z" transform="translate(-79.44 -84.922)" fill="#fff"/>
          <path id="패스_1082" data-name="패스 1082" d="M0,148.683c.447-.332.89-.668,1.358-.99a3.9,3.9,0,0,1,1.937-.791c-.26-.052-.615-.036-.911-.072,1.773-.471,2.779-1.445,4.072-2.219a5.136,5.136,0,0,1,2.9-.772,13.177,13.177,0,0,0,3.248-2.7c2.054-2.379,3.644-4.907,6.433-7.066.921-.639,1.92-1.243,2.927-1.84a1.657,1.657,0,0,1-.334.3,17.582,17.582,0,0,0-2.452,2.393c-1.3,1.489-2.372,3.034-3.534,4.557a15.913,15.913,0,0,1-4.689,4.391c-.164.087.225.032.291.062a5.873,5.873,0,0,0-1.551.264c-2.041.724-2.724,2.271-5.069,2.779.174.09.64.005.764.111a2.53,2.53,0,0,0-1.113.376c-.829.494-1.451,1.08-2.221,1.6A21.194,21.194,0,0,1,0,150.341Z" transform="translate(0 -95.203)" fill="#fff"/>
          <path id="패스_1083" data-name="패스 1083" d="M99.071,162.189c1.031-.572,1.757-1.3,2.826-1.86a5.485,5.485,0,0,1,3-.722,4.214,4.214,0,0,0-.629-.1c1.788-.361,3.919-.358,5.545-.987,1.517-.7,2.358-1.731,3.772-2.484a4.833,4.833,0,0,1,2.592-.669,18.777,18.777,0,0,0,5.281-1.184c1.536-.844,2.409-2,4.1-2.764a4.788,4.788,0,0,1,2.285-.441c.034-.061-.287-.014-.271-.07a27.044,27.044,0,0,0,4.242-.811c2.607-.832,3.434-2.666,6.012-3.518a5.122,5.122,0,0,1,2.188-.165c1.674-.75,2.637-1.9,4.417-2.587a6.691,6.691,0,0,1,1.653-.387c-.378-.032-.763-.023-1.141-.022a17.337,17.337,0,0,0,4.985-3.614,11.327,11.327,0,0,1,3.787-2.525,5.5,5.5,0,0,1,3.2-.173,20.6,20.6,0,0,0,4.233,1.186,15.517,15.517,0,0,0,4.494-.541,19.2,19.2,0,0,0,2.016-.5c2.728-.9,4.207-2.526,6.416-3.729a6.578,6.578,0,0,1,2.537-.8,6.239,6.239,0,0,1,2.576.416c.526.177.936.445,1.48.608a7.671,7.671,0,0,1,1.181.508,6.584,6.584,0,0,0-2.527-.562,4.882,4.882,0,0,0-2.259.567c-2.133,1.106-3.187,2.7-5.339,3.8a11.5,11.5,0,0,1-3.542,1.158,15.579,15.579,0,0,1-4.1.482,22.247,22.247,0,0,1-4.56-1.1,7.018,7.018,0,0,0-2.981-.274,5.8,5.8,0,0,0-2,.754c-2.183,1.317-3.243,3.1-5.592,4.339a6.438,6.438,0,0,0-2.066.373c-1.619.654-2.593,1.659-3.991,2.436-.322.191-.79.331-1.091.512a4.656,4.656,0,0,0-2.632.594c-1.4.76-2.321,1.736-3.643,2.532-1.5.874-3.688,1.139-5.707,1.427a.952.952,0,0,1,.23.06,5.217,5.217,0,0,0-2.83.756c-1.31.743-2.132,1.706-3.464,2.437a16.919,16.919,0,0,1-4.83,1.1c-.586.132-1.26.056-1.824.224a11.828,11.828,0,0,0-3.8,2.249,6.007,6.007,0,0,1-2.8,1.136c-1.379.2-2.771.381-4.158.567.011.07.426.008.5.09a4.7,4.7,0,0,0-2.117.448,21.473,21.473,0,0,0-2.893,1.843Z" transform="translate(-49.157 -95.543)" fill="#fff"/>
          <path id="패스_1084" data-name="패스 1084" d="M328.092,135.141a4.692,4.692,0,0,1,2.848-.684c.493.024.986.034,1.483.034a5.1,5.1,0,0,0-2.943,1.356,11.84,11.84,0,0,1-1.388-.705" transform="translate(-162.794 -96.794)" fill="#fff"/>
          <path id="패스_1085" data-name="패스 1085" d="M337.471,135.444c-1.415.593-1.933,1.655-3.208,2.332-.326.08-.7.042-1.031.122a6.232,6.232,0,0,0-2.321,1.156c-.511-.107-1.006-.237-1.52-.339a4.666,4.666,0,0,0-2.337.187,30.227,30.227,0,0,0-2.861,1.413,11.807,11.807,0,0,1,1.747.539,2.321,2.321,0,0,1-.8.109,5.854,5.854,0,0,0-2.252.59c-1.209.6-2.137,1.348-3.356,1.94a10.924,10.924,0,0,0-1.594-.469c.9-.591,1.658-1.243,2.543-1.84a5.555,5.555,0,0,1,2.8-.987c-.856-.045-1.646.208-2.5.163a6.259,6.259,0,0,0-2.594.741c-1.078.57-1.978,1.238-3.111,1.778a9.82,9.82,0,0,0-1.88-.5c1.219-.67,2.074-1.51,3.244-2.2a4.845,4.845,0,0,1,2.471-.684,5.973,5.973,0,0,1,1.276.216c2.144-.159,3.3-1.385,5.331-1.685a5.82,5.82,0,0,1,1.511.039c-.339-.132-.712-.235-1.051-.366.11-.116.531-.059.48-.181,1.815-.611,2.968-1.643,4.583-2.385a4.234,4.234,0,0,1,1.479-.395c.863.063,1.719.147,2.58.218a5.12,5.12,0,0,0-2.741.619,31.949,31.949,0,0,1-2.866,1.968c-.243.133-.619.052-.907.129a2.911,2.911,0,0,0-1.072.533,14.873,14.873,0,0,0,1.716.44,3.662,3.662,0,0,1,2.616-.9c1.271-.655,1.779-1.651,3.058-2.3a5.664,5.664,0,0,1,2.375-.337l.187.01Z" transform="translate(-155.405 -97.003)" fill="#fff"/>
          <path id="패스_1086" data-name="패스 1086" d="M0,144.877c.849-.506,1.616-1.057,2.532-1.529a6.689,6.689,0,0,1,2.308-.728c.083-.023.261-.031.238-.1a4.847,4.847,0,0,1-.683-.171c1.294-.718,2.377-1.682,4.241-1.967-.462.014-.907.089-1.363.122a2.266,2.266,0,0,1,.227-.1,5.858,5.858,0,0,1,3.238-.058c-.148.183.339-.008.42-.065a5.475,5.475,0,0,1,3.886-.251c-.37.152-.728.313-1.1.46a.888.888,0,0,0,.629-.108,5.726,5.726,0,0,1,3.922-.829c-.4.23-.772.479-1.221.684A14.55,14.55,0,0,0,13.2,143.68c-1.627,1.794-2.829,3.762-5.312,5.267-.389.027-.808-.057-1.21-.038a4.388,4.388,0,0,0-1.79.527,27.818,27.818,0,0,1-4.727,2.413c.349.044.706.061,1.062.08A3.936,3.936,0,0,0,0,152.209v-1.424c.521-.249,1.047-.5,1.53-.769a8.173,8.173,0,0,1,2.859-1.248c-.354-.079-.855-.052-1.259-.1,2.018-1.43,3.169-3.179,5.31-4.561a6.188,6.188,0,0,1,1.646-.734,9.986,9.986,0,0,1,2.073-1.053c.7-.191,1.17-.553,1.821-.783a17.356,17.356,0,0,0-1.515,1,11.187,11.187,0,0,0-2.621,1.572c-1.916,1.481-3.018,3.243-5.1,4.658.518.012,1.027.068,1.544.086a13.8,13.8,0,0,0,2.926-2.5,29.444,29.444,0,0,1,4.414-4.236,27.019,27.019,0,0,1,2.881-1.495,5.266,5.266,0,0,0-1.62-.009,7.269,7.269,0,0,0-2.574,1.089c-.171.085-.267.27-.561.227a4.812,4.812,0,0,0-1.869.337,11.555,11.555,0,0,0-3.041,2.065c.116-.024.232-.049.349-.071-2.6,1.147-3.924,2.9-5.956,4.317a4.458,4.458,0,0,1,.853.04A6.018,6.018,0,0,0,0,149.585v-1.521c.718-.572,1.355-1.176,2.054-1.757a7.872,7.872,0,0,1,3.139-1.632c-.238.009-.473.031-.708.049a11.726,11.726,0,0,1,4.259-2.115c.1-.033.294-.057.3-.134-.1-.021-.2-.035-.291-.056a22.4,22.4,0,0,1,2.085-1.265,5.851,5.851,0,0,1,2.058-.633,9.5,9.5,0,0,0-2.661.127,11,11,0,0,0-3.049,1.56,5.654,5.654,0,0,0-3.011,1.036c-.888.611-1.666,1.268-2.536,1.886.413-.064.8-.168,1.226-.215A9.1,9.1,0,0,0,0,146.5v-1.094a10.01,10.01,0,0,1,1-.222c-.333-.019-.666-.034-1-.052Z" transform="translate(0 -100.412)" fill="#fff"/>
          <path id="패스_1087" data-name="패스 1087" d="M346.233,144.312a4.154,4.154,0,0,0-2.331,1.2c.339,0,.68,0,1.024,0a4.891,4.891,0,0,0-1.248.306,7.01,7.01,0,0,0-2.148-.076,10.139,10.139,0,0,0-3.256,1.513c.227.1.484.168.718.264a12.882,12.882,0,0,1-1.366.173,6.015,6.015,0,0,0-1.754.577c-1.241.635-2.166,1.441-3.485,2.031a14.133,14.133,0,0,0-1.53-.427c1.086-.669,1.919-1.449,2.986-2.127a5.137,5.137,0,0,1,2.692-.829c-.31-.01-.617.017-.922.027.536-.332,1.122-.642,1.705-.95a5.407,5.407,0,0,1,2.563-.628,7.211,7.211,0,0,0,2.365.1c-.18-.01-.348-.015-.522-.022a5.244,5.244,0,0,1,3.39-1.33c-.042-.02-.08-.038-.115-.057a6.517,6.517,0,0,0,1.232-.692Z" transform="translate(-164.167 -103.209)" fill="#fff"/>
          <path id="패스_1088" data-name="패스 1088" d="M0,144.708c.363-.067.744-.107,1.086-.19-.216-.055-.442-.1-.656-.151a12.01,12.01,0,0,1,3.657-1.789,10.07,10.07,0,0,1,3.055.071,8.607,8.607,0,0,0-4.092,1.663A5.264,5.264,0,0,0,0,145.25Z" transform="translate(0 -102.58)" fill="#fff"/>
          <path id="패스_1089" data-name="패스 1089" d="M0,142.844a8.637,8.637,0,0,1,2.952.115A6.7,6.7,0,0,0,0,143.922Z" transform="translate(0 -102.778)" fill="#fff"/>
          <path id="패스_1090" data-name="패스 1090" d="M120.48,169.766a6.075,6.075,0,0,1,3.755-1.3c-.256-.064-.543-.081-.811-.124,1.5-.243,3.043-.393,4.546-.625a6.483,6.483,0,0,0,1.7-.508c1.724-.891,2.646-2.271,4.893-2.83a50.9,50.9,0,0,0,5.143-.729c2-.454,2.934-1.615,4.256-2.482a5.679,5.679,0,0,1,3.537-1.107c-.022-.054-.187-.037-.267-.061a26.274,26.274,0,0,0,4.8-.939c2.363-.9,3.218-2.624,5.713-3.443a7,7,0,0,1,3.229.117,11.815,11.815,0,0,0,3.509-.807c1.689-.775,2.54-1.965,4.236-2.736a4.717,4.717,0,0,1,2.1-.451c.841.026,1.682.066,2.518.115,1.089-.759,1.936-1.623,3.145-2.327a4.87,4.87,0,0,1,2.594-.694,6.415,6.415,0,0,0-2.061-.223,7.17,7.17,0,0,0-2.793.776c-1.348.684-2.326,1.554-3.546,2.3a8.047,8.047,0,0,0-2.792-.1,12.2,12.2,0,0,0-4.234,2.179,10.146,10.146,0,0,1-4.556,1.658c-.588-.054-1.139-.188-1.709-.281a8.657,8.657,0,0,0,3.61-1.277c1.321-.827,2.3-1.868,4.078-2.435a11.3,11.3,0,0,1,3.466-.007c1.454-.966,2.462-2.146,4.209-2.974a4.388,4.388,0,0,1,2.4-.407c.815.135,1.6.323,2.412.471a26.571,26.571,0,0,0,4.065-.56,11.445,11.445,0,0,0,3.734-1.294c1.453-.778,2.516-1.745,3.923-2.547a7.072,7.072,0,0,1,2.411-.841,5.844,5.844,0,0,1,2.53.289,9.408,9.408,0,0,1,1.68.351,5.375,5.375,0,0,0-4.666,1.093c-1.538,1.1-2.7,2.4-4.724,3.266a14.023,14.023,0,0,1-3.563.879c-.379.041-.745-.069-1.125-.044a6.853,6.853,0,0,0-3.116.911c-1.214.672-2.213,1.453-3.407,2.135a9.079,9.079,0,0,0-2.493-.231,6.685,6.685,0,0,0-2.5,1.035,21.052,21.052,0,0,1-3.97,2.4,13.862,13.862,0,0,1-3.381.711,2.2,2.2,0,0,1-.7-.089,4.969,4.969,0,0,0-2.915.362c-1.681.735-2.661,1.827-4.138,2.669a17.217,17.217,0,0,1-5.709,1.378c.062.02.127.04.191.062a5.022,5.022,0,0,0-2.94.742c-1.511.818-2.3,2.016-4.134,2.647a38.972,38.972,0,0,1-4.656.765l-.048.034a4.749,4.749,0,0,0-2.519.592c-1.173.62-1.99,1.41-3.076,2.072a6.2,6.2,0,0,1-2.433.781c-1.433.189-2.865.383-4.3.56.187.09.549.064.788.142a5.747,5.747,0,0,0-3.143.983Z" transform="translate(-59.78 -103.12)" fill="#fff"/>
          <path id="패스_1091" data-name="패스 1091" d="M174.149,172.865c1.113-.553,1.85-1.313,2.939-1.884a5.483,5.483,0,0,1,3.291-.747c-.23-.06-.48-.1-.713-.148,1.453-.191,2.928-.334,4.352-.586a6.832,6.832,0,0,0,1.9-.616c1.333-.719,2.249-1.652,3.7-2.3a4.809,4.809,0,0,1,2.434-.475c1.952-.261,4.159-.362,5.7-1.159,1.336-.756,2.257-1.705,3.621-2.448a4.345,4.345,0,0,1,2.55-.583,4.247,4.247,0,0,0,1.306-.061,16.334,16.334,0,0,0,4.168-.859c1.877-.862,2.857-2.178,4.766-3.023a4.292,4.292,0,0,1,2.065-.37,14.074,14.074,0,0,0-1.687-.154,10.212,10.212,0,0,0,3.2-1.076c1.013-.546,1.851-1.183,2.85-1.737a6.779,6.779,0,0,1,3-.876c.779-.006,1.521-.192,2.308-.156.435-.05.157.041.033.033a4.456,4.456,0,0,0-1.79.454c-1.576.763-2.457,1.852-3.887,2.686a8.408,8.408,0,0,1-3.3.929c.263.157.763.2,1.088.334a1.445,1.445,0,0,0,.822,0,10.372,10.372,0,0,0,4.154-1.5,21.083,21.083,0,0,1,3.047-1.725,6.932,6.932,0,0,1,2.756-.479,12.288,12.288,0,0,1,1.787-.088c1.817-.821,2.878-2.119,5.043-2.709a16.611,16.611,0,0,0,1.978-.377c-.123-.055-.241-.1-.357-.152a8.316,8.316,0,0,0,1.907-.516c1.758-.7,2.62-1.882,4.33-2.612a4.154,4.154,0,0,1,2.541-.254,15.849,15.849,0,0,1,2.61,1.03c-.368.033-.723-.072-1.092-.046a6.439,6.439,0,0,0-2.8.721,34.041,34.041,0,0,1-3.8,1.986,10.917,10.917,0,0,0-1.172-.24,4.75,4.75,0,0,0-2.512.35c-2.045.863-2.987,2.3-5.032,3.162a6.087,6.087,0,0,0-2.239-.3,5.316,5.316,0,0,0-2.251.859c-1.172.734-1.969,1.634-3.221,2.33a10.912,10.912,0,0,1-4.134.969c0,.011-.006.031-.008.042a10.161,10.161,0,0,1,1.759.354,11.566,11.566,0,0,0,4.646-1.149c1.626-.825,2.78-2,4.879-2.5.807-.195,1.72-.078,2.557-.2,2.267-.724,3.287-2.232,5.6-2.925.576-.207,1.3-.145,1.892-.331a6,6,0,0,1,1.673-.185,5.159,5.159,0,0,0-2.441.727c-1.7.932-2.7,2.25-4.791,2.961a10.363,10.363,0,0,0-1.1-.184,4.9,4.9,0,0,0-3.007.907c-1.391.881-2.261,2.049-4.117,2.681a18.753,18.753,0,0,1-3.9.642,1.6,1.6,0,0,1-.6-.041,6.118,6.118,0,0,0-3.238.455c-1.909.825-3.033,2.12-5.171,2.8a16.813,16.813,0,0,1-3.386.639,5.676,5.676,0,0,1-.907.09,5.694,5.694,0,0,0-3.033.725c-1.6.8-2.638,1.953-4.588,2.54a26.729,26.729,0,0,1-4.443.7c0,.064.149.063.221.1a5.437,5.437,0,0,0-2.235.241c-1.771.568-2.7,1.634-4.15,2.395a7.673,7.673,0,0,1-2.559.711c-1.294.185-2.607.324-3.91.486.173.088.544.108.781.188a5.083,5.083,0,0,0-2.1.246,9.418,9.418,0,0,0-2.349,1.294h-2.619a17.3,17.3,0,0,1,2.524-1.514,5.044,5.044,0,0,1,2.181-.458c.4-.038-.484-.068-.447-.124,1.222-.146,2.447-.288,3.666-.439a7.967,7.967,0,0,0,2.469-.591c1.423-.7,2.3-1.665,3.7-2.381a4.456,4.456,0,0,1,2.731-.524c1.339-.148,2.7-.287,3.985-.543a6.089,6.089,0,0,0,2.4-1.067,27.712,27.712,0,0,1,2.663-1.889,4.4,4.4,0,0,1,2.249-.588,5.228,5.228,0,0,0,1.08.041,29.821,29.821,0,0,0,4.2-.672c1.87-.589,2.782-1.723,4.134-2.6a5.2,5.2,0,0,1,3.037-1.051c-.621-.071-1.261-.061-1.877-.143a5.8,5.8,0,0,0-2.85.472c-1.74.76-2.678,1.951-4.49,2.667a18.45,18.45,0,0,1-4.763.947c.129.046.273.074.406.117a5.894,5.894,0,0,0-3.1.389c-1.944.779-2.821,2.164-4.944,2.827a28.313,28.313,0,0,1-4.6.754c.048.056.184.125-.123.054a4.855,4.855,0,0,0-2.307.4c-1.562.663-2.367,1.711-3.8,2.445a6.327,6.327,0,0,1-1.788.509c-1.451.2-2.933.346-4.382.551a3.068,3.068,0,0,1,.418.077,4.483,4.483,0,0,0-2.439.587c-1.008.527-1.766,1.179-2.693,1.748Z" transform="translate(-86.41 -106.219)" fill="#fff"/>
          <path id="패스_1092" data-name="패스 1092" d="M361.241,150.791l-.137,0a.97.97,0,0,1,.137-.167Z" transform="translate(-179.174 -108.436)" fill="#fff"/>
          <path id="패스_1093" data-name="패스 1093" d="M144.188,175.223c-.272-.044-.557-.067-.818-.128,1.355-.206,2.741-.353,4.107-.541a7.2,7.2,0,0,0,2.678-.717c1.609-.855,2.575-2.121,4.689-2.653,1.551-.189,3.1-.379,4.647-.593a6.444,6.444,0,0,0,2.154-.644c1.2-.683,1.979-1.552,3.18-2.233a5.273,5.273,0,0,1,2.11-.7,7.344,7.344,0,0,0,1.047-.069,17.527,17.527,0,0,0,5.187-1.166c1.562-.806,2.441-1.96,4.184-2.668a5.376,5.376,0,0,1,2.837-.383c.1.018-.106-.068,0-.061a13.177,13.177,0,0,0,5.4-1.4c1.26-.71,2.235-1.565,3.608-2.214a6.241,6.241,0,0,1,2.585-.616c.254-.018.558.1.773-.016a26.559,26.559,0,0,0,3.6-2.267,5.984,5.984,0,0,1,3.589-.946c-.218-.09-.485-.127-.719-.2a11.07,11.07,0,0,0,2.808-1.106c1.5-.818,2.558-1.869,4.217-2.6a5.348,5.348,0,0,1,2.717-.469,23.554,23.554,0,0,1,2.44.151,5.28,5.28,0,0,0-3.208.7c-1.917,1.076-2.995,2.554-5.189,3.488a4.949,4.949,0,0,0-3.2.645c-1.767.94-2.808,2.277-4.969,2.984-.284.125-.644-.022-.951-.02a4.667,4.667,0,0,0-2.453.6c-1.378.757-2.2,1.765-3.558,2.53-1.445.788-3.538.952-5.436,1.169a4.644,4.644,0,0,0-2.353.247c-1.818.748-2.686,1.968-4.244,2.853-1.36.733-3.35.835-5.091,1.1a12.759,12.759,0,0,0-2,.194c-2.041.637-2.992,1.906-4.64,2.778a6.549,6.549,0,0,1-1.882.6c-1.338.232-2.721.373-4.083.552.152.028.307.051.453.089a5.11,5.11,0,0,0-2.469.428c-1.471.629-2.323,1.579-3.654,2.283a7.222,7.222,0,0,1-2.522.659c-.911.13-1.848.23-2.766.351Z" transform="translate(-71.138 -108.577)" fill="#fff"/>
          <path id="패스_1094" data-name="패스 1094" d="M349.9,152.567a8.59,8.59,0,0,0-3.487,1.527c.04.124.443.154.6.255a8.388,8.388,0,0,1-1.354.153,6.755,6.755,0,0,0-2.636,1.056,16.143,16.143,0,0,1-3.127,1.747,8.5,8.5,0,0,0-1.651-.335c1.678-.782,2.553-1.954,4.2-2.752a4.445,4.445,0,0,1,1.808-.472c.27.036.371-.118.513-.2a5.883,5.883,0,0,1,2.579-1.182,7.714,7.714,0,0,1,2,.075c.189-.072.369-.151.555-.224Z" transform="translate(-167.829 -109.582)" fill="#fff"/>
          <path id="패스_1095" data-name="패스 1095" d="M109.953,178.624a20.257,20.257,0,0,1,1.9-1.242,4.848,4.848,0,0,1,2.662-.733,5.3,5.3,0,0,0-.549-.092c1.5-.244,3.05-.384,4.543-.638a5.857,5.857,0,0,0,2.554-1.174,10.439,10.439,0,0,1,3.639-2.122c.556-.166,1.216-.084,1.794-.214a17.329,17.329,0,0,0,4.938-1.11c1.342-.748,2.195-1.721,3.553-2.461a4.913,4.913,0,0,1,2.5-.667c.45,0,.061-.034-.049-.077a26.5,26.5,0,0,0,4.279-.8c2.33-.726,3.3-2.213,5.242-3.17a5.021,5.021,0,0,1,2.716-.593c-.258-.056-.536-.083-.8-.117,2.163-.638,3.353-1.883,5.09-2.791a5.348,5.348,0,0,1,2.993-.683c.228-.006.527.086.695-.033,1.786-1.128,3.021-2.493,4.884-3.585a5.948,5.948,0,0,1,2-.731,5,5,0,0,1,2.4.256c.838.3,1.691.594,2.524.9a8.171,8.171,0,0,0-2.166-.277,6.742,6.742,0,0,0-3.321,1.013c-1.312.811-2.239,1.786-3.477,2.629-.747.038-1.5-.066-2.248.006a6.261,6.261,0,0,0-2.433.805c-1.636.97-2.818,2.29-5.2,2.763.436.114.935.156,1.355.287a5.154,5.154,0,0,0-2.176.292c-2.416.889-3.2,2.672-5.792,3.446a32.38,32.38,0,0,1-4.252.763c.045.018.091.038.139.059a4.436,4.436,0,0,0-2.047.384c-1.763.767-2.644,1.974-4.292,2.8a13.959,13.959,0,0,1-3.819.882,19.294,19.294,0,0,1-2.107.235,5.242,5.242,0,0,0-1.957.609c-1.131.62-1.941,1.389-2.982,2.052a5.972,5.972,0,0,1-2.422.811c-1.36.184-2.721.368-4.086.539.032.123.549.04.588.139a5.157,5.157,0,0,0-1.56.219,9.241,9.241,0,0,0-2.615,1.419Z" transform="translate(-54.557 -111.978)" fill="#fff"/>
          <path id="패스_1096" data-name="패스 1096" d="M342.124,158.291a6.389,6.389,0,0,0-2.4.918,14.443,14.443,0,0,1-3.945,2.066,4.987,4.987,0,0,0-1.573-.166,5.143,5.143,0,0,0-2.275.725c-1.374.741-2.211,1.748-3.738,2.407a12.334,12.334,0,0,1-3.73.742,1.413,1.413,0,0,1-.519-.007c-.45-.141-.886-.3-1.369-.4,0-.01,0-.03,0-.04a9.911,9.911,0,0,0,4.146-1.088c1.323-.7,2.247-1.638,3.826-2.188a4.82,4.82,0,0,1,2.384-.21,2.943,2.943,0,0,0,1.234-.155c2.146-.734,2.989-2.172,4.927-3.029a4.561,4.561,0,0,1,1.97-.4c.362-.244.691-.505,1.058-.748Z" transform="translate(-160.058 -112.829)" fill="#fff"/>
          <path id="패스_1097" data-name="패스 1097" d="M285.559,158.049l.457-.013a5.629,5.629,0,0,0-2.157.6c-1.71.851-2.649,2.084-4.386,2.916a10.281,10.281,0,0,0-1.741-.362c1.42-.724,2.412-1.676,3.923-2.35a5.64,5.64,0,0,1,1.723-.471c.769-.011,1.408-.3,2.182-.316" transform="translate(-137.806 -113.776)" fill="#fff"/>
          <path id="패스_1098" data-name="패스 1098" d="M196.172,184.666a9.735,9.735,0,0,1,1.957-1.038,3.727,3.727,0,0,1,1.5-.23c-.121-.076-.418-.031-.568-.1,1.548-.2,3.11-.359,4.652-.569a6.556,6.556,0,0,0,1.965-.6c1.3-.722,2.149-1.671,3.594-2.317a4.167,4.167,0,0,1,2.139-.4c.822-.04,1.625-.172,2.435-.257a10.925,10.925,0,0,0,3.533-.775c1.322-.7,2.088-1.666,3.431-2.359a4.9,4.9,0,0,1,1.856-.571,12.3,12.3,0,0,0,1.62-.016,18.025,18.025,0,0,0,5.2-1.014c1.491-.783,2.312-1.876,3.82-2.652a4.3,4.3,0,0,1,2.117-.538,10.306,10.306,0,0,1,1.68.275,13.832,13.832,0,0,0,4.989-1.083c1.1-.521,1.906-1.2,2.943-1.758a6.8,6.8,0,0,1,3.007-.972c.35,0,.7.024,1.051.024-.155-.068-.33-.118-.492-.178a9.181,9.181,0,0,0,3.2-1.369,11.005,11.005,0,0,1,3.765-1.907c.483-.119,1.038-.051,1.517-.176a6.287,6.287,0,0,1,1.43-.153c-2.141.254-3.255,1.415-4.507,2.3a8.328,8.328,0,0,1-3.268,1.548,4.416,4.416,0,0,0-2.458.359c-1.921.865-2.74,2.291-4.8,3.075a18.757,18.757,0,0,1-4.319.745,5.424,5.424,0,0,0-2.926.245c-1.93.7-2.994,1.894-4.806,2.661a16.511,16.511,0,0,1-4.5.941c-.46.074-.914-.078-1.376-.045a4.71,4.71,0,0,0-1.872.492c-1.582.736-2.525,1.806-4.112,2.538a13.563,13.563,0,0,1-3.663.752c-.608.065-1.21.155-1.827.185l.085.065a4.356,4.356,0,0,0-2.264.335c-1.6.648-2.549,1.65-4.017,2.372a7.26,7.26,0,0,1-2.178.607c-1.46.2-2.932.365-4.4.534.324.1.731.105,1.055.216a6.121,6.121,0,0,0-3.417.811Z" transform="translate(-97.338 -118.02)" fill="#fff"/>
          <path id="패스_1099" data-name="패스 1099" d="M345.944,167.229a8.583,8.583,0,0,1-2.55.971,6,6,0,0,1-1.106.062,5.056,5.056,0,0,0-1.984.572c-1.4.71-2.246,1.7-3.685,2.388a11.8,11.8,0,0,1-3.951.809,2.47,2.47,0,0,1-.87,0,12.224,12.224,0,0,0-1.511-.395c0-.01-.008-.03-.011-.04a11.582,11.582,0,0,0,4.128-.879c1.725-.789,2.711-2.053,4.816-2.583a5.5,5.5,0,0,1,2.3.023c-.143-.083-.318-.146-.47-.219a7.209,7.209,0,0,0,2.718-1.035c.794-.5,1.414-1.075,2.18-1.585Z" transform="translate(-163.878 -119.018)" fill="#fff"/>
          <path id="패스_1100" data-name="패스 1100" d="M131.477,185.459a4.956,4.956,0,0,1,2.708-.623c-.329-.059-.668-.1-.99-.166,1.51-.215,3.036-.4,4.552-.6a6.434,6.434,0,0,0,1.993-.613c1.263-.7,2.1-1.6,3.454-2.249a4.879,4.879,0,0,1,2.273-.529c.42.03.15-.034.032-.038,1.277-.169,2.566-.318,3.819-.538a6.993,6.993,0,0,0,1.91-.611c1.435-.8,2.334-1.853,3.9-2.584a4.427,4.427,0,0,1,2.1-.44c1.935-.306,4.127-.434,5.641-1.247,1.377-.772,2.19-1.8,3.606-2.553a4.922,4.922,0,0,1,2.643-.612,5.116,5.116,0,0,0,1.221.072,12.044,12.044,0,0,0,4.51-1.156c1.434-.746,2.329-1.765,3.891-2.442a5.739,5.739,0,0,1,2.308-.487c.586,0,1.149.113,1.736.114,1.421-.782,2.307-1.816,3.795-2.566a5.22,5.22,0,0,1,2.575-.552c.847.039,1.7.019,2.546.02-.077.069-.308.031-.422.067a5.524,5.524,0,0,0-1.817.539c-1.708.816-2.813,1.95-4.537,2.756a11.011,11.011,0,0,0-1.861-.21,4.564,4.564,0,0,0-2.043.592c-1.389.764-2.275,1.758-3.642,2.532A13.556,13.556,0,0,1,172.4,172.5c-.427,0-.814-.143-1.245-.113a4.478,4.478,0,0,0-1.817.446c-1.657.793-2.632,1.919-4.2,2.756a18.447,18.447,0,0,1-5.545,1.248c.09.016.183.032.272.055a5.2,5.2,0,0,0-2.552.431,18.347,18.347,0,0,0-3.081,2.02,6.178,6.178,0,0,1-2.471,1.05c-1.306.246-2.659.4-4,.567-.069,0-.025.064-.1.057a5.194,5.194,0,0,0-2.853.845,33.586,33.586,0,0,1-3.163,2.071,6.986,6.986,0,0,1-1.8.476c-1.513.19-3.019.4-4.534.582.312.111.76.088,1.093.189a4.473,4.473,0,0,0-1.943.28Z" transform="translate(-65.237 -118.813)" fill="#fff"/>
          <path id="패스_1101" data-name="패스 1101" d="M207.155,186.344a4.585,4.585,0,0,1,2.3-.471c-.235-.065-.5-.087-.721-.169,1.515-.2,3.05-.357,4.57-.545a6.009,6.009,0,0,0,2.257-.661c1.217-.656,1.984-1.538,3.331-2.124a5.206,5.206,0,0,1,2.9-.407c-.14-.051-.3-.086-.445-.126a44.994,44.994,0,0,0,4.841-.7c2.326-.649,3.056-2.269,5.363-2.933a5.7,5.7,0,0,1,2.444-.118c-.093-.045-.467-.16-.075-.139a22.231,22.231,0,0,0,5.073-.842,16.39,16.39,0,0,0,3.146-2.178,5.624,5.624,0,0,1,2.386-1.028,7.433,7.433,0,0,1,2.078.156,16.2,16.2,0,0,0,5.289-1c1.507-.707,2.518-1.688,4.1-2.351a5.322,5.322,0,0,1,2.369-.442,3.918,3.918,0,0,0,.633.023c-.39-.143-.8-.264-1.2-.4a14.379,14.379,0,0,0,1.946-.518c1.866-.693,2.866-1.887,4.693-2.6a5.2,5.2,0,0,1,2.146-.351,11.069,11.069,0,0,1,1.988-.139,5.347,5.347,0,0,0-2.042.49c-1.675.789-2.59,1.955-4.269,2.742a9.4,9.4,0,0,1-3.011.754,6.622,6.622,0,0,0,.8.052,5.7,5.7,0,0,0-3.412,1.278,17.264,17.264,0,0,1-2.841,1.961,11.308,11.308,0,0,1-3.464.813,5.48,5.48,0,0,1-1.656.051,5.35,5.35,0,0,0-3.457.743c-1.415.737-2.355,1.731-3.96,2.356a20.718,20.718,0,0,1-4.443.78,8.161,8.161,0,0,1-1.427-.1,4.609,4.609,0,0,0-2.176.6,31.005,31.005,0,0,0-2.606,1.751,6.61,6.61,0,0,1-2.565,1.094c-1.317.24-2.7.348-4.047.513-.3.056-.6-.029-.906.005a4.055,4.055,0,0,0-1.212.273c-1.73.7-2.68,1.821-4.318,2.569a8.408,8.408,0,0,1-2.507.57q-2.059.244-4.122.478c.335.087.729.069,1.061.163a4.513,4.513,0,0,0-1.415.134Z" transform="translate(-102.787 -119.698)" fill="#fff"/>
          <path id="패스_1102" data-name="패스 1102" d="M325.838,169.059a2.534,2.534,0,0,1,.762.036,5.206,5.206,0,0,0-2.76.719c-1.223.7-2.081,1.578-3.34,2.263a10.361,10.361,0,0,1-4.182.966c-.446-.141-.936-.295-1.349-.433a11,11,0,0,0,2.673-.594c1.6-.61,2.566-1.577,3.978-2.3a5.458,5.458,0,0,1,2.789-.619,12.255,12.255,0,0,0,1.429-.04" transform="translate(-156.283 -121.705)" fill="#fff"/>
          <path id="패스_1103" data-name="패스 1103" d="M70.828,188.819c1.039-.148,2.08-.292,3.118-.445a6.271,6.271,0,0,0,2.1-.674c1.123-.643,1.917-1.443,3.111-2.052a5.564,5.564,0,0,1,2.791-.666c-.007-.054-.216-.04-.3-.072a41.688,41.688,0,0,0,4.68-.778c2.119-.768,2.895-2.251,4.93-3.078a3.947,3.947,0,0,1,1.722-.316c.07-.078.245-.069.374-.094a16.821,16.821,0,0,0,4.859-1.226c1.5-.812,2.437-1.892,3.955-2.7a4.855,4.855,0,0,1,2.821-.609,15.827,15.827,0,0,0,4.643-1.084,33.148,33.148,0,0,0,3.186-2.228,5.9,5.9,0,0,1,3.033-1.027c-.57-.05-1.144-.087-1.708-.153a16.119,16.119,0,0,1,2.068-1.3,4.576,4.576,0,0,1,2.617-.6c.667.062,1.4.109,2.026.178a5.551,5.551,0,0,0-2.088.437,12.157,12.157,0,0,0-2.518,1.476c.7.073,1.4.131,2.1.208a5.2,5.2,0,0,0-2.416.619c-1.639.853-2.629,2.03-4.4,2.813a16.739,16.739,0,0,1-4.5.987l.134.061a5.013,5.013,0,0,0-2.265.358c-2.115.845-2.859,2.379-4.947,3.237a19.766,19.766,0,0,1-3.454.747,14.149,14.149,0,0,1-1.6.2,4.818,4.818,0,0,0-2.174.755c-1.417.8-2.313,1.876-4,2.527a34.393,34.393,0,0,1-4.983.9c.1.03.227.032.321.07a5.784,5.784,0,0,0-3.4,1.043,26.706,26.706,0,0,1-2.705,1.817,9.778,9.778,0,0,1-2.865.665Z" transform="translate(-35.144 -122.173)" fill="#fff"/>
          <path id="패스_1104" data-name="패스 1104" d="M87.226,189.641a5.294,5.294,0,0,0,1.234-.414c1.322-.655,2.168-1.55,3.46-2.221a4.36,4.36,0,0,1,2.276-.633,1.686,1.686,0,0,1-.176-.038c.949-.125,1.9-.249,2.841-.388a8.974,8.974,0,0,0,2.686-.641c1.56-.772,2.38-1.908,4.029-2.633a5.045,5.045,0,0,1,2.319-.459l-.147-.036a24.42,24.42,0,0,0,4.856-1.027c1.543-.7,2.382-1.739,3.68-2.561a5.8,5.8,0,0,1,2.1-.871,19.75,19.75,0,0,0,5.776-1.2c1.549-.739,2.488-1.776,3.889-2.59a6.048,6.048,0,0,1,2.1-.749,9.55,9.55,0,0,1,2.24.154c.849-.5,1.558-1.069,2.441-1.551a6.377,6.377,0,0,1,2.558-.907c.873,0,1.747-.052,2.621-.029a5.682,5.682,0,0,0-1.953.475c-1.459.646-2.4,1.564-3.744,2.275a7.627,7.627,0,0,0-1.583-.124,5.217,5.217,0,0,0-2.008.583c-1.728.881-2.65,2.16-4.549,2.949a20.678,20.678,0,0,1-4.643.978c.063.02.129.039.193.062a4.748,4.748,0,0,0-2.452.529c-1.49.757-2.409,1.785-3.8,2.591-1.48.837-3.64,1.049-5.587,1.355a5.244,5.244,0,0,0-2.023.428c-1.581.7-2.412,1.766-3.816,2.556a6.462,6.462,0,0,1-2.1.626q-1.832.255-3.669.5c-.017.057.325.006.311.07a5.688,5.688,0,0,0-3.295,1.14,18.575,18.575,0,0,1-2.881,1.8Z" transform="translate(-43.28 -122.995)" fill="#fff"/>
          <path id="패스_1105" data-name="패스 1105" d="M349.677,177.4a7.943,7.943,0,0,0-3,1.539A8.034,8.034,0,0,1,343.6,180.6a22.124,22.124,0,0,1-3.734.433,11.559,11.559,0,0,0-2.063-.458,13.041,13.041,0,0,0,4.42-.812c1.709-.73,2.663-1.892,4.511-2.534a5.024,5.024,0,0,1,2.708-.118c-.293-.143-.64-.246-.957-.367.393-.069.808-.134,1.2-.229Z" transform="translate(-167.611 -127.081)" fill="#fff"/>
          <path id="패스_1106" data-name="패스 1106" d="M83.607,177c-.07,0,.421-.038.229.01a6.027,6.027,0,0,0-1.8.625c-.661-.036-1.32-.1-1.973-.167A11.677,11.677,0,0,1,83.607,177" transform="translate(-39.724 -127.419)" fill="#fff"/>
          <path id="패스_1107" data-name="패스 1107" d="M4.765,195.825a19.1,19.1,0,0,0,3.492-2.109,6.264,6.264,0,0,1,2.052-.9c1.251-.157,2.481-.369,3.726-.546a6.47,6.47,0,0,0,2.152-.646c1.116-.651,1.816-1.48,2.9-2.147a6.322,6.322,0,0,1,3.338-.815c.484.022.024-.047-.1-.057.465-.108.959-.165,1.426-.27a12.752,12.752,0,0,0,4.654-1.921c.911-.574,1.7-1.2,2.573-1.794a4.481,4.481,0,0,1,1.488-.653c.27-.065.565.01.837-.042,1.094-.208,2.22-.362,3.3-.587a4.713,4.713,0,0,0,1.906-.88c.9-.72,1.542-1.539,2.544-2.221a6,6,0,0,1,2.662-.75,9.79,9.79,0,0,1,2.647.1,5.611,5.611,0,0,0-3.183,1.126c-1.3.908-2.107,2.093-3.974,2.712a37.1,37.1,0,0,1-3.9.819c.131.036.359.017.444.079a4.891,4.891,0,0,0-2.475.557c-1.742.858-2.613,2.128-4.395,2.963a19.866,19.866,0,0,1-4.229.993,4.434,4.434,0,0,0-1.675.162c-2.124.819-3.006,2.315-5.157,3.12a36.839,36.839,0,0,1-4.756.871,7.756,7.756,0,0,1,.873.1,7.725,7.725,0,0,0-3.483.749c-1.134.586-1.851,1.378-2.951,1.978Z" transform="translate(-2.364 -129.179)" fill="#fff"/>
          <path id="패스_1108" data-name="패스 1108" d="M312.216,186.573a6.641,6.641,0,0,1-2.566.865c-.989.13-2,.219-3.011.264a9.358,9.358,0,0,0-2.041-.421,5.016,5.016,0,0,0-2.572.672c-1.219.678-2.079,1.534-3.371,2.174a12.4,12.4,0,0,1-4.274.948,2.876,2.876,0,0,1-1.2-.18,3.857,3.857,0,0,0-2.086.12c-2.092.726-3.05,2.109-5.064,2.882a26.538,26.538,0,0,1-5.5.8c.119.066.267.11.4.17a10.519,10.519,0,0,0-1.687-.018,5.99,5.99,0,0,0-2.167.735c-.987.528-1.736,1.18-2.777,1.68a7.785,7.785,0,0,1-1.981.571c-1.439.234-2.934.344-4.4.514.382.116.826.164,1.191.3a6.523,6.523,0,0,0-3.965.834H262.3a10.691,10.691,0,0,1,2.149-1.2,3.53,3.53,0,0,1,1.551-.263l-.211-.053c1.623-.186,3.271-.312,4.876-.543,2.042-.308,3.13-1.406,4.481-2.212a6.206,6.206,0,0,1,2.8-1.042c.472-.043.928.141,1.4.054a17.207,17.207,0,0,0,4-.712c1.748-.565,2.75-1.6,4.355-2.257a6.037,6.037,0,0,1,1.924-.485,13.55,13.55,0,0,0,1.411-.012,28.542,28.542,0,0,0,5.21-.74c1.63-.546,2.571-1.513,3.995-2.192a6.128,6.128,0,0,1,2.419-.692c.7.01,1.4.114,2.108.1a13.127,13.127,0,0,0,4.314-.823,29.124,29.124,0,0,0,3.14-1.906Z" transform="translate(-130.149 -132.837)" fill="#fff"/>
          <path id="패스_1109" data-name="패스 1109" d="M220.036,198.987c1.394-.168,2.8-.311,4.178-.513a7.11,7.11,0,0,0,2.245-.691c1.038-.573,1.843-1.266,2.951-1.8a6.046,6.046,0,0,1,3.361-.621c-.209-.063-.447-.088-.644-.162a23.363,23.363,0,0,0,5.445-.934c1.732-.694,2.713-1.836,4.548-2.466a6.066,6.066,0,0,1,2.84-.264c-.117-.044-.24-.08-.356-.119a19.833,19.833,0,0,0,5.222-.909c1.492-.664,2.3-1.669,3.651-2.407a5.221,5.221,0,0,1,2.087-.612c.559-.029,1.081.117,1.631.127a20.156,20.156,0,0,0,5.34-.9c1.614-.677,2.559-1.727,4.179-2.4a5.267,5.267,0,0,1,2.549-.467c.55.055,1.115.027,1.667.091a5.079,5.079,0,0,0-1.768.257c-2.163.791-2.965,2.319-5.129,3.112a16.188,16.188,0,0,1-3.823.688,3.135,3.135,0,0,1-.979-.121,4.7,4.7,0,0,0-2.686.483c-1.754.807-2.719,2.051-4.667,2.738a28.543,28.543,0,0,1-4.746.707,5.151,5.151,0,0,0-2.132-.02c-2.216.632-3.086,2.065-5.012,2.886a8.669,8.669,0,0,1-2.136.509c-1.564.2-3.143.381-4.728.5-2.366.586-3.223,2.135-5.36,2.887a13.424,13.424,0,0,1-2.408.431Z" transform="translate(-109.178 -132.341)" fill="#fff"/>
          <path id="패스_1110" data-name="패스 1110" d="M239.2,201.43a5.689,5.689,0,0,0,1.1-.4c1.481-.743,2.535-1.745,4.273-2.327a5.463,5.463,0,0,1,1.924-.233c-.1-.057-.49,0-.433-.1,2.164-.234,4.583-.36,6.271-1.237a32.558,32.558,0,0,1,3.708-2.061,5.44,5.44,0,0,1,2.44-.4,19.766,19.766,0,0,0,5.04-.9c1.63-.664,2.519-1.73,4.083-2.433a4.817,4.817,0,0,1,2.078-.445c.431-.019.845.107,1.276.057a39.516,39.516,0,0,0,4.509-.549c2.632-.635,3.549-2.418,6.173-3.065a10.889,10.889,0,0,1,2.972-.02,5.311,5.311,0,0,0-1.8.33c-2.036.816-2.885,2.272-5.037,3.019a16.639,16.639,0,0,1-3.894.66,5.574,5.574,0,0,0-1.523-.232,4.548,4.548,0,0,0-1.754.409c-1.671.74-2.67,1.841-4.321,2.591a19.677,19.677,0,0,1-5.253.936c-.541.1-1.066-.1-1.611-.05a4.469,4.469,0,0,0-1.634.425,38.19,38.19,0,0,0-3.324,2.2,6.484,6.484,0,0,1-2.588.743c-1.343.149-2.682.317-4.037.426.155.064.335.107.5.164a5.127,5.127,0,0,0-2.969.569c-1.121.576-1.874,1.343-2.989,1.918Z" transform="translate(-118.687 -134.784)" fill="#fff"/>
          <path id="패스_1111" data-name="패스 1111" d="M251.5,203.84A28.546,28.546,0,0,1,254.581,202a4.267,4.267,0,0,1,2.037-.4c-.06-.033-.221-.009-.179-.074,1.23-.1,2.45-.248,3.672-.377a8.059,8.059,0,0,0,2.466-.569c1.449-.685,2.4-1.639,3.885-2.3a5.578,5.578,0,0,1,1.677-.476c.489-.05.987.069,1.475,0a16.82,16.82,0,0,0,4.04-.737c1.748-.6,2.714-1.66,4.31-2.355a5.744,5.744,0,0,1,1.931-.481c.52-.039,1.034.106,1.549.016,1.906-.22,4.009-.245,5.625-.923,1.586-.718,2.572-1.776,4.292-2.413a4.963,4.963,0,0,1,2.275-.324c.44.066.9.042,1.345.1a4.868,4.868,0,0,0-2.007.413c-1.539.675-2.4,1.7-3.82,2.435a11.607,11.607,0,0,1-4.262,1.025,2.025,2.025,0,0,1-.7.013,4.431,4.431,0,0,0-1.818-.227,6.156,6.156,0,0,0-2.528,1c-1.27.767-2.238,1.74-3.939,2.247a30.569,30.569,0,0,1-4.9.669c-.479-.089.094.129-.136.091a4.773,4.773,0,0,0-2.46.239c-1.658.635-2.418,1.748-3.97,2.447a6.792,6.792,0,0,1-2.026.473c-1.356.151-2.715.291-4.073.43.348.127.744.209,1.094.336a5.824,5.824,0,0,0-3.266.344,11.672,11.672,0,0,0-2.068,1.219Z" transform="translate(-124.792 -137.194)" fill="#fff"/>
          <path id="패스_1112" data-name="패스 1112" d="M317.607,196.711c-.436.038-.873.074-1.312.087a10.223,10.223,0,0,0-2-.423,4.9,4.9,0,0,0-2.52.64c-1.441.738-2.35,1.764-3.994,2.386a15.187,15.187,0,0,1-4.149.735,9.272,9.272,0,0,0-1.387-.286,4.006,4.006,0,0,0-1.914.33c-1.6.683-2.528,1.723-4,2.48-1.677.806-4.048.748-6.076,1.032.08.072.408.124.565.2-.45.037-.892-.074-1.342-.029a7.246,7.246,0,0,0-3.042.978c-.761.441-1.473.911-2.307,1.311a13.446,13.446,0,0,1-4.027.888c-.877.09-1.751.191-2.634.257.337.123.856.118,1.227.238a5.117,5.117,0,0,0-1.805.135h-3.728a4.85,4.85,0,0,1,2.439-.627,2.944,2.944,0,0,1-.505-.086c1.877-.229,3.817-.326,5.639-.679,1.929-.42,2.934-1.492,4.329-2.272a5.448,5.448,0,0,1,2.528-.867c.437-.034.844.138,1.278.075a25.9,25.9,0,0,0,3.491-.486c1.951-.431,3.126-1.446,4.641-2.195a6.256,6.256,0,0,1,3-.7,2.222,2.222,0,0,0,.806-.057,25.881,25.881,0,0,0,5.2-.737c1.679-.576,2.661-1.58,4.2-2.248a5.353,5.353,0,0,1,2.517-.539,13.963,13.963,0,0,0,4.885-.369Z" transform="translate(-135.54 -141.027)" fill="#fff"/>
          <path id="패스_1113" data-name="패스 1113" d="M324.224,200.614a3.923,3.923,0,0,0-.635.163c-2.225.775-3.183,2.333-5.618,2.961a18.017,18.017,0,0,1-3.344.493,2.28,2.28,0,0,1-.794-.133,3.89,3.89,0,0,0-2.142.027c-2.034.642-2.91,1.949-4.676,2.757a7.926,7.926,0,0,1-2.161.495c-1.279.138-2.563.262-3.853.363.316.116.69.175,1.014.286a5.952,5.952,0,0,0-2.271.049c-2.249.515-3.365,1.856-5.469,2.487a14.231,14.231,0,0,1-2.031.384H286.5c1.421-.159,2.861-.271,4.27-.464a7.389,7.389,0,0,0,2.329-.644c1.394-.715,2.347-1.668,3.884-2.3a3.768,3.768,0,0,1,2.05-.257,2.98,2.98,0,0,0,.889-.023,20.445,20.445,0,0,0,4.588-.747c1.689-.585,2.681-1.614,4.37-2.2a6.152,6.152,0,0,1,2.656-.341c.429.038.045-.028.082-.091a30.463,30.463,0,0,0,4.853-.584,17.271,17.271,0,0,0,3.975-2.008,7.04,7.04,0,0,1,2.4-.826,8.324,8.324,0,0,1,1.38.028Z" transform="translate(-142.157 -144.301)" fill="#fff"/>
          <path id="패스_1114" data-name="패스 1114" d="M334.25,208.874a7.8,7.8,0,0,1-2.06.848,19.26,19.26,0,0,1-3.655.474,4.635,4.635,0,0,0-2.635-.068c-1.914.608-2.75,1.827-4.339,2.631a6.627,6.627,0,0,1-2.178.535c-1.391.133-2.783.262-4.18.378.332.091.7.133,1.025.237a5.685,5.685,0,0,0-3.147.463c-1.169.49-2.025,1.166-3.107,1.707h-3.269a3.9,3.9,0,0,0,.829-.355c1.155-.616,1.963-1.406,3.171-1.993a4.147,4.147,0,0,1,2.1-.492,18.678,18.678,0,0,0,2.3-.14,14.906,14.906,0,0,0,4.443-.826c1.589-.732,2.69-1.844,4.708-2.255a9.1,9.1,0,0,1,1.822-.075c-.073-.038-.155-.071-.227-.107a38.183,38.183,0,0,0,4.492-.483,11.68,11.68,0,0,0,3.9-1.789Z" transform="translate(-152.183 -149.433)" fill="#fff"/>
          <path id="패스_1115" data-name="패스 1115" d="M340.051,217.792c-.548.057-1.1.111-1.653.132a4.51,4.51,0,0,0-2.509-.027c-1.894.616-2.706,1.835-4.317,2.618a6.146,6.146,0,0,1-2.028.472c-1.45.125-2.9.257-4.351.383.28.049.567.091.836.163a5.642,5.642,0,0,0-3.119.687,15.467,15.467,0,0,0-1.355.753H318.4a9.046,9.046,0,0,1,3.773-1.942c1.444-.092,2.876-.239,4.314-.363a9.746,9.746,0,0,0,3.2-.6c1.551-.714,2.575-1.789,4.465-2.269a5.286,5.286,0,0,1,1.954-.1c.327-.033-.445-.124-.127-.142,1.358-.129,2.751-.193,4.074-.416Z" transform="translate(-157.984 -156.327)" fill="#fff"/>
          <path id="패스_1116" data-name="패스 1116" d="M345.436,222.253c-1.926.61-2.716,1.927-4.511,2.635a6.42,6.42,0,0,1-1.764.352c-1.5.134-2.993.269-4.49.39.32.035.641.067.953.124a5.4,5.4,0,0,0-2.949.672h-3.423a6.255,6.255,0,0,1,2.273-.994,5.292,5.292,0,0,1,1.684.014c-.187-.09-.422-.14-.622-.218,1.525-.124,3.046-.266,4.569-.4a7.205,7.205,0,0,0,2.23-.506c1.478-.677,2.514-1.637,4.214-2.167a5.169,5.169,0,0,1,1.835-.208Z" transform="translate(-163.37 -159.781)" fill="#fff"/>
          <path id="패스_1117" data-name="패스 1117" d="M351.5,231.307a9.249,9.249,0,0,1-2.757.54c-1.221.109-2.439.23-3.667.312l.009.008h-3.613a4.655,4.655,0,0,1,.951-.15c.472-.022.921.075,1.388.094a5.369,5.369,0,0,0-.886-.326c.972-.118,1.97-.174,2.952-.271a17.885,17.885,0,0,0,3.291-.449,10.665,10.665,0,0,0,2.331-1.154Z" transform="translate(-169.433 -165.522)" fill="#fff"/>
        </g>
      </g>
    </g>
    <g id="타원_276" data-name="타원 276" transform="translate(108 1016)" fill="none" stroke="#fff" stroke-width="4">
      <circle cx="32" cy="32" r="32" stroke="none"/>
      <circle cx="32" cy="32" r="30" fill="none"/>
    </g>
  </g>
</svg>
