<svg xmlns="http://www.w3.org/2000/svg" width="88" height="88" viewBox="0 0 88 88">
    <defs>
        <clipPath id="h2wmzcgdpa">
            <path data-name="패스 2794" d="M0 33.17h72v-88H0z" transform="translate(0 54.83)" style="fill:none"/>
        </clipPath>
    </defs>
    <g data-name="그룹 1289">
        <g data-name="그룹 978">
            <g data-name="그룹 977">
                <path data-name="합치기 5" d="M-3813.556 928.533h.333A36.8 36.8 0 0 1-3825 901.445c0-20.222 16.117-36.615 36-36.615s36 16.393 36 36.615a36.8 36.8 0 0 1-11.778 27.088h.331l-25.271 24.3z" transform="translate(3833.001 -864.83)" style="fill:#e2898c"/>
                <path data-name="패스 2790" d="M72-54.83z" transform="translate(8 54.83)" style="fill:#db5659"/>
                <g data-name="그룹 974">
                    <path data-name="패스 2792" d="M14.88 0v4.754H10l4.706 25.557-4.9-.026L5.27 4.787h-22.856l-4.137 25.5-5.253.026 4.658-25.557h-4.878V0z" transform="translate(50.158 21.289)" style="fill:#fff"/>
                </g>
                <g data-name="그룹 976" style="clip-path:url(#h2wmzcgdpa)" transform="translate(8)">
                    <g data-name="그룹 975">
                        <path data-name="패스 2793" d="m.011 3.369.151-.684a1.268 1.268 0 0 1 1.221-1 1.25 1.25 0 0 1 .278.032l5.412 1.244 2.971-3.627v-.048a55.242 55.242 0 0 0-.122-2.054 1.728 1.728 0 0 1 .445-1.321 2.423 2.423 0 0 1 1.991-.719 31.994 31.994 0 0 1 8.829 1.947A3.278 3.278 0 0 1 23.012-1.2a1.991 1.991 0 0 1 .11 1.5l-.041.116v.018a1.615 1.615 0 0 1-.066.371L20.792 8.4h4.767a1.674 1.674 0 0 1 1.2.509 1.735 1.735 0 0 1 .5 1.221v.335a1.717 1.717 0 0 1-1.7 1.73v.122-.122h-7.363a1.69 1.69 0 0 1-1.261-.573l-.006-.006a1.751 1.751 0 0 1-.459-1.746l1.87-6.386-.109-.039a25.671 25.671 0 0 0-3.169-.881l-.2-.04 1.076 3.831a1.72 1.72 0 0 1 .05.26l.039.152a1.392 1.392 0 0 1-1.083 1.613l-7.41 2.011a1.659 1.659 0 0 1-.432.058A1.285 1.285 0 0 1 5.8 9.54l-.178-.676a1.2 1.2 0 0 1 .18-.976 1.57 1.57 0 0 1 .908-.638l5.723-1.55-.879-3.13-2.766 3.376a1.244 1.244 0 0 1-.862.454 1.218 1.218 0 0 1-.458-.016L.96 4.894a1.278 1.278 0 0 1-.949-1.525m6.743-2.156a3.361 3.361 0 0 1-3.8-2.879 3.4 3.4 0 0 1 2.829-3.866 3.361 3.361 0 0 1 3.8 2.879 3.4 3.4 0 0 1-2.829 3.866" transform="translate(22.884 40.041)" style="fill:#fff"/>
                    </g>
                </g>
            </g>
        </g>
        <path data-name="사각형 1988" style="fill:none" d="M0 0h88v88H0z"/>
    </g>
</svg>
