<svg xmlns="http://www.w3.org/2000/svg" width="88" height="88" viewBox="0 0 88 88">
    <defs>
        <clipPath id="bga6ah8qqa">
            <path data-name="패스 2797" d="M0 33.17h72v-88H0z" transform="translate(0 54.83)" style="fill:none"/>
        </clipPath>
        <clipPath id="7939u9lhnb">
            <path data-name="패스 2804" d="M0 33.17h72v-88H0z" transform="translate(0 54.83)" style="fill:#ff2300"/>
        </clipPath>
    </defs>
    <g data-name="그룹 1020">
        <g data-name="그룹 987">
            <g data-name="그룹 981" transform="translate(8)" style="clip-path:url(#bga6ah8qqa)">
                <g data-name="그룹 979">
                    <path data-name="패스 2795" d="M26.372 13.8c0-20.223-16.117-36.616-36-36.616s-36 16.393-36 36.616A36.754 36.754 0 0 0-33.4 41.248l23.09 23.938L14.6 40.828A36.758 36.758 0 0 0 26.372 13.8" transform="translate(45.629 22.814)" style="fill:#ececec"/>
                </g>
                <g data-name="그룹 980">
                    <path data-name="패스 2796" d="M2.2 5.344c3.325 0 6.018-3.173 6.018-7.089S5.529-8.833 2.2-8.833-3.814-5.66-3.814-1.745-1.12 5.344 2.2 5.344" transform="translate(15.977 28.277)" style="fill:#ff2300"/>
                </g>
            </g>
            <path data-name="패스 2798" d="M10.953-24.851h1.807v-13.723h-1.807z" transform="translate(14.328 64.722)" style="fill:#ff2300"/>
            <g data-name="그룹 983" transform="translate(8)" style="clip-path:url(#bga6ah8qqa)">
                <g data-name="그룹 982">
                    <path data-name="패스 2799" d="M1.373 3.328c2.07 0 3.749-1.977 3.749-4.415S3.444-5.5 1.373-5.5s-3.749 1.975-3.749 4.413S-.7 3.328 1.373 3.328" transform="translate(25.626 29.896)" style="fill:#ff2300"/>
                </g>
            </g>
            <path data-name="패스 2801" d="M16.682-27.344h1.358v-10.31h-1.358z" transform="translate(17.639 65.264)" style="fill:#ff2300"/>
            <g data-name="그룹 986" transform="translate(8)" style="clip-path:url(#7939u9lhnb)">
                <g data-name="그룹 984">
                    <path data-name="패스 2802" d="M15.116.861a54.249 54.249 0 0 0-16.3-2.285c-13.792 0-24.972 4.2-24.972 9.383s11.18 9.383 24.972 9.383h.016c-.243-2.4 4.185-5.049 8.134-6.967 4.9-2.377-.633-3.661-.2-6.507.284-1.883 4.688-2.668 8.35-3.007M4.725 17.067c10.934-1 19.062-4.693 19.062-9.108 0-2.39-2.4-4.566-6.318-6.222-3.451.417-7.35 1.061-7.753 1.883-.791 1.615.571 1.751 2.462 4.34S9.207 12.846 6.027 15c-1.141.774-1.422 1.472-1.3 2.062" transform="translate(38.782 37.38)" style="fill:#ff2300"/>
                </g>
                <g data-name="그룹 985">
                    <path data-name="패스 2803" d="M1.645 4.124c2.481 0 4.491-2.449 4.491-5.47s-2.01-5.471-4.491-5.471-4.491 2.449-4.491 5.471 2.01 5.47 4.491 5.47" transform="translate(36.864 28.557)" style="fill:#ff2300"/>
                </g>
            </g>
            <path data-name="패스 2805" d="M23.979-27.5h1.348v-10.588h-1.348z" transform="translate(21.856 65.002)" style="fill:#ff2300"/>
        </g>
        <path data-name="사각형 1988" style="fill:none" d="M0 0h88v88H0z"/>
    </g>
</svg>
