<svg xmlns="http://www.w3.org/2000/svg" width="88" height="88" viewBox="0 0 88 88">
    <defs>
        <clipPath id="clip-path">
            <path id="패스_2794" data-name="패스 2794" d="M0 33.17h72v-88H0z" transform="translate(0 54.83)" style="fill:none"/>
        </clipPath>
        <clipPath id="clip-path-2">
            <path id="사각형_2121" data-name="사각형 2121" style="fill:#ff2300" d="M0 0h49.558v44.333H0z"/>
        </clipPath>
        <style>
            
        </style>
    </defs>
    <g id="그룹_1015" data-name="그룹 1015" transform="translate(-129 -220)">
        <g id="그룹_1013" data-name="그룹 1013">
            <path id="합치기_6" data-name="합치기 6" d="M-2862.556 3185.7h.333a36.8 36.8 0 0 1-11.777-27.084c0-20.223 16.117-36.615 36-36.615s36 16.393 36 36.615a36.8 36.8 0 0 1-11.777 27.087h.33l-25.271 24.3z" transform="translate(3011.001 -2902)" style="fill:#ececec"/>
            <g id="그룹_1299" data-name="그룹 1299" transform="rotate(-19 809.427 -292.127)">
                <g id="그룹_1298" data-name="그룹 1298" style="clip-path:url(#clip-path-2)">
                    <path id="패스_4000" data-name="패스 4000" d="m74.476 150.246 2.885 1.012a1.528 1.528 0 0 0 1.949-.935L80.829 146l1.442.506 1.012-2.887-37.51-13.155-1.012 2.887 1.442.506-1.518 4.328a1.527 1.527 0 0 0 .938 1.948l2.884 1.011a1.528 1.528 0 0 0 1.949-.935l1.518-4.328 23.083 8.1-1.518 4.319a1.527 1.527 0 0 0 .937 1.947" transform="translate(-36.583 -107.011)" style="fill:#ff2300"/>
                    <path id="패스_4001" data-name="패스 4001" d="M57.586 51.444s-.48-.372-1.357-.984l-.3-14s-9.069-4.98-12.037-6.021a109.731 109.731 0 0 0-10.9-2.409l-1.552 3.091.278.092.227-.271a110.93 110.93 0 0 1 10.938 2.386c2.226.781 7.948 3.839 10.031 4.964l.213 9.966a120.4 120.4 0 0 0-13.282-6.273 93.148 93.148 0 0 0-10.768-2.725l-.21 1.666-.221 1.75-.916-1.507-1.5-2.461-.2-.037-2.165 2.357a2.574 2.574 0 1 1-1.858 1.657 2.588 2.588 0 0 1 .149-.337l-.077-.9-.348-4.074-3.912 1.5-1.6.613.847-1.492 2.2-3.866-4.057-1.953-1.482-.713 1.587-.434 2.3-.631-1.18-1.568-2.563.564-2.89 3.506-1.194 5.581 4.358 4.728 4.679-1.351-1.324 3.779 37.51 13.155zm-4.256 2.225a2.576 2.576 0 1 1-1.579-3.283 2.576 2.576 0 0 1 1.579 3.283" transform="translate(-8.028 -22.99)" style="fill:#ff2300"/>
                    <path id="패스_4002" data-name="패스 4002" d="M199.708 84.164a3.557 3.557 0 1 0-1.095-4.91 3.557 3.557 0 0 0 1.095 4.91" transform="translate(-162.46 -63.656)" style="fill:#ff2300"/>
                    <path id="패스_4003" data-name="패스 4003" d="m0 109.49 1.405 1.01 1.839-.639.281-2.158-1.088-.91-2.111 1.038z" transform="translate(0 -87.595)" style="fill:#ff2300"/>
                    <path id="패스_4004" data-name="패스 4004" d="m66.778 207.222-.825 1.518.86 1.746 2.176.013.769-1.192-.045-1.725-1.378-.959z" transform="translate(-54.099 -169.486)" style="fill:#ff2300"/>
                    <path id="패스_4005" data-name="패스 4005" d="m107.826 195.5-.762 3.063 2.681 2.293 2.2-.671 1.749-2.185-.7-2.629-2.553-.889z" transform="translate(-87.82 -159.525)" style="fill:#ff2300"/>
                    <path id="패스_4006" data-name="패스 4006" d="m43.547 15.3 4.675-1.789.418 4.889 3.546-3.861 2.014 3.319.518-4.115 4.026 1.4-2.128-3.662 3.789-1.7-3.891-1.293L58.7 4.139l-3.793.79-.564-4.188-3.024 3.333L49.042 0 47.46 4.411l-4.087-1.046 2.5 4.043-4.456 1.218 4.65 2.239zm3.112-5.7L45.412 9l.829-.227 1.8-.493-.992-1.607-.669-1.088.747.191 1.216.311.426-1.187.553-1.542.784 1.4.948 1.695 1.294-1.426 1.016-1.12.162 1.2.2 1.5 1.468-.305.947-.2-.871 1.733-.737 1.467 1.555.514.441.146-.485.218-1.416.636.789 1.359.229.395-.483-.168-1.612-.558-.214 1.7-.02.165-.909-1.5-1.245 1.356-1.407 1.531-.146-1.696-.16-1.867-1.729.662-1.022.391.577-1.016.75-1.32z" transform="translate(-33.973 .001)" style="fill:#ff2300"/>
                </g>
            </g>
        </g>
        <path id="사각형_1988" data-name="사각형 1988" transform="translate(129 220)" style="fill:none" d="M0 0h88v88H0z"/>
    </g>
</svg>
