<svg xmlns="http://www.w3.org/2000/svg" width="345" height="642" viewBox="0 0 345 642">
    <defs>
        <clipPath id="jkt7d5bt6a">
            <path data-name="사각형 1961" style="fill:none" d="M0 0h40v40H0z"/>
        </clipPath>
        <clipPath id="kj838noztb">
            <path data-name="패스 2778" d="M2.059 20.062a18 18 0 1 0 18-18 18 18 0 0 0-18 18" style="fill:none"/>
        </clipPath>
    </defs>
    <g data-name="그룹 1036">
        <g transform="translate(72.611 299)">
            <path data-name="패스 997" d="M17.315 25.063a7.35 7.35 0 0 0 7.363-7.363 7.577 7.577 0 0 0-7.363-7.626 7.35 7.35 0 0 0-7.363 7.363 7.761 7.761 0 0 0 7.363 7.626zM4.956 5.078A17.479 17.479 0 1 1 29.675 29.8l-12.36 12.356L4.956 29.8a17.956 17.956 0 0 1 0-24.722z" transform="translate(-.025 .05)" style="fill-rule:evenodd;fill:#910004"/>
            <circle data-name="타원 272" cx="11" cy="11" r="11" transform="translate(6 6.103)" style="fill:#910004"/>
            <circle data-name="타원 273" cx="7" cy="7" r="7" transform="translate(10 10.103)" style="fill:#fff"/>
        </g>
        <g data-name="그룹 563">
            <g data-name="그룹 561">
                <path data-name="선 3" transform="rotate(31 -389.324 412.806)" style="stroke:#000;stroke-linecap:round;stroke-width:2.5px;stroke-dasharray:.2 5;fill:none" d="M51.035 0 0 89.12"/>
                <path data-name="다각형 1" d="m207.772 281.974-5.992 9.437-5.153-8.568z"/>
                <path data-name="다각형 2" d="m102.19 340.704 5.991-9.437 5.153 8.568z"/>
            </g>
            <g data-name="그룹 562" transform="translate(-7.519 -87.162)">
                <rect data-name="사각형 1838" width="63" height="21" rx="10.5" transform="translate(136 388)"/>
                <text data-name="63 km" transform="translate(168 403)" style="font-size:12px;font-family:SpoqaHanSansNeo-Medium,Spoqa Han Sans Neo;font-weight:500;fill:#fff"><tspan x="-17.598" y="0">63 km</tspan></text>
            </g>
        </g>
        <g data-name="그룹 919">
            <g data-name="그룹 521">
                <g data-name="그룹 502">
                    <path data-name="패스 980" d="m96.5 46.437-48 9.482L0 46.437V0h96.5z" transform="rotate(180 136.75 239.96)" style="fill:#910004"/>
                </g>
                <text data-name="강릉 북동 12km" transform="translate(185 450.919)" style="letter-spacing:-.015em;font-size:12px;font-family:SpoqaHanSansNeo-Medium,Spoqa Han Sans Neo;font-weight:500;fill:#fff"><tspan x="0" y="0">강릉 북동 12km</tspan></text>
                <text data-name="해일 70cm" transform="translate(188 470.919)" style="font-size:16px;font-family:SpoqaHanSansNeo-Bold,Spoqa Han Sans Neo;font-weight:700;letter-spacing:-.015em;fill:#fff"><tspan x="0" y="0">해일 70cm</tspan></text>
            </g>
            <path data-name="패스 1142" d="M0 143.894V0" transform="rotate(180 112.5 215.5)" style="stroke:#910004;fill:none"/>
            <g data-name="그룹 918">
                <g data-name="그룹 914">
                    <g data-name="그룹 913" style="clip-path:url(#jkt7d5bt6a)" transform="translate(205 247)">
                        <path data-name="패스 2776" d="M20 0A20 20 0 1 1 0 20 20 20 0 0 1 20 0" style="fill:#fff"/>
                        <circle data-name="타원 294" cx="19" cy="19" r="19" transform="translate(1 1)" style="stroke-width:2px;stroke:#910004;fill:none"/>
                    </g>
                </g>
                <g data-name="그룹 916">
                    <g data-name="그룹 915" style="clip-path:url(#kj838noztb)" transform="translate(205 247)">
                        <path data-name="패스 2777" d="M4.163 38.993A5.075 5.075 0 0 0 7.5 37.451a2.888 2.888 0 0 0 .433-2.52C6.407 31.924 1.879 24.433 9.947 15c4.455-5.1 11.915-5.785 15.442-5.414s4.287 2.374 4.291 3.72a2.438 2.438 0 0 1-3.645 2.124 3.183 3.183 0 0 0-.6-3.745.658.658 0 0 0-.919.941A1.871 1.871 0 0 1 22 15.394a2.7 2.7 0 0 0-.785-1.438.658.658 0 0 0-.909.949 1.4 1.4 0 1 1-1.982.045.657.657 0 1 0-.907-.95.459.459 0 0 0-.037.039 2.713 2.713 0 0 0-.139 3.592 15.021 15.021 0 0 0-1.269 5.669c-.286 4.474 1.925 9.424 9.1 12.146 2.584.98 10.364 3.043 12.991 3.017" style="fill:#ff2300"/>
                    </g>
                </g>
            </g>
        </g>
        <path data-name="사각형 1993" style="fill:none" d="M0 0h345v642H0z"/>
    </g>
</svg>
