<svg xmlns="http://www.w3.org/2000/svg" xmlns:xlink="http://www.w3.org/1999/xlink" width="924" height="1180" viewBox="0 0 924 1180">
  <defs>
    <clipPath id="clip-path">
      <path id="패스_2621" data-name="패스 2621" d="M17.6,239.955c21.181,21.18,28.968,18.689,73.821,0s60.739-19.623,99.986-10.279,51.706-28.968,72.887-40.181,50.149-16.82,88.772-13.082c20.393,1.973,51.207-14.983,84.732-33.024,9.556-5.143,47.864,4.692,78.173-18.059,13.633-10.233,18.721-48.018,31.148-61.05C588.232,21.164,544.505-4.784,510.987.736c-34.71,5.717-99.051,16.82-99.051,16.82s-59.622,28.578-89.084,29.28c-52.329,1.246-121.789,39.869-167.889,59.8s-40.492,31.148-106.527,18.689S-3.581,218.774,17.6,239.955Z" transform="translate(164.839 613.697) rotate(-107)" fill="#11547d" opacity="0.58"/>
    </clipPath>
  </defs>
  <g id="m23-animation-lg" transform="translate(0 -60)">
    <g id="그룹_927" data-name="그룹 927" transform="translate(169 62.394)">
      <path id="패스_1152" data-name="패스 1152" d="M17.6,239.955c21.181,21.18,28.968,18.689,73.821,0s60.739-19.623,99.986-10.279,51.706-28.968,72.887-40.181,50.149-16.82,88.772-13.082c20.393,1.973,51.207-14.983,84.732-33.024,9.556-5.143,47.864,4.692,78.173-18.059,13.633-10.233,18.721-48.018,31.148-61.05C588.232,21.164,544.505-4.784,510.987.736c-34.71,5.717-99.051,16.82-99.051,16.82s-59.622,28.578-89.084,29.28c-52.329,1.246-121.789,39.869-167.889,59.8s-40.492,31.148-106.527,18.689S-3.581,218.774,17.6,239.955Z" transform="translate(270.839 843.303) rotate(-107)" fill="#11547d" opacity="0.58"/>
      <g id="마스크_그룹_44" data-name="마스크 그룹 44" transform="translate(106 229.606)" opacity="0.6" clip-path="url(#clip-path)">
        <g id="그룹_863" data-name="그룹 863" transform="translate(0 26.93)">
          <g id="그룹_861" data-name="그룹 861" transform="translate(0 0)" opacity="0.6">
            <g id="그룹_823" data-name="그룹 823" transform="translate(0 0)">
              <g id="그룹_822" data-name="그룹 822" transform="translate(0 0)">
                <g id="그룹_303" data-name="그룹 303" transform="translate(0 72.887)">
                  <g id="그룹_638" data-name="그룹 638">
                    <path id="패스_999" data-name="패스 999" d="M0,3C33.046,3,33.046,18.8,66.091,18.8S99.139,3,132.186,3s33.046,15.8,66.093,15.8S231.33,3,264.381,3s33.05,15.8,66.1,15.8" transform="translate(0 -3)" fill="none" stroke="#fff" stroke-miterlimit="10" stroke-width="3"/>
                    <path id="패스_1000" data-name="패스 1000" d="M0,16.265c33.046,0,33.046,15.8,66.091,15.8s33.048-15.8,66.094-15.8,33.046,15.8,66.093,15.8,33.051-15.8,66.1-15.8,33.05,15.8,66.1,15.8" transform="translate(0 -1.3)" fill="none" stroke="#fff" stroke-miterlimit="10" stroke-width="3"/>
                    <path id="패스_1001" data-name="패스 1001" d="M0,29.531c33.046,0,33.046,15.8,66.091,15.8s33.048-15.8,66.094-15.8,33.046,15.8,66.093,15.8,33.051-15.8,66.1-15.8,33.05,15.8,66.1,15.8" transform="translate(0 0.401)" fill="none" stroke="#fff" stroke-miterlimit="10" stroke-width="3"/>
                    <path id="패스_1002" data-name="패스 1002" d="M0,42.8c33.046,0,33.046,15.8,66.091,15.8s33.048-15.8,66.094-15.8,33.046,15.8,66.093,15.8,33.051-15.8,66.1-15.8,33.05,15.8,66.1,15.8" transform="translate(0 2.101)" fill="none" stroke="#fff" stroke-miterlimit="10" stroke-width="3"/>
                    <path id="패스_1003" data-name="패스 1003" d="M0,56.061c33.046,0,33.046,15.8,66.091,15.8s33.048-15.8,66.094-15.8,33.046,15.8,66.093,15.8,33.051-15.8,66.1-15.8,33.05,15.8,66.1,15.8" transform="translate(0 3.802)" fill="none" stroke="#fff" stroke-miterlimit="10" stroke-width="3"/>
                  </g>
                </g>
                <g id="그룹_820" data-name="그룹 820" transform="translate(0 218.66)">
                  <g id="그룹_638-2" data-name="그룹 638">
                    <path id="패스_999-2" data-name="패스 999" d="M0,3C33.046,3,33.046,18.8,66.091,18.8S99.139,3,132.186,3s33.046,15.8,66.093,15.8S231.33,3,264.381,3s33.05,15.8,66.1,15.8" transform="translate(0 -3)" fill="none" stroke="#fff" stroke-miterlimit="10" stroke-width="3"/>
                    <path id="패스_1000-2" data-name="패스 1000" d="M0,16.265c33.046,0,33.046,15.8,66.091,15.8s33.048-15.8,66.094-15.8,33.046,15.8,66.093,15.8,33.051-15.8,66.1-15.8,33.05,15.8,66.1,15.8" transform="translate(0 -1.3)" fill="none" stroke="#fff" stroke-miterlimit="10" stroke-width="3"/>
                    <path id="패스_1001-2" data-name="패스 1001" d="M0,29.531c33.046,0,33.046,15.8,66.091,15.8s33.048-15.8,66.094-15.8,33.046,15.8,66.093,15.8,33.051-15.8,66.1-15.8,33.05,15.8,66.1,15.8" transform="translate(0 0.401)" fill="none" stroke="#fff" stroke-miterlimit="10" stroke-width="3"/>
                    <path id="패스_1002-2" data-name="패스 1002" d="M0,42.8c33.046,0,33.046,15.8,66.091,15.8s33.048-15.8,66.094-15.8,33.046,15.8,66.093,15.8,33.051-15.8,66.1-15.8,33.05,15.8,66.1,15.8" transform="translate(0 2.101)" fill="none" stroke="#fff" stroke-miterlimit="10" stroke-width="3"/>
                    <path id="패스_1003-2" data-name="패스 1003" d="M0,56.061c33.046,0,33.046,15.8,66.091,15.8s33.048-15.8,66.094-15.8,33.046,15.8,66.093,15.8,33.051-15.8,66.1-15.8,33.05,15.8,66.1,15.8" transform="translate(0 3.802)" fill="none" stroke="#fff" stroke-miterlimit="10" stroke-width="3"/>
                  </g>
                </g>
                <g id="그룹_821" data-name="그룹 821" transform="translate(0 293.416)">
                  <g id="그룹_638-3" data-name="그룹 638">
                    <path id="패스_999-3" data-name="패스 999" d="M0,3C33.046,3,33.046,18.8,66.091,18.8S99.139,3,132.186,3s33.046,15.8,66.093,15.8S231.33,3,264.381,3s33.05,15.8,66.1,15.8" transform="translate(0 -3)" fill="none" stroke="#fff" stroke-miterlimit="10" stroke-width="3"/>
                    <path id="패스_1000-3" data-name="패스 1000" d="M0,16.265c33.046,0,33.046,15.8,66.091,15.8s33.048-15.8,66.094-15.8,33.046,15.8,66.093,15.8,33.051-15.8,66.1-15.8,33.05,15.8,66.1,15.8" transform="translate(0 -1.3)" fill="none" stroke="#fff" stroke-miterlimit="10" stroke-width="3"/>
                    <path id="패스_1001-3" data-name="패스 1001" d="M0,29.531c33.046,0,33.046,15.8,66.091,15.8s33.048-15.8,66.094-15.8,33.046,15.8,66.093,15.8,33.051-15.8,66.1-15.8,33.05,15.8,66.1,15.8" transform="translate(0 0.401)" fill="none" stroke="#fff" stroke-miterlimit="10" stroke-width="3"/>
                    <path id="패스_1002-3" data-name="패스 1002" d="M0,42.8c33.046,0,33.046,15.8,66.091,15.8s33.048-15.8,66.094-15.8,33.046,15.8,66.093,15.8,33.051-15.8,66.1-15.8,33.05,15.8,66.1,15.8" transform="translate(0 2.101)" fill="none" stroke="#fff" stroke-miterlimit="10" stroke-width="3"/>
                    <path id="패스_1003-3" data-name="패스 1003" d="M0,56.061c33.046,0,33.046,15.8,66.091,15.8s33.048-15.8,66.094-15.8,33.046,15.8,66.093,15.8,33.051-15.8,66.1-15.8,33.05,15.8,66.1,15.8" transform="translate(0 3.802)" fill="none" stroke="#fff" stroke-miterlimit="10" stroke-width="3"/>
                  </g>
                </g>
                <g id="그룹_818" data-name="그룹 818">
                  <g id="그룹_638-4" data-name="그룹 638">
                    <path id="패스_999-4" data-name="패스 999" d="M0,3C33.046,3,33.046,18.8,66.091,18.8S99.139,3,132.186,3s33.046,15.8,66.093,15.8S231.33,3,264.381,3s33.05,15.8,66.1,15.8" transform="translate(0 -3)" fill="none" stroke="#fff" stroke-miterlimit="10" stroke-width="3"/>
                    <path id="패스_1000-4" data-name="패스 1000" d="M0,16.265c33.046,0,33.046,15.8,66.091,15.8s33.048-15.8,66.094-15.8,33.046,15.8,66.093,15.8,33.051-15.8,66.1-15.8,33.05,15.8,66.1,15.8" transform="translate(0 -1.3)" fill="none" stroke="#fff" stroke-miterlimit="10" stroke-width="3"/>
                    <path id="패스_1001-4" data-name="패스 1001" d="M0,29.531c33.046,0,33.046,15.8,66.091,15.8s33.048-15.8,66.094-15.8,33.046,15.8,66.093,15.8,33.051-15.8,66.1-15.8,33.05,15.8,66.1,15.8" transform="translate(0 0.401)" fill="none" stroke="#fff" stroke-miterlimit="10" stroke-width="3"/>
                    <path id="패스_1002-4" data-name="패스 1002" d="M0,42.8c33.046,0,33.046,15.8,66.091,15.8s33.048-15.8,66.094-15.8,33.046,15.8,66.093,15.8,33.051-15.8,66.1-15.8,33.05,15.8,66.1,15.8" transform="translate(0 2.101)" fill="none" stroke="#fff" stroke-miterlimit="10" stroke-width="3"/>
                    <path id="패스_1003-4" data-name="패스 1003" d="M0,56.061c33.046,0,33.046,15.8,66.091,15.8s33.048-15.8,66.094-15.8,33.046,15.8,66.093,15.8,33.051-15.8,66.1-15.8,33.05,15.8,66.1,15.8" transform="translate(0 3.802)" fill="none" stroke="#fff" stroke-miterlimit="10" stroke-width="3"/>
                  </g>
                </g>
                <g id="그룹_819" data-name="그룹 819" transform="translate(0 145.773)">
                  <g id="그룹_638-5" data-name="그룹 638">
                    <path id="패스_999-5" data-name="패스 999" d="M0,3C33.046,3,33.046,18.8,66.091,18.8S99.139,3,132.186,3s33.046,15.8,66.093,15.8S231.33,3,264.381,3s33.05,15.8,66.1,15.8" transform="translate(0 -3)" fill="none" stroke="#fff" stroke-miterlimit="10" stroke-width="3"/>
                    <path id="패스_1000-5" data-name="패스 1000" d="M0,16.265c33.046,0,33.046,15.8,66.091,15.8s33.048-15.8,66.094-15.8,33.046,15.8,66.093,15.8,33.051-15.8,66.1-15.8,33.05,15.8,66.1,15.8" transform="translate(0 -1.3)" fill="none" stroke="#fff" stroke-miterlimit="10" stroke-width="3"/>
                    <path id="패스_1001-5" data-name="패스 1001" d="M0,29.531c33.046,0,33.046,15.8,66.091,15.8s33.048-15.8,66.094-15.8,33.046,15.8,66.093,15.8,33.051-15.8,66.1-15.8,33.05,15.8,66.1,15.8" transform="translate(0 0.401)" fill="none" stroke="#fff" stroke-miterlimit="10" stroke-width="3"/>
                    <path id="패스_1002-5" data-name="패스 1002" d="M0,42.8c33.046,0,33.046,15.8,66.091,15.8s33.048-15.8,66.094-15.8,33.046,15.8,66.093,15.8,33.051-15.8,66.1-15.8,33.05,15.8,66.1,15.8" transform="translate(0 2.101)" fill="none" stroke="#fff" stroke-miterlimit="10" stroke-width="3"/>
                    <path id="패스_1003-5" data-name="패스 1003" d="M0,56.061c33.046,0,33.046,15.8,66.091,15.8s33.048-15.8,66.094-15.8,33.046,15.8,66.093,15.8,33.051-15.8,66.1-15.8,33.05,15.8,66.1,15.8" transform="translate(0 3.802)" fill="none" stroke="#fff" stroke-miterlimit="10" stroke-width="3"/>
                  </g>
                </g>
              </g>
            </g>
          </g>
          <g id="그룹_862" data-name="그룹 862" transform="translate(132.691 368.171)" opacity="0.6">
            <g id="그룹_823-2" data-name="그룹 823" transform="translate(0 0)">
              <g id="그룹_822-2" data-name="그룹 822" transform="translate(0 0)">
                <g id="그룹_303-2" data-name="그룹 303" transform="translate(0 72.887)">
                  <g id="그룹_638-6" data-name="그룹 638">
                    <path id="패스_999-6" data-name="패스 999" d="M0,3C33.046,3,33.046,18.8,66.091,18.8S99.139,3,132.186,3s33.046,15.8,66.093,15.8S231.33,3,264.381,3s33.05,15.8,66.1,15.8" transform="translate(0 -3)" fill="none" stroke="#fff" stroke-miterlimit="10" stroke-width="3"/>
                    <path id="패스_1000-6" data-name="패스 1000" d="M0,16.265c33.046,0,33.046,15.8,66.091,15.8s33.048-15.8,66.094-15.8,33.046,15.8,66.093,15.8,33.051-15.8,66.1-15.8,33.05,15.8,66.1,15.8" transform="translate(0 -1.3)" fill="none" stroke="#fff" stroke-miterlimit="10" stroke-width="3"/>
                    <path id="패스_1001-6" data-name="패스 1001" d="M0,29.531c33.046,0,33.046,15.8,66.091,15.8s33.048-15.8,66.094-15.8,33.046,15.8,66.093,15.8,33.051-15.8,66.1-15.8,33.05,15.8,66.1,15.8" transform="translate(0 0.401)" fill="none" stroke="#fff" stroke-miterlimit="10" stroke-width="3"/>
                    <path id="패스_1002-6" data-name="패스 1002" d="M0,42.8c33.046,0,33.046,15.8,66.091,15.8s33.048-15.8,66.094-15.8,33.046,15.8,66.093,15.8,33.051-15.8,66.1-15.8,33.05,15.8,66.1,15.8" transform="translate(0 2.101)" fill="none" stroke="#fff" stroke-miterlimit="10" stroke-width="3"/>
                    <path id="패스_1003-6" data-name="패스 1003" d="M0,56.061c33.046,0,33.046,15.8,66.091,15.8s33.048-15.8,66.094-15.8,33.046,15.8,66.093,15.8,33.051-15.8,66.1-15.8,33.05,15.8,66.1,15.8" transform="translate(0 3.802)" fill="none" stroke="#fff" stroke-miterlimit="10" stroke-width="3"/>
                  </g>
                </g>
                <g id="그룹_820-2" data-name="그룹 820" transform="translate(0 218.66)">
                  <g id="그룹_638-7" data-name="그룹 638">
                    <path id="패스_999-7" data-name="패스 999" d="M0,3C33.046,3,33.046,18.8,66.091,18.8S99.139,3,132.186,3s33.046,15.8,66.093,15.8S231.33,3,264.381,3s33.05,15.8,66.1,15.8" transform="translate(0 -3)" fill="none" stroke="#fff" stroke-miterlimit="10" stroke-width="3"/>
                    <path id="패스_1000-7" data-name="패스 1000" d="M0,16.265c33.046,0,33.046,15.8,66.091,15.8s33.048-15.8,66.094-15.8,33.046,15.8,66.093,15.8,33.051-15.8,66.1-15.8,33.05,15.8,66.1,15.8" transform="translate(0 -1.3)" fill="none" stroke="#fff" stroke-miterlimit="10" stroke-width="3"/>
                    <path id="패스_1001-7" data-name="패스 1001" d="M0,29.531c33.046,0,33.046,15.8,66.091,15.8s33.048-15.8,66.094-15.8,33.046,15.8,66.093,15.8,33.051-15.8,66.1-15.8,33.05,15.8,66.1,15.8" transform="translate(0 0.401)" fill="none" stroke="#fff" stroke-miterlimit="10" stroke-width="3"/>
                    <path id="패스_1002-7" data-name="패스 1002" d="M0,42.8c33.046,0,33.046,15.8,66.091,15.8s33.048-15.8,66.094-15.8,33.046,15.8,66.093,15.8,33.051-15.8,66.1-15.8,33.05,15.8,66.1,15.8" transform="translate(0 2.101)" fill="none" stroke="#fff" stroke-miterlimit="10" stroke-width="3"/>
                    <path id="패스_1003-7" data-name="패스 1003" d="M0,56.061c33.046,0,33.046,15.8,66.091,15.8s33.048-15.8,66.094-15.8,33.046,15.8,66.093,15.8,33.051-15.8,66.1-15.8,33.05,15.8,66.1,15.8" transform="translate(0 3.802)" fill="none" stroke="#fff" stroke-miterlimit="10" stroke-width="3"/>
                  </g>
                </g>
                <g id="그룹_821-2" data-name="그룹 821" transform="translate(0 293.416)">
                  <g id="그룹_638-8" data-name="그룹 638">
                    <path id="패스_999-8" data-name="패스 999" d="M0,3C33.046,3,33.046,18.8,66.091,18.8S99.139,3,132.186,3s33.046,15.8,66.093,15.8S231.33,3,264.381,3s33.05,15.8,66.1,15.8" transform="translate(0 -3)" fill="none" stroke="#fff" stroke-miterlimit="10" stroke-width="3"/>
                    <path id="패스_1000-8" data-name="패스 1000" d="M0,16.265c33.046,0,33.046,15.8,66.091,15.8s33.048-15.8,66.094-15.8,33.046,15.8,66.093,15.8,33.051-15.8,66.1-15.8,33.05,15.8,66.1,15.8" transform="translate(0 -1.3)" fill="none" stroke="#fff" stroke-miterlimit="10" stroke-width="3"/>
                    <path id="패스_1001-8" data-name="패스 1001" d="M0,29.531c33.046,0,33.046,15.8,66.091,15.8s33.048-15.8,66.094-15.8,33.046,15.8,66.093,15.8,33.051-15.8,66.1-15.8,33.05,15.8,66.1,15.8" transform="translate(0 0.401)" fill="none" stroke="#fff" stroke-miterlimit="10" stroke-width="3"/>
                    <path id="패스_1002-8" data-name="패스 1002" d="M0,42.8c33.046,0,33.046,15.8,66.091,15.8s33.048-15.8,66.094-15.8,33.046,15.8,66.093,15.8,33.051-15.8,66.1-15.8,33.05,15.8,66.1,15.8" transform="translate(0 2.101)" fill="none" stroke="#fff" stroke-miterlimit="10" stroke-width="3"/>
                    <path id="패스_1003-8" data-name="패스 1003" d="M0,56.061c33.046,0,33.046,15.8,66.091,15.8s33.048-15.8,66.094-15.8,33.046,15.8,66.093,15.8,33.051-15.8,66.1-15.8,33.05,15.8,66.1,15.8" transform="translate(0 3.802)" fill="none" stroke="#fff" stroke-miterlimit="10" stroke-width="3"/>
                  </g>
                </g>
                <g id="그룹_818-2" data-name="그룹 818">
                  <g id="그룹_638-9" data-name="그룹 638">
                    <path id="패스_999-9" data-name="패스 999" d="M0,3C33.046,3,33.046,18.8,66.091,18.8S99.139,3,132.186,3s33.046,15.8,66.093,15.8S231.33,3,264.381,3s33.05,15.8,66.1,15.8" transform="translate(0 -3)" fill="none" stroke="#fff" stroke-miterlimit="10" stroke-width="3"/>
                    <path id="패스_1000-9" data-name="패스 1000" d="M0,16.265c33.046,0,33.046,15.8,66.091,15.8s33.048-15.8,66.094-15.8,33.046,15.8,66.093,15.8,33.051-15.8,66.1-15.8,33.05,15.8,66.1,15.8" transform="translate(0 -1.3)" fill="none" stroke="#fff" stroke-miterlimit="10" stroke-width="3"/>
                    <path id="패스_1001-9" data-name="패스 1001" d="M0,29.531c33.046,0,33.046,15.8,66.091,15.8s33.048-15.8,66.094-15.8,33.046,15.8,66.093,15.8,33.051-15.8,66.1-15.8,33.05,15.8,66.1,15.8" transform="translate(0 0.401)" fill="none" stroke="#fff" stroke-miterlimit="10" stroke-width="3"/>
                    <path id="패스_1002-9" data-name="패스 1002" d="M0,42.8c33.046,0,33.046,15.8,66.091,15.8s33.048-15.8,66.094-15.8,33.046,15.8,66.093,15.8,33.051-15.8,66.1-15.8,33.05,15.8,66.1,15.8" transform="translate(0 2.101)" fill="none" stroke="#fff" stroke-miterlimit="10" stroke-width="3"/>
                    <path id="패스_1003-9" data-name="패스 1003" d="M0,56.061c33.046,0,33.046,15.8,66.091,15.8s33.048-15.8,66.094-15.8,33.046,15.8,66.093,15.8,33.051-15.8,66.1-15.8,33.05,15.8,66.1,15.8" transform="translate(0 3.802)" fill="none" stroke="#fff" stroke-miterlimit="10" stroke-width="3"/>
                  </g>
                </g>
                <g id="그룹_819-2" data-name="그룹 819" transform="translate(0 145.773)">
                  <g id="그룹_638-10" data-name="그룹 638">
                    <path id="패스_999-10" data-name="패스 999" d="M0,3C33.046,3,33.046,18.8,66.091,18.8S99.139,3,132.186,3s33.046,15.8,66.093,15.8S231.33,3,264.381,3s33.05,15.8,66.1,15.8" transform="translate(0 -3)" fill="none" stroke="#fff" stroke-miterlimit="10" stroke-width="3"/>
                    <path id="패스_1000-10" data-name="패스 1000" d="M0,16.265c33.046,0,33.046,15.8,66.091,15.8s33.048-15.8,66.094-15.8,33.046,15.8,66.093,15.8,33.051-15.8,66.1-15.8,33.05,15.8,66.1,15.8" transform="translate(0 -1.3)" fill="none" stroke="#fff" stroke-miterlimit="10" stroke-width="3"/>
                    <path id="패스_1001-10" data-name="패스 1001" d="M0,29.531c33.046,0,33.046,15.8,66.091,15.8s33.048-15.8,66.094-15.8,33.046,15.8,66.093,15.8,33.051-15.8,66.1-15.8,33.05,15.8,66.1,15.8" transform="translate(0 0.401)" fill="none" stroke="#fff" stroke-miterlimit="10" stroke-width="3"/>
                    <path id="패스_1002-10" data-name="패스 1002" d="M0,42.8c33.046,0,33.046,15.8,66.091,15.8s33.048-15.8,66.094-15.8,33.046,15.8,66.093,15.8,33.051-15.8,66.1-15.8,33.05,15.8,66.1,15.8" transform="translate(0 2.101)" fill="none" stroke="#fff" stroke-miterlimit="10" stroke-width="3"/>
                    <path id="패스_1003-10" data-name="패스 1003" d="M0,56.061c33.046,0,33.046,15.8,66.091,15.8s33.048-15.8,66.094-15.8,33.046,15.8,66.093,15.8,33.051-15.8,66.1-15.8,33.05,15.8,66.1,15.8" transform="translate(0 3.802)" fill="none" stroke="#fff" stroke-miterlimit="10" stroke-width="3"/>
                  </g>
                </g>
              </g>
            </g>
          </g>
        </g>
      </g>
    </g>
    <rect id="사각형_1965" data-name="사각형 1965" width="924" height="1180" transform="translate(0 60)" fill="none"/>
  </g>
</svg>
