<svg xmlns="http://www.w3.org/2000/svg" xmlns:xlink="http://www.w3.org/1999/xlink" width="345" height="642" viewBox="0 0 345 642">
  <defs>
    <clipPath id="clip-path">
      <rect id="사각형_1999" data-name="사각형 1999" width="345" height="642" transform="translate(0 140)" fill="#d60000"/>
    </clipPath>
    <clipPath id="clip-path-2">
      <rect id="사각형_1835" data-name="사각형 1835" width="18.522" height="23.958" fill="#ff2300"/>
    </clipPath>
  </defs>
  <g id="마스크_그룹_52" data-name="마스크 그룹 52" transform="translate(0 -140)" clip-path="url(#clip-path)">
    <g id="그룹_590" data-name="그룹 590">
      <g id="그룹_587" data-name="그룹 587" transform="translate(-284.234 256.061) rotate(-44)">
        <line id="선_3" data-name="선 3" x1="113.552" y2="259.644" transform="translate(107.209 374.678)" fill="none" stroke="#000" stroke-linecap="round" stroke-width="2.5" stroke-dasharray="0.2 5"/>
        <path id="다각형_1" data-name="다각형 1" d="M5,0l5,10H0Z" transform="translate(220.578 361.807) rotate(22)"/>
        <path id="다각형_2" data-name="다각형 2" d="M5,0l5,10H0Z" transform="translate(107.785 647.35) rotate(-158)"/>
      </g>
      <g id="그룹_524" data-name="그룹 524" transform="translate(16.878 104.474)">
        <rect id="사각형_1838" data-name="사각형 1838" width="63" height="21" rx="10.5" transform="translate(136 388)"/>
        <text id="_6.7_km" data-name="6.7 km" transform="translate(168 403)" fill="#fff" font-size="12" font-family="SpoqaHanSansNeo-Medium, Spoqa Han Sans Neo" font-weight="500"><tspan x="-19.188" y="0">6.7 km</tspan></text>
      </g>
    </g>
    <g id="그룹_591" data-name="그룹 591">
      <path id="패스_1144" data-name="패스 1144" d="M0,92.378v-39" transform="translate(236.378 339.5) rotate(90)" fill="none" stroke="#910004" stroke-width="1"/>
      <g id="그룹_588" data-name="그룹 588" transform="translate(0 -0.188)">
        <g id="그룹_502" data-name="그룹 502" transform="translate(-56.709 481.813) rotate(-90)">
          <path id="패스_980" data-name="패스 980" d="M402.625,302.436l-24.5,20.571L351,302.436V185.508h51.625Z" transform="translate(519.625 552.217) rotate(180)" fill="#910004"/>
        </g>
        <text id="청주시_흥덕구_부모산" data-name="청주시 흥덕구 부모산" transform="translate(196 334.5)" fill="#fff" font-size="12" font-family="SpoqaHanSansNeo-Medium, Spoqa Han Sans Neo" font-weight="500" letter-spacing="-0.015em"><tspan x="0" y="0">청주시 흥덕구 부모산</tspan></text>
        <text id="풍속_25m_s" data-name="풍속 25m/s" transform="translate(196 353.5)" fill="#fff" font-size="15" font-family="SpoqaHanSansNeo-Bold, Spoqa Han Sans Neo" font-weight="700" letter-spacing="-0.015em"><tspan x="0" y="0">풍속 25m/s</tspan></text>
      </g>
      <g id="그룹_519" data-name="그룹 519" transform="translate(-48 -29.709)">
        <g id="그룹_501" data-name="그룹 501" transform="translate(153 348.709)">
          <g id="타원_268" data-name="타원 268" transform="translate(0)" fill="#fff" stroke="#910004" stroke-width="2">
            <circle cx="20" cy="20" r="20" stroke="none"/>
            <circle cx="20" cy="20" r="19" fill="none"/>
          </g>
        </g>
        <g id="그룹_518" data-name="그룹 518" transform="translate(163.571 355.751)">
          <g id="그룹_513" data-name="그룹 513" clip-path="url(#clip-path-2)">
            <path id="패스_1141" data-name="패스 1141" d="M16.684,9.243l-1-1.288-.066,1.63c-.018.445-.193,2.192-1.4,2.089-.652-.055-1.311-.674-.586-2.493,1.246-3.129.075-3.913-1.73-5.41A3.44,3.44,0,0,1,10.987,0s-4.5.426-4.317,4.743c.125,2.952-3.831.426-2.855,7.347.075.528.217.934.007,1.257a.751.751,0,0,1-.571.361.3.3,0,0,1-.048,0c-.31-.049-.865-.675-1.188-1.229l-.591-1.017-.47,1.079c-1.217,2.794-1.268,5.2-.15,7.147,2.039,3.553,7.194,4.2,7.415,4.229a9.581,9.581,0,0,0,.982.044h0c1.672,0,5.776-.358,7.8-3.674a10.042,10.042,0,0,0-.313-11.041M8.818,22.9c-3.137-.274-3.4-1.959-3.707-3.1a6.419,6.419,0,0,1,1.642-5.115,3.839,3.839,0,0,0,1.6-3.283c0-1.875,2.23-3.047,2.23-3.047s-1.067,1.867-.125,3.023a3.1,3.1,0,0,1,.669,3.416c-1.388,2.83.34,3.05,1.277,5.006.547,1.143-.234,3.394-3.59,3.1" transform="translate(0)" fill="#ff2300"/>
          </g>
        </g>
      </g>
    </g>
    <g id="lacation" transform="translate(230.111 652)">
      <path id="패스_997" data-name="패스 997" d="M17.315,25.063A7.35,7.35,0,0,0,24.678,17.7a7.577,7.577,0,0,0-7.363-7.626,7.35,7.35,0,0,0-7.363,7.363A7.761,7.761,0,0,0,17.315,25.063ZM4.956,5.078A17.479,17.479,0,1,1,29.675,29.8L17.315,42.156,4.956,29.8A17.956,17.956,0,0,1,4.956,5.078Z" transform="translate(-0.025 0.05)" fill="#910004" fill-rule="evenodd"/>
      <circle id="타원_272" data-name="타원 272" cx="11" cy="11" r="11" transform="translate(6 6.103)" fill="#910004"/>
      <circle id="타원_273" data-name="타원 273" cx="7" cy="7" r="7" transform="translate(10 10.103)" fill="#fff"/>
    </g>
  </g>
</svg>
