<svg xmlns="http://www.w3.org/2000/svg" xmlns:xlink="http://www.w3.org/1999/xlink" width="822" height="1036" viewBox="0 0 822 1036">
  <defs>
    <clipPath id="clip-path">
      <rect id="사각형_1956" data-name="사각형 1956" width="822" height="1036" transform="translate(0 174)" fill="#800"/>
    </clipPath>
  </defs>
  <g id="마스크_그룹_50" data-name="마스크 그룹 50" transform="translate(0 -174)" clip-path="url(#clip-path)">
    <g id="그룹_613" data-name="그룹 613" transform="translate(0 106)">
      <g id="그룹_614" data-name="그룹 614">
        <g id="그룹_568" data-name="그룹 568" transform="matrix(0.342, -0.94, 0.94, 0.342, -20.628, 898.21)">
          <g id="그룹_525" data-name="그룹 525" transform="translate(170.944 0) rotate(16)">
            <g id="그룹_601" data-name="그룹 601">
              <path id="패스_1151" data-name="패스 1151" d="M359.612,0,100.089,411.61" transform="translate(22.278 23.729)" fill="none" stroke="#000" stroke-linecap="round" stroke-width="3" stroke-dasharray="0.3 8"/>
            </g>
            <path id="다각형_1" data-name="다각형 1" d="M9,0l9,18H0Z" transform="matrix(0.883, 0.469, -0.469, 0.883, 385.227, 0)"/>
            <path id="다각형_2" data-name="다각형 2" d="M9,0l9,18H0Z" transform="matrix(-0.883, -0.469, 0.469, -0.883, 119.604, 459.314)"/>
          </g>
        </g>
        <g id="그룹_600" data-name="그룹 600" transform="translate(-65.647 149)">
          <rect id="사각형_1838" data-name="사각형 1838" width="144" height="50" rx="25" transform="translate(382 522)"/>
          <text id="_6.7_km" data-name="6.7 km" transform="translate(454 556)" fill="#fff" font-size="26" font-family="SpoqaHanSansNeo-Medium, Spoqa Han Sans Neo" font-weight="500"><tspan x="-41.574" y="0">6.7 km</tspan></text>
        </g>
      </g>
    </g>
    <g id="t_location" transform="translate(447 1022.613)">
      <g id="lacation" transform="translate(7 4)">
        <path id="패스_997" data-name="패스 997" d="M27.943,40.5A11.868,11.868,0,0,0,39.832,28.611c0-6.369-5.1-12.314-11.889-12.314A11.868,11.868,0,0,0,16.054,28.186C16.054,34.555,21.574,40.5,27.943,40.5ZM7.986,8.23A28.223,28.223,0,0,1,47.9,48.143L27.943,68.1,7.986,48.143A28.993,28.993,0,0,1,7.986,8.23Z" transform="translate(-0.025 0.05)" fill="#910004" fill-rule="evenodd"/>
        <circle id="타원_272" data-name="타원 272" cx="17.761" cy="17.761" r="17.761" transform="translate(10.627 9.855)" fill="#910004"/>
        <circle id="타원_273" data-name="타원 273" cx="11.303" cy="11.303" r="11.303" transform="translate(17.109 16.313)" fill="#fff"/>
      </g>
      <rect id="사각형_1863" data-name="사각형 1863" width="72" height="72" fill="none"/>
    </g>
  </g>
</svg>
