<svg xmlns="http://www.w3.org/2000/svg" width="924" height="1180" viewBox="0 0 924 1180">
    <defs>
        <clipPath id="clip-path">
            <circle id="타원_267" data-name="타원 267" cx="33.698" cy="33.698" r="33.698" style="stroke-width:6px;stroke:#910004;fill:#fff"/>
        </clipPath>
        <clipPath id="clip-path-2">
            <path id="사각형_1835" data-name="사각형 1835" style="fill:#ff2300" d="M0 0h29.847v38.606H0z"/>
        </clipPath>
        <style>
            
        </style>
    </defs>
    <g id="그룹_674" data-name="그룹 674" transform="translate(0 -60)">
        <g id="그룹_668" data-name="그룹 668">
            <g id="그룹_667" data-name="그룹 667">
                <g id="그룹_608" data-name="그룹 608" transform="translate(271.025 308.481)">
                    <path id="패스_1139" data-name="패스 1139" d="M0 167.925V0" transform="rotate(90 85.38 140.545)" style="fill:none;stroke:#910004"/>
                    <g id="그룹_504" data-name="그룹 504" transform="translate(189.963 4)">
                        <g id="그룹_502" data-name="그룹 502" transform="rotate(90 82.534 86.199)">
                            <path id="패스_980" data-name="패스 980" d="M92 148.345 48.339 184 0 148.345V-52h92z" transform="translate(0 -5)" style="fill:#910004"/>
                        </g>
                        <text id="청주시_흥덕구_부모산" data-name="청주시 흥덕구 부모산" transform="translate(34.312 39.615)" style="letter-spacing:-.015em;font-family:SpoqaHanSansNeo-Medium,Spoqa Han Sans Neo;font-weight:500;font-size:20px;fill:#fff"><tspan x="0" y="0">청주시 흥덕구 부모산</tspan></text>
                        <text id="풍속_25m_s" data-name="풍속 25m/s" transform="translate(34.312 74.449)" style="font-size:27px;font-family:SpoqaHanSansNeo-Bold,Spoqa Han Sans Neo;font-weight:700;letter-spacing:-.015em;fill:#fff"><tspan x="0" y="0">풍속 25m/s</tspan></text>
                    </g>
                    <g id="그룹_501" data-name="그룹 501" transform="translate(-4 19.665)">
                        <g id="그룹_610" data-name="그룹 610">
                            <g id="패스_1150" data-name="패스 1150" style="fill:#fff">
                                <path d="M34 67a32.891 32.891 0 0 1-23.334-9.665A32.891 32.891 0 0 1 1 34a32.891 32.891 0 0 1 9.665-23.334A32.891 32.891 0 0 1 34 1a32.891 32.891 0 0 1 23.334 9.665A32.891 32.891 0 0 1 67 34a32.891 32.891 0 0 1-9.665 23.334A32.891 32.891 0 0 1 34 67z" style="stroke:none"/>
                                <path d="M34 2a31.896 31.896 0 0 0-22.627 9.373A31.896 31.896 0 0 0 2 34a31.896 31.896 0 0 0 9.373 22.627A31.896 31.896 0 0 0 34 66a31.896 31.896 0 0 0 22.627-9.373A31.896 31.896 0 0 0 66 34a31.896 31.896 0 0 0-9.373-22.627A31.896 31.896 0 0 0 34 2m0-2c18.777 0 34 15.222 34 34 0 18.777-15.223 34-34 34C15.222 68 0 52.777 0 34 0 15.222 15.222 0 34 0z" style="fill:#910004;stroke:none"/>
                            </g>
                            <g id="그룹_609" data-name="그룹 609" transform="translate(19.039 14.768)">
                                <g id="그룹_513" data-name="그룹 513" style="clip-path:url(#clip-path-2)">
                                    <path id="패스_1141" data-name="패스 1141" d="m26.885 14.894-1.611-2.075-.106 2.626c-.029.717-.31 3.533-2.261 3.366-1.05-.089-2.112-1.087-.945-4.018 2.008-5.042.121-6.306-2.788-8.718S17.7 0 17.7 0s-7.251.686-6.957 7.643c.2 4.756-6.173.686-4.6 11.84.12.85.35 1.506.011 2.026a1.211 1.211 0 0 1-.92.582.484.484 0 0 1-.078-.006C4.66 22.007 3.765 21 3.244 20.1l-.952-1.639-.757 1.739c-1.962 4.5-2.043 8.38-.241 11.52 3.286 5.726 11.592 6.773 11.949 6.815a15.438 15.438 0 0 0 1.583.07c2.694 0 9.308-.577 12.563-5.92a16.182 16.182 0 0 0-.5-17.792M14.209 36.9c-5.056-.441-5.484-3.157-5.974-5s.49-6.4 2.646-8.242a6.186 6.186 0 0 0 2.586-5.29c0-3.022 3.593-4.91 3.593-4.91s-1.719 3.008-.2 4.871c1.236 1.518 2.082 3.458 1.078 5.505-2.236 4.56.548 4.915 2.058 8.067.882 1.841-.378 5.47-5.785 5" style="fill:#ff2300"/>
                                </g>
                            </g>
                        </g>
                    </g>
                </g>
                <g id="그룹_568" data-name="그룹 568" transform="rotate(-68 668.984 494.917)">
                    <g id="그룹_525" data-name="그룹 525" transform="rotate(16 46.16 1060.687)">
                        <g id="그룹_601" data-name="그룹 601" transform="translate(22.111 28.394)">
                            <path id="패스_1151" data-name="패스 1151" d="M307.576 0-6.867 498.406" style="stroke:#000;stroke-linecap:round;stroke-width:3px;stroke-dasharray:.3 8;fill:none"/>
                        </g>
                        <path id="다각형_1" data-name="다각형 1" d="m10.666 0 10.667 21.333H0z" transform="rotate(32 167.329 583.544)"/>
                        <path id="다각형_2" data-name="다각형 2" d="m10.666 0 10.667 21.333H0z" transform="rotate(-149 82.443 275.428)"/>
                    </g>
                </g>
                <g id="그룹_600" data-name="그룹 600" transform="translate(-42.647 140.145)">
                    <rect id="사각형_1838" data-name="사각형 1838" width="160" height="56" rx="28" transform="translate(381.647 522)"/>
                    <text id="_6.7_km" data-name="6.7 km" transform="translate(461.647 561)" style="font-size:30px;font-family:SpoqaHanSansNeo-Medium,Spoqa Han Sans Neo;font-weight:500;fill:#fff"><tspan x="-47.97" y="0">6.7 km</tspan></text>
                </g>
                <g id="t_location" transform="translate(506 1004.855)">
                    <g id="lacation" transform="translate(7 4)">
                        <path id="패스_997" data-name="패스 997" d="M27.882 40.411a11.842 11.842 0 0 0 11.863-11.863c0-6.355-5.084-12.287-11.863-12.287a11.842 11.842 0 0 0-11.863 11.863c0 6.356 5.508 12.287 11.863 12.287zM7.969 8.212a28.161 28.161 0 1 1 39.825 39.825L27.882 67.95 7.969 48.037a28.929 28.929 0 0 1 0-39.825z" transform="translate(-.025 .05)" style="fill-rule:evenodd;fill:#910004"/>
                        <circle id="타원_272" data-name="타원 272" cx="17.761" cy="17.761" r="17.761" transform="translate(10.627 9.855)" style="fill:#910004"/>
                        <circle id="타원_273" data-name="타원 273" cx="11.303" cy="11.303" r="11.303" transform="translate(17.109 16.26)" style="fill:#fff"/>
                    </g>
                    <path id="사각형_1863" data-name="사각형 1863" style="fill:none" d="M0 0h72v71.851H0z"/>
                </g>
            </g>
            <path id="사각형_1875" data-name="사각형 1875" transform="translate(0 60)" style="fill:none" d="M0 0h924v1180H0z"/>
        </g>
    </g>
</svg>
