<svg xmlns="http://www.w3.org/2000/svg" width="88" height="88" viewBox="0 0 88 88">
    <defs>
        <clipPath id="clip-path">
            <path id="패스_2794" data-name="패스 2794" d="M0 33.17h72v-88H0z" transform="translate(0 54.83)" style="fill:none"/>
        </clipPath>
        <style>
            
        </style>
    </defs>
    <g id="그룹_1045" data-name="그룹 1045" transform="translate(-129 -220)">
        <g id="그룹_1013" data-name="그룹 1013">
            <path id="합치기_6" data-name="합치기 6" d="M-2862.556 3185.7h.333a36.8 36.8 0 0 1-11.777-27.084c0-20.223 16.117-36.615 36-36.615s36 16.393 36 36.615a36.8 36.8 0 0 1-11.777 27.087h.33l-25.271 24.3z" transform="translate(3011.001 -2902)" style="fill:#e2898c"/>
            <g id="그룹_1011" data-name="그룹 1011" transform="translate(152.681 264.665)">
                <g id="그룹_1004" data-name="그룹 1004" transform="translate(0 -26.915)">
                    <path id="패스_2825" data-name="패스 2825" d="M14.969 0 1.018 4.412h-25.685v35H.941v.011l14.005 3.821L14.969 0z" transform="translate(24.667)" style="fill:#fff"/>
                </g>
                <g id="그룹_1012" data-name="그룹 1012" transform="translate(3.007 -24.461)">
                    <g id="그룹_1005" data-name="그룹 1005" transform="translate(31.368 15.764)">
                        <path id="패스_2826" data-name="패스 2826" d="M1.07.641A1.555 1.555 0 0 1-.346 2.3 1.577 1.577 0 0 1-1.763.6 1.524 1.524 0 0 1-.346-1.056 1.6 1.6 0 0 1 1.07.641" transform="translate(1.763 1.056)" style="fill:#e2898c"/>
                    </g>
                    <g id="그룹_1006" data-name="그룹 1006" transform="translate(23.139)">
                        <path id="패스_2827" data-name="패스 2827" d="M0 0v40.8" style="fill:#ececec;stroke:#e2898c;stroke-width:.978px"/>
                    </g>
                    <g id="그룹_1007" data-name="그룹 1007" transform="translate(0 16.478)">
                        <path id="패스_2828" data-name="패스 2828" d="M.516 1.033A1.367 1.367 0 0 1-.851-.335 1.367 1.367 0 0 1 .516-1.7 1.367 1.367 0 0 1 1.884-.335 1.367 1.367 0 0 1 .516 1.033" transform="translate(.851 1.702)" style="fill:#e2898c"/>
                    </g>
                    <g id="그룹_1008" data-name="그룹 1008" transform="translate(.887 12.514)">
                        <path id="패스_2829" data-name="패스 2829" d="M.023 2.247.672.891A.629.629 0 0 1 1.508.6l4.608 2.2 3.402-4a.593.593 0 0 1 .145-.125 1.665 1.665 0 0 1 .493-.553L12.319-3.4a1.674 1.674 0 0 1 2.327.407l5.086 7.237a1.678 1.678 0 0 1-.016 1.939 1.635 1.635 0 0 1-.08.423l-2.146 6.478 5.545 1.747a1.674 1.674 0 0 1 1.091 2.094l-.069.219a1.674 1.674 0 0 1-2.094 1.091l-7.387-2.327a1.675 1.675 0 0 1-1.091-2.1l.067-.217a1.658 1.658 0 0 1 .28-.524 1.634 1.634 0 0 1 .082-.543l.85-2.566-3.81 2.855 2.193 8.352a1.675 1.675 0 0 1-1.191 2.041l-.222.058A1.676 1.676 0 0 1 9.7 22.076l-2.52-9.6a1.676 1.676 0 0 1 .76-1.858l.026-.021 5.844-4.382-3.159-4.5-3.513 4.143a.626.626 0 0 1-.882.072l-.014-.011L.317 3.083a.629.629 0 0 1-.294-.836" transform="translate(.038 3.703)" style="fill:#e2898c"/>
                    </g>
                    <g id="그룹_1009" data-name="그룹 1009" transform="translate(6.981 7.46)">
                        <path id="패스_2830" data-name="패스 2830" d="M.517 2.184A3.173 3.173 0 0 1-.288-2.23a3.173 3.173 0 0 1 4.416-.8 3.174 3.174 0 0 1 .8 4.414 3.174 3.174 0 0 1-4.414.8" transform="translate(.852 3.598)" style="fill:#e2898c"/>
                    </g>
                </g>
            </g>
        </g>
        <path id="사각형_1988" data-name="사각형 1988" transform="translate(129 220)" style="fill:none" d="M0 0h88v88H0z"/>
    </g>
</svg>
