<svg xmlns="http://www.w3.org/2000/svg" width="40" height="40" viewBox="0 0 40 40">
    <defs>
        <clipPath id="clip-path">
            <circle id="타원_267" data-name="타원 267" cx="20" cy="20" r="20" style="stroke:#910004;stroke-width:6px;fill:#fff"/>
        </clipPath>
        <clipPath id="clip-path-2">
            <path id="사각형_1939" data-name="사각형 1939" style="fill:#ff2300" d="M0 0h36v34.183H0z"/>
        </clipPath>
        <clipPath id="clip-path-3">
            <path id="사각형_1938" data-name="사각형 1938" style="fill:#ff2300" d="M0 0h36v18.179H0z"/>
        </clipPath>
        <style>
            
        </style>
    </defs>
    <g id="그룹_864" data-name="그룹 864" transform="translate(-69 -554.663)">
        <g id="그룹_632" data-name="그룹 632" transform="translate(32 124.663)">
            <g id="그룹_501" data-name="그룹 501" transform="translate(-99 -66)">
                <g id="패스_1150" data-name="패스 1150" style="fill:#fff">
                    <path d="M20 39a18.938 18.938 0 0 1-13.435-5.565A18.938 18.938 0 0 1 1 20 18.938 18.938 0 0 1 6.565 6.565 18.938 18.938 0 0 1 20 1a18.938 18.938 0 0 1 13.435 5.565A18.938 18.938 0 0 1 39 20a18.938 18.938 0 0 1-5.565 13.435A18.938 18.938 0 0 1 20 39z" style="stroke:none" transform="translate(136 496)"/>
                    <path d="M20 2A17.882 17.882 0 0 0 7.272 7.272C3.872 10.672 2 15.192 2 20s1.872 9.328 5.272 12.728C10.672 36.128 15.192 38 20 38s9.328-1.872 12.728-5.272C36.128 29.328 38 24.808 38 20s-1.872-9.328-5.272-12.728C29.328 3.872 24.808 2 20 2m0-2c11.046 0 20 8.954 20 20s-8.954 20-20 20S0 31.046 0 20 8.954 0 20 0z" style="fill:#910004;stroke:none" transform="translate(136 496)"/>
                </g>
            </g>
        </g>
        <g id="그룹_859" data-name="그룹 859">
            <g id="그룹_795" data-name="그룹 795" transform="translate(71 558.74)">
                <g id="그룹_794" data-name="그룹 794" style="clip-path:url(#clip-path-2)">
                    <g id="그룹_793" data-name="그룹 793" transform="translate(0 16.004)" style="isolation:isolate">
                        <g id="그룹_792" data-name="그룹 792">
                            <g id="그룹_791" data-name="그룹 791" style="clip-path:url(#clip-path-3)">
                                <path id="패스_2549" data-name="패스 2549" d="M18 60.308a18.18 18.18 0 0 0 18-15.65c-.217-.19-.425-.4-.642-.617a4.892 4.892 0 0 0-7.758 0 3.482 3.482 0 0 1-5.721 0 4.892 4.892 0 0 0-7.758 0 3.711 3.711 0 0 1-2.86 1.5 3.711 3.711 0 0 1-2.86-1.5 5.027 5.027 0 0 0-3.879-1.911 5.027 5.027 0 0 0-3.88 1.91c-.216.219-.425.427-.642.618a18.18 18.18 0 0 0 18 15.65" transform="translate(0 -42.129)" style="fill:#ff2300"/>
                            </g>
                        </g>
                    </g>
                    <path id="패스_2550" data-name="패스 2550" d="M37.977 5.492 39.875 0l1.755 5.427c.47 1.753.893 2.573-.106 3.74a2.369 2.369 0 0 1-3.488-.153c-.65-.987-.767-1.507-.059-3.522M31.995 9.88l1.9-5.492 1.755 5.427c.469 1.754.893 2.572-.106 3.741a2.368 2.368 0 0 1-3.487-.154c-.65-.986-.767-1.507-.059-3.522m-5.985-4.388L27.91 0l1.755 5.427c.468 1.754.893 2.572-.107 3.741a2.368 2.368 0 0 1-3.487-.153c-.65-.987-.767-1.507-.059-3.522" transform="translate(-15.832)" style="fill-rule:evenodd;fill:#ff2300"/>
                </g>
            </g>
        </g>
    </g>
</svg>
