<svg xmlns="http://www.w3.org/2000/svg" xmlns:xlink="http://www.w3.org/1999/xlink" width="40" height="40" viewBox="0 0 40 40">
  <defs>
    <clipPath id="clip-path">
      <rect id="사각형_1835" data-name="사각형 1835" width="18.522" height="23.958" fill="#ff2300"/>
    </clipPath>
  </defs>
  <g id="그룹_519" data-name="그룹 519" transform="translate(-153 -348.709)">
    <g id="그룹_501" data-name="그룹 501" transform="translate(153 348.709)">
      <g id="타원_268" data-name="타원 268" transform="translate(0)" fill="#fff" stroke="#910004" stroke-width="2">
        <circle cx="20" cy="20" r="20" stroke="none"/>
        <circle cx="20" cy="20" r="19" fill="none"/>
      </g>
    </g>
    <g id="그룹_518" data-name="그룹 518" transform="translate(163.571 355.751)">
      <g id="그룹_513" data-name="그룹 513" clip-path="url(#clip-path)">
        <path id="패스_1141" data-name="패스 1141" d="M16.684,9.243l-1-1.288-.066,1.63c-.018.445-.193,2.192-1.4,2.089-.652-.055-1.311-.674-.586-2.493,1.246-3.129.075-3.913-1.73-5.41A3.44,3.44,0,0,1,10.987,0s-4.5.426-4.317,4.743c.125,2.952-3.831.426-2.855,7.347.075.528.217.934.007,1.257a.751.751,0,0,1-.571.361.3.3,0,0,1-.048,0c-.31-.049-.865-.675-1.188-1.229l-.591-1.017-.47,1.079c-1.217,2.794-1.268,5.2-.15,7.147,2.039,3.553,7.194,4.2,7.415,4.229a9.581,9.581,0,0,0,.982.044h0c1.672,0,5.776-.358,7.8-3.674a10.042,10.042,0,0,0-.313-11.041M8.818,22.9c-3.137-.274-3.4-1.959-3.707-3.1a6.419,6.419,0,0,1,1.642-5.115,3.839,3.839,0,0,0,1.6-3.283c0-1.875,2.23-3.047,2.23-3.047s-1.067,1.867-.125,3.023a3.1,3.1,0,0,1,.669,3.416c-1.388,2.83.34,3.05,1.277,5.006.547,1.143-.234,3.394-3.59,3.1" transform="translate(0)" fill="#ff2300"/>
      </g>
    </g>
  </g>
</svg>
